<?xml version="1.0" encoding="UTF-8" standalone="no"?>
<!-- Created with Inkscape (http://www.inkscape.org/) -->

<svg
   width="13.229167mm"
   height="13.229166mm"
   viewBox="0 0 13.229167 13.229166"
   version="1.1"
   id="svg1"
   xml:space="preserve"
   inkscape:version="1.3.2 (091e20ef0f, 2023-11-25, custom)"
   sodipodi:docname="bunyi.svg"
   inkscape:export-filename="../../code block/ui/blok kode/sintaks/ikon/pintu.svg"
   inkscape:export-xdpi="90"
   inkscape:export-ydpi="90"
   xmlns:inkscape="http://www.inkscape.org/namespaces/inkscape"
   xmlns:sodipodi="http://sodipodi.sourceforge.net/DTD/sodipodi-0.dtd"
   xmlns="http://www.w3.org/2000/svg"
   xmlns:svg="http://www.w3.org/2000/svg"><sodipodi:namedview
     id="namedview1"
     pagecolor="#000000"
     bordercolor="#000000"
     borderopacity="0.25"
     inkscape:showpageshadow="2"
     inkscape:pageopacity="0.0"
     inkscape:pagecheckerboard="true"
     inkscape:deskcolor="#d1d1d1"
     inkscape:document-units="mm"
     inkscape:zoom="1"
     inkscape:cx="268"
     inkscape:cy="190"
     inkscape:window-width="1346"
     inkscape:window-height="702"
     inkscape:window-x="10"
     inkscape:window-y="56"
     inkscape:window-maximized="0"
     inkscape:current-layer="layer1"
     showgrid="false" /><defs
     id="defs1" /><g
     inkscape:label="Lapis 1"
     inkscape:groupmode="layer"
     id="layer1"
     transform="translate(-14.41231,-27.555699)"><path
       style="fill:#fffffe;fill-opacity:1;stroke-width:0.0507401"
       d="m 20.526828,38.627295 c -0.0287,-0.0071 -0.07441,-0.02546 -0.101573,-0.04074 -0.02726,-0.01534 -0.38294,-0.3829 -0.793596,-0.820144 -0.40931,-0.435813 -0.992998,-1.056063 -1.297085,-1.378334 l -0.552886,-0.585945 -8.8e-4,-1.629574 -8.8e-4,-1.629573 0.09062,-0.09573 c 0.04984,-0.05266 0.323116,-0.343334 0.607279,-0.645957 0.284163,-0.302624 0.743649,-0.791874 1.021079,-1.087223 0.27743,-0.295349 0.589977,-0.628307 0.69455,-0.739907 0.15262,-0.162878 0.203615,-0.20871 0.25848,-0.232312 0.216468,-0.09312 0.442615,-0.0049 0.54756,0.213709 0.02098,0.0437 0.02256,0.337866 0.02256,4.20201 0,4.063226 -5.93e-4,4.156501 -0.02574,4.221774 -0.03349,0.08684 -0.1262,0.184905 -0.208113,0.220144 -0.07823,0.03366 -0.190006,0.04554 -0.261346,0.0278 z m 3.302686,-0.926311 c -0.117222,-0.18477 -0.210861,-0.337949 -0.208087,-0.3404 0.0028,-0.0023 0.02619,-0.01514 0.05203,-0.0282 0.07374,-0.03724 0.344216,-0.22398 0.469873,-0.324412 0.145932,-0.116634 0.42363,-0.394179 0.541629,-0.541323 0.421274,-0.525335 0.682954,-1.133475 0.78274,-1.819084 0.01708,-0.117334 0.02345,-0.246804 0.02345,-0.476585 0,-0.338954 -0.01644,-0.499733 -0.08098,-0.792072 -0.211122,-0.956265 -0.821268,-1.809949 -1.662872,-2.326601 -0.06646,-0.04079 -0.119476,-0.08024 -0.117829,-0.08766 0.0017,-0.0074 0.0971,-0.161837 0.212126,-0.34315 l 0.209129,-0.329659 0.123499,0.07574 c 0.487009,0.298659 0.956455,0.73371 1.286515,1.192257 0.427817,0.594358 0.692326,1.247976 0.804065,1.986893 0.03636,0.240428 0.05054,0.747141 0.02785,0.995212 -0.128872,1.409147 -0.873081,2.634288 -2.061904,3.394371 -0.08694,0.05558 -0.164833,0.10096 -0.17309,0.100834 -0.0083,-1.52e-4 -0.110922,-0.151408 -0.228144,-0.336172 z m -0.876367,-1.375373 -0.216873,-0.34122 0.09605,-0.053 c 0.523828,-0.289061 0.90254,-0.818826 1.011579,-1.415053 0.03079,-0.168367 0.03079,-0.522305 0,-0.690674 -0.04905,-0.268197 -0.160624,-0.543429 -0.313224,-0.772652 -0.162119,-0.243522 -0.441104,-0.502209 -0.697562,-0.646809 l -0.09421,-0.05312 0.220432,-0.345149 0.220432,-0.345148 0.102523,0.06056 c 0.753537,0.445116 1.264384,1.219945 1.377429,2.089222 0.03786,0.291174 0.02301,0.646487 -0.03999,0.956343 -0.01195,0.05879 -0.0491,0.189611 -0.08253,0.290709 -0.18029,0.545077 -0.530468,1.033842 -0.986016,1.376237 -0.130706,0.09824 -0.344044,0.232574 -0.367739,0.231554 -0.0074,-2.64e-4 -0.111018,-0.154128 -0.230299,-0.341801 z m -6.569442,-0.551138 c -0.150598,-0.03245 -0.274972,-0.103417 -0.396188,-0.226027 -0.115831,-0.117163 -0.176826,-0.22082 -0.214066,-0.363789 -0.03102,-0.119069 -0.03102,-1.908244 0,-2.027314 0.07549,-0.289818 0.298216,-0.509258 0.593551,-0.584792 0.08228,-0.02105 0.148268,-0.02598 0.347761,-0.02598 h 0.246215 v 1.62442 1.624423 l -0.245006,-9.6e-4 c -0.155659,-6.55e-4 -0.276827,-0.0079 -0.332267,-0.01985 z m 5.896056,-0.512839 c -0.03592,-0.05086 -0.432098,-0.674181 -0.432098,-0.67984 0,-0.0026 0.0287,-0.0084 0.06377,-0.01316 0.196288,-0.02642 0.356955,-0.235872 0.333566,-0.434876 -0.01774,-0.150881 -0.0921,-0.257794 -0.225793,-0.3246 -0.04502,-0.0225 -0.102035,-0.0409 -0.126699,-0.0409 -0.02466,0 -0.04484,-0.0032 -0.04484,-0.0072 0,-0.0051 0.421803,-0.674458 0.450758,-0.715283 0.0017,-0.0023 0.03534,0.01209 0.07484,0.03206 0.31944,0.161568 0.541614,0.43076 0.64482,0.781278 0.02602,0.08839 0.03057,0.134727 0.03057,0.3119 0,0.178234 -0.0045,0.223498 -0.03128,0.315487 -0.100223,0.344111 -0.329896,0.618667 -0.655383,0.783452 l -0.05624,0.02846 z"
       id="path16"
       inkscape:label="bunyi"
       inkscape:export-filename="../../code block/ui/blok kode/sintaks/ikon/bunyi.svg"
       inkscape:export-xdpi="31.520655"
       inkscape:export-ydpi="31.520655"
       sodipodi:insensitive="true" /></g></svg>
