<?xml version="1.0" encoding="UTF-8" standalone="no"?>
<!-- Created with Inkscape (http://www.inkscape.org/) -->

<svg
   width="13.229167mm"
   height="13.229166mm"
   viewBox="0 0 13.229167 13.229166"
   version="1.1"
   id="svg1"
   xml:space="preserve"
   inkscape:version="1.3.2 (091e20ef0f, 2023-11-25, custom)"
   sodipodi:docname="notifikasi.svg"
   inkscape:export-filename="../../code block/ui/blok kode/sintaks/ikon/pintu.svg"
   inkscape:export-xdpi="90"
   inkscape:export-ydpi="90"
   xmlns:inkscape="http://www.inkscape.org/namespaces/inkscape"
   xmlns:sodipodi="http://sodipodi.sourceforge.net/DTD/sodipodi-0.dtd"
   xmlns="http://www.w3.org/2000/svg"
   xmlns:svg="http://www.w3.org/2000/svg"><sodipodi:namedview
     id="namedview1"
     pagecolor="#000000"
     bordercolor="#000000"
     borderopacity="0.25"
     inkscape:showpageshadow="2"
     inkscape:pageopacity="0.0"
     inkscape:pagecheckerboard="true"
     inkscape:deskcolor="#d1d1d1"
     inkscape:document-units="mm"
     inkscape:zoom="1"
     inkscape:cx="268"
     inkscape:cy="190"
     inkscape:window-width="1346"
     inkscape:window-height="702"
     inkscape:window-x="10"
     inkscape:window-y="56"
     inkscape:window-maximized="0"
     inkscape:current-layer="layer1"
     showgrid="false" /><defs
     id="defs1" /><g
     inkscape:label="Lapis 1"
     inkscape:groupmode="layer"
     id="layer1"
     transform="translate(-1.2787052,-14.422096)"><path
       style="fill:#ffffff;stroke-width:0.079698"
       d="M 7.6735048,26.270286 C 7.3899969,26.216613 7.0893546,25.993239 6.9519419,25.734173 6.8779194,25.594618 6.8194922,25.398202 6.8194922,25.288914 v -0.06938 h 1.0754225 1.0754225 l -3.152e-4,0.04745 c -6.239e-4,0.096 -0.064382,0.315071 -0.1288505,0.442783 -0.084569,0.167529 -0.3045512,0.387156 -0.4649565,0.464205 -0.2274576,0.109256 -0.4634751,0.141604 -0.7027142,0.09631 z M 4.1835166,24.651584 C 3.9526032,24.581344 3.805018,24.37936 3.805018,24.133576 c 0,-0.208001 0.043665,-0.273626 0.4630101,-0.695863 L 4.64499,23.058153 4.65334,21.497737 c 0.00907,-1.693716 0.011718,-1.737082 0.1354035,-2.214106 0.2893892,-1.116103 1.0362056,-1.945786 2.0321829,-2.257674 0.3003724,-0.09406 0.2675249,-0.04858 0.2759101,-0.38205 0.00683,-0.27156 0.011502,-0.299838 0.068881,-0.416702 0.0813,-0.165581 0.2142613,-0.294925 0.3875763,-0.377032 0.1279446,-0.06062 0.1602674,-0.06694 0.3420775,-0.06694 0.1838021,0 0.212522,0.0058 0.3396018,0.06834 0.1676866,0.08256 0.3158626,0.233783 0.3934214,0.401506 0.049635,0.107338 0.056666,0.151903 0.064052,0.405934 l 0.00829,0.28536 0.2201047,0.0685 c 0.4555361,0.141758 0.8313925,0.366464 1.1821068,0.706722 0.43578,0.42279 0.73213,0.950463 0.89443,1.592598 0.117341,0.464264 0.123797,0.580786 0.123797,2.234285 v 1.512111 l 0.381033,0.379342 c 0.209568,0.208638 0.399527,0.414895 0.422129,0.458349 0.106573,0.204892 0.06192,0.445869 -0.114387,0.617296 -0.06646,0.06462 -0.14271,0.115975 -0.195684,0.131793 -0.0673,0.02009 -0.905881,0.0255 -3.7323483,0.0241 -2.0050555,-9.6e-4 -3.6693398,-0.009 -3.6984088,-0.01789 z"
       id="path12"
       inkscape:label="notifikasi"
       inkscape:export-filename="../../code block/ui/blok kode/sintaks/ikon/notifikasi.svg"
       inkscape:export-xdpi="31.520655"
       inkscape:export-ydpi="31.520655"
       sodipodi:insensitive="true" /></g></svg>
