<?xml version="1.0" encoding="UTF-8" standalone="no"?>
<!-- Created with Inkscape (http://www.inkscape.org/) -->

<svg
   width="13.229167mm"
   height="13.229166mm"
   viewBox="0 0 13.229167 13.229166"
   version="1.1"
   id="svg1"
   xml:space="preserve"
   inkscape:version="1.3.2 (091e20ef0f, 2023-11-25, custom)"
   sodipodi:docname="objek.svg"
   inkscape:export-filename="../../code block/ui/blok kode/sintaks/ikon/pintu.svg"
   inkscape:export-xdpi="90"
   inkscape:export-ydpi="90"
   xmlns:inkscape="http://www.inkscape.org/namespaces/inkscape"
   xmlns:sodipodi="http://sodipodi.sourceforge.net/DTD/sodipodi-0.dtd"
   xmlns="http://www.w3.org/2000/svg"
   xmlns:svg="http://www.w3.org/2000/svg"><sodipodi:namedview
     id="namedview1"
     pagecolor="#000000"
     bordercolor="#000000"
     borderopacity="0.25"
     inkscape:showpageshadow="2"
     inkscape:pageopacity="0.0"
     inkscape:pagecheckerboard="true"
     inkscape:deskcolor="#d1d1d1"
     inkscape:document-units="mm"
     inkscape:zoom="1"
     inkscape:cx="268"
     inkscape:cy="190"
     inkscape:window-width="1346"
     inkscape:window-height="702"
     inkscape:window-x="10"
     inkscape:window-y="56"
     inkscape:window-maximized="0"
     inkscape:current-layer="layer1"
     showgrid="false" /><defs
     id="defs1" /><g
     inkscape:label="Lapis 1"
     inkscape:groupmode="layer"
     id="layer1"
     transform="translate(-14.41231,-1.2884893)"><path
       style="fill:#ffffff;stroke-width:0.0888544"
       d="m 17.287238,11.732296 c -1.436485,-0.720035 -1.431332,-0.716889 -1.497367,-0.914115 -0.03611,-0.107868 -0.03755,-3.0540427 -0.0017,-3.1836863 0.05688,-0.204847 0.09577,-0.228918 1.519973,-0.9408828 1.28893,-0.6443431 1.327924,-0.6619741 1.464034,-0.6619741 0.136109,0 0.175102,0.01763 1.464036,0.6619741 1.424202,0.7119648 1.463087,0.7360358 1.51997,0.9408828 0.036,0.1296436 0.03456,3.0758183 -0.0017,3.1836863 -0.06611,0.197456 -0.06002,0.19375 -1.503161,0.915404 -1.277332,0.638739 -1.369227,0.680792 -1.48509,0.679584 -0.113793,-0.0012 -0.230091,-0.05471 -1.479291,-0.680873 z m 1.108938,-1.410125 V 9.1937751 L 17.455796,8.7234709 16.515418,8.2531675 v 1.1345279 1.1345276 l 0.922747,0.462849 c 0.507509,0.254567 0.93068,0.463445 0.940377,0.464173 0.0097,7.24e-4 0.01764,-0.506456 0.01764,-1.127074 z M 19.6423,8.1239178 c 0.478349,-0.2392427 0.869726,-0.4402207 0.869726,-0.4466181 0,-0.0064 -0.391432,-0.2074028 -0.869848,-0.4466797 L 18.772327,6.7955708 17.902477,7.23062 c -0.478419,0.2392769 -0.869851,0.4402822 -0.869851,0.446679 0,0.00878 1.704164,0.8739858 1.733946,0.8803284 0.0033,7.239e-4 0.397379,-0.1944667 0.875728,-0.4337096 z m 3.032598,2.7637852 c -0.122836,-0.01037 -0.289459,-0.02653 -0.370275,-0.03592 l -0.146932,-0.01707 V 10.45786 10.081012 l 0.08816,0.01388 c 0.226458,0.03564 0.764356,0.06662 1.02363,0.05896 0.240973,-0.0071 0.304724,-0.01717 0.39735,-0.06261 0.235998,-0.1157876 0.408034,-0.3622826 0.434966,-0.6232226 0.01148,-0.11113 -0.03324,-0.2942297 -0.391867,-1.6045909 -0.222644,-0.8135311 -0.412176,-1.4870022 -0.421173,-1.4966021 -0.009,-0.0096 -0.264526,0.3880771 -0.567835,0.8837271 l -0.551474,0.9011819 -0.01241,-0.295991 c -0.01086,-0.2589109 -0.0206,-0.3136605 -0.07773,-0.4370469 -0.03594,-0.077582 -0.09074,-0.1676063 -0.121773,-0.2000552 l -0.05642,-0.058998 0.58818,-0.9636633 c 0.3235,-0.5300145 0.614561,-0.9874664 0.646805,-1.0165591 0.07942,-0.071659 0.220663,-0.071659 0.300064,0 0.08056,0.0727 2.814741,4.5456315 2.844179,4.6528685 0.120466,0.4388566 -0.722814,0.8643436 -2.020066,1.0192526 -0.356017,0.04251 -1.264548,0.06323 -1.585386,0.03616 z M 20.998835,6.6527716 c -0.388754,-0.1956081 -0.55413,-0.2902341 -0.542205,-0.310238 0.0094,-0.015827 0.05723,-0.082282 0.106205,-0.1476702 0.262513,-0.3504859 0.414384,-0.8962161 0.34965,-1.2564157 -0.09295,-0.5172025 -0.471439,-0.7978941 -1.077346,-0.7989744 -0.862497,-0.00154 -1.604197,0.5987114 -1.777694,1.4386646 -0.02057,0.099637 -0.03742,0.2161457 -0.03742,0.2589072 0,0.076811 -0.0044,0.079927 -0.362319,0.2584604 -0.293048,0.1461652 -0.36496,0.1738202 -0.376151,0.1446597 -0.02465,-0.064213 -0.01442,-0.3674305 0.02014,-0.5965314 0.132679,-0.8801201 0.678371,-1.6192182 1.474995,-1.9977567 1.285446,-0.6108206 2.829393,-0.078224 3.474425,1.1985329 0.09271,0.1835104 0.212214,0.5304511 0.212214,0.6161102 0,0.050056 -0.860743,1.477301 -0.889529,1.4749693 -0.0086,-7.239e-4 -0.2673,-0.127918 -0.57495,-0.2827179 z"
       id="path8"
       inkscape:label="objek"
       inkscape:export-filename="../../code block/ui/blok kode/sintaks/ikon/objek.svg"
       inkscape:export-xdpi="31.520655"
       inkscape:export-ydpi="31.520655"
       sodipodi:insensitive="true" /></g></svg>
