<?xml version="1.0" encoding="UTF-8" standalone="no"?>
<!-- Created with Inkscape (http://www.inkscape.org/) -->

<svg
   width="13.229167mm"
   height="13.229166mm"
   viewBox="0 0 13.229167 13.229166"
   version="1.1"
   id="svg1"
   xml:space="preserve"
   inkscape:version="1.3.2 (091e20ef0f, 2023-11-25, custom)"
   sodipodi:docname="permainan.svg"
   inkscape:export-filename="../../code block/ui/blok kode/sintaks/ikon/pintu.svg"
   inkscape:export-xdpi="90"
   inkscape:export-ydpi="90"
   xmlns:inkscape="http://www.inkscape.org/namespaces/inkscape"
   xmlns:sodipodi="http://sodipodi.sourceforge.net/DTD/sodipodi-0.dtd"
   xmlns="http://www.w3.org/2000/svg"
   xmlns:svg="http://www.w3.org/2000/svg"><sodipodi:namedview
     id="namedview1"
     pagecolor="#000000"
     bordercolor="#000000"
     borderopacity="0.25"
     inkscape:showpageshadow="2"
     inkscape:pageopacity="0.0"
     inkscape:pagecheckerboard="true"
     inkscape:deskcolor="#d1d1d1"
     inkscape:document-units="mm"
     inkscape:zoom="2.8284271"
     inkscape:cx="52.679455"
     inkscape:cy="61.51829"
     inkscape:window-width="1346"
     inkscape:window-height="702"
     inkscape:window-x="10"
     inkscape:window-y="56"
     inkscape:window-maximized="0"
     inkscape:current-layer="layer1" /><defs
     id="defs1" /><g
     inkscape:label="Lapis 1"
     inkscape:groupmode="layer"
     id="layer1"
     transform="translate(-1.2787052,-1.2884893)"><path
       style="fill:#ffffff;stroke-width:0.0496772"
       d="M 3.7385595,11.664951 C 3.4245551,11.60763 3.1196419,11.427138 2.9264297,11.184219 2.7911347,11.01412 2.6821493,10.761016 2.6496039,10.541338 2.631175,10.417022 2.6188135,10.591567 2.8083532,8.2996048 2.8875607,7.3417524 2.9583976,6.4841219 2.9657658,6.3937599 3.0139853,5.8024882 3.1791197,5.4186749 3.543274,5.051476 3.6266021,4.9674517 3.7420992,4.8645613 3.7999321,4.8228308 3.9259122,4.7319265 3.943971,4.7113017 3.9723407,4.6259222 4.0646949,4.3479579 4.2612424,4.1753993 4.5192891,4.1457289 c 0.140551,-0.016161 0.6946048,-0.016161 0.8351559,0 0.2569955,0.02955 0.4487282,0.1961952 0.5438597,0.4726991 0.030109,0.087469 0.050662,0.1103095 0.2020209,0.2243353 0.065188,0.049111 0.1598233,0.1312721 0.2102977,0.1825787 l 0.091773,0.093285 1.4906128,9.44e-5 1.4906131,9.44e-5 0.092367,-0.092921 c 0.05081,-0.051106 0.145983,-0.1333089 0.211509,-0.1826718 0.152001,-0.1145107 0.172512,-0.1372663 0.202624,-0.2247927 0.08944,-0.2599539 0.2784188,-0.4330659 0.5145528,-0.4713478 0.11075,-0.017955 0.7829,-0.017978 0.89352,-3.12e-5 0.232503,0.037722 0.417484,0.2034918 0.508833,0.4559826 0.03667,0.1013784 0.07058,0.1419384 0.181469,0.2171354 0.104145,0.070619 0.36398,0.3313578 0.459364,0.4609678 0.178142,0.2420559 0.301792,0.5506783 0.348351,0.8694643 0.01463,0.100288 0.03785,0.364859 0.157921,1.8006952 0.04354,0.5206293 0.161212,1.9753288 0.18506,2.2877364 0.01765,0.231036 0.0062,0.340194 -0.05473,0.523984 -0.146112,0.440484 -0.467608,0.745275 -0.92574,0.877646 -0.09151,0.02644 -0.132296,0.03007 -0.327952,0.0293 -0.203918,-6.48e-4 -0.233612,-0.004 -0.33981,-0.03642 -0.282262,-0.08619 -0.560389,-0.27796 -0.702341,-0.484282 -0.101163,-0.147041 -0.324669,-0.638068 -0.9695418,-2.1300427 -0.02761,-0.063894 -0.05766,-0.1150105 -0.0676,-0.1150105 -0.0098,0 -0.05193,0.017196 -0.09355,0.038197 -0.153224,0.077345 -0.254364,0.099813 -0.4493347,0.099813 -0.2016446,0 -0.3011271,-0.023328 -0.4666054,-0.1094365 C 8.6080483,8.8630905 8.4208449,8.6719872 8.3372313,8.5196003 L 8.2742137,8.4047455 H 7.8942134 7.514213 L 7.4525224,8.5155382 C 7.3525663,8.6950457 7.1822115,8.8649528 7.0198219,8.9471063 6.8767045,9.019507 6.7716482,9.0422184 6.5798375,9.0422184 c -0.1949706,0 -0.2961142,-0.022452 -0.4493349,-0.099813 -0.041617,-0.021024 -0.084065,-0.038198 -0.09433,-0.038198 -0.010253,0 -0.027546,0.022225 -0.038434,0.049414 -0.030855,0.077134 -0.5036058,1.1585396 -0.6535431,1.4949796 -0.1560726,0.350215 -0.2883924,0.619057 -0.3458586,0.702709 -0.1406776,0.204773 -0.4232687,0.398816 -0.7008731,0.481258 -0.096942,0.02878 -0.1481691,0.03531 -0.3069476,0.03907 -0.1048228,0.0026 -0.2182012,-6.49e-4 -0.2519568,-0.0067 z M 6.7257387,8.7068102 C 6.8662962,8.6801405 7.026405,8.5738967 7.1088959,8.4525303 7.2029697,8.314111 7.2232121,8.2486763 7.2235722,8.0818319 7.2238967,7.9017015 7.2047867,7.8327335 7.1183763,7.7035544 6.9398324,7.4366081 6.5700879,7.3430145 6.2782661,7.4908915 6.1846952,7.5383064 6.0523235,7.667213 6.0049898,7.7570138 c -0.050102,0.095054 -0.069286,0.1850458 -0.068874,0.3230791 6.489e-4,0.1979622 0.040193,0.2973568 0.1750432,0.4393192 0.061671,0.064926 0.1166942,0.1083398 0.1713281,0.1351911 0.1179467,0.057966 0.299894,0.079396 0.4432516,0.052207 z m 2.62772,2.012e-4 c 0.143834,-0.027286 0.299599,-0.1300129 0.382855,-0.2525149 0.09759,-0.1435846 0.115653,-0.2038022 0.11601,-0.3866678 L 9.8526097,7.9083396 9.7977297,7.798381 C 9.6235007,7.449307 9.2432339,7.3206535 8.8997792,7.4945805 8.7486447,7.5711146 8.6023996,7.7671398 8.5659154,7.9420888 c -0.065986,0.3164247 0.1290169,0.6428911 0.4503441,0.7539498 0.076401,0.02641 0.2295343,0.031406 0.3371862,0.010966 z M 11.000815,7.6970395 c 0.08037,-0.042837 0.135179,-0.108515 0.160003,-0.1917262 0.0243,-0.081466 0.02417,-0.1046638 -9.6e-4,-0.1892865 -0.07193,-0.2422071 -0.393205,-0.3040437 -0.561029,-0.1079796 -0.155489,0.1816554 -0.04787,0.4810563 0.188579,0.5246362 0.07863,0.014503 0.137909,0.00461 0.213392,-0.035644 z m -5.9510951,0.018072 c 0.065292,-0.019402 0.1428416,-0.085135 0.175494,-0.1487823 0.022387,-0.043658 0.039787,-0.288944 0.040034,-0.5646666 l 1.98e-4,-0.2398744 0.1150072,-6.489e-4 c 0.3011464,-0.00195 0.6423492,-0.022549 0.6867629,-0.041409 0.058745,-0.02495 0.1367517,-0.1111561 0.1575197,-0.174086 0.00908,-0.027546 0.014016,-0.090369 0.011291,-0.1441978 -0.00386,-0.076564 -0.01181,-0.105959 -0.040294,-0.1489942 C 6.1091312,6.1215925 6.0442286,6.1057575 5.5918243,6.1051131 5.4351839,6.1049143 5.2976665,6.1011191 5.286233,6.0967294 5.2683559,6.0898641 5.2654034,6.055481 5.2652411,5.8502836 5.2649913,5.5599118 5.2472991,5.3303931 5.2213887,5.2807591 5.1695094,5.1814146 5.0710815,5.128172 4.9368606,5.1268505 c -0.1133331,-0.0011 -0.1820869,0.027101 -0.2434985,0.099934 -0.073176,0.086787 -0.076323,0.105884 -0.082426,0.500163 -0.00558,0.3598583 -0.00603,0.3649436 -0.033733,0.3707834 -0.015444,0.00326 -0.184822,0.0082 -0.3763924,0.010992 -0.2087014,0.00306 -0.3622141,0.010801 -0.3829951,0.019363 -0.05599,0.023071 -0.1318785,0.097168 -0.1576753,0.1539498 -0.030271,0.066648 -0.032412,0.2120075 -0.00412,0.2798399 0.024074,0.057683 0.088617,0.1282187 0.1439156,0.1572373 0.038275,0.020083 0.360011,0.039622 0.6913214,0.04198 l 0.1129955,6.49e-4 0.00801,0.3581682 c 0.00447,0.2003339 0.014568,0.3813338 0.022906,0.4107419 0.01473,0.052078 0.086719,0.1398858 0.1373974,0.1676197 0.069254,0.037899 0.1828882,0.044783 0.2771502,0.016774 z M 10.012316,6.714649 c 0.07709,-0.038879 0.137842,-0.1117239 0.162721,-0.19512 0.02433,-0.08156 0.0242,-0.1046346 -9.74e-4,-0.1898801 C 10.102213,6.0877081 9.7803707,6.0269768 9.6120667,6.223601 c -0.105043,0.122718 -0.09282,0.3271334 0.02592,0.4336952 0.06488,0.058226 0.08329,0.069078 0.146521,0.086401 0.07558,0.0207 0.147458,0.01155 0.2279513,-0.029038 z m 1.975715,-0.0035 c 0.232882,-0.124147 0.229349,-0.4500939 -0.0062,-0.5714456 -0.0629,-0.032402 -0.08321,-0.036468 -0.157637,-0.031542 -0.313855,0.020771 -0.426704,0.3812021 -0.181204,0.5787521 0.09885,0.079538 0.22471,0.08838 0.345035,0.024237 z M 10.994554,5.7321419 c 0.128017,-0.062726 0.202994,-0.213303 0.174495,-0.3504424 -0.03543,-0.1704937 -0.179595,-0.2765283 -0.351955,-0.2588734 -0.285047,0.029197 -0.392959,0.3700265 -0.178502,0.5637762 0.04665,0.042146 0.08809,0.062183 0.166968,0.080736 0.04385,0.010314 0.128153,-0.00538 0.188994,-0.035196 z"
       id="path11"
       inkscape:label="permainan"
       inkscape:export-filename="../../code block/ui/blok kode/sintaks/ikon/permainan.svg"
       inkscape:export-xdpi="31.520655"
       inkscape:export-ydpi="31.520655"
       sodipodi:insensitive="true" /></g></svg>
