<?xml version="1.0" encoding="UTF-8" standalone="no"?>
<!-- Created with Inkscape (http://www.inkscape.org/) -->

<svg
   width="13.229167mm"
   height="13.229166mm"
   viewBox="0 0 13.229167 13.229166"
   version="1.1"
   id="svg1"
   xml:space="preserve"
   inkscape:version="1.3.2 (091e20ef0f, 2023-11-25, custom)"
   sodipodi:docname="pindahkan_objek.svg"
   inkscape:export-filename="../../code block/ui/blok kode/sintaks/ikon/pintu.svg"
   inkscape:export-xdpi="90"
   inkscape:export-ydpi="90"
   xmlns:inkscape="http://www.inkscape.org/namespaces/inkscape"
   xmlns:sodipodi="http://sodipodi.sourceforge.net/DTD/sodipodi-0.dtd"
   xmlns="http://www.w3.org/2000/svg"
   xmlns:svg="http://www.w3.org/2000/svg"><sodipodi:namedview
     id="namedview1"
     pagecolor="#000000"
     bordercolor="#000000"
     borderopacity="0.25"
     inkscape:showpageshadow="2"
     inkscape:pageopacity="0.0"
     inkscape:pagecheckerboard="true"
     inkscape:deskcolor="#d1d1d1"
     inkscape:document-units="mm"
     inkscape:zoom="1"
     inkscape:cx="268"
     inkscape:cy="190"
     inkscape:window-width="1346"
     inkscape:window-height="702"
     inkscape:window-x="10"
     inkscape:window-y="56"
     inkscape:window-maximized="0"
     inkscape:current-layer="layer1"
     showgrid="false" /><defs
     id="defs1" /><g
     inkscape:label="Lapis 1"
     inkscape:groupmode="layer"
     id="layer1"
     transform="translate(-14.41231,-14.422096)"><path
       style="fill:#ffffff;stroke-width:0.0248304"
       d="m 20.929416,26.282467 c -0.06093,-0.01226 -0.127315,-0.0388 -0.180587,-0.07219 -0.03692,-0.02315 -0.210754,-0.193656 -0.875644,-0.858925 -0.456264,-0.456528 -0.840036,-0.844728 -0.852822,-0.862669 -0.114836,-0.161127 -0.123354,-0.390183 -0.021,-0.564767 0.03499,-0.05969 0.126112,-0.150803 0.185798,-0.185795 0.172028,-0.100854 0.38553,-0.09593 0.553217,0.01278 0.04024,0.02609 0.127403,0.109198 0.407436,0.388526 l 0.356242,0.355345 0.0019,-0.985097 c 0.0019,-0.928798 0.0026,-0.98735 0.01393,-1.024517 0.03218,-0.106508 0.07676,-0.180688 0.150998,-0.251213 0.262366,-0.249218 0.68893,-0.165229 0.838725,0.165144 0.04544,0.100218 0.04193,0.01219 0.04412,1.106018 9.6e-4,0.542906 0.0041,0.987102 0.0066,0.987102 0.0026,0 0.16879,-0.163693 0.369402,-0.363764 0.39616,-0.395078 0.400014,-0.398372 0.508942,-0.434677 0.252746,-0.08424 0.526136,0.0303 0.640464,0.268326 0.04003,0.08335 0.04908,0.125369 0.04908,0.227905 0,0.120566 -0.02175,0.195466 -0.08534,0.293706 -0.02677,0.04139 -1.610946,1.633689 -1.681295,1.689932 -0.122555,0.09798 -0.282837,0.138522 -0.430317,0.108842 z m -3.139245,-3.150996 c -0.01927,-0.0033 -0.05771,-0.01337 -0.08541,-0.0226 -0.112668,-0.03754 -0.07122,6.52e-4 -0.962916,-0.888972 -0.451327,-0.450312 -0.831881,-0.8314 -0.845674,-0.846864 -0.06089,-0.06826 -0.106107,-0.173847 -0.11934,-0.278672 -0.01382,-0.109587 0.01536,-0.237997 0.07618,-0.335033 0.02472,-0.03946 0.177705,-0.195545 0.860129,-0.877574 0.456525,-0.456264 0.844725,-0.840035 0.86267,-0.852821 0.258198,-0.184023 0.632749,-0.08546 0.771281,0.20296 0.04003,0.08335 0.04908,0.125368 0.04908,0.227904 0,0.120677 -0.02188,0.195933 -0.08545,0.293706 -0.01513,0.02328 -0.163915,0.177802 -0.382837,0.39761 l -0.358094,0.359548 0.985064,0.0019 c 1.074111,0.0019 0.991892,-6.52e-4 1.094925,0.03774 0.142119,0.05318 0.267468,0.196165 0.311427,0.355264 0.0163,0.05902 0.0163,0.202999 0,0.262029 -0.04396,0.159095 -0.169308,0.302089 -0.311427,0.355263 -0.103033,0.03855 -0.02081,0.03571 -1.094925,0.03774 l -0.985064,0.0019 0.358094,0.359544 c 0.218922,0.219812 0.36771,0.374343 0.382837,0.397612 0.06355,0.09777 0.08545,0.173028 0.08545,0.293705 0,0.102539 -0.0091,0.144555 -0.04908,0.227905 -0.09973,0.207633 -0.330543,0.32795 -0.556918,0.290308 z m 6.306921,3.25e-4 c -0.05709,-0.01024 -0.132582,-0.03798 -0.181745,-0.06679 -0.05969,-0.03499 -0.150803,-0.126112 -0.185791,-0.185798 -0.07614,-0.129862 -0.09241,-0.289766 -0.04422,-0.434374 0.03614,-0.108441 0.03967,-0.112576 0.434533,-0.508511 0.200068,-0.200615 0.36376,-0.36691 0.36376,-0.369549 0,-0.0026 -0.430891,-0.0048 -0.957532,-0.0049 -0.638928,-2.3e-5 -0.971747,-0.0023 -1.00024,-0.007 -0.209325,-0.03391 -0.373827,-0.184239 -0.430884,-0.39375 -0.01604,-0.05887 -0.01604,-0.190745 0,-0.249615 0.02827,-0.103871 0.07476,-0.182323 0.15076,-0.254517 0.07959,-0.07561 0.172533,-0.121802 0.280124,-0.139234 0.0285,-0.0046 0.361312,-0.007 1.00024,-0.007 0.526641,-2.6e-5 0.957532,-0.0023 0.957532,-0.0049 0,-0.0026 -0.163692,-0.168933 -0.36376,-0.369545 -0.394862,-0.395939 -0.398394,-0.400073 -0.434533,-0.508515 -0.04819,-0.144608 -0.03193,-0.304512 0.04422,-0.434374 0.03499,-0.05969 0.126105,-0.150804 0.185791,-0.185796 0.171976,-0.100822 0.385223,-0.09593 0.553221,0.01269 0.04207,0.02721 0.194373,0.176042 0.855057,0.835629 0.442125,0.44139 0.821303,0.824188 0.842619,0.850656 0.04326,0.05371 0.08441,0.133732 0.101962,0.198238 0.01618,0.05942 0.01618,0.203364 0,0.262786 -0.01754,0.06451 -0.0587,0.144526 -0.101962,0.198238 -0.02133,0.02648 -0.400494,0.409266 -0.842619,0.850656 -0.660684,0.659589 -0.812983,0.808426 -0.855057,0.83563 -0.08478,0.05481 -0.162871,0.07908 -0.267436,0.0831 -0.03794,0.0016 -0.08476,-1.74e-4 -0.10404,-0.0036 z M 20.943633,19.97834 c -0.103919,-0.01862 -0.19756,-0.06613 -0.274629,-0.139337 -0.07425,-0.07053 -0.118835,-0.144706 -0.151003,-0.251217 -0.01122,-0.03716 -0.01203,-0.09571 -0.01392,-1.024515 l -0.0019,-0.985096 -0.356244,0.355343 c -0.280032,0.279329 -0.367194,0.362443 -0.407436,0.388529 -0.167688,0.108694 -0.381189,0.113621 -0.553217,0.01277 -0.05969,-0.03499 -0.150807,-0.12611 -0.185799,-0.185796 -0.10235,-0.174585 -0.09383,-0.40364 0.021,-0.564768 0.01278,-0.01794 0.396558,-0.406141 0.852821,-0.862668 0.664891,-0.66527 0.838719,-0.835781 0.875644,-0.858925 0.192239,-0.120498 0.432359,-0.106092 0.610902,0.03665 0.07035,0.05624 1.654506,1.648541 1.681294,1.689933 0.0315,0.04869 0.05882,0.109005 0.07365,0.16269 0.01624,0.05883 0.0163,0.202789 7.5e-5,0.26241 -0.04574,0.168099 -0.177575,0.310182 -0.338068,0.364348 -0.110852,0.03742 -0.228568,0.03758 -0.33986,4.89e-4 -0.108927,-0.0363 -0.112781,-0.0396 -0.508941,-0.434677 -0.200612,-0.200069 -0.366843,-0.363761 -0.369399,-0.363761 -0.0026,0 -0.0055,0.444194 -0.0066,0.987099 -0.0019,0.930012 -0.0026,0.989366 -0.01386,1.026282 -0.05798,0.191282 -0.194749,0.32464 -0.385113,0.375508 -0.04541,0.01213 -0.162858,0.01702 -0.20925,0.0087 z"
       id="path10"
       inkscape:label="pindahkan_objek"
       inkscape:export-filename="../../code block/ui/blok kode/sintaks/ikon/pindahkan_objek.svg"
       inkscape:export-xdpi="31.520655"
       inkscape:export-ydpi="31.520655"
       sodipodi:insensitive="true" /></g></svg>
