<?xml version="1.0" encoding="UTF-8" standalone="no"?>
<!-- Created with Inkscape (http://www.inkscape.org/) -->

<svg
   width="13.229169mm"
   height="13.229166mm"
   viewBox="0 0 13.229169 13.229166"
   version="1.1"
   id="svg1"
   xml:space="preserve"
   inkscape:version="1.3.2 (091e20ef0f, 2023-11-25, custom)"
   sodipodi:docname="pintu_buka.svg"
   inkscape:export-filename="../../code block/ui/blok kode/sintaks/ikon/pintu.svg"
   inkscape:export-xdpi="90"
   inkscape:export-ydpi="90"
   xmlns:inkscape="http://www.inkscape.org/namespaces/inkscape"
   xmlns:sodipodi="http://sodipodi.sourceforge.net/DTD/sodipodi-0.dtd"
   xmlns="http://www.w3.org/2000/svg"
   xmlns:svg="http://www.w3.org/2000/svg"><sodipodi:namedview
     id="namedview1"
     pagecolor="#000000"
     bordercolor="#000000"
     borderopacity="0.25"
     inkscape:showpageshadow="2"
     inkscape:pageopacity="0.0"
     inkscape:pagecheckerboard="true"
     inkscape:deskcolor="#d1d1d1"
     inkscape:document-units="mm"
     inkscape:zoom="1"
     inkscape:cx="268"
     inkscape:cy="190"
     inkscape:window-width="1346"
     inkscape:window-height="702"
     inkscape:window-x="10"
     inkscape:window-y="56"
     inkscape:window-maximized="0"
     inkscape:current-layer="layer1"
     showgrid="false" /><defs
     id="defs1" /><g
     inkscape:label="Lapis 1"
     inkscape:groupmode="layer"
     id="layer1"
     transform="translate(-27.545915,-14.422096)"><path
       style="display:inline;fill:#ffffff;stroke-width:0.311786"
       d="m 32.846405,21.602525 v -4.702117 h -0.577456 -0.577452 v 4.289651 4.289654 H 31.361525 31.03155 v -4.619627 -4.619625 h 0.907427 0.907428 V 15.99141 c 0,-0.215392 0.0251,-0.243527 0.185609,-0.208174 0.102085,0.02248 1.039416,0.192192 2.082957,0.377132 1.043541,0.18494 1.962626,0.355464 2.042414,0.378944 0.136463,0.04016 0.143808,0.307555 0.123742,4.505856 l -0.02133,4.463167 -2.18607,0.396441 c -1.202343,0.218045 -2.195356,0.397216 -2.206698,0.398157 -0.01135,9.6e-4 -0.02061,-2.114241 -0.02061,-4.700408 z m 1.031165,-0.577453 c 0,-0.252979 -0.02554,-0.288726 -0.206233,-0.288726 -0.152996,0 -0.21324,0.04946 -0.233381,0.19161 -0.04206,0.296902 0.04696,0.4416 0.253634,0.412252 0.152523,-0.02166 0.18598,-0.07835 0.18598,-0.315136 z"
       id="path7"
       sodipodi:nodetypes="ccccccccccccssssscssccsssss"
       inkscape:label="pintu_buka"
       inkscape:export-filename="../../code block/ui/blok kode/sintaks/ikon/pintu_buka.svg"
       inkscape:export-xdpi="31.520655"
       inkscape:export-ydpi="31.520655"
       sodipodi:insensitive="true" /></g></svg>
