<?xml version="1.0" encoding="UTF-8" standalone="no"?>
<!-- Created with Inkscape (http://www.inkscape.org/) -->

<svg
   width="13.229169mm"
   height="13.229166mm"
   viewBox="0 0 13.229169 13.229166"
   version="1.1"
   id="svg1"
   xml:space="preserve"
   inkscape:version="1.3.2 (091e20ef0f, 2023-11-25, custom)"
   sodipodi:docname="pintu.svg"
   inkscape:export-filename="../../code block/ui/blok kode/sintaks/ikon/pintu.svg"
   inkscape:export-xdpi="90"
   inkscape:export-ydpi="90"
   xmlns:inkscape="http://www.inkscape.org/namespaces/inkscape"
   xmlns:sodipodi="http://sodipodi.sourceforge.net/DTD/sodipodi-0.dtd"
   xmlns="http://www.w3.org/2000/svg"
   xmlns:svg="http://www.w3.org/2000/svg"><sodipodi:namedview
     id="namedview1"
     pagecolor="#000000"
     bordercolor="#000000"
     borderopacity="0.25"
     inkscape:showpageshadow="2"
     inkscape:pageopacity="0.0"
     inkscape:pagecheckerboard="true"
     inkscape:deskcolor="#d1d1d1"
     inkscape:document-units="mm"
     inkscape:zoom="1"
     inkscape:cx="268"
     inkscape:cy="190"
     inkscape:window-width="1346"
     inkscape:window-height="702"
     inkscape:window-x="10"
     inkscape:window-y="56"
     inkscape:window-maximized="0"
     inkscape:current-layer="layer1"
     showgrid="false" /><defs
     id="defs1" /><g
     inkscape:label="Lapis 1"
     inkscape:groupmode="layer"
     id="layer1"
     transform="translate(-27.545915,-1.2884893)"><g
       id="g16"
       inkscape:label="pintu"
       inkscape:export-filename="../../code block/ui/blok kode/sintaks/ikon/pintu.svg"
       inkscape:export-xdpi="31.520655"
       inkscape:export-ydpi="31.520655"
       transform="matrix(0.35456606,0,0,0.35456606,-1.3477033,0.78593826)"
       sodipodi:insensitive="true"><path
         id="rect6"
         style="display:inline;fill:#ffffff;fill-opacity:1;stroke-width:0.291042;stroke-linecap:square;stroke-linejoin:round"
         d="m 108.06428,5.25614 c 0.70556,0 1.41112,0 2.11667,0 0,9.877776 0,19.755551 0,29.633327 -0.70555,0 -1.41111,0 -2.11667,0 0,-9.877776 0,-19.755551 0,-29.633327 z m -15.837522,-2e-6 c 5.279175,0 10.558352,0 15.837522,0 0,0.705556 0,1.411112 0,2.116668 -5.27917,0 -10.558347,0 -15.837522,0 0,-0.705556 0,-1.411112 0,-2.116668 z m -2.116668,2e-6 c 0.705556,0 1.411113,0 2.116669,0 0,9.877776 0,19.755551 0,29.633327 -0.705556,0 -1.411113,0 -2.116669,0 0,-9.877776 0,-19.755551 0,-29.633327 z" /><path
         id="rect7"
         style="display:inline;fill:#ffffff;fill-opacity:1;stroke:none;stroke-width:0.291042;stroke-linecap:square;stroke-linejoin:round;stroke-opacity:1"
         d="M 92.37369,7.5194377 V 34.889343 h 15.54479 V 7.5194377 Z m 2.06499,12.2736693 a 0.84634858,0.84634858 0 0 1 0.84646,0.84646 0.84634858,0.84634858 0 0 1 -0.84646,0.84646 0.84634858,0.84634858 0 0 1 -0.84646,-0.84646 0.84634858,0.84634858 0 0 1 0.84646,-0.84646 z" /></g></g></svg>
