<?xml version="1.0" encoding="UTF-8" standalone="no"?>
<!-- Created with Inkscape (http://www.inkscape.org/) -->

<svg
   width="13.229167mm"
   height="13.229166mm"
   viewBox="0 0 13.229167 13.229166"
   version="1.1"
   id="svg1"
   xml:space="preserve"
   inkscape:version="1.3.2 (091e20ef0f, 2023-11-25, custom)"
   sodipodi:docname="popup.svg"
   inkscape:export-filename="../../code block/ui/blok kode/sintaks/ikon/pintu.svg"
   inkscape:export-xdpi="90"
   inkscape:export-ydpi="90"
   xmlns:inkscape="http://www.inkscape.org/namespaces/inkscape"
   xmlns:sodipodi="http://sodipodi.sourceforge.net/DTD/sodipodi-0.dtd"
   xmlns="http://www.w3.org/2000/svg"
   xmlns:svg="http://www.w3.org/2000/svg"><sodipodi:namedview
     id="namedview1"
     pagecolor="#000000"
     bordercolor="#000000"
     borderopacity="0.25"
     inkscape:showpageshadow="2"
     inkscape:pageopacity="0.0"
     inkscape:pagecheckerboard="true"
     inkscape:deskcolor="#d1d1d1"
     inkscape:document-units="mm"
     inkscape:zoom="1"
     inkscape:cx="268"
     inkscape:cy="190"
     inkscape:window-width="1346"
     inkscape:window-height="702"
     inkscape:window-x="10"
     inkscape:window-y="56"
     inkscape:window-maximized="0"
     inkscape:current-layer="layer1"
     showgrid="false" /><defs
     id="defs1" /><g
     inkscape:label="Lapis 1"
     inkscape:groupmode="layer"
     id="layer1"
     transform="translate(-1.2787051,-27.555699)"><path
       style="fill:#ffffff;stroke-width:0.0777953"
       d="m 5.6244563,37.823762 -0.00531,-1.178396 -0.5866245,-0.01291 C 4.412259,36.61881 4.2490176,36.598369 3.9940767,36.502409 3.3754569,36.26956 2.9149044,35.78471 2.7221358,35.163365 c -0.065017,-0.209567 -0.081749,-0.298457 -0.056181,-0.298457 0.011038,0 0.018755,-0.03937 0.017148,-0.08748 l -0.00292,-0.08748 -0.013082,0.08234 -0.013081,0.08234 -0.014557,-0.07204 c -0.018875,-0.09341 -0.018524,-3.504117 3.878e-4,-3.612375 l 0.01437,-0.08233 0.012989,0.08233 0.012989,0.08233 0.00293,-0.08576 c 0.0016,-0.04717 -0.0063,-0.08885 -0.017565,-0.09262 -0.029906,-0.01002 0.069099,-0.361917 0.1527772,-0.543027 0.145049,-0.31394 0.4021113,-0.624266 0.6833726,-0.82497 0.168442,-0.120198 0.4707172,-0.261051 0.6869169,-0.320087 l 0.1749562,-0.04778 h 3.5197425 3.519742 l 0.184014,0.04686 c 0.590174,0.150275 1.096248,0.56151 1.36083,1.10581 0.10666,0.21942 0.204462,0.560045 0.172024,0.599128 -0.01178,0.01418 -0.01774,0.06117 -0.01325,0.104413 l 0.0082,0.07862 0.0056,-0.09262 0.0056,-0.09262 0.01742,0.07205 c 0.02086,0.08624 0.02461,3.494116 0.004,3.612367 l -0.01437,0.08234 -0.01298,-0.08234 -0.01298,-0.08234 -0.003,0.08748 c -0.0016,0.04811 0.0061,0.08748 0.01714,0.08748 0.04468,0 -0.071,0.390959 -0.17967,0.60721 -0.10996,0.218824 -0.222747,0.375188 -0.394582,0.54702 -0.347472,0.347473 -0.772303,0.54672 -1.268583,0.59497 -0.112578,0.01095 -0.752327,0.02014 -1.4216643,0.02043 l -1.2169766,6.52e-4 -1.4794347,1.183531 c -0.8137026,0.650943 -1.4909506,1.183535 -1.5050088,1.183541 -0.020001,6e-6 -0.026717,-0.256383 -0.030875,-1.178382 z m 1.5026032,-0.01105 c 0.789521,-0.631554 1.4583944,-1.164145 1.486385,-1.183541 0.027991,-0.01939 0.040722,-0.03526 0.028294,-0.03526 -0.012428,0 -0.6837045,0.528896 -1.4917228,1.175323 l -1.4691228,1.175326 -0.01029,-1.168463 c -0.00894,-1.014689 -0.014358,-1.169708 -0.041166,-1.177892 -0.024918,-0.0076 -0.025913,-0.0042 -0.00514,0.01782 0.019955,0.02118 0.02573,0.287306 0.02573,1.186111 0,0.765975 0.00704,1.158837 0.020774,1.158837 0.011424,0 0.6667468,-0.516721 1.4562678,-1.148276 z M 4.6358303,36.578891 c -0.042706,-0.0045 -0.1075432,-0.0043 -0.1440828,1.56e-4 -0.03654,0.0046 -0.00161,0.0082 0.077646,0.0081 0.079245,-7.8e-5 0.1091419,-0.0038 0.066437,-0.0083 z m 6.6488617,2.9e-5 c -0.04245,-0.0044 -0.111921,-0.0044 -0.154374,0 -0.04245,0.0044 -0.0077,0.0081 0.07718,0.0081 0.08491,0 0.119641,-0.0036 0.07718,-0.0081 z M 4.3789983,36.5597 c -0.01415,-0.0058 -0.037307,-0.0058 -0.051458,0 -0.01415,0.0058 -0.00258,0.01036 0.02573,0.01036 0.028302,0 0.03988,-0.0046 0.025729,-0.01036 z m 7.0810447,1.57e-4 c -0.01394,-0.0057 -0.04172,-0.006 -0.06175,-6.52e-4 -0.02003,0.0052 -0.0086,0.0098 0.02534,0.01023 0.03397,2.6e-4 0.05034,-0.0038 0.03642,-0.0095 z m -7.1839615,-0.02073 c -0.01415,-0.0058 -0.037306,-0.0058 -0.051458,0 -0.014152,0.0058 -0.00258,0.01036 0.025728,0.01036 0.028302,0 0.03988,-0.0046 0.02573,-0.01036 z m 7.2864855,0 c -0.01415,-0.0058 -0.0373,-0.0058 -0.05146,0 -0.01415,0.0058 -0.0026,0.01036 0.02573,0.01036 0.0283,0 0.03988,-0.0046 0.02573,-0.01036 z M 4.0445197,36.472377 C 3.9596137,36.440737 3.87162,36.408137 3.8489785,36.399927 l -0.041167,-0.01492 0.041167,0.02633 c 0.054606,0.03494 0.2799653,0.118729 0.319041,0.118631 0.016982,-4.6e-5 -0.038594,-0.02597 -0.1234998,-0.05759 z m 7.7015703,0.02102 c 0.114889,-0.03953 0.287863,-0.123306 0.257996,-0.124958 -0.009,-6.52e-4 -0.04585,0.01427 -0.08177,0.03286 -0.03592,0.01858 -0.12577,0.05494 -0.199665,0.0808 -0.0739,0.02587 -0.124227,0.04772 -0.111848,0.04856 0.01238,6.52e-4 0.07326,-0.01594 0.135287,-0.03726 z M 3.7975201,36.379579 c 0,-0.0047 -0.05789,-0.04094 -0.128645,-0.08055 C 3.3642604,36.128474 3.0477759,35.788152 2.882157,35.453059 2.782316,35.251055 2.7582217,35.226553 2.838972,35.409149 c 0.1569439,0.354881 0.5030583,0.732704 0.8428682,0.920094 0.1125111,0.06205 0.1156797,0.06342 0.1156797,0.05034 z M 12.31385,36.193152 c 0.240444,-0.180745 0.570512,-0.587962 0.634461,-0.78276 0.0074,-0.02261 -0.02807,0.03018 -0.0789,0.117338 -0.174525,0.299338 -0.40076,0.545212 -0.655604,0.712512 -0.06351,0.0417 -0.132986,0.08749 -0.154375,0.101769 -0.02139,0.01427 -0.0016,0.0082 0.04398,-0.01349 0.04558,-0.0217 0.140273,-0.08261 0.210441,-0.135359 z m 0.683771,-0.906258 c 0,-0.01131 -0.009,-0.0067 -0.01994,0.0103 -0.01098,0.01698 -0.01996,0.04013 -0.01996,0.05146 0,0.01131 0.009,0.0067 0.01996,-0.0103 0.01097,-0.01698 0.01994,-0.04014 0.01994,-0.05146 z M 2.7701025,35.192109 c -0.010846,-0.02711 -0.020308,-0.03848 -0.021026,-0.02526 -0.00174,0.03213 0.022235,0.09307 0.032556,0.08275 0.0045,-0.0045 -7.006e-4,-0.03037 -0.01153,-0.05749 z m -0.051244,-0.195344 c -0.016173,-0.06685 -0.030177,-0.104799 -0.03112,-0.08434 -0.00212,0.0461 0.041816,0.224589 0.052631,0.213778 0.00434,-0.0043 -0.00534,-0.06259 -0.021511,-0.129436 z m 10.3582285,0.02255 c -4.57e-4,-0.0331 -0.0038,-0.03109 -0.01709,0.0103 -0.02254,0.07038 -0.02254,0.124492 0,0.07205 0.0097,-0.02261 0.01742,-0.05969 0.01709,-0.08233 z m 0.01713,-0.118356 c -0.0058,-0.01414 -0.01038,-0.0026 -0.01038,0.02574 0,0.02829 0.0047,0.03988 0.01038,0.02574 0.0058,-0.01414 0.0058,-0.0373 0,-0.05146 z M 2.6996544,30.990107 c -0.00571,-0.01415 -0.010382,-0.0026 -0.010382,0.02573 0,0.0283 0.00468,0.03988 0.010382,0.02573 0.00571,-0.01415 0.00571,-0.0373 0,-0.05146 z m 10.3945626,0 c -0.0058,-0.01415 -0.01038,-0.0026 -0.01038,0.02573 0,0.0283 0.0047,0.03988 0.01038,0.02573 0.0058,-0.01415 0.0058,-0.0373 0,-0.05146 z M 2.7206668,30.90906 c -0.00657,-0.01642 -0.011448,-0.01154 -0.012436,0.01243 -8.96e-4,0.0217 0.00398,0.03386 0.010811,0.02702 0.00684,-0.0069 0.00757,-0.02459 0.00163,-0.03946 z m 10.3533952,0 c -0.0066,-0.01642 -0.01145,-0.01154 -0.01243,0.01243 -8.8e-4,0.0217 0.004,0.03386 0.01081,0.02702 0.0069,-0.0069 0.0076,-0.02459 0.0016,-0.03946 z M 2.8969327,30.470379 c 0.1912095,-0.37854 0.5201032,-0.700212 0.9188476,-0.898674 0.086184,-0.0429 0.1474356,-0.07819 0.1361149,-0.07845 -0.011321,-2.49e-4 -0.080789,0.02988 -0.1543751,0.06697 -0.4093081,0.206275 -0.7237669,0.518722 -0.9262785,0.920353 -0.069447,0.13773 -0.1452256,0.339225 -0.1425206,0.37896 8.408e-4,0.01238 0.02266,-0.0377 0.048482,-0.111285 0.025822,-0.07358 0.079701,-0.198628 0.1197297,-0.277874 z m 10.1314113,0.274062 c -0.151116,-0.461115 -0.510054,-0.893975 -0.941275,-1.135126 -0.19673,-0.110018 -0.193734,-0.09231 0.0046,0.02686 0.452745,0.272107 0.776483,0.665982 0.918083,1.116978 0.02039,0.06496 0.041,0.114186 0.04579,0.109396 0.0048,-0.0048 -0.0074,-0.05794 -0.02714,-0.118104 z m -1.14159,-1.231185 c -0.01698,-0.01098 -0.04014,-0.01995 -0.05146,-0.01995 -0.01132,0 -0.0067,0.009 0.0103,0.01995 0.01698,0.01097 0.04014,0.01994 0.05146,0.01994 0.01132,0 0.0067,-0.009 -0.0103,-0.01994 z m -7.8010675,-0.05146 c 0.039622,-0.01526 0.058148,-0.02802 0.041166,-0.02838 -0.016982,-3.27e-4 -0.058662,0.01208 -0.092625,0.02764 -0.079494,0.0364 -0.042519,0.03693 0.051458,7.36e-4 z m 7.6672755,-7.36e-4 c -0.03397,-0.01554 -0.07564,-0.02799 -0.09262,-0.02764 -0.01698,3.25e-4 0.0015,0.01312 0.04117,0.02838 0.09398,0.03619 0.130952,0.03566 0.05146,-7.35e-4 z M 4.2241946,29.41848 c -0.00683,-0.0069 -0.024593,-0.0076 -0.039451,-0.0016 -0.01642,0.0066 -0.011543,0.01145 0.012435,0.01243 0.021698,8.8e-4 0.033855,-0.004 0.027015,-0.01081 z m 7.3894004,0 c -0.0069,-0.0069 -0.02459,-0.0076 -0.03945,-0.0016 -0.01642,0.0066 -0.01154,0.01145 0.01243,0.01243 0.0217,8.8e-4 0.03386,-0.004 0.02702,-0.01081 z M 4.3172484,29.39669 c -0.01415,-0.0058 -0.037307,-0.0058 -0.051458,0 -0.01415,0.0058 -0.00258,0.01038 0.02573,0.01038 0.028302,0 0.03988,-0.0047 0.025729,-0.01038 z m 7.2041516,0 c -0.01415,-0.0058 -0.0373,-0.0058 -0.05146,0 -0.01415,0.0058 -0.0026,0.01038 0.02573,0.01038 0.0283,0 0.03988,-0.0047 0.02573,-0.01038 z M 4.4510396,29.37555 c -0.019811,-0.0051 -0.05223,-0.0051 -0.072041,0 -0.019811,0.0051 -0.00361,0.0094 0.036021,0.0094 0.039622,0 0.055832,-0.0042 0.03602,-0.0094 z m 6.9571524,0 c -0.01982,-0.0051 -0.05223,-0.0051 -0.07204,0 -0.01982,0.0051 -0.0036,0.0094 0.03602,0.0094 0.03962,0 0.05583,-0.0042 0.03602,-0.0094 z M 9.5952387,29.35372 c -0.9376908,-0.003 -2.4660001,-0.003 -3.3962438,1e-6 -0.9302429,0.003 -0.1630414,0.0054 1.704892,0.0054 1.8679338,0 2.6290421,-0.0024 1.6913518,-0.0054 z"
       id="path13"
       inkscape:label="popup"
       inkscape:export-filename="../../code block/ui/blok kode/sintaks/ikon/popup.svg"
       inkscape:export-xdpi="31.520655"
       inkscape:export-ydpi="31.520655"
       sodipodi:insensitive="true" /></g></svg>
