<?xml version="1.0" encoding="UTF-8" standalone="no"?>
<!-- Created with Inkscape (http://www.inkscape.org/) -->

<svg
   width="80"
   height="80"
   viewBox="0 0 21.166667 21.166667"
   version="1.1"
   id="svg5"
   xml:space="preserve"
   inkscape:export-filename="mic_on.svg"
   inkscape:export-xdpi="96"
   inkscape:export-ydpi="96"
   inkscape:version="1.3 (0e150ed6c4, 2023-07-21)"
   sodipodi:docname="angkat_sesuatu.svg"
   xmlns:inkscape="http://www.inkscape.org/namespaces/inkscape"
   xmlns:sodipodi="http://sodipodi.sourceforge.net/DTD/sodipodi-0.dtd"
   xmlns="http://www.w3.org/2000/svg"
   xmlns:svg="http://www.w3.org/2000/svg"><sodipodi:namedview
     id="namedview7"
     pagecolor="#000000"
     bordercolor="#111111"
     borderopacity="1"
     inkscape:showpageshadow="0"
     inkscape:pageopacity="0"
     inkscape:pagecheckerboard="1"
     inkscape:deskcolor="#d1d1d1"
     inkscape:document-units="mm"
     showgrid="false"
     inkscape:zoom="2.6809742"
     inkscape:cx="26.109912"
     inkscape:cy="48.676336"
     inkscape:window-width="1366"
     inkscape:window-height="711"
     inkscape:window-x="0"
     inkscape:window-y="27"
     inkscape:window-maximized="1"
     inkscape:current-layer="layer1" /><defs
     id="defs2" /><g
     inkscape:label="Lapis 1"
     inkscape:groupmode="layer"
     id="layer1"><circle
       style="fill:#feffff;fill-opacity:0.99879295;stroke:#000000;stroke-width:1.32292;stroke-linecap:square;stroke-linejoin:round;stroke-dasharray:none;stroke-dashoffset:0.1;paint-order:stroke fill markers"
       id="path368"
       cx="10.583333"
       cy="10.583333"
       r="8.9292917" /><path
       style="fill:#000000;stroke-width:0.999997"
       d="M 6.1306123,16.232642 C 5.9861978,15.949636 5.9940118,16.127802 5.9998011,13.250151 l 0.00516,-2.562757 0.042578,-0.119411 c 0.1279284,-0.358811 0.4021813,-0.6390776 0.7482898,-0.7647087 0.1545333,-0.056092 0.3789536,-0.081121 0.5428499,-0.060542 0.1551372,0.01948 0.4096779,0.096768 0.4985941,0.1513943 0.05801,0.035635 3.3683311,3.1156754 3.8230571,3.5571044 0.241897,0.234824 0.278273,0.304585 0.278322,0.533761 3.2e-5,0.147591 -0.0066,0.187283 -0.04317,0.257194 -0.05888,0.112659 -0.176836,0.23199 -0.287371,0.290721 -0.07975,0.04238 -0.113691,0.04882 -0.257581,0.04898 -0.286662,2.91e-4 -0.223915,0.04946 -1.6621907,-1.302493 l -1.2584143,-1.182891 -0.00938,1.904132 c -0.00879,1.784373 -0.0115,1.910485 -0.043125,2.005171 z m 6.2290307,-2.922785 c -0.07738,-0.1218 -0.126918,-0.170422 -1.058834,-1.039315 l -0.693099,-0.646226 -4.16e-4,-1.115135 c -2.78e-4,-0.7424539 0.0064,-1.1476701 0.01984,-1.212487 0.0709,-0.3410225 0.366398,-0.6288982 0.712515,-0.6941308 0.05639,-0.010628 0.41002,-0.01865 0.822103,-0.01865 h 0.723145 v 0.3398637 0.3398638 h 0.321494 0.321492 V 8.9237768 8.5839129 l 0.739433,2.709e-4 c 0.802321,2.916e-4 0.876874,0.00751 1.065327,0.1029993 0.129402,0.065572 0.309818,0.2428716 0.378754,0.3722095 0.116179,0.2179749 0.112862,0.1606971 0.112862,1.9491584 0,1.528288 -0.0021,1.634421 -0.03408,1.749889 -0.08512,0.306938 -0.330314,0.548981 -0.637099,0.628888 -0.09224,0.02403 -0.300351,0.02815 -1.417221,0.02815 h -1.309107 z m 1.260099,-1.42967 v -0.671865 l 0.275591,0.0059 c 0.151575,0.0032 0.27558,0.0014 0.275565,-0.0041 -5.4e-5,-0.02113 -0.942012,-1.139502 -0.955437,-1.134379 -0.01769,0.0067 -0.955174,1.110858 -0.955174,1.124941 0,0.0057 0.124004,0.01028 0.275566,0.01028 h 0.275564 v 0.670542 0.670542 h 0.404164 0.404161 z M 6.8847928,8.6385769 C 6.1422675,8.5051091 5.550705,7.9391103 5.3780024,7.1969013 5.3247183,6.9679059 5.3321666,6.5726896 5.3941423,6.340465 5.702926,5.1834448 6.9649471,4.6030542 8.0265678,5.1298392 8.5059427,5.3677082 8.8822397,5.8340107 9.012694,6.3518348 9.070544,6.5814661 9.070494,7.0340791 9.0126245,7.2460521 8.9235097,7.5723033 8.7697181,7.8490931 8.5515093,8.0759564 8.2892398,8.3486272 8.0336716,8.5001615 7.658378,8.605522 7.5106848,8.6469856 7.0428255,8.6669777 6.8848226,8.6385769 Z"
       id="path2"
       sodipodi:nodetypes="cccsssssscscscscccscccssccccccccssscssccccssssscccccccsssscsscc" /></g></svg>
