<?xml version="1.0" encoding="UTF-8" standalone="no"?>
<!-- Created with Inkscape (http://www.inkscape.org/) -->

<svg
   width="80"
   height="80"
   viewBox="0 0 21.166667 21.166667"
   version="1.1"
   id="svg5"
   xml:space="preserve"
   inkscape:export-filename="mic_on.svg"
   inkscape:export-xdpi="96"
   inkscape:export-ydpi="96"
   inkscape:version="1.3 (0e150ed6c4, 2023-07-21)"
   sodipodi:docname="atur_pandangan.svg"
   xmlns:inkscape="http://www.inkscape.org/namespaces/inkscape"
   xmlns:sodipodi="http://sodipodi.sourceforge.net/DTD/sodipodi-0.dtd"
   xmlns="http://www.w3.org/2000/svg"
   xmlns:svg="http://www.w3.org/2000/svg"><sodipodi:namedview
     id="namedview7"
     pagecolor="#000000"
     bordercolor="#111111"
     borderopacity="1"
     inkscape:showpageshadow="0"
     inkscape:pageopacity="0"
     inkscape:pagecheckerboard="1"
     inkscape:deskcolor="#d1d1d1"
     inkscape:document-units="mm"
     showgrid="false"
     inkscape:zoom="1.3404871"
     inkscape:cx="179.41239"
     inkscape:cy="51.473826"
     inkscape:window-width="1366"
     inkscape:window-height="696"
     inkscape:window-x="0"
     inkscape:window-y="0"
     inkscape:window-maximized="1"
     inkscape:current-layer="layer1" /><defs
     id="defs2" /><g
     inkscape:label="Lapis 1"
     inkscape:groupmode="layer"
     id="layer1"><circle
       style="fill:#feffff;fill-opacity:0.99879295;stroke:#000000;stroke-width:1.32292;stroke-linecap:square;stroke-linejoin:round;stroke-dasharray:none;stroke-dashoffset:0.1;paint-order:stroke fill markers"
       id="path368"
       cx="10.583333"
       cy="10.583333"
       r="8.9292917" /><path
       id="rect1"
       style="display:inline;fill:#000000;fill-opacity:1;stroke-width:0.778244"
       d="m 9.910578,6.6240129 c -0.7465958,0 -1.3811246,0.4617685 -1.6355296,1.1162948 H 7.2821785 c -0.6441085,0 -1.1631122,0.5190033 -1.1631122,1.1631111 V 13.38015 c 0,0.644109 0.5190037,1.162504 1.1631122,1.162504 h 6.6029195 c 0.644109,0 1.162502,-0.518395 1.162502,-1.162504 V 8.9034188 c 0,-0.6441078 -0.518393,-1.1631111 -1.162502,-1.1631111 H 12.891619 C 12.637213,7.0857814 12.003291,6.6240129 11.256698,6.6240129 Z m 0.672451,2.6575843 a 1.8268319,1.8268319 0 0 1 1.827052,1.8270518 1.8268319,1.8268319 0 0 1 -1.827052,1.82705 1.8268319,1.8268319 0 0 1 -1.8264421,-1.82705 1.8268319,1.8268319 0 0 1 1.8264421,-1.8270518 z" /></g></svg>
