<?xml version="1.0" encoding="UTF-8" standalone="no"?>
<!-- Created with Inkscape (http://www.inkscape.org/) -->

<svg
   width="80"
   height="80"
   viewBox="0 0 21.166667 21.166667"
   version="1.1"
   id="svg5"
   xml:space="preserve"
   inkscape:export-filename="mic_on.svg"
   inkscape:export-xdpi="96"
   inkscape:export-ydpi="96"
   inkscape:version="1.3 (0e150ed6c4, 2023-07-21)"
   sodipodi:docname="berjalan.svg"
   xmlns:inkscape="http://www.inkscape.org/namespaces/inkscape"
   xmlns:sodipodi="http://sodipodi.sourceforge.net/DTD/sodipodi-0.dtd"
   xmlns="http://www.w3.org/2000/svg"
   xmlns:svg="http://www.w3.org/2000/svg"><sodipodi:namedview
     id="namedview7"
     pagecolor="#000000"
     bordercolor="#111111"
     borderopacity="1"
     inkscape:showpageshadow="0"
     inkscape:pageopacity="0"
     inkscape:pagecheckerboard="1"
     inkscape:deskcolor="#d1d1d1"
     inkscape:document-units="mm"
     showgrid="false"
     inkscape:zoom="1.3404871"
     inkscape:cx="-5.2219822"
     inkscape:cy="60.052795"
     inkscape:window-width="1366"
     inkscape:window-height="711"
     inkscape:window-x="0"
     inkscape:window-y="27"
     inkscape:window-maximized="1"
     inkscape:current-layer="layer1" /><defs
     id="defs2" /><g
     inkscape:label="Lapis 1"
     inkscape:groupmode="layer"
     id="layer1"><circle
       style="fill:#feffff;fill-opacity:0.99879295;stroke:#000000;stroke-width:1.32292;stroke-linecap:square;stroke-linejoin:round;stroke-dasharray:none;stroke-dashoffset:0.1;paint-order:stroke fill markers"
       id="path368"
       cx="10.583333"
       cy="10.583333"
       r="8.9292917" /><path
       style="fill:#000000;stroke-width:0.999998"
       d="M 7.6582166,16.021887 C 7.5846629,16.000827 7.5196902,15.963725 7.4569853,15.90698 7.2840106,15.750446 7.2616301,15.569905 7.3835866,15.314872 c 0.056087,-0.117286 0.054671,-0.115166 0.7283422,-1.090384 l 0.5029228,-0.728041 0.2031119,-0.716641 c 0.1117116,-0.394152 0.2064667,-0.724563 0.2105667,-0.734247 0.00678,-0.01601 0.2444023,0.301828 0.7568362,1.012339 l 0.06302,0.08738 -0.1317341,0.357268 c -0.1404905,0.381015 -0.1919515,0.499969 -0.2654338,0.613561 -0.025371,0.03922 -0.1609725,0.22528 -0.3013364,0.413467 -0.1403642,0.188187 -0.3500743,0.470284 -0.4660227,0.626882 -0.2808766,0.379349 -0.3936911,0.51948 -0.5207465,0.646839 -0.1595823,0.159964 -0.2615438,0.21888 -0.3934669,0.227356 -0.037224,0.0024 -0.085816,-0.0015 -0.1114301,-0.0088 z m 4.8033404,-0.02632 c -0.03119,-0.01 -0.08342,-0.0332 -0.116076,-0.0516 -0.0737,-0.04154 -0.259312,-0.225437 -0.346196,-0.34301 C 11.868583,15.424094 11.312562,14.573191 10.558142,13.39552 10.380328,13.11794 10.074563,12.64102 9.8786614,12.33569 9.3904689,11.574797 9.4061089,11.599697 9.3524643,11.497926 9.2952554,11.389393 9.23818,11.22384 9.2219716,11.119419 c -0.00697,-0.04493 -0.00961,-0.129045 -0.00647,-0.206918 0.00458,-0.113963 0.018609,-0.19691 0.1067131,-0.630846 0.094504,-0.4654556 0.2336931,-1.1325494 0.2491905,-1.1942963 0.00373,-0.014862 0.00408,-0.027023 7.84e-4,-0.027023 -0.00331,0 -0.2069211,0.1544899 -0.4524884,0.3433111 L 8.6732047,9.7469583 8.5997117,10.173279 c -0.1718467,0.996857 -0.2368853,1.358864 -0.25546,1.421899 -0.026068,0.08846 -0.086887,0.15724 -0.1792773,0.202723 -0.062689,0.03086 -0.074135,0.03308 -0.1684087,0.03275 C 7.8702183,11.8302 7.8040274,11.806661 7.7243078,11.733801 7.6249478,11.643001 7.5856529,11.513469 7.607885,11.350053 7.614195,11.303693 7.684462,10.828788 7.7640406,10.294701 7.907545,9.3315914 7.9090229,9.3230386 7.9445577,9.2500264 7.9865123,9.1638241 8.043554,9.0946179 8.1076344,9.0521725 8.1328253,9.0354871 8.4645395,8.7572014 8.8447776,8.43376 9.8098103,7.6128757 9.7253834,7.6572417 10.322006,7.6574827 c 0.401464,1.598e-4 0.444742,0.00466 0.552468,0.057407 0.126728,0.062053 0.251359,0.2151052 0.36665,0.4502612 0.03318,0.067666 0.139419,0.2978997 0.236098,0.5116304 0.09668,0.2137308 0.25185,0.5521169 0.344826,0.7519689 0.09298,0.1998523 0.180428,0.3878907 0.194337,0.4178634 l 0.02529,0.054496 0.616801,0.3047454 c 0.33924,0.167608 0.696287,0.34259 0.793437,0.388846 0.20689,0.09851 0.259966,0.134137 0.318739,0.213976 0.06298,0.08554 0.08812,0.157521 0.08917,0.255227 7.17e-4,0.06705 -0.0036,0.09024 -0.02538,0.136723 -0.03623,0.07725 -0.08106,0.124961 -0.148547,0.158106 -0.05389,0.02646 -0.06498,0.02811 -0.183519,0.02731 -0.166923,-0.0012 -0.221327,-0.01821 -0.585896,-0.183927 -1.004499,-0.456597 -1.302588,-0.604298 -1.390947,-0.689201 -0.02215,-0.02129 -0.12285,-0.161338 -0.223761,-0.311217 -0.171463,-0.2546612 -0.21157,-0.3090206 -0.211879,-0.287168 -7.6e-5,0.00484 -0.07699,0.340379 -0.17092,0.745635 l -0.170796,0.736828 0.344161,0.560191 c 1.626975,2.648228 1.910152,3.114008 1.952872,3.212143 0.121818,0.279846 0.103871,0.531625 -0.04879,0.684281 -0.05397,0.05397 -0.196731,0.129559 -0.283288,0.149996 -0.06988,0.0165 -0.186524,0.01277 -0.251577,-0.0081 z M 11.039553,7.2275538 c -0.01388,-0.00246 -0.05249,-0.00921 -0.08579,-0.014981 C 10.643575,7.1587778 10.35839,6.943014 10.214182,6.653026 9.8980005,6.0172172 10.284142,5.2627367 10.984044,5.1488152 c 0.450548,-0.073335 0.899806,0.1570109 1.102948,0.5655113 0.07935,0.1595576 0.107602,0.2828031 0.107602,0.4693497 0,0.1866344 -0.02804,0.30862 -0.107901,0.4693498 -0.05353,0.1077342 -0.111184,0.1867203 -0.200765,0.275038 -0.09084,0.089555 -0.150803,0.1332568 -0.255897,0.1864877 -0.154133,0.078069 -0.273707,0.1083794 -0.449164,0.1138565 -0.06385,0.00199 -0.12743,0.00161 -0.141309,-8.557e-4 z"
       id="path1" /></g></svg>
