<?xml version="1.0" encoding="UTF-8" standalone="no"?>
<!-- Created with Inkscape (http://www.inkscape.org/) -->

<svg
   width="80"
   height="80"
   viewBox="0 0 21.166667 21.166667"
   version="1.1"
   id="svg5"
   xml:space="preserve"
   inkscape:export-filename="mic_on.svg"
   inkscape:export-xdpi="96"
   inkscape:export-ydpi="96"
   inkscape:version="1.3 (0e150ed6c4, 2023-07-21)"
   sodipodi:docname="berlari.svg"
   xmlns:inkscape="http://www.inkscape.org/namespaces/inkscape"
   xmlns:sodipodi="http://sodipodi.sourceforge.net/DTD/sodipodi-0.dtd"
   xmlns="http://www.w3.org/2000/svg"
   xmlns:svg="http://www.w3.org/2000/svg"><sodipodi:namedview
     id="namedview7"
     pagecolor="#000000"
     bordercolor="#111111"
     borderopacity="1"
     inkscape:showpageshadow="0"
     inkscape:pageopacity="0"
     inkscape:pagecheckerboard="1"
     inkscape:deskcolor="#d1d1d1"
     inkscape:document-units="mm"
     showgrid="false"
     inkscape:zoom="5.3619484"
     inkscape:cx="48.862835"
     inkscape:cy="41.309611"
     inkscape:window-width="1366"
     inkscape:window-height="711"
     inkscape:window-x="0"
     inkscape:window-y="27"
     inkscape:window-maximized="1"
     inkscape:current-layer="layer1" /><defs
     id="defs2" /><g
     inkscape:label="Lapis 1"
     inkscape:groupmode="layer"
     id="layer1"><circle
       style="fill:#feffff;fill-opacity:0.99879295;stroke:#000000;stroke-width:1.32292;stroke-linecap:square;stroke-linejoin:round;stroke-dasharray:none;stroke-dashoffset:0.1;paint-order:stroke fill markers"
       id="path368"
       cx="10.583333"
       cy="10.583333"
       r="8.9292917" /><path
       style="fill:#000000;stroke-width:1"
       d="m 13.860728,15.929657 c -0.116775,-0.05205 -0.205847,-0.12874 -0.261251,-0.224931 -0.02818,-0.04892 -0.256492,-0.619705 -0.507366,-1.268414 L 12.635975,13.256841 12.3055,12.90684 c -0.181762,-0.1925 -0.37085,-0.39272 -0.420197,-0.444934 l -0.08972,-0.09493 0.04136,-0.147673 c 0.05436,-0.194112 0.178502,-0.77813 0.210768,-0.99152 0.01403,-0.09282 0.03261,-0.176656 0.04127,-0.186296 0.01998,-0.02224 1.495178,1.544778 1.544182,1.640295 0.02003,0.03904 0.25659,0.639217 0.525692,1.333724 0.44893,1.158614 0.489215,1.273297 0.48854,1.390762 -0.0012,0.218582 -0.121111,0.411493 -0.314029,0.505442 -0.109881,0.05351 -0.370631,0.06341 -0.472626,0.01795 z M 10.306025,13.991992 C 10.155187,13.964249 9.6075051,13.870226 9.0889532,13.783052 8.5704014,13.695877 8.1172257,13.609605 8.0818961,13.591336 7.7151738,13.401696 7.6504848,12.905747 7.9581243,12.642419 c 0.09401,-0.08047 0.2396286,-0.13832 0.3481695,-0.13832 0.038899,0 0.5032981,0.07218 1.0319987,0.160396 0.5930641,0.09896 0.9687935,0.152875 0.9809055,0.140763 0.06403,-0.06403 0.416136,-1.236612 0.391003,-1.302107 -0.0056,-0.01472 -0.03824,-0.03236 -0.07243,-0.03919 -0.101892,-0.02038 -0.190302,-0.111138 -0.226466,-0.232483 -0.02729,-0.09157 -0.0303,-0.192513 -0.01865,-0.626028 0.01781,-0.6630254 -3.43e-4,-0.8466067 -0.173284,-1.752332 -0.04113,-0.2153959 -0.08248,-0.4040852 -0.09189,-0.4193097 -0.01304,-0.021095 -0.08544,0.00842 -0.304291,0.124053 -0.1579507,0.083454 -0.287183,0.1546677 -0.287183,0.1582535 0,0.00359 0.090178,0.2996203 0.2003956,0.6578547 0.1131824,0.3678707 0.2002524,0.6880595 0.2000666,0.7357195 -4.466e-4,0.113707 -0.07645,0.24127 -0.1793825,0.301063 -0.157799,0.09167 -0.4142892,0.02968 -0.4940746,-0.1194 -0.055705,-0.104086 -0.5286595,-1.6868222 -0.5286595,-1.7691531 0,-0.1061048 0.060776,-0.2381369 0.1306358,-0.283797 C 8.8917713,8.2208969 9.2818642,8.0147621 9.7318693,7.7803195 10.509894,7.374986 10.55713,7.3534676 10.694067,7.3419872 c 0.279147,-0.023403 0.540272,0.082066 0.761699,0.3076523 0.15845,0.1614263 0.247694,0.3181006 0.337185,0.5919522 0.035,0.1071138 0.06364,0.2005785 0.06364,0.2076993 0,0.00712 -0.130533,-0.1159567 -0.290073,-0.2735054 C 11.406979,8.0182369 11.24322,7.8718488 11.20261,7.8504788 c -0.04913,-0.025855 -0.119713,-0.039092 -0.210962,-0.039566 -0.11304,-5.824e-4 -0.154809,0.00968 -0.237804,0.05847 -0.149618,0.087947 -0.213646,0.1979072 -0.222396,0.381936 -0.006,0.1252097 8.74e-4,0.1642367 0.04195,0.2395725 0.06111,0.1120926 1.340654,1.3599174 1.434232,1.3986785 l 0.06607,0.027369 -0.01243,0.2862382 c -0.02274,0.523627 -0.177914,1.438112 -0.35136,2.070632 -0.194118,0.707902 -0.486313,1.414695 -0.659333,1.594864 -0.07923,0.0825 -0.239498,0.153791 -0.371413,0.165203 -0.05439,0.0047 -0.222312,-0.01414 -0.373149,-0.04188 z M 12.03591,9.7851553 c -0.09785,-0.061186 -1.324422,-1.264459 -1.365092,-1.3391654 -0.01982,-0.036405 -0.03643,-0.1123648 -0.03692,-0.1687995 -0.0022,-0.2493412 0.218819,-0.4167726 0.463192,-0.3509697 0.0772,0.020788 0.160462,0.092502 0.546967,0.4711073 0.250747,0.2456226 0.499163,0.4872782 0.552035,0.5370124 l 0.09613,0.090426 0.687698,-0.3277577 c 0.76279,-0.3635472 0.805616,-0.375854 0.974156,-0.2799443 0.09734,0.055393 0.1809,0.1974193 0.1809,0.3074788 0,0.1171047 -0.07565,0.2496052 -0.176069,0.3083958 -0.0482,0.028216 -0.437089,0.2179479 -0.864202,0.4216251 -0.697477,0.3326054 -0.787718,0.3703141 -0.886039,0.3702433 -0.07038,-5.07e-5 -0.132067,-0.014209 -0.172758,-0.039652 z M 11.076035,7.2173338 C 10.925979,7.1771862 10.761105,7.0771508 10.630663,6.9471086 10.432668,6.7497214 10.337669,6.5165583 10.337669,6.2279902 c 0,-0.2877361 0.09826,-0.5287218 0.296351,-0.7268132 0.215274,-0.2152742 0.458528,-0.3064972 0.777171,-0.2914479 0.246395,0.011637 0.394269,0.063569 0.577709,0.2028863 0.401253,0.3047388 0.51649,0.8839163 0.264273,1.3282274 -0.128726,0.2267671 -0.369914,0.413139 -0.618415,0.4778654 -0.154597,0.040267 -0.405388,0.03965 -0.558723,-0.00137 z"
       id="path2"
       sodipodi:nodetypes="ssscsscccssscssscscsscsccscsssssccsssssscsssccccscssscccsscssscsssssssscssssssscc" /><rect
       style="fill:#000000;stroke-width:0.185208;stroke-linecap:square;stroke-dashoffset:0.1;paint-order:stroke fill markers"
       id="rect2"
       width="3.3323946"
       height="0.53249085"
       x="6.3087015"
       y="6.7553945"
       ry="0.26624542" /><rect
       style="fill:#000000;stroke-width:0.185208;stroke-linecap:square;stroke-dashoffset:0.1;paint-order:stroke fill markers"
       id="rect3"
       width="3.3323946"
       height="0.53249085"
       x="4.853066"
       y="10.050842"
       ry="0.26624542" /><rect
       style="fill:#000000;stroke-width:0.185208;stroke-linecap:square;stroke-dashoffset:0.1;paint-order:stroke fill markers"
       id="rect4"
       width="2.5377219"
       height="0.53249085"
       x="5.6477389"
       y="14.424617"
       ry="0.26624542" /></g></svg>
