<?xml version="1.0" encoding="UTF-8" standalone="no"?>
<!-- Created with Inkscape (http://www.inkscape.org/) -->

<svg
   width="80"
   height="80"
   viewBox="0 0 21.166667 21.166667"
   version="1.1"
   id="svg5"
   xml:space="preserve"
   inkscape:export-filename="mic_on.svg"
   inkscape:export-xdpi="96"
   inkscape:export-ydpi="96"
   inkscape:version="1.3 (0e150ed6c4, 2023-07-21)"
   sodipodi:docname="edit_objek.svg"
   xmlns:inkscape="http://www.inkscape.org/namespaces/inkscape"
   xmlns:sodipodi="http://sodipodi.sourceforge.net/DTD/sodipodi-0.dtd"
   xmlns="http://www.w3.org/2000/svg"
   xmlns:svg="http://www.w3.org/2000/svg"><sodipodi:namedview
     id="namedview7"
     pagecolor="#000000"
     bordercolor="#111111"
     borderopacity="1"
     inkscape:showpageshadow="0"
     inkscape:pageopacity="0"
     inkscape:pagecheckerboard="1"
     inkscape:deskcolor="#d1d1d1"
     inkscape:document-units="mm"
     showgrid="false"
     inkscape:zoom="2.8284271"
     inkscape:cx="27.930718"
     inkscape:cy="-0.70710678"
     inkscape:window-width="1366"
     inkscape:window-height="696"
     inkscape:window-x="0"
     inkscape:window-y="0"
     inkscape:window-maximized="1"
     inkscape:current-layer="layer1" /><defs
     id="defs2" /><g
     inkscape:label="Lapis 1"
     inkscape:groupmode="layer"
     id="layer1"><circle
       style="fill:#feffff;fill-opacity:0.99879295;stroke:#000000;stroke-width:1.32292;stroke-linecap:square;stroke-linejoin:round;stroke-dasharray:none;stroke-dashoffset:0.1;paint-order:stroke fill markers"
       id="path368"
       cx="10.583333"
       cy="10.583333"
       r="8.9292917" /><path
       style="fill:#000000;stroke-width:0.0474027"
       d="M 5.9883731,15.449977 C 5.8214695,15.394942 5.7201697,15.266284 5.7089405,15.095078 l -0.00586,-0.08941 0.39083,-1.17249 C 6.3511023,13.061602 6.4969825,12.641881 6.520544,12.605683 6.540235,12.575433 8.0822094,11.025675 9.9471522,9.1617829 13.704556,5.4064948 13.387172,5.709415 13.564612,5.70917 c 0.181594,-2.371e-4 0.120285,-0.051107 1.018595,0.8449147 0.904569,0.9022616 0.874475,0.8665602 0.873425,1.036182 -0.0012,0.1906069 0.330698,-0.15813 -3.446859,3.6219553 -1.863175,1.864422 -3.4158814,3.409449 -3.4504621,3.433396 -0.050729,0.03513 -0.2857235,0.117653 -1.2165682,0.427235 -1.2132871,0.403515 -1.2463812,0.41273 -1.3543659,0.377123 z m 1.4487217,-1.243793 0.6959506,-0.232057 2.4362726,-2.436229 c 1.339949,-1.339926 2.436272,-2.4419064 2.436272,-2.4488462 0,-0.00694 -0.20885,-0.2214103 -0.464111,-0.4766012 L 12.077369,8.1484669 9.6324992,10.600412 7.187631,13.052357 6.9558715,13.7453 c -0.127468,0.381118 -0.2279275,0.692942 -0.2232436,0.692942 0.00468,0 0.3216942,-0.104421 0.7044669,-0.232058 z M 14.498081,7.5966122 c 0,-0.00697 -0.208833,-0.2214445 -0.464073,-0.4766153 L 13.569934,6.656051 13.102811,7.1231753 12.635686,7.5902997 13.105905,8.0606431 13.576123,8.5309869 14.037102,8.0701341 C 14.29064,7.8166652 14.498081,7.60358 14.498081,7.5966122 Z"
       id="path2"
       sodipodi:nodetypes="sccssscscsssssccssscccsscsscccccss" /></g></svg>
