<?xml version="1.0" encoding="UTF-8" standalone="no"?>
<svg
   height="110"
   width="110"
   id="svg4776"
   version="1.1"
   sodipodi:docname="gunakan_objek.svg"
   inkscape:version="1.3.2 (091e20ef0f, 2023-11-25, custom)"
   xml:space="preserve"
   xmlns:inkscape="http://www.inkscape.org/namespaces/inkscape"
   xmlns:sodipodi="http://sodipodi.sourceforge.net/DTD/sodipodi-0.dtd"
   xmlns="http://www.w3.org/2000/svg"
   xmlns:svg="http://www.w3.org/2000/svg"
   xmlns:rdf="http://www.w3.org/1999/02/22-rdf-syntax-ns#"
   xmlns:cc="http://creativecommons.org/ns#"
   xmlns:dc="http://purl.org/dc/elements/1.1/"><sodipodi:namedview
     pagecolor="#000000"
     bordercolor="#666666"
     borderopacity="1"
     objecttolerance="10"
     gridtolerance="10"
     guidetolerance="10"
     inkscape:pageopacity="0"
     inkscape:pageshadow="2"
     inkscape:window-width="1366"
     inkscape:window-height="749"
     id="namedview996"
     showgrid="false"
     inkscape:zoom="2.1795526"
     inkscape:cx="34.410732"
     inkscape:cy="60.333484"
     inkscape:window-x="0"
     inkscape:window-y="19"
     inkscape:window-maximized="1"
     inkscape:current-layer="g5"
     inkscape:snap-page="true"
     inkscape:showpageshadow="2"
     inkscape:pagecheckerboard="true"
     inkscape:deskcolor="#d1d1d1" /><metadata
     id="metadata4780"><rdf:RDF><cc:Work
         rdf:about=""><dc:format>image/svg+xml</dc:format><dc:type
           rdf:resource="http://purl.org/dc/dcmitype/StillImage" /></cc:Work></rdf:RDF></metadata><defs
     id="defs4546"><linearGradient
       id="gradient0"
       gradientTransform="matrix(0,-0.02929688,0.02929688,0,44,469)"
       spreadMethod="pad"
       x2="819.20001"
       x1="-819.20001"
       gradientUnits="userSpaceOnUse"><stop
         id="stop4281"
         stop-color="#383838"
         offset="0" /><stop
         id="stop4283"
         stop-color="#585858"
         offset="1" /></linearGradient><linearGradient
       id="gradient1"
       gradientTransform="matrix(0,-0.02929688,0.02929688,0,104,469)"
       spreadMethod="pad"
       x2="819.20001"
       x1="-819.20001"
       gradientUnits="userSpaceOnUse"><stop
         id="stop4286"
         stop-color="#383838"
         offset="0" /><stop
         id="stop4288"
         stop-color="#585858"
         offset="1" /></linearGradient><linearGradient
       id="gradient2"
       gradientTransform="matrix(0,-0.02929688,0.02929688,0,164,469)"
       spreadMethod="pad"
       x2="819.20001"
       x1="-819.20001"
       gradientUnits="userSpaceOnUse"><stop
         id="stop4291"
         stop-color="#383838"
         offset="0" /><stop
         id="stop4293"
         stop-color="#585858"
         offset="1" /></linearGradient><linearGradient
       id="gradient3"
       gradientTransform="matrix(0,-0.02929688,0.02929688,0,224,469)"
       spreadMethod="pad"
       x2="819.20001"
       x1="-819.20001"
       gradientUnits="userSpaceOnUse"><stop
         id="stop4296"
         stop-color="#383838"
         offset="0" /><stop
         id="stop4298"
         stop-color="#585858"
         offset="1" /></linearGradient><linearGradient
       id="gradient4"
       gradientTransform="matrix(0,-0.02929688,0.02929688,0,284,469)"
       spreadMethod="pad"
       x2="819.20001"
       x1="-819.20001"
       gradientUnits="userSpaceOnUse"><stop
         id="stop4301"
         stop-color="#383838"
         offset="0" /><stop
         id="stop4303"
         stop-color="#585858"
         offset="1" /></linearGradient><linearGradient
       id="gradient5"
       gradientTransform="matrix(0,-0.02929688,0.02929688,0,344,469)"
       spreadMethod="pad"
       x2="819.20001"
       x1="-819.20001"
       gradientUnits="userSpaceOnUse"><stop
         id="stop4306"
         stop-color="#383838"
         offset="0" /><stop
         id="stop4308"
         stop-color="#585858"
         offset="1" /></linearGradient><linearGradient
       id="gradient6"
       gradientTransform="matrix(0,-0.02929688,0.02929688,0,44,409)"
       spreadMethod="pad"
       x2="819.20001"
       x1="-819.20001"
       gradientUnits="userSpaceOnUse"><stop
         id="stop4311"
         stop-color="#383838"
         offset="0" /><stop
         id="stop4313"
         stop-color="#585858"
         offset="1" /></linearGradient><linearGradient
       id="gradient7"
       gradientTransform="matrix(0,-0.02929688,0.02929688,0,104,409)"
       spreadMethod="pad"
       x2="819.20001"
       x1="-819.20001"
       gradientUnits="userSpaceOnUse"><stop
         id="stop4316"
         stop-color="#383838"
         offset="0" /><stop
         id="stop4318"
         stop-color="#585858"
         offset="1" /></linearGradient><linearGradient
       id="gradient8"
       gradientTransform="matrix(0,-0.02929688,0.02929688,0,164,409)"
       spreadMethod="pad"
       x2="819.20001"
       x1="-819.20001"
       gradientUnits="userSpaceOnUse"><stop
         id="stop4321"
         stop-color="#383838"
         offset="0" /><stop
         id="stop4323"
         stop-color="#585858"
         offset="1" /></linearGradient><linearGradient
       id="gradient9"
       gradientTransform="matrix(0,-0.02929688,0.02929688,0,224,409)"
       spreadMethod="pad"
       x2="819.20001"
       x1="-819.20001"
       gradientUnits="userSpaceOnUse"><stop
         id="stop4326"
         stop-color="#383838"
         offset="0" /><stop
         id="stop4328"
         stop-color="#585858"
         offset="1" /></linearGradient><linearGradient
       id="gradient10"
       gradientTransform="matrix(0,-0.02929688,0.02929688,0,284,409)"
       spreadMethod="pad"
       x2="819.20001"
       x1="-819.20001"
       gradientUnits="userSpaceOnUse"><stop
         id="stop4331"
         stop-color="#383838"
         offset="0" /><stop
         id="stop4333"
         stop-color="#585858"
         offset="1" /></linearGradient><linearGradient
       id="gradient11"
       gradientTransform="matrix(0,-0.02929688,0.02929688,0,344,409)"
       spreadMethod="pad"
       x2="819.20001"
       x1="-819.20001"
       gradientUnits="userSpaceOnUse"><stop
         id="stop4336"
         stop-color="#383838"
         offset="0" /><stop
         id="stop4338"
         stop-color="#585858"
         offset="1" /></linearGradient><linearGradient
       id="gradient12"
       gradientTransform="matrix(0,-0.02929688,0.02929688,0,44,349)"
       spreadMethod="pad"
       x2="819.20001"
       x1="-819.20001"
       gradientUnits="userSpaceOnUse"><stop
         id="stop4341"
         stop-color="#383838"
         offset="0" /><stop
         id="stop4343"
         stop-color="#585858"
         offset="1" /></linearGradient><linearGradient
       id="gradient13"
       gradientTransform="matrix(0,-0.02929688,0.02929688,0,104,349)"
       spreadMethod="pad"
       x2="819.20001"
       x1="-819.20001"
       gradientUnits="userSpaceOnUse"><stop
         id="stop4346"
         stop-color="#383838"
         offset="0" /><stop
         id="stop4348"
         stop-color="#585858"
         offset="1" /></linearGradient><linearGradient
       id="gradient14"
       gradientTransform="matrix(0,-0.02929688,0.02929688,0,164,349)"
       spreadMethod="pad"
       x2="819.20001"
       x1="-819.20001"
       gradientUnits="userSpaceOnUse"><stop
         id="stop4351"
         stop-color="#383838"
         offset="0" /><stop
         id="stop4353"
         stop-color="#585858"
         offset="1" /></linearGradient><linearGradient
       id="gradient15"
       gradientTransform="matrix(0,-0.02929688,0.02929688,0,224,349)"
       spreadMethod="pad"
       x2="819.20001"
       x1="-819.20001"
       gradientUnits="userSpaceOnUse"><stop
         id="stop4356"
         stop-color="#383838"
         offset="0" /><stop
         id="stop4358"
         stop-color="#585858"
         offset="1" /></linearGradient><linearGradient
       id="gradient16"
       gradientTransform="matrix(0,-0.02929688,0.02929688,0,284,349)"
       spreadMethod="pad"
       x2="819.20001"
       x1="-819.20001"
       gradientUnits="userSpaceOnUse"><stop
         id="stop4361"
         stop-color="#383838"
         offset="0" /><stop
         id="stop4363"
         stop-color="#585858"
         offset="1" /></linearGradient><linearGradient
       id="gradient17"
       gradientTransform="matrix(0,-0.02929688,0.02929688,0,344,349)"
       spreadMethod="pad"
       x2="819.20001"
       x1="-819.20001"
       gradientUnits="userSpaceOnUse"><stop
         id="stop4366"
         stop-color="#383838"
         offset="0" /><stop
         id="stop4368"
         stop-color="#585858"
         offset="1" /></linearGradient><linearGradient
       id="gradient18"
       gradientTransform="matrix(0,-0.02935791,0.02929688,0,314,559)"
       spreadMethod="pad"
       x2="819.20001"
       x1="-819.20001"
       gradientUnits="userSpaceOnUse"><stop
         id="stop4371"
         stop-color="#383838"
         offset="0" /><stop
         id="stop4373"
         stop-color="#585858"
         offset="1" /></linearGradient><linearGradient
       id="gradient19"
       gradientTransform="matrix(0,-0.02935791,0.02929688,0,194,559)"
       spreadMethod="pad"
       x2="819.20001"
       x1="-819.20001"
       gradientUnits="userSpaceOnUse"><stop
         id="stop4376"
         stop-color="#383838"
         offset="0" /><stop
         id="stop4378"
         stop-color="#585858"
         offset="1" /></linearGradient><linearGradient
       id="gradient20"
       gradientTransform="matrix(0,-0.04882812,0.04882812,0,700,455)"
       spreadMethod="pad"
       x2="819.20001"
       x1="-819.20001"
       gradientUnits="userSpaceOnUse"><stop
         id="stop4381"
         stop-color="#383838"
         offset="0" /><stop
         id="stop4383"
         stop-color="#585858"
         offset="1" /></linearGradient><linearGradient
       id="gradient21"
       gradientTransform="matrix(0,-0.04882812,0.04882812,0,610,470)"
       spreadMethod="pad"
       x2="819.20001"
       x1="-819.20001"
       gradientUnits="userSpaceOnUse"><stop
         id="stop4386"
         stop-color="#383838"
         offset="0" /><stop
         id="stop4388"
         stop-color="#585858"
         offset="1" /></linearGradient><linearGradient
       id="gradient22"
       gradientTransform="matrix(0,-0.04882812,0.04882812,0,520,470)"
       spreadMethod="pad"
       x2="819.20001"
       x1="-819.20001"
       gradientUnits="userSpaceOnUse"><stop
         id="stop4391"
         stop-color="#383838"
         offset="0" /><stop
         id="stop4393"
         stop-color="#585858"
         offset="1" /></linearGradient><linearGradient
       id="gradient23"
       gradientTransform="matrix(0,-0.04882812,0.04882812,0,42.5,42.5)"
       spreadMethod="pad"
       x2="819.20001"
       x1="-819.20001"
       gradientUnits="userSpaceOnUse"><stop
         id="stop4396"
         stop-color="#383838"
         offset="0" /><stop
         id="stop4398"
         stop-color="#585858"
         offset="1" /></linearGradient><linearGradient
       id="gradient24"
       gradientTransform="matrix(0,-0.04882812,0.04882812,0,880,365)"
       spreadMethod="pad"
       x2="819.20001"
       x1="-819.20001"
       gradientUnits="userSpaceOnUse"><stop
         id="stop4401"
         stop-color="#383838"
         offset="0" /><stop
         id="stop4403"
         stop-color="#585858"
         offset="1" /></linearGradient><linearGradient
       id="gradient25"
       gradientTransform="matrix(0,-0.04882812,0.04882812,0,790,365)"
       spreadMethod="pad"
       x2="819.20001"
       x1="-819.20001"
       gradientUnits="userSpaceOnUse"><stop
         id="stop4406"
         stop-color="#383838"
         offset="0" /><stop
         id="stop4408"
         stop-color="#585858"
         offset="1" /></linearGradient><linearGradient
       id="gradient26"
       gradientTransform="matrix(0,-0.04882812,0.04882812,0,700,365)"
       spreadMethod="pad"
       x2="819.20001"
       x1="-819.20001"
       gradientUnits="userSpaceOnUse"><stop
         id="stop4411"
         stop-color="#383838"
         offset="0" /><stop
         id="stop4413"
         stop-color="#585858"
         offset="1" /></linearGradient><linearGradient
       id="gradient27"
       gradientTransform="matrix(0,-0.04882812,0.04882812,0,610,365)"
       spreadMethod="pad"
       x2="819.20001"
       x1="-819.20001"
       gradientUnits="userSpaceOnUse"><stop
         id="stop4416"
         stop-color="#383838"
         offset="0" /><stop
         id="stop4418"
         stop-color="#585858"
         offset="1" /></linearGradient><linearGradient
       id="gradient28"
       gradientTransform="matrix(0,-0.04882812,0.04882812,0,520,365)"
       spreadMethod="pad"
       x2="819.20001"
       x1="-819.20001"
       gradientUnits="userSpaceOnUse"><stop
         id="stop4421"
         stop-color="#383838"
         offset="0" /><stop
         id="stop4423"
         stop-color="#585858"
         offset="1" /></linearGradient><linearGradient
       id="gradient29"
       gradientTransform="matrix(0,-0.04882812,0.04882812,0,430,365)"
       spreadMethod="pad"
       x2="819.20001"
       x1="-819.20001"
       gradientUnits="userSpaceOnUse"><stop
         id="stop4426"
         stop-color="#383838"
         offset="0" /><stop
         id="stop4428"
         stop-color="#585858"
         offset="1" /></linearGradient><linearGradient
       id="gradient30"
       gradientTransform="matrix(0,-0.09765625,0.09765625,0,279.95,225)"
       spreadMethod="pad"
       x2="819.20001"
       x1="-819.20001"
       gradientUnits="userSpaceOnUse"><stop
         id="stop4431"
         stop-color="#383838"
         offset="0" /><stop
         id="stop4433"
         stop-color="#585858"
         offset="1" /></linearGradient><linearGradient
       id="gradient31"
       gradientTransform="matrix(0.04142761,-0.04142761,0.04142761,0.04142761,279.95,55)"
       spreadMethod="pad"
       x2="819.20001"
       x1="-819.20001"
       gradientUnits="userSpaceOnUse"><stop
         id="stop4436"
         stop-color="#383838"
         offset="0" /><stop
         id="stop4438"
         stop-color="#585858"
         offset="1" /></linearGradient><linearGradient
       id="gradient32"
       gradientTransform="matrix(0,-0.05493164,0.05493164,0,279.95,55)"
       spreadMethod="pad"
       x2="819.20001"
       x1="-819.20001"
       gradientUnits="userSpaceOnUse"><stop
         id="stop4441"
         stop-color="#434343"
         offset="0.00392156862745098" /><stop
         id="stop4443"
         stop-color="#2C2C2C"
         offset="1" /></linearGradient><linearGradient
       id="gradient33"
       gradientTransform="matrix(0,-0.09762573,0.09762573,0,459.95,224.95)"
       spreadMethod="pad"
       x2="819.20001"
       x1="-819.20001"
       gradientUnits="userSpaceOnUse"><stop
         id="stop4446"
         stop-color="#383838"
         offset="0" /><stop
         id="stop4448"
         stop-color="#585858"
         offset="1" /></linearGradient><linearGradient
       id="gradient34"
       gradientTransform="matrix(0,-0.02935791,0.02929688,0,74,559)"
       spreadMethod="pad"
       x2="819.20001"
       x1="-819.20001"
       gradientUnits="userSpaceOnUse"><stop
         id="stop4451"
         stop-color="#383838"
         offset="0" /><stop
         id="stop4453"
         stop-color="#585858"
         offset="1" /></linearGradient><linearGradient
       id="gradient35"
       gradientTransform="matrix(0,-0.09765625,0.09765625,0,840,225)"
       spreadMethod="pad"
       x2="819.20001"
       x1="-819.20001"
       gradientUnits="userSpaceOnUse"><stop
         id="stop4456"
         stop-color="#383838"
         offset="0" /><stop
         id="stop4458"
         stop-color="#585858"
         offset="1" /></linearGradient><linearGradient
       id="gradient36"
       gradientTransform="matrix(0.05392456,-0.05392456,0.05392456,0.05392456,839.45,55.45)"
       spreadMethod="pad"
       x2="819.20001"
       x1="-819.20001"
       gradientUnits="userSpaceOnUse"><stop
         id="stop4461"
         stop-color="#383838"
         offset="0" /><stop
         id="stop4463"
         stop-color="#585858"
         offset="1" /></linearGradient><linearGradient
       id="gradient37"
       gradientTransform="matrix(0,-0.07260132,0.07260132,0,839.4,55.5)"
       spreadMethod="pad"
       x2="819.20001"
       x1="-819.20001"
       gradientUnits="userSpaceOnUse"><stop
         id="stop4466"
         stop-color="#434343"
         offset="0.00392156862745098" /><stop
         id="stop4468"
         stop-color="#2C2C2C"
         offset="1" /></linearGradient><linearGradient
       id="gradient38"
       gradientTransform="matrix(0,-0.04608154,0.04608154,0,650.5,102.75)"
       spreadMethod="pad"
       x2="819.20001"
       x1="-819.20001"
       gradientUnits="userSpaceOnUse"><stop
         id="stop4471"
         stop-color="#383838"
         offset="0" /><stop
         id="stop4473"
         stop-color="#585858"
         offset="1" /></linearGradient><linearGradient
       id="gradient39"
       gradientTransform="matrix(0,-0.0378418,0.03723145,0,692.7,185.5)"
       spreadMethod="pad"
       x2="819.20001"
       x1="-819.20001"
       gradientUnits="userSpaceOnUse"><stop
         id="stop4476"
         stop-color="#383838"
         offset="0" /><stop
         id="stop4478"
         stop-color="#585858"
         offset="1" /></linearGradient><linearGradient
       id="gradient40"
       gradientTransform="matrix(0,-0.0447998,0.04544067,0,650.5,267.7)"
       spreadMethod="pad"
       x2="819.20001"
       x1="-819.20001"
       gradientUnits="userSpaceOnUse"><stop
         id="stop4481"
         stop-color="#383838"
         offset="0" /><stop
         id="stop4483"
         stop-color="#585858"
         offset="1" /></linearGradient><linearGradient
       id="gradient41"
       gradientTransform="matrix(0,-0.03723145,0.03723145,0,607.75,185.5)"
       spreadMethod="pad"
       x2="819.20001"
       x1="-819.20001"
       gradientUnits="userSpaceOnUse"><stop
         id="stop4486"
         stop-color="#383838"
         offset="0" /><stop
         id="stop4488"
         stop-color="#585858"
         offset="1" /></linearGradient><linearGradient
       id="gradient42"
       gradientTransform="matrix(0,-0.09765625,0.09765625,0,100,225)"
       spreadMethod="pad"
       x2="819.20001"
       x1="-819.20001"
       gradientUnits="userSpaceOnUse"><stop
         id="stop4491"
         stop-color="#383838"
         offset="0" /><stop
         id="stop4493"
         stop-color="#585858"
         offset="1" /></linearGradient><linearGradient
       id="gradient43"
       gradientTransform="matrix(0,-0.05267334,0.05264282,0,100.05,70.05)"
       spreadMethod="pad"
       x2="819.20001"
       x1="-819.20001"
       gradientUnits="userSpaceOnUse"><stop
         id="stop4496"
         stop-color="#434343"
         offset="0.00392156862745098" /><stop
         id="stop4498"
         stop-color="#2C2C2C"
         offset="1" /></linearGradient><linearGradient
       id="gradient44"
       gradientTransform="matrix(0.04142761,-0.04142761,0.04142761,0.04142761,100.1,70.15)"
       spreadMethod="pad"
       x2="819.20001"
       x1="-819.20001"
       gradientUnits="userSpaceOnUse"><stop
         id="stop4501"
         stop-color="#383838"
         offset="0" /><stop
         id="stop4503"
         stop-color="#585858"
         offset="1" /></linearGradient><linearGradient
       id="gradient45"
       gradientTransform="matrix(0,-0.04882812,0.04882812,0,880,455)"
       spreadMethod="pad"
       x2="819.20001"
       x1="-819.20001"
       gradientUnits="userSpaceOnUse"><stop
         id="stop4506"
         stop-color="#383838"
         offset="0" /><stop
         id="stop4508"
         stop-color="#585858"
         offset="1" /></linearGradient><linearGradient
       id="gradient46"
       gradientTransform="matrix(0,-0.04882812,0.04882812,0,790,455)"
       spreadMethod="pad"
       x2="819.20001"
       x1="-819.20001"
       gradientUnits="userSpaceOnUse"><stop
         id="stop4511"
         stop-color="#383838"
         offset="0" /><stop
         id="stop4513"
         stop-color="#585858"
         offset="1" /></linearGradient><linearGradient
       id="gradient47"
       gradientTransform="matrix(0,-0.04882812,0.04882812,0,700,545)"
       spreadMethod="pad"
       x2="819.20001"
       x1="-819.20001"
       gradientUnits="userSpaceOnUse"><stop
         id="stop4516"
         stop-color="#383838"
         offset="0" /><stop
         id="stop4518"
         stop-color="#585858"
         offset="1" /></linearGradient><linearGradient
       id="gradient48"
       gradientTransform="matrix(0,-0.04882812,0.04882812,0,610,545)"
       spreadMethod="pad"
       x2="819.20001"
       x1="-819.20001"
       gradientUnits="userSpaceOnUse"><stop
         id="stop4521"
         stop-color="#383838"
         offset="0" /><stop
         id="stop4523"
         stop-color="#585858"
         offset="1" /></linearGradient><linearGradient
       id="gradient49"
       gradientTransform="matrix(0,-0.04882812,0.04882812,0,520,545)"
       spreadMethod="pad"
       x2="819.20001"
       x1="-819.20001"
       gradientUnits="userSpaceOnUse"><stop
         id="stop4526"
         stop-color="#383838"
         offset="0" /><stop
         id="stop4528"
         stop-color="#585858"
         offset="1" /></linearGradient><linearGradient
       id="gradient50"
       gradientTransform="matrix(0,-0.04882812,0.04882812,0,880,545)"
       spreadMethod="pad"
       x2="819.20001"
       x1="-819.20001"
       gradientUnits="userSpaceOnUse"><stop
         id="stop4531"
         stop-color="#383838"
         offset="0" /><stop
         id="stop4533"
         stop-color="#585858"
         offset="1" /></linearGradient><linearGradient
       id="gradient51"
       gradientTransform="matrix(0,-0.04882812,0.04882812,0,790,545)"
       spreadMethod="pad"
       x2="819.20001"
       x1="-819.20001"
       gradientUnits="userSpaceOnUse"><stop
         id="stop4536"
         stop-color="#383838"
         offset="0" /><stop
         id="stop4538"
         stop-color="#585858"
         offset="1" /></linearGradient><linearGradient
       id="gradient52"
       gradientTransform="matrix(0,-0.04882812,0.04882812,0,430,545)"
       spreadMethod="pad"
       x2="819.20001"
       x1="-819.20001"
       gradientUnits="userSpaceOnUse"><stop
         id="stop4541"
         stop-color="#383838"
         offset="0" /><stop
         id="stop4543"
         stop-color="#585858"
         offset="1" /></linearGradient><linearGradient
       y1="262.28622"
       id="gradient23-0"
       gradientTransform="matrix(0,-0.04882812,0.04882812,0,42.5,42.5)"
       spreadMethod="pad"
       x2="819.20001"
       x1="520.13391"
       gradientUnits="userSpaceOnUse"><stop
         id="stop4396-9"
         stop-color="#383838"
         offset="0" /><stop
         id="stop4398-3"
         stop-color="#585858"
         offset="1" /></linearGradient><linearGradient
       y1="5.5805583"
       id="gradient22-8"
       gradientTransform="matrix(0,-0.04882812,0.04882812,0,520,470)"
       spreadMethod="pad"
       x2="819.20001"
       x1="40.20594"
       gradientUnits="userSpaceOnUse"><stop
         id="stop4391-7"
         stop-color="#383838"
         offset="0" /><stop
         id="stop4393-9"
         stop-color="#585858"
         offset="1" /></linearGradient><linearGradient
       id="gradient22-6"
       gradientTransform="matrix(0,-0.04882812,0.04882812,0,42.5,42.5)"
       spreadMethod="pad"
       x2="819.20001"
       x1="-819.20001"
       gradientUnits="userSpaceOnUse"><stop
         id="stop4391-75"
         stop-color="#383838"
         offset="0" /><stop
         id="stop4393-3"
         stop-color="#585858"
         offset="1" /></linearGradient><linearGradient
       y1="262.28622"
       id="gradient23-0-5"
       gradientTransform="matrix(0,-0.04882812,0.04882812,0,42.5,42.5)"
       spreadMethod="pad"
       x2="819.20001"
       x1="520.13391"
       gradientUnits="userSpaceOnUse"><stop
         id="stop4396-9-6"
         stop-color="#383838"
         offset="0" /><stop
         id="stop4398-3-2"
         stop-color="#585858"
         offset="1" /></linearGradient></defs><circle
     style="display:inline;fill:#feffff;fill-opacity:0.502319;stroke:#000000;stroke-width:1.32292;stroke-linecap:square;stroke-linejoin:round;stroke-dasharray:none;stroke-dashoffset:0.1;stroke-opacity:1;paint-order:normal"
     id="path368"
     r="13.461544"
     cy="10.583333"
     cx="10.583333"
     transform="matrix(3.7795276,0,0,3.7795276,15.000001,15.000001)"
     sodipodi:insensitive="true" /><path
     style="fill:#000000;stroke-width:0.141082"
     d="m 25.80178,72.213021 c -8.620479,-4.320989 -8.589556,-4.302113 -8.985829,-5.485681 -0.216734,-0.647328 -0.225348,-18.327594 -0.0093,-19.105598 0.341358,-1.229308 0.574707,-1.373754 9.121481,-5.646322 7.734996,-3.866757 7.969006,-3.972567 8.785808,-3.972567 0.816803,0 1.050812,0.10581 8.785809,3.972567 8.546772,4.272568 8.780122,4.417014 9.121481,5.646322 0.21604,0.778004 0.207425,18.45827 -0.0093,19.105598 -0.396733,1.184944 -0.360219,1.162707 -9.020624,5.493414 -7.66537,3.833134 -8.216853,4.085495 -8.91215,4.078243 -0.682894,-0.0071 -1.380799,-0.328347 -8.87736,-4.085976 z m 6.654834,-8.462284 v -6.771613 l -5.643296,-2.822335 -5.643296,-2.822337 v 6.808404 6.808406 l 5.537484,2.777601 c 3.045617,1.527678 5.585101,2.781174 5.643296,2.785543 0.05821,0.0044 0.105812,-3.039283 0.105812,-6.763669 z m 7.478109,-13.191921 c 2.87062,-1.435718 5.219307,-2.641806 5.219307,-2.680195 0,-0.03839 -2.349021,-1.244644 -5.220048,-2.680565 l -5.220049,-2.610768 -5.220049,2.610768 c -2.871027,1.435921 -5.220048,2.642173 -5.220048,2.680558 0,0.05269 10.226827,5.244867 10.405568,5.282928 0.01982,0.0042 2.384702,-1.167009 5.255319,-2.602726 z m 18.198888,16.585729 c -0.737154,-0.06221 -1.737076,-0.159216 -2.222047,-0.215574 l -0.881765,-0.102469 v -2.261498 -2.261497 l 0.529059,0.08326 c 1.358983,0.213889 4.586953,0.399815 6.142888,0.353821 1.446097,-0.04275 1.828682,-0.10303 2.384529,-0.375732 1.416238,-0.694818 2.448661,-2.174061 2.610277,-3.739984 0.06883,-0.666895 -0.199515,-1.765695 -2.351623,-9.629292 -1.336125,-4.882074 -2.473504,-8.923633 -2.527508,-8.981244 -0.054,-0.05761 -1.587439,2.328886 -3.407634,5.303326 L 55.10034,50.725736 55.02597,48.94947 c -0.06505,-1.55375 -0.123488,-1.882307 -0.466495,-2.62276 -0.21567,-0.465571 -0.544509,-1.005819 -0.730753,-1.200549 l -0.338624,-0.354054 3.529723,-5.783031 c 1.941347,-3.180665 3.688035,-5.925874 3.881528,-6.100465 0.476593,-0.430032 1.324234,-0.430032 1.800729,0 0.483415,0.43628 16.891518,27.278746 17.068168,27.922286 0.722915,2.633615 -4.33767,5.187007 -12.122593,6.11663 -2.136507,0.255128 -7.588678,0.37949 -9.514046,0.217013 z M 48.075406,41.730334 c -2.332937,-1.173864 -3.325384,-1.74172 -3.253817,-1.861764 0.05663,-0.095 0.343442,-0.493782 0.637346,-0.88618 1.575361,-2.103301 2.48676,-5.378278 2.09828,-7.539868 -0.55781,-3.103779 -2.829151,-4.788236 -6.465251,-4.794716 -5.175921,-0.0092 -9.626939,3.592919 -10.668111,8.633554 -0.123507,0.597933 -0.224557,1.297109 -0.224557,1.553726 0,0.460953 -0.02621,0.479649 -2.174295,1.551047 -1.758629,0.877148 -2.190167,1.043109 -2.25732,0.868115 -0.147871,-0.385352 -0.08648,-2.204986 0.120777,-3.579842 0.796213,-5.28168 4.070971,-9.717071 8.851561,-11.988717 7.714096,-3.665589 16.979442,-0.46943 20.850353,7.192502 0.556372,1.101263 1.273498,3.183288 1.273498,3.697335 0,0.300391 -5.165409,8.865414 -5.33813,8.851422 -0.05145,-0.0041 -1.604099,-0.767642 -3.450334,-1.696614 z"
     id="path3" /><g
     id="g5"
     transform="translate(-1.9940191,19.299932)"><path
       style="display:inline;fill:#323232;fill-opacity:1;stroke:none;stroke-width:2.5;stroke-dasharray:none;stroke-opacity:1;paint-order:stroke fill markers"
       d="m 65.001032,53.416202 8.028757,0.426569 -7.476754,-14.578204 1.23127,-2.657954 2.56944,-0.672954 2.301202,2.547256 2.91282,3.460149 2.594978,-0.806171 2.316856,0.943138 2.285704,-1.056013 3.111971,0.877508 3.075266,-0.781114 2.909553,1.72284 3.139815,5.173366 0.95548,4.265493 -0.242329,6.240187 -3.505464,3.589882 -8.402202,4.02847 -2.241617,-0.727637 -5.299333,-3.221853 -7.413145,-3.363755 -3.590029,-2.295836 -0.179157,-2.650085 0.927275,-0.162505 z"
       id="path5" /><path
       style="display:inline;fill:#fffffe;fill-opacity:1;stroke:none;stroke-width:2.5;stroke-dasharray:none;stroke-opacity:1;paint-order:stroke fill markers"
       d="m 95.189169,59.597325 c -0.172661,0.306037 -0.6305,0.865771 -1.017401,1.243847 -1.012521,0.989415 -10.750302,6.524772 -11.454487,6.511202 -1.085162,-0.02095 -2.338498,-0.646718 -3.287939,-1.64169 -0.856259,-0.897336 -1.245504,-1.109503 -6.692572,-3.647989 -3.18089,-1.48238 -6.139717,-2.915703 -6.575166,-3.185166 -3.65862,-2.263974 -3.801539,-6.11328 -0.255323,-6.876771 0.484944,-0.104407 1.575312,-0.04667 2.791089,0.147906 1.097379,0.175593 2.211399,0.33209 2.475594,0.347778 0.429095,0.02548 0.118024,-0.60135 -2.914725,-5.873351 -3.712375,-6.453446 -3.963062,-7.105386 -3.447047,-8.964222 0.614209,-2.212545 2.49265,-3.264083 4.739209,-2.652977 1.602255,0.435854 2.361963,1.171971 3.895299,3.774414 l 1.340578,2.275269 0.683589,-0.414438 c 0.375973,-0.227941 0.995364,-0.471578 1.376418,-0.541418 0.800627,-0.146737 2.118115,0.157154 2.586918,0.596699 0.272848,0.255814 0.484585,0.217819 1.36832,-0.245539 1.617646,-0.848164 2.712821,-0.809608 3.822792,0.134577 0.565019,0.48063 0.575258,0.481204 1.324906,0.07435 2.013872,-1.092981 3.733425,-0.684165 5.264041,1.251499 0.290709,0.367645 1.358666,2.093176 2.373227,3.834511 1.511304,2.59392 1.897579,3.436015 2.137503,4.659899 0.551238,2.811827 0.262217,7.778929 -0.534823,9.191608 z m -0.966272,-4.342201 c 0.05706,-2.365481 -0.09192,-4.189214 -0.430087,-5.265769 -0.133501,-0.424999 -1.059898,-2.154067 -2.058662,-3.84238 -2.438809,-4.122545 -3.372195,-4.862501 -4.936946,-3.913846 l -0.635705,0.385408 0.804075,1.544645 c 0.798674,1.534259 0.875636,2.108244 0.32529,2.425985 -0.644639,0.372183 -1.100357,-0.05101 -2.045467,-1.899477 -0.954217,-1.866279 -1.962682,-3.015292 -2.650093,-3.019431 -0.206219,-0.0013 -0.673654,0.178839 -1.038746,0.400182 l -0.663798,0.40244 0.870509,1.768636 c 0.478785,0.97275 0.84197,1.875167 0.807084,2.005373 -0.03486,0.130205 -0.21939,0.362238 -0.409999,0.51563 -0.562212,0.452437 -1.135938,-0.05493 -1.980003,-1.750995 -0.903596,-1.81569 -1.807364,-2.995597 -2.420345,-3.159843 -0.240214,-0.06436 -0.811313,0.06795 -1.269103,0.294046 l -0.832355,0.411074 0.960689,1.724806 c 0.997927,1.79166 1.035424,1.961 0.549111,2.479691 -0.643615,0.686462 -1.060726,0.188225 -3.81897,-4.561772 -1.486265,-2.559512 -2.917055,-4.808134 -3.179522,-4.996936 -1.782836,-1.282453 -3.801187,-0.404607 -3.803274,1.654171 -7.43e-4,0.736581 0.61227,1.919582 4.535279,8.752156 2.494878,4.345253 4.501278,8.030574 4.458661,8.189619 -0.118531,0.44236 -0.934581,0.782642 -1.306427,0.54475 -0.178727,-0.114342 -0.520893,-0.559836 -0.760372,-0.989994 l -0.435402,-0.78211 -3.083917,-0.481568 c -3.164092,-0.49409 -3.577217,-0.495426 -4.322706,-0.01399 -0.799385,0.516258 -0.315128,1.811671 1.105055,2.956067 0.440475,0.354938 3.35456,1.824874 6.935724,3.49855 5.771592,2.697384 6.23343,2.946625 7.051755,3.805628 1.681774,1.765373 1.165235,1.884765 7.343237,-1.697268 3.482191,-2.018992 5.535092,-3.327256 5.670257,-3.613517 0.467967,-0.991088 0.618781,-1.845862 0.665173,-3.769983 z"
       id="path1"
       sodipodi:nodetypes="sscsscscssssscssssssssssscssscssscscscsssscssssssssscssssssscc" /></g></svg>
