<?xml version="1.0" encoding="UTF-8" standalone="no"?>
<!-- Created with Inkscape (http://www.inkscape.org/) -->

<svg
   width="80"
   height="80"
   viewBox="0 0 21.166667 21.166667"
   version="1.1"
   id="svg5"
   xml:space="preserve"
   inkscape:export-filename="mic_on.svg"
   inkscape:export-xdpi="96"
   inkscape:export-ydpi="96"
   inkscape:version="1.3 (0e150ed6c4, 2023-07-21)"
   sodipodi:docname="jatuhkan_sesuatu.svg"
   xmlns:inkscape="http://www.inkscape.org/namespaces/inkscape"
   xmlns:sodipodi="http://sodipodi.sourceforge.net/DTD/sodipodi-0.dtd"
   xmlns="http://www.w3.org/2000/svg"
   xmlns:svg="http://www.w3.org/2000/svg"><sodipodi:namedview
     id="namedview7"
     pagecolor="#000000"
     bordercolor="#111111"
     borderopacity="1"
     inkscape:showpageshadow="0"
     inkscape:pageopacity="0"
     inkscape:pagecheckerboard="1"
     inkscape:deskcolor="#d1d1d1"
     inkscape:document-units="mm"
     showgrid="false"
     inkscape:zoom="3.9373013"
     inkscape:cx="16.127798"
     inkscape:cy="39.748038"
     inkscape:window-width="1364"
     inkscape:window-height="745"
     inkscape:window-x="0"
     inkscape:window-y="21"
     inkscape:window-maximized="1"
     inkscape:current-layer="layer1" /><defs
     id="defs2" /><g
     inkscape:label="Lapis 1"
     inkscape:groupmode="layer"
     id="layer1"><circle
       style="fill:#feffff;fill-opacity:0.99879295;stroke:#000000;stroke-width:1.32292;stroke-linecap:square;stroke-linejoin:round;stroke-dasharray:none;stroke-dashoffset:0.1;paint-order:stroke fill markers"
       id="path368"
       cx="10.583333"
       cy="10.583333"
       r="8.9292917" /><path
       style="fill:#000000;stroke-width:0.999997"
       d="M 6.1306123,16.232642 C 5.9861978,15.949636 5.9940118,16.127802 5.9998011,13.250151 l 0.00516,-2.562757 0.042578,-0.119411 c 0.1279284,-0.358811 0.4021813,-0.6390776 0.7482898,-0.7647087 0.1545333,-0.056092 0.3789536,-0.081121 0.5428499,-0.060542 0.1551372,0.01948 0.7065861,0.1683475 0.7791827,0.2433131 0.047364,0.048905 2.4907005,3.8535046 2.8217865,4.3938906 0.176125,0.287466 0.19407,0.364068 0.137298,0.586101 -0.03656,0.14299 -0.05283,0.179799 -0.105588,0.23846 -0.08497,0.09454 -0.228832,0.180905 -0.350477,0.210397 -0.08777,0.02128 -0.122245,0.01911 -0.261682,-0.01641 -0.277785,-0.07079 -0.22919,-0.0076 -1.2873694,-1.673932 L 8.3007059,12.55888 8.420545,14.000636 c 0.1478096,1.778262 -0.0115,1.910485 -0.043125,2.005171 z M 10.60771,13.287607 v -1.134124 l -4.16e-4,-1.115135 c -2.78e-4,-0.742454 0.0064,-1.1476704 0.01984,-1.2124873 0.0709,-0.3410225 0.366398,-0.6288982 0.712515,-0.6941308 0.05639,-0.010628 0.41002,-0.01865 0.822103,-0.01865 h 0.723145 v 0.3398637 0.3398638 h 0.321494 0.321492 V 9.4529435 9.1130796 l 0.739433,2.709e-4 c 0.802321,2.916e-4 0.876874,0.00751 1.065327,0.1029993 0.129402,0.065572 0.309818,0.2428716 0.378754,0.3722095 0.116179,0.2179749 0.112862,0.1606971 0.112862,1.9491587 0,1.528288 -0.0021,1.634429 -0.03408,1.749889 -0.08509,0.306946 -0.330314,0.548981 -0.637099,0.628888 -0.09224,0.02403 -0.300351,0.02815 -1.417221,0.02815 h -2.177518 c -0.579501,0 -0.950631,-0.222948 -0.950631,-0.657038 z m 2.203733,-2.010836 v 0.671865 l -0.275591,-0.0059 c -0.151573,-0.0032 -0.27558,-0.0014 -0.275565,0.0041 5.4e-5,0.02113 0.942012,1.139502 0.955437,1.134379 0.01769,-0.0067 0.955174,-1.110858 0.955174,-1.124941 0,-0.0057 -0.124004,-0.01028 -0.275566,-0.01028 H 13.619768 V 11.275452 10.60491 H 13.215604 12.811443 Z M 6.8847928,8.6385769 C 6.1422675,8.5051091 5.550705,7.9391103 5.3780024,7.1969013 5.3247183,6.9679059 5.3321666,6.5726896 5.3941423,6.340465 5.702926,5.1834448 6.9649471,4.6030542 8.0265678,5.1298392 8.5059427,5.3677082 8.8822397,5.8340107 9.012694,6.3518348 9.070544,6.5814661 9.070494,7.0340791 9.0126245,7.2460521 8.9235097,7.5723033 8.7697181,7.8490931 8.5515093,8.0759564 8.2892398,8.3486272 8.0336716,8.5001615 7.658378,8.605522 7.5106848,8.6469856 7.0428255,8.6669777 6.8848226,8.6385769 Z"
       id="path2"
       sodipodi:nodetypes="cccsssssscscscsccscccssccccccccssssssssccssssscccccccsssscsscc" /></g></svg>
