<?xml version="1.0" encoding="UTF-8" standalone="no"?>
<!-- Created with Inkscape (http://www.inkscape.org/) -->

<svg
   width="80"
   height="80"
   viewBox="0 0 21.166667 21.166667"
   version="1.1"
   id="svg5"
   xml:space="preserve"
   inkscape:export-filename="mic_on.svg"
   inkscape:export-xdpi="96"
   inkscape:export-ydpi="96"
   inkscape:version="1.3 (0e150ed6c4, 2023-07-21)"
   sodipodi:docname="lompat.svg"
   xmlns:inkscape="http://www.inkscape.org/namespaces/inkscape"
   xmlns:sodipodi="http://sodipodi.sourceforge.net/DTD/sodipodi-0.dtd"
   xmlns="http://www.w3.org/2000/svg"
   xmlns:svg="http://www.w3.org/2000/svg"><sodipodi:namedview
     id="namedview7"
     pagecolor="#000000"
     bordercolor="#111111"
     borderopacity="1"
     inkscape:showpageshadow="0"
     inkscape:pageopacity="0"
     inkscape:pagecheckerboard="1"
     inkscape:deskcolor="#d1d1d1"
     inkscape:document-units="mm"
     showgrid="false"
     inkscape:zoom="2.6809743"
     inkscape:cx="7.8329733"
     inkscape:cy="53.525317"
     inkscape:window-width="1366"
     inkscape:window-height="709"
     inkscape:window-x="0"
     inkscape:window-y="27"
     inkscape:window-maximized="1"
     inkscape:current-layer="layer1" /><defs
     id="defs2" /><g
     inkscape:label="Lapis 1"
     inkscape:groupmode="layer"
     id="layer1"><circle
       style="fill:#feffff;fill-opacity:0.99879295;stroke:#000000;stroke-width:1.32292;stroke-linecap:square;stroke-linejoin:round;stroke-dasharray:none;stroke-dashoffset:0.1;paint-order:stroke fill markers"
       id="path368"
       cx="10.583333"
       cy="10.583333"
       r="8.9292917" /><path
       style="fill:#000000;stroke-width:1"
       d="M 13.783992,15.869359 C 13.624226,15.787318 13.5103,15.598994 12.854038,14.332099 12.442703,13.538028 12.091506,12.882192 12.0736,12.874686 12.055693,12.86718 11.532645,12.588391 10.91127,12.255156 10.289895,11.921921 9.6716983,11.618533 9.5375002,11.580959 9.2253732,11.493569 8.5796088,10.853094 8.495126,10.547122 8.3887025,10.161688 8.4770823,10.016759 9.3047748,9.2194447 L 10.060391,8.4915604 9.7552109,8.4028423 C 9.45023,8.3141818 9.4491314,8.3142817 8.0696268,8.5558939 7.3104047,8.6888673 6.6003884,8.7976636 6.4918132,8.7976636 6.3492487,8.7976636 6.2458873,8.7543142 6.1197735,8.6416314 5.9708945,8.5086081 5.9451432,8.4496208 5.9451432,8.2416137 c 0,-0.1998317 0.029031,-0.272989 0.1604185,-0.4042526 C 6.2593434,7.6837244 6.3289528,7.6659843 7.788148,7.4085503 8.6253402,7.2608514 9.3850578,7.1400067 9.4764091,7.1400067 c 0.091351,0 0.460936,0.086416 0.8212999,0.1920345 0.360363,0.1056189 0.665021,0.1822194 0.677018,0.170223 0.012,-0.011997 -0.14225,-0.1465374 -0.342769,-0.2989802 L 10.267377,6.9261155 H 8.2747601 c -1.6863747,0 -2.0193789,-0.012698 -2.1667445,-0.082629 C 5.7142365,6.6566263 5.6755965,6.0774906 6.042002,5.8540778 6.2036486,5.7555151 6.3280795,5.7501033 8.436974,5.7499137 l 2.224467,-1.999e-4 0.233028,0.1688048 c 1.033745,0.7488408 2.127906,1.7482105 2.241689,2.0474822 0.07896,0.2076741 0.06694,0.5991294 -0.02379,0.774566 -0.04308,0.083316 -0.392483,0.4473866 -0.776441,0.8090455 -0.383958,0.3616592 -0.679571,0.6737997 -0.656916,0.6936457 0.02265,0.01985 0.517069,0.111339 1.098698,0.203318 0.581629,0.09198 1.115454,0.197748 1.186277,0.23504 0.116734,0.06147 1.20781,1.457309 1.356952,1.735984 0.204908,0.382875 -0.1739,0.872091 -0.619308,0.799811 -0.24624,-0.03996 -0.277519,-0.0704 -0.832676,-0.810333 -0.264789,-0.352921 -0.487301,-0.649377 -0.494471,-0.658791 -0.01925,-0.02527 -1.223663,-0.217057 -1.242998,-0.197925 -0.0091,0.009 0.181134,0.121193 0.422684,0.249365 l 0.439183,0.233041 0.819335,1.577448 c 0.47608,0.916585 0.819848,1.640166 0.820559,1.727154 0.0019,0.230761 -0.146825,0.46552 -0.348184,0.549653 -0.232801,0.09727 -0.280527,0.09559 -0.501075,-0.01766 z M 13.591754,7.3594663 C 12.733205,6.961971 12.697435,5.7289784 13.532721,5.3246229 c 0.699345,-0.338547 1.552641,0.1060924 1.623747,0.846109 0.03884,0.4042343 -0.02421,0.6297797 -0.244283,0.8738774 -0.359447,0.3986797 -0.874246,0.5214338 -1.320431,0.314857 z"
       id="path1"
       sodipodi:nodetypes="ssssssscssssssssssscscsscssssssssssssscscsssssss" /></g></svg>
