<?xml version="1.0" encoding="UTF-8" standalone="no"?>
<!-- Created with Inkscape (http://www.inkscape.org/) -->

<svg
   width="80"
   height="80"
   viewBox="0 0 21.166667 21.166667"
   version="1.1"
   id="svg5"
   xml:space="preserve"
   inkscape:export-filename="mic_on.svg"
   inkscape:export-xdpi="96"
   inkscape:export-ydpi="96"
   inkscape:version="1.2.2 (b0a8486541, 2022-12-01)"
   sodipodi:docname="mic_on.svg"
   xmlns:inkscape="http://www.inkscape.org/namespaces/inkscape"
   xmlns:sodipodi="http://sodipodi.sourceforge.net/DTD/sodipodi-0.dtd"
   xmlns="http://www.w3.org/2000/svg"
   xmlns:svg="http://www.w3.org/2000/svg"><sodipodi:namedview
     id="namedview7"
     pagecolor="#000000"
     bordercolor="#111111"
     borderopacity="1"
     inkscape:showpageshadow="0"
     inkscape:pageopacity="0"
     inkscape:pagecheckerboard="1"
     inkscape:deskcolor="#d1d1d1"
     inkscape:document-units="mm"
     showgrid="false"
     inkscape:zoom="3.7914702"
     inkscape:cx="41.013114"
     inkscape:cy="43.782488"
     inkscape:window-width="1366"
     inkscape:window-height="717"
     inkscape:window-x="0"
     inkscape:window-y="27"
     inkscape:window-maximized="1"
     inkscape:current-layer="layer1" /><defs
     id="defs2" /><g
     inkscape:label="Lapis 1"
     inkscape:groupmode="layer"
     id="layer1"><circle
       style="fill:#feffff;fill-opacity:0.99879295;stroke:#000000;stroke-width:1.32292;stroke-linecap:square;stroke-linejoin:round;stroke-dasharray:none;stroke-dashoffset:0.1;paint-order:stroke fill markers"
       id="path368"
       cx="10.583333"
       cy="10.583333"
       r="8.9292917" /><path
       style="fill:#000000;stroke-width:1"
       d="M 8.2912591,17.053241 V 16.668407 H 9.2427703 10.194282 V 15.818909 14.96941 l -0.04018,-0.0053 C 10.019257,14.94621 9.8835149,14.92061 9.7492883,14.88774 8.4046498,14.558579 7.4029588,13.453889 7.2302046,12.109633 7.2054596,11.9171 7.1993286,11.654396 7.2018936,10.897358 c 0.00246,-0.724065 0.00296,-0.743167 0.018936,-0.754867 0.024356,-0.0178 0.7040156,-0.01781 0.7283742,-10e-7 0.016014,0.0117 0.016539,0.03363 0.02129,0.894421 0.00525,0.95781 0.00424,0.93532 0.055275,1.177092 0.2066029,0.978527 1.0031392,1.75064 2.0162552,1.954433 0.198641,0.03996 0.309733,0.05027 0.541303,0.05027 0.231571,0 0.342662,-0.01033 0.541305,-0.05027 1.013114,-0.203793 1.809651,-0.975906 2.016255,-1.954433 0.05105,-0.241772 0.04999,-0.219282 0.05527,-1.177092 0.0047,-0.860791 0.0052,-0.882715 0.02129,-0.894421 0.02436,-0.0178 0.70402,-0.0178 0.728373,10e-7 0.016,0.01169 0.01648,0.0308 0.01894,0.754867 0.0025,0.757038 -0.0035,1.019742 -0.02831,1.212275 -0.172754,1.344256 -1.174444,2.448946 -2.519083,2.778107 -0.134227,0.03286 -0.269968,0.05846 -0.404814,0.07637 l -0.04018,0.0053 v 0.849499 0.849498 h 0.951511 0.951512 v 0.384834 0.384833 H 10.58333 8.2912447 Z m 2.1271559,-3.291103 c -0.01861,-0.0019 -0.0757,-0.0094 -0.126868,-0.01661 C 9.6400345,13.653889 9.0588035,13.235224 8.7363834,12.625322 8.6115163,12.389118 8.5339378,12.144403 8.4884354,11.843188 8.4738518,11.746649 8.4730984,11.59593 8.4730984,8.7560627 c 0,-3.2000101 -0.00212,-3.0424937 0.042412,-3.2648644 C 8.5871637,5.1327904 8.7458327,4.7910615 8.9729612,4.5059789 9.059874,4.3968894 9.230655,4.2315483 9.3461446,4.1446814 9.6556635,3.9118733 9.9890845,3.7788053 10.370841,3.7357249 c 0.12842,-0.014492 0.418407,-0.00584 0.546586,0.01633 0.528973,0.091445 0.994543,0.3787945 1.324302,0.8173578 0.08622,0.1146683 0.146222,0.2140182 0.219643,0.3636884 0.13184,0.268753 0.203411,0.5359674 0.227955,0.8510934 0.0068,0.087473 0.0086,0.9410186 0.0065,3.0437597 -0.0027,2.7343768 -0.0039,2.9284238 -0.01775,3.0190738 -0.04327,0.282599 -0.106724,0.48994 -0.221421,0.723538 -0.114163,0.232513 -0.251704,0.420762 -0.445094,0.609185 -0.317212,0.309073 -0.696333,0.498726 -1.132248,0.566399 -0.08531,0.01325 -0.387003,0.02371 -0.460955,0.01599 z"
       id="path260" /></g></svg>
