<?xml version="1.0" encoding="UTF-8" standalone="no"?>
<!-- Created with Inkscape (http://www.inkscape.org/) -->

<svg
   width="80"
   height="80"
   viewBox="0 0 21.166667 21.166667"
   version="1.1"
   id="svg5"
   xml:space="preserve"
   inkscape:export-filename="mic_on.svg"
   inkscape:export-xdpi="96"
   inkscape:export-ydpi="96"
   inkscape:version="1.3 (0e150ed6c4, 2023-07-21)"
   sodipodi:docname="naik_sepeda.svg"
   xmlns:inkscape="http://www.inkscape.org/namespaces/inkscape"
   xmlns:sodipodi="http://sodipodi.sourceforge.net/DTD/sodipodi-0.dtd"
   xmlns="http://www.w3.org/2000/svg"
   xmlns:svg="http://www.w3.org/2000/svg"><sodipodi:namedview
     id="namedview7"
     pagecolor="#000000"
     bordercolor="#111111"
     borderopacity="1"
     inkscape:showpageshadow="0"
     inkscape:pageopacity="0"
     inkscape:pagecheckerboard="1"
     inkscape:deskcolor="#d1d1d1"
     inkscape:document-units="mm"
     showgrid="false"
     inkscape:zoom="0.67024357"
     inkscape:cx="53.711817"
     inkscape:cy="11.189962"
     inkscape:window-width="1366"
     inkscape:window-height="711"
     inkscape:window-x="0"
     inkscape:window-y="27"
     inkscape:window-maximized="1"
     inkscape:current-layer="layer1" /><defs
     id="defs2" /><g
     inkscape:label="Lapis 1"
     inkscape:groupmode="layer"
     id="layer1"><circle
       style="fill:#feffff;fill-opacity:0.99879295;stroke:#000000;stroke-width:1.32292;stroke-linecap:square;stroke-linejoin:round;stroke-dasharray:none;stroke-dashoffset:0.1;paint-order:stroke fill markers"
       id="path368"
       cx="10.583333"
       cy="10.583333"
       r="8.9292917" /><path
       style="fill:#000000;stroke-width:0.999998"
       d="m 6.4125534,14.513912 c -0.9454513,-0.158685 -1.713427,-0.862895 -1.9603628,-1.79759 -0.071301,-0.269883 -0.071078,-0.925789 4.005e-4,-1.185333 0.073086,-0.265377 0.1962323,-0.539976 0.3373583,-0.752261 0.1440055,-0.216615 0.5061963,-0.573289 0.6937975,-0.683232 0.071214,-0.04174 0.1294796,-0.0876 0.1294796,-0.1019159 0,-0.014315 -0.037832,-0.1009789 -0.084072,-0.1925812 L 5.4450822,9.6344547 h -0.22272 c -0.1855334,0 -0.2320339,-0.00931 -0.2785007,-0.05578 -0.074951,-0.074951 -0.073685,-0.2261632 0.00247,-0.2950836 0.053408,-0.048333 0.1594962,-0.056656 1.2759771,-0.1000953 1.649122,-0.064163 1.6648598,-0.06412 1.733695,0.00471 0.070092,0.070092 0.07391,0.2263739 0.00697,0.2854204 -0.026845,0.02368 -0.09035,0.051889 -0.1411234,0.062687 -0.093443,0.019872 -0.1298548,0.073492 -0.1634327,0.2406646 -0.013403,0.06673 6.746e-4,0.079962 0.1688004,0.1586358 0.1993316,0.093281 0.406491,0.2251544 0.5240261,0.3335884 0.065614,0.06053 0.08095,0.06421 0.1285121,0.03075 0.082346,-0.05791 0.2850612,-0.244929 0.2850612,-0.262989 0,-0.02908 -0.7316568,-1.6987144 -0.7599856,-1.7342783 -0.015274,-0.019175 -0.087042,-0.034863 -0.1594837,-0.034863 -0.092182,0 -0.1455671,-0.015308 -0.1778714,-0.051003 C 7.6039696,8.1466437 7.6088986,8.0013409 7.6770966,7.93314 7.7294696,7.880767 7.7700636,7.87736 8.3416,7.87736 c 0.6002297,0 0.6095692,8.961e-4 0.669365,0.064551 0.07578,0.080665 0.077876,0.1971177 0.00486,0.2701323 -0.046969,0.046969 -0.092967,0.055779 -0.2912013,0.055779 -0.1294815,0 -0.240535,0.00942 -0.2467855,0.020918 -0.00625,0.011505 0.1287338,0.3409577 0.2999655,0.7321178 0.1712317,0.39116 0.4536311,1.0563419 0.6275543,1.4781809 0.1739232,0.42184 0.3207268,0.772351 0.3262301,0.778914 0.026283,0.03135 0.7795989,-0.424562 1.0372099,-0.627718 0.189026,-0.149069 0.2489,-0.22148 0.495808,-0.59964 0.154451,-0.236553 0.45258,-0.709966 0.662506,-1.0520273 L 12.3088,8.3766383 12.196269,8.0961685 c -0.06363,-0.158615 -0.112531,-0.3272926 -0.112531,-0.3882399 0,-0.1028789 0.0094,-0.114113 0.207128,-0.2475383 0.178729,-0.1206048 0.272439,-0.2283685 0.232937,-0.267871 -0.0062,-0.0062 -0.10398,-0.049503 -0.217288,-0.096226 -0.113302,-0.046724 -0.228611,-0.105404 -0.25623,-0.1303988 -0.112543,-0.1018506 -0.02531,-0.3434491 0.124097,-0.3436961 0.03451,-5.72e-5 0.223254,0.064249 0.419422,0.1429019 0.484184,0.1941327 0.49021,0.2064581 0.314142,0.6424041 -0.06505,0.1610789 -0.09476,0.1987219 -0.225152,0.2852947 l -0.150206,0.099732 0.05131,0.1470037 c 0.02823,0.080852 0.188814,0.5046952 0.35687,0.941875 0.168056,0.4371786 0.31495,0.8449769 0.326433,0.9062191 0.0115,0.061241 0.02618,0.119914 0.03264,0.1303819 0.0065,0.010437 0.08377,-0.010081 0.171781,-0.045542 0.307244,-0.1239909 0.563033,-0.1625779 0.978856,-0.1476663 0.327829,0.011754 0.417084,0.025646 0.645399,0.1004321 0.622596,0.2039394 1.131142,0.6424954 1.423659,1.2277304 0.278421,0.557031 0.325961,1.251658 0.125908,1.839705 -0.32267,0.94848 -1.156771,1.584247 -2.154455,1.642166 -1.202914,0.06983 -2.263059,-0.747959 -2.508564,-1.935096 -0.06846,-0.331044 -0.04151,-0.867877 0.05925,-1.180322 0.155513,-0.48221 0.39441,-0.840776 0.777942,-1.167624 l 0.108356,-0.09233 -0.04694,-0.2136505 c -0.02582,-0.1175086 -0.05681,-0.2235186 -0.06887,-0.2355808 -0.01206,-0.012061 -0.53858,0.5672103 -1.170041,1.2872683 l -1.14811,1.309197 v 0.137905 c 0,0.09116 -0.0222,0.179658 -0.06549,0.261089 l -0.06549,0.123184 0.06746,0.156224 0.06747,0.156224 0.120276,-0.01356 c 0.144475,-0.01628 0.238356,0.05662 0.238356,0.185104 0,0.113456 -0.07237,0.183686 -0.259031,0.25136 -0.298396,0.108191 -0.346475,0.07735 -0.511409,-0.327985 C 9.9816347,12.979404 9.9776733,12.974238 9.8375261,12.912259 9.7591969,12.877615 9.6683839,12.815301 9.63572,12.773774 9.5834172,12.707285 9.5516872,12.69641 9.3697665,12.682652 l -0.2065649,-0.01562 -0.019984,0.08042 c -0.082796,0.333209 -0.3324047,0.772461 -0.5969596,1.050509 -0.5361694,0.563514 -1.3716442,0.843851 -2.1337051,0.715947 z m 1.0048907,-0.480193 c 0.3293527,-0.114322 0.5601841,-0.259641 0.8068515,-0.507932 0.1841289,-0.185341 0.2504799,-0.27708 0.3549904,-0.490816 0.070695,-0.144577 0.1361241,-0.296104 0.1453999,-0.336725 0.020412,-0.08938 0.054703,-0.08236 -0.8067269,-0.165156 l -0.6097949,-0.0586 -0.08746,0.08465 C 6.9733363,12.798527 6.5731155,12.784188 6.3480582,12.527861 6.1646048,12.31892 6.1490461,12.002694 6.310662,11.767794 L 6.4001981,11.637658 6.2392095,11.298449 C 6.1506657,11.111884 6.0175982,10.830235 5.9435039,10.672563 l -0.1347168,-0.286676 -0.085305,0.04412 c -0.1490672,0.07708 -0.4974109,0.432653 -0.624945,0.637904 -0.194458,0.312958 -0.2730595,0.58069 -0.2874337,0.979052 -0.014538,0.402926 0.028676,0.62125 0.1876978,0.948268 0.2611474,0.537031 0.7433172,0.931196 1.3178974,1.077356 0.297978,0.0758 0.8239245,0.05723 1.1007459,-0.03887 z m 7.4160089,0.0353 c 0.588768,-0.148813 1.058941,-0.530402 1.323067,-1.073794 0.141897,-0.291928 0.193522,-0.522636 0.194026,-0.867108 8.43e-4,-0.562751 -0.184714,-1.009675 -0.583672,-1.405944 -0.131274,-0.130387 -0.309781,-0.278744 -0.396687,-0.329684 -0.332206,-0.194723 -0.8138,-0.306335 -1.166776,-0.270403 -0.366813,0.03734 -0.753214,0.169481 -0.752801,0.25744 7.37e-4,0.164686 0.513105,1.125449 0.622549,1.167445 0.02048,0.0078 0.09227,0.0019 0.15955,-0.01319 0.348998,-0.07842 0.683686,0.167319 0.716196,0.525842 0.01774,0.19563 -0.0243,0.33465 -0.141595,0.468241 -0.220962,0.251663 -0.622178,0.270487 -0.864436,0.04056 -0.16214,-0.153887 -0.225157,-0.375965 -0.173466,-0.611313 0.01642,-0.07474 0.0017,-0.109732 -0.105628,-0.249549 -0.172299,-0.224662 -0.383498,-0.603895 -0.492797,-0.88488 -0.09157,-0.235406 -0.09175,-0.235626 -0.157468,-0.192566 -0.08845,0.05796 -0.316734,0.349149 -0.422004,0.538305 -0.336448,0.604551 -0.320273,1.363405 0.04239,1.989051 0.05497,0.09483 0.201559,0.273309 0.325737,0.396592 0.181928,0.180619 0.277526,0.249805 0.492224,0.356234 0.146547,0.07264 0.347357,0.149624 0.446245,0.171066 0.271867,0.05895 0.674297,0.05364 0.935342,-0.01234 z M 10.075661,12.47838 c 0,-0.06578 -0.07376,-0.103861 -0.1171445,-0.06049 -0.043385,0.04338 -0.00534,0.117144 0.060488,0.117144 0.03836,0 0.05666,-0.0183 0.05666,-0.05666 z M 6.9597919,12.223699 c 0.068138,-0.09166 0.048129,-0.198896 -0.04898,-0.262524 -0.096493,-0.06323 -0.2272369,-0.02941 -0.2798801,0.07239 -0.1114966,0.21561 0.1832425,0.386015 0.3288597,0.190132 z m 7.5279051,0.03941 c 0.06944,-0.08085 0.08003,-0.145806 0.03729,-0.228482 -0.06865,-0.132742 -0.201619,-0.15199 -0.308894,-0.04471 -0.08364,0.08363 -0.08657,0.152012 -0.01067,0.248518 0.06915,0.08791 0.216865,0.100824 0.28226,0.02468 z m -4.8864481,-0.04829 c 0.031267,-0.05842 0.030418,-0.08558 -0.00546,-0.174313 -0.1679499,-0.415471 -0.6421473,-1.557153 -0.6500428,-1.565048 -0.014547,-0.01454 -0.2088228,0.14544 -0.2088238,0.171965 -5e-7,0.01257 0.035963,0.07532 0.079917,0.139451 0.2287553,0.333709 0.3656533,0.74697 0.3869113,1.167988 l 0.015065,0.298368 0.1007072,0.01068 c 0.2292077,0.02437 0.2437394,0.02183 0.2817157,-0.04913 z M 8.8078979,12.012096 C 8.7763749,11.703034 8.7137799,11.474488 8.5944679,11.232828 8.4603681,10.961216 8.4216462,10.920398 8.352917,10.978213 8.326361,11.000543 8.0934409,11.205375 7.8353182,11.433374 l -0.4693139,0.414546 0.018585,0.09952 c 0.010224,0.05474 0.024451,0.105462 0.03162,0.112721 0.015259,0.01545 1.1103386,0.131581 1.2891076,0.136707 l 0.1217825,0.0034 z m 2.6100221,-1.38689 c 0.739945,-0.8440666 1.206221,-1.3976778 1.200753,-1.4256553 -0.005,-0.025156 -0.03633,-0.1082291 -0.06981,-0.1846066 L 12.488007,8.8760756 12.112552,9.484811 c -0.550577,0.892664 -0.742801,1.175534 -0.909284,1.338075 -0.171864,0.167793 -0.600642,0.461008 -1.010712,0.691162 -0.156329,0.08774 -0.2842372,0.170336 -0.2842372,0.183539 0,0.0132 0.024183,0.08042 0.053739,0.149389 0.050252,0.11724 0.088715,0.146918 0.2007952,0.154912 0.02711,0.0019 0.532108,-0.552 1.255061,-1.376682 z M 7.7300585,10.973184 8.1262641,10.624557 8.0202162,10.533493 C 7.8909583,10.422492 7.5354091,10.238609 7.5075531,10.268351 c -0.022369,0.02389 -0.3882553,1.164392 -0.3882553,1.210234 0,0.03114 0.016679,0.01734 0.6107602,-0.505396 z M 6.92286,10.713101 c 0.095506,-0.304112 0.1651789,-0.561399 0.1548284,-0.57175 -0.060571,-0.06057 -0.8787671,0.01537 -0.8787671,0.08156 0,0.06383 0.5154165,1.10958 0.531641,1.07866 0.010259,-0.01954 0.096792,-0.284361 0.1922977,-0.588473 z M 6.3095054,9.7584812 C 6.4643795,9.7270987 6.636874,9.7163272 6.8808549,9.7227993 l 0.3494963,0.00926 0.02827,-0.081221 c 0.015549,-0.044672 0.025075,-0.084326 0.021172,-0.088121 -0.0039,-0.0038 -0.2581102,0.00393 -0.5649025,0.017158 -0.3067924,0.013233 -0.6176746,0.024647 -0.6908497,0.025367 l -0.1330453,0.0013 0.058094,0.1138758 c 0.038665,0.075788 0.071551,0.1087106 0.098328,0.098435 0.022129,-0.00849 0.140068,-0.035669 0.2620873,-0.060393 z"
       id="path2" /></g></svg>
