<?xml version="1.0" encoding="UTF-8" standalone="no"?>
<!-- Created with Inkscape (http://www.inkscape.org/) -->

<svg
   width="80"
   height="80"
   viewBox="0 0 21.166667 21.166667"
   version="1.1"
   id="svg5"
   xml:space="preserve"
   inkscape:export-filename="mic_on.svg"
   inkscape:export-xdpi="96"
   inkscape:export-ydpi="96"
   inkscape:version="1.3 (0e150ed6c4, 2023-07-21)"
   sodipodi:docname="rem.svg"
   xmlns:inkscape="http://www.inkscape.org/namespaces/inkscape"
   xmlns:sodipodi="http://sodipodi.sourceforge.net/DTD/sodipodi-0.dtd"
   xmlns="http://www.w3.org/2000/svg"
   xmlns:svg="http://www.w3.org/2000/svg"><sodipodi:namedview
     id="namedview7"
     pagecolor="#000000"
     bordercolor="#111111"
     borderopacity="1"
     inkscape:showpageshadow="0"
     inkscape:pageopacity="0"
     inkscape:pagecheckerboard="1"
     inkscape:deskcolor="#d1d1d1"
     inkscape:document-units="mm"
     showgrid="false"
     inkscape:zoom="5.3619486"
     inkscape:cx="19.582433"
     inkscape:cy="43.361102"
     inkscape:window-width="1366"
     inkscape:window-height="711"
     inkscape:window-x="0"
     inkscape:window-y="27"
     inkscape:window-maximized="1"
     inkscape:current-layer="layer1" /><defs
     id="defs2" /><g
     inkscape:label="Lapis 1"
     inkscape:groupmode="layer"
     id="layer1"><circle
       style="fill:#feffff;fill-opacity:0.99879295;stroke:#000000;stroke-width:1.32292;stroke-linecap:square;stroke-linejoin:round;stroke-dasharray:none;stroke-dashoffset:0.1;paint-order:stroke fill markers"
       id="path368"
       cx="10.583333"
       cy="10.583333"
       r="8.9292917" /><path
       style="fill:#000000;stroke-width:0.999998"
       d="M 9.60344,17.371933 C 9.109145,17.295193 8.4998405,17.131617 8.0620029,16.958121 5.8573957,16.084534 4.2578854,14.124283 3.8313099,11.773272 3.7544599,11.349723 3.7247484,10.279046 3.7774299,9.8316388 4.077045,7.2870838 5.7458384,5.1394746 8.1428757,4.2136428 8.5789683,4.0452068 9.2895114,3.8711843 9.7246834,3.826235 9.9311764,3.804904 10.165635,3.779838 10.245705,3.770529 L 10.39129,3.753603 V 3.3275261 2.9014482 h 0.375039 c 1.0245,0 2.230748,0.2972916 3.226846,0.7952871 1.309311,0.6545853 2.407686,1.6623176 3.165575,2.9043414 0.691334,1.1329511 1.110992,2.569765 1.110992,3.8037843 v 0.375042 h -0.426081 -0.426079 l -0.01675,0.145584 c -0.0092,0.08007 -0.03514,0.315139 -0.05762,0.522375 -0.183063,1.688218 -1.131471,3.392232 -2.491368,4.476269 -0.918059,0.731829 -1.937517,1.194319 -3.131111,1.42047 -0.409708,0.07763 -1.687141,0.09412 -2.117284,0.02734 z m 1.713604,-0.325199 c 1.224452,-0.15158 2.324128,-0.614267 3.313881,-1.394309 1.35254,-1.06596 2.270458,-2.791686 2.397609,-4.507611 l 0.02704,-0.364911 h -1.203405 -1.203405 l -0.01955,-0.419615 C 14.582731,9.3620719 14.200521,8.5029602 13.474156,7.7639891 12.965944,7.2469581 12.500937,6.9494059 11.871683,6.7385863 11.486876,6.6096642 11.039505,6.5323875 10.677956,6.5323875 H 10.391284 V 5.3239964 4.1156049 L 10.04132,4.1415468 C 8.3390241,4.2677285 6.6995623,5.1209156 5.578784,6.4638801 4.7790735,7.4221267 4.2706193,8.6207354 4.1195319,9.9038588 c -0.050551,0.4293142 -0.021721,1.4036072 0.053643,1.8127212 0.507416,2.754558 2.6769754,4.877572 5.4131361,5.297 0.47104,0.07221 1.288735,0.08786 1.730732,0.03316 z m -0.885555,-1.15766 -0.653856,-0.679781 0.119309,-0.115636 0.11931,-0.115636 0.674647,0.674649 0.674649,0.674647 -0.117063,0.12077 c -0.06438,0.06643 -0.12742,0.12077 -0.140105,0.12077 -0.01261,0 -0.31728,-0.3059 -0.676902,-0.679778 z M 7.8126997,15.138521 C 7.6850033,14.653518 7.5809558,14.240616 7.5814844,14.220958 c 0.00114,-0.04268 0.2830762,-0.124253 0.3128239,-0.09051 0.021641,0.02454 0.4759816,1.726201 0.4759816,1.782713 0,0.03532 -0.1824727,0.107754 -0.2705808,0.107394 -0.042806,-1.7e-4 -0.1057657,-0.19367 -0.2870094,-0.882044 z m 5.2846613,0.113339 c -0.499254,-0.136082 -0.906931,-0.261513 -0.905949,-0.278745 0.0071,-0.123502 0.06472,-0.288237 0.100924,-0.288237 0.04919,0 1.801096,0.470841 1.819179,0.488924 0.01597,0.01597 -0.05607,0.276615 -0.08392,0.303633 -0.01231,0.01201 -0.430988,-0.0895 -0.930243,-0.225575 z M 5.7739501,14.093647 c -0.062104,-0.01989 -0.1064727,-0.05301 -0.0986,-0.07357 0.00788,-0.02057 0.1185632,-0.422767 0.2459791,-0.893761 0.1274157,-0.470995 0.2412381,-0.867232 0.2529386,-0.880527 0.035029,-0.0398 0.3120449,0.04556 0.3120449,0.09615 0,0.03971 -0.2668565,1.041404 -0.4302482,1.615033 -0.055179,0.193717 -0.074619,0.203136 -0.282114,0.136668 z M 9.957427,14.051837 C 8.0296811,13.702052 6.7495573,11.825456 7.1380997,9.9188448 7.2897337,9.1747649 7.6319964,8.5590718 8.1778459,8.0484561 8.922326,7.3520312 9.860484,7.0312251 10.896441,7.1188229 c 1.219051,0.1030801 2.300392,0.8617588 2.833074,1.9877129 0.191099,0.4039353 0.288176,0.757016 0.323615,1.1770262 0.08603,1.019741 -0.23905,1.970726 -0.923979,2.702918 -0.809927,0.865815 -2.023991,1.273607 -3.171724,1.065355 z m 1.389812,-0.392571 c 1.180406,-0.30632 2.059318,-1.233726 2.317023,-2.444859 0.06548,-0.307733 0.0633,-0.918976 -0.0045,-1.2494812 C 13.411004,8.7512018 12.421813,7.7621224 11.206265,7.5116543 10.875963,7.4435943 10.265283,7.4412833 9.956785,7.5069243 8.7445837,7.7648553 7.8307784,8.6291982 7.508092,9.8230753 7.4075729,10.194977 7.3986619,10.93823 7.490317,11.305821 c 0.1394462,0.55927 0.3903187,1.023768 0.7745224,1.43405 0.4926871,0.52613 1.0572606,0.837582 1.7613526,0.971664 0.346905,0.06607 0.958264,0.04187 1.321051,-0.05227 z m -0.934741,-0.276153 c -0.202524,-0.06283 -0.363754,-0.291767 -0.363754,-0.516501 0,-0.252547 0.269953,-0.511013 0.533723,-0.511013 0.141111,0 0.325605,0.106119 0.416828,0.239761 0.09621,0.140946 0.104393,0.405459 0.01713,0.553729 -0.112183,0.190615 -0.393044,0.29945 -0.603923,0.234024 z m 0.297226,-0.414202 c 0.0491,-0.07848 0.0018,-0.228119 -0.08042,-0.254201 -0.08387,-0.02662 -0.23802,0.06445 -0.23802,0.140616 0,0.02906 0.01644,0.08356 0.03652,0.1211 0.04415,0.08251 0.228666,0.07758 0.281911,-0.0075 z M 10.290074,11.97564 C 9.585094,11.837441 9.065211,11.094616 9.187518,10.400269 9.316712,9.6668208 9.939153,9.1605639 10.64547,9.2144554 c 0.326912,0.024944 0.458518,0.069203 0.711805,0.2393837 0.487912,0.3278237 0.720281,0.9697169 0.555295,1.5339349 -0.14689,0.502348 -0.581619,0.890774 -1.108854,0.990762 -0.208459,0.03954 -0.299797,0.03902 -0.513642,-0.0029 z m 0.615022,-0.381468 c 0.30621,-0.09277 0.577315,-0.377516 0.673085,-0.70695 0.225298,-0.774999 -0.519214,-1.5195102 -1.294211,-1.2942112 -0.766645,0.22287 -1.01771,1.1888752 -0.454015,1.7468832 0.295037,0.292061 0.663097,0.379109 1.075141,0.254278 z M 8.0962572,11.084056 C 7.8585323,10.989536 7.720047,10.718946 7.787205,10.48018 c 0.072019,-0.256049 0.2394822,-0.384796 0.500948,-0.385134 0.2087689,-2.71e-4 0.3687099,0.09393 0.4640158,0.273274 0.2178292,0.409914 -0.22092,0.888681 -0.6559116,0.715736 z m 0.3274653,-0.388111 c 0.070973,-0.108325 0.036285,-0.2177 -0.078144,-0.24642 -0.1174794,-0.02948 -0.1953258,0.02394 -0.2094419,0.143753 -0.021063,0.178778 0.1886596,0.253654 0.2875862,0.10268 z m 4.2083025,0.377811 c -0.282203,-0.122872 -0.388752,-0.518065 -0.208905,-0.774833 0.214357,-0.3060372 0.719204,-0.265904 0.888276,0.07062 0.216632,0.431179 -0.233891,0.89818 -0.679371,0.704219 z m 0.346385,-0.363398 c 0.09021,-0.09968 0.0345,-0.251633 -0.09783,-0.266907 -0.123892,-0.01426 -0.194259,0.04643 -0.194259,0.167674 0,0.161963 0.179992,0.22311 0.292099,0.09923 z M 10.414708,8.8106793 C 10.250327,8.7537667 10.154999,8.6696122 10.095397,8.5287916 9.991014,8.282172 10.083928,8.006655 10.315342,7.8765939 c 0.356352,-0.2002818 0.761024,0.038217 0.761024,0.4485186 0,0.3617136 -0.326766,0.6015149 -0.661658,0.4855668 z M 10.69272,8.4437687 c 0.07608,-0.076078 0.04954,-0.2305568 -0.0472,-0.2746271 -0.153732,-0.070045 -0.297481,0.073705 -0.227437,0.2274366 0.04407,0.096724 0.198549,0.1232679 0.274626,0.047191 z m 3.451091,5.1045173 c -0.0083,-0.02485 -0.02932,-0.100129 -0.0467,-0.167275 l -0.0316,-0.122106 0.894654,-0.23483 c 0.492062,-0.129161 0.911877,-0.240782 0.932924,-0.248053 0.03627,-0.01246 0.135181,0.291015 0.104737,0.321455 -0.0078,0.0078 -0.397729,0.1146 -0.86646,0.237292 -0.468732,0.122691 -0.87929,0.231085 -0.912352,0.240881 -0.03306,0.0098 -0.06691,-0.0026 -0.07521,-0.02737 z M 4.7043507,11.275818 4.5874032,11.155159 5.2539316,10.487973 C 5.6205221,10.12102 5.936992,9.8207868 5.9571979,9.8207868 c 0.044758,0 0.2208269,0.1792802 0.2208269,0.2248542 0,0.03369 -1.3047037,1.350836 -1.3380774,1.350836 -0.010253,0 -0.071276,-0.0543 -0.1355971,-0.120665 z M 5.2022266,8.4039023 C 5.1958766,8.3824973 5.1738456,8.3123873 5.1532626,8.2481039 5.1326816,8.1838189 5.1228986,8.1241604 5.1315286,8.1155301 5.1401586,8.1069001 5.5217347,7.9961742 5.9794731,7.8694753 6.4372115,7.7427756 6.846395,7.627988 6.8887697,7.61439 6.9694307,7.588505 6.9942667,7.62392 7.0462169,7.8389294 7.0674559,7.9268204 7.0603879,7.9315434 6.8028903,8.0015618 6.6570311,8.0412228 6.2398078,8.1567331 5.8757277,8.2582481 5.4370665,8.3805583 5.2098716,8.4296922 5.2022248,8.4039032 Z M 7.9439918,6.2901421 C 7.4740299,6.1608294 7.0707351,6.0478214 7.0477812,6.0390127 c -0.032541,-0.01249 -0.032826,-0.046184 -0.00131,-0.1529694 0.022241,-0.075325 0.049979,-0.1464957 0.06164,-0.1581575 0.0177,-0.0177 1.8067578,0.4476179 1.8374648,0.4779113 0.02631,0.025955 -0.0744,0.3261503 -0.108372,0.323025 -0.02131,-0.00197 -0.4232649,-0.1093671 -0.8932258,-0.23868 z m 9.9832032,3.9917249 c 0,-0.264363 -0.06934,-0.8019854 -0.157726,-1.2228982 C 17.533114,7.9333873 16.959896,6.7691556 16.188181,5.8473044 15.168175,4.6288554 13.665853,3.7279372 12.108881,3.4010119 11.690682,3.3132003 11.152971,3.243989 10.888951,3.243989 H 10.73309 l 0.009,1.4643651 0.009,1.4643645 0.274033,0.026139 c 1.356497,0.1293853 2.641635,0.9531357 3.352812,2.1490915 0.308392,0.5186093 0.538349,1.2046291 0.586357,1.7492479 0.01231,0.139985 0.02848,0.273797 0.03586,0.297348 0.01051,0.03337 0.334798,0.04281 1.470303,0.04281 H 17.92733 Z M 15.9462,8.6934341 C 15.762578,8.1233055 15.310289,7.3522085 14.85139,6.8269154 14.11929,5.9888952 13.051283,5.3405502 11.938617,5.0586827 l -0.148241,-0.037555 0.02331,-0.1435414 c 0.01276,-0.078947 0.03388,-0.1549185 0.04679,-0.168824 0.01291,-0.013901 0.163737,0.01315 0.335173,0.060131 1.800512,0.4933796 3.287416,1.8266693 3.995279,3.582521 0.06518,0.1616904 0.128621,0.3400101 0.14099,0.3962663 0.02103,0.095757 0.01396,0.1048439 -0.111402,0.14239 -0.07362,0.022057 -0.148302,0.040109 -0.165965,0.040109 -0.01765,0 -0.06641,-0.1065343 -0.108355,-0.2367434 z"
       id="path2" /></g></svg>
