<?xml version="1.0" encoding="UTF-8" standalone="no"?>
<!-- Created with Inkscape (http://www.inkscape.org/) -->

<svg
   width="80"
   height="80"
   viewBox="0 0 21.166667 21.166667"
   version="1.1"
   id="svg5"
   xml:space="preserve"
   inkscape:export-filename="mic_on.svg"
   inkscape:export-xdpi="96"
   inkscape:export-ydpi="96"
   inkscape:version="1.3 (0e150ed6c4, 2023-07-21)"
   sodipodi:docname="tanyakan_sesuatu.svg"
   xmlns:inkscape="http://www.inkscape.org/namespaces/inkscape"
   xmlns:sodipodi="http://sodipodi.sourceforge.net/DTD/sodipodi-0.dtd"
   xmlns="http://www.w3.org/2000/svg"
   xmlns:svg="http://www.w3.org/2000/svg"><sodipodi:namedview
     id="namedview7"
     pagecolor="#000000"
     bordercolor="#111111"
     borderopacity="1"
     inkscape:showpageshadow="0"
     inkscape:pageopacity="0"
     inkscape:pagecheckerboard="1"
     inkscape:deskcolor="#d1d1d1"
     inkscape:document-units="mm"
     showgrid="false"
     inkscape:zoom="2.6809742"
     inkscape:cx="26.296411"
     inkscape:cy="48.676336"
     inkscape:window-width="1364"
     inkscape:window-height="745"
     inkscape:window-x="0"
     inkscape:window-y="21"
     inkscape:window-maximized="1"
     inkscape:current-layer="layer1" /><defs
     id="defs2"><rect
       x="-51.774042"
       y="-7.3947956"
       width="55.52553"
       height="60.069034"
       id="rect1" /></defs><g
     inkscape:label="Lapis 1"
     inkscape:groupmode="layer"
     id="layer1"><circle
       style="fill:#feffff;fill-opacity:0.99879295;stroke:#000000;stroke-width:1.32292;stroke-linecap:square;stroke-linejoin:round;stroke-dasharray:none;stroke-dashoffset:0.1;paint-order:stroke fill markers"
       id="path368"
       cx="10.583333"
       cy="10.583333"
       r="8.9292917" /><path
       style="font-weight:600;font-size:58.6667px;line-height:1;font-family:Ubuntu;-inkscape-font-specification:'Ubuntu Semi-Bold';text-align:center;white-space:pre;stroke-width:2;stroke-opacity:0.994009"
       d="m -25.653403,4.4263506 q -2.053335,0 -3.930669,0.5280003 -1.877335,0.4693336 -3.930669,1.5840009 l -1.994668,-5.456003 q 2.170668,-1.23200065 4.928003,-1.93600103 2.816001,-0.76266707 5.749336,-0.76266707 3.520002,0 5.808003,0.99733386 2.288002,0.93866718 3.637336,2.40533464 1.349334,1.4666675 1.877334,3.2266684 0.528,1.760001 0.528,3.4026685 0,1.9946679 -0.762667,3.5786689 -0.704,1.584001 -1.818667,2.933335 -1.114668,1.349334 -2.405335,2.581334 -1.290667,1.173334 -2.405335,2.464002 -1.114667,1.232 -1.877334,2.640001 -0.704,1.408001 -0.704,3.168002 0,0.293333 0,0.704 0,0.352 0.05867,0.704001 h -6.101336 q -0.117334,-0.586667 -0.176,-1.232001 -0.05867,-0.704 -0.05867,-1.290667 0,-1.936001 0.645334,-3.461336 0.645333,-1.525334 1.642667,-2.816001 0.997334,-1.290668 2.112001,-2.405335 1.173334,-1.114667 2.170668,-2.229334 0.997334,-1.114668 1.642668,-2.288002 0.645333,-1.173334 0.645333,-2.5813343 0,-1.936001 -1.349334,-3.1680017 -1.290667,-1.2906674 -3.930668,-1.2906674 z m 4.576002,31.6800174 q 0,2.053334 -1.349334,3.344002 -1.349334,1.290667 -3.344002,1.290667 -1.936001,0 -3.344002,-1.290667 -1.349334,-1.290668 -1.349334,-3.344002 0,-2.053335 1.349334,-3.344002 1.408001,-1.349334 3.344002,-1.349334 1.994668,0 3.344002,1.349334 1.349334,1.290667 1.349334,3.344002 z"
       id="text1"
       transform="matrix(0.26458333,0,0,0.26458333,16.998263,5.4074593)"
       aria-label="?" /></g></svg>
