<?xml version="1.0" encoding="UTF-8" standalone="no"?>
<!-- Created with Inkscape (http://www.inkscape.org/) -->

<svg
   width="50"
   height="50"
   viewBox="0 0 13.229166 13.229167"
   version="1.1"
   id="svg5"
   xml:space="preserve"
   inkscape:version="1.2.2 (b0a8486541, 2022-12-01)"
   sodipodi:docname="tombol_edit_warna.svg"
   xmlns:inkscape="http://www.inkscape.org/namespaces/inkscape"
   xmlns:sodipodi="http://sodipodi.sourceforge.net/DTD/sodipodi-0.dtd"
   xmlns="http://www.w3.org/2000/svg"
   xmlns:svg="http://www.w3.org/2000/svg"><sodipodi:namedview
     id="namedview7"
     pagecolor="#ffffff"
     bordercolor="#111111"
     borderopacity="1"
     inkscape:showpageshadow="0"
     inkscape:pageopacity="0"
     inkscape:pagecheckerboard="1"
     inkscape:deskcolor="#d1d1d1"
     inkscape:document-units="mm"
     showgrid="false"
     inkscape:zoom="4.3992102"
     inkscape:cx="15.230007"
     inkscape:cy="34.551657"
     inkscape:window-width="1366"
     inkscape:window-height="717"
     inkscape:window-x="0"
     inkscape:window-y="27"
     inkscape:window-maximized="1"
     inkscape:current-layer="layer1" /><defs
     id="defs2" /><g
     inkscape:label="Lapis 1"
     inkscape:groupmode="layer"
     id="layer1"><path
       style="fill:#ffffff;fill-opacity:1;stroke:#000000;stroke-width:0.52916667;stroke-dasharray:none;stroke-opacity:1;paint-order:stroke fill markers"
       d="m 1.132011,2.6708644 c 0.0059,-0.03027 0.02736,-0.06784 0.05175,-0.09045 0.02403,-0.02227 0.03363,-0.02817 0.06607,-0.04061 l 0.02069,-0.0079 1.286581,-0.0019 1.28658,-0.0019 0.0045,-0.04819 c 0.03495,-0.375601 0.21561,-0.740268 0.495438,-1.000059 0.260712,-0.242044 0.581485,-0.386332 0.9327,-0.419542 0.123677,-0.01169 0.284106,-0.0058 0.409458,0.01514 0.32377,0.05399 0.620493,0.207433 0.85554,0.442425 0.222506,0.222451 0.366953,0.490446 0.432626,0.802654 0.01,0.04753 0.02457,0.150357 0.02705,0.190888 l 9.95e-4,0.01668 2.486232,0.0019 2.486234,0.0019 0.02069,0.0079 c 0.03243,0.01244 0.04204,0.01834 0.06607,0.04061 0.04561,0.04227 0.06526,0.107583 0.05013,0.166585 -0.01559,0.06076 -0.05533,0.104585 -0.114667,0.126463 -0.01789,0.0066 -0.101837,0.0069 -2.513799,0.0087 l -2.495287,0.0019 -0.01001,0.05189 C 6.918222,3.2437034 6.774623,3.5187064 6.556025,3.7432544 6.469355,3.8322844 6.39902,3.8907414 6.296669,3.9588094 5.946053,4.1919864 5.520799,4.2745864 5.10416,4.1904354 4.837261,4.1365254 4.579903,4.0073344 4.372308,3.8230364 4.165018,3.6390104 4.006259,3.3973084 3.91895,3.1328224 3.90029,3.0763024 3.87416,2.9731214 3.86545,2.9216044 l -0.0067,-0.0394 H 2.573125 c -0.924279,0 -1.291139,-0.0011 -1.305244,-0.0041 -0.09372,-0.01957 -0.154346,-0.111977 -0.13591,-0.207177 z m 3.067135,0.11861 c 0.05522,0.436271 0.330295,0.803948 0.734791,0.982145 0.0449,0.01978 0.134034,0.05014 0.185133,0.06305 0.19425,0.04909 0.405857,0.0497 0.599942,0.0017 0.462215,-0.114264 0.819694,-0.488102 0.912496,-0.954257 0.04369,-0.219457 0.0267,-0.455459 -0.04754,-0.660416 -0.03536,-0.09761 -0.07164,-0.16992 -0.129862,-0.25881 -0.05391,-0.0823 -0.09024,-0.126533 -0.164395,-0.200153 -0.067,-0.06652 -0.113623,-0.10525 -0.181872,-0.151087 -0.253963,-0.170561 -0.565843,-0.239928 -0.870559,-0.19362 -0.265954,0.04042 -0.506121,0.164035 -0.696024,0.358259 -0.201445,0.206027 -0.319989,0.465628 -0.347555,0.761118 -0.0047,0.05002 -0.0015,0.197292 0.0054,0.252047 z m -3.065468,3.829853 c 0.01494,-0.05554 0.05531,-0.100723 0.109227,-0.122264 0.01575,-0.0063 0.133128,-0.0067 2.561888,-0.0084 l 2.545383,-0.0019 0.0026,-0.0093 c 0.0014,-0.0051 0.0069,-0.03762 0.01217,-0.07228 0.04081,-0.269793 0.164326,-0.540528 0.345726,-0.757773 0.190633,-0.228303 0.438456,-0.397131 0.718884,-0.489731 0.111722,-0.03689 0.215109,-0.05909 0.337697,-0.07251 0.07784,-0.0085 0.239626,-0.0085 0.317674,-4.1e-5 0.335256,0.03652 0.638304,0.168544 0.883963,0.385103 0.286552,0.252609 0.472975,0.597162 0.524634,0.96965 0.0032,0.02317 0.0068,0.0436 0.0079,0.04541 0.0011,0.0019 0.522576,0.0033 1.236266,0.0033 1.200942,0 1.234846,1.42e-4 1.256776,0.007 0.103623,0.03229 0.152827,0.154001 0.101132,0.250166 -0.01291,0.02403 -0.04573,0.05688 -0.06974,0.06982 -0.04238,0.02283 0.05077,0.0213 -1.296387,0.02136 -0.770006,4.2e-5 -1.230157,0.0014 -1.230157,0.0036 0,0.0094 -0.0154,0.106314 -0.02187,0.137646 -0.06493,0.314614 -0.223251,0.603647 -0.450266,0.822006 -0.258822,0.248953 -0.577714,0.398241 -0.936671,0.4385 -0.06933,0.0078 -0.2786,0.0066 -0.344333,-0.0019 -0.07426,-0.0096 -0.129282,-0.01948 -0.190679,-0.03422 -0.577626,-0.138683 -1.032707,-0.595805 -1.169674,-1.174919 -0.0093,-0.03952 -0.02057,-0.101837 -0.03216,-0.178612 l -0.0018,-0.01205 -2.533273,-5.6e-5 c -2.24746,-4.2e-5 -2.535951,-7.11e-4 -2.557018,-0.0057 -0.03215,-0.0076 -0.05722,-0.02179 -0.08168,-0.04627 -0.01125,-0.01126 -0.025,-0.02892 -0.03054,-0.03924 -0.01988,-0.03698 -0.02615,-0.08756 -0.01568,-0.126478 z m 5.568378,0.19176 c 0.01739,0.138743 0.05395,0.262393 0.114503,0.387336 0.120225,0.248056 0.311042,0.442236 0.555687,0.565476 0.219234,0.110438 0.456364,0.152442 0.699537,0.12391 0.241553,-0.02834 0.472013,-0.129784 0.657432,-0.289388 0.219148,-0.188638 0.365801,-0.448473 0.412701,-0.731216 0.08919,-0.537674 -0.178724,-1.065169 -0.664912,-1.309155 -0.139353,-0.06993 -0.286622,-0.111417 -0.447326,-0.126012 -0.06187,-0.0056 -0.203443,-0.0025 -0.263115,0.0057 -0.356673,0.04934 -0.662911,0.239401 -0.863437,0.535875 -0.116928,0.172876 -0.18879,0.378627 -0.206413,0.590982 -0.0046,0.05578 -0.0017,0.190189 0.0053,0.246485 z M 1.131739,10.581057 c 0.01168,-0.05546 0.05631,-0.10698 0.112109,-0.129431 0.01447,-0.0058 0.106213,-0.0064 1.309469,-0.0081 l 1.293907,-0.0019 0.0044,-0.03892 c 0.03732,-0.334369 0.193754,-0.6644586 0.430953,-0.9093286 0.202253,-0.208794 0.43847,-0.350331 0.715934,-0.428972 0.19724,-0.0559 0.424172,-0.07168 0.633135,-0.04401 0.307454,0.04071 0.591364,0.169267 0.832573,0.376995 0.0795,0.06847 0.18286,0.183134 0.250145,0.277519 0.144289,0.202394 0.245464,0.4579566 0.276392,0.6981396 0.0033,0.02548 0.0068,0.05175 0.0079,0.05838 l 0.0019,0.01204 H 9.48595 c 2.266213,0 2.487166,5.7e-4 2.505504,0.0059 0.08274,0.02437 0.13682,0.110603 0.122575,0.195452 -0.01155,0.06879 -0.06167,0.123931 -0.128513,0.141359 -0.01947,0.0051 -0.286142,0.0057 -2.506862,0.0057 H 6.993503 l -0.0044,0.03243 c -0.01067,0.07786 -0.03729,0.187804 -0.06672,0.275444 -0.107585,0.320412 -0.323334,0.605439 -0.603977,0.797918 -0.223415,0.153228 -0.478562,0.245617 -0.748915,0.271181 -0.123678,0.01169 -0.284106,0.0058 -0.409458,-0.01514 -0.626402,-0.104454 -1.133156,-0.581064 -1.278885,-1.202812 -0.0078,-0.03308 -0.0281,-0.145781 -0.0281,-0.155647 0,-0.002 -0.534338,-0.0037 -1.294951,-0.0043 l -1.294952,-9.97e-4 -0.02156,-0.0087 c -0.0475,-0.01919 -0.09081,-0.06444 -0.104493,-0.109192 -0.0073,-0.0237 -0.0099,-0.0693 -0.0053,-0.09112 z m 3.06202,0.105235 c 0.02484,0.295429 0.144187,0.558744 0.347498,0.766679 0.295604,0.302328 0.717067,0.431678 1.130522,0.346961 0.190266,-0.03899 0.366793,-0.12171 0.520178,-0.24377 0.05166,-0.04111 0.15446,-0.143738 0.193744,-0.193422 0.03705,-0.04686 0.09892,-0.14053 0.124987,-0.189225 C 6.659121,10.896191 6.695713,10.55757 6.609828,10.256051 6.487798,9.8276164 6.14879,9.4991324 5.71901,9.3928864 c -0.126945,-0.03138 -0.275432,-0.043 -0.403507,-0.03157 -0.376437,0.03359 -0.715855,0.236855 -0.923555,0.553078 -0.115473,0.1758046 -0.185779,0.3851766 -0.19946,0.5939826 -0.0029,0.04359 -0.0022,0.136766 0.0013,0.177913 z"
       id="path302"
       sodipodi:nodetypes="ssscccssssssscccssssscssssssscsssssssssssssssscsscssssscsssscsscssssssssccsssccsssssssssssscsscsssssssscssssscsssssssscsscsssssssssssss" /></g></svg>
