<?xml version="1.0" encoding="UTF-8" standalone="no"?>
<!-- Created with Inkscape (http://www.inkscape.org/) -->

<svg
   width="80"
   height="80"
   viewBox="0 0 21.166667 21.166667"
   version="1.1"
   id="svg5"
   xml:space="preserve"
   inkscape:export-filename="mic_on.svg"
   inkscape:export-xdpi="96"
   inkscape:export-ydpi="96"
   inkscape:version="1.3 (0e150ed6c4, 2023-07-21)"
   sodipodi:docname="stop_edit_objek.svg"
   xmlns:inkscape="http://www.inkscape.org/namespaces/inkscape"
   xmlns:sodipodi="http://sodipodi.sourceforge.net/DTD/sodipodi-0.dtd"
   xmlns="http://www.w3.org/2000/svg"
   xmlns:svg="http://www.w3.org/2000/svg"><sodipodi:namedview
     id="namedview7"
     pagecolor="#000000"
     bordercolor="#111111"
     borderopacity="1"
     inkscape:showpageshadow="0"
     inkscape:pageopacity="0"
     inkscape:pagecheckerboard="1"
     inkscape:deskcolor="#d1d1d1"
     inkscape:document-units="mm"
     showgrid="false"
     inkscape:zoom="1.4142136"
     inkscape:cx="25.809398"
     inkscape:cy="-21.213204"
     inkscape:window-width="1366"
     inkscape:window-height="696"
     inkscape:window-x="0"
     inkscape:window-y="0"
     inkscape:window-maximized="1"
     inkscape:current-layer="layer1" /><defs
     id="defs2" /><g
     inkscape:label="Lapis 1"
     inkscape:groupmode="layer"
     id="layer1"><circle
       style="fill:#feffff;fill-opacity:0.99879295;stroke:#000000;stroke-width:1.32292;stroke-linecap:square;stroke-linejoin:round;stroke-dasharray:none;stroke-dashoffset:0.1;paint-order:stroke fill markers"
       id="path368"
       cx="10.583333"
       cy="10.583333"
       r="8.9292917" /><path
       style="fill:#000000;stroke-width:0.133341"
       d="M 7.7399248,17.268774 C 7.4774723,17.18312 7.2965823,17.05094 6.9428204,16.68632 6.5569957,16.288653 6.4379315,16.080992 6.4027485,15.74438 c -0.025087,-0.24002 0.048949,-0.585246 0.1688486,-0.787335 0.041235,-0.0695 1.0288513,-1.082763 2.1947035,-2.251695 L 10.886032,10.58002 8.7487269,8.4365079 C 7.1266954,6.8097654 6.5927757,6.2534078 6.5340797,6.1287914 6.4092244,5.863713 6.368113,5.5682504 6.4206755,5.313768 6.4876979,4.9892776 6.5742916,4.8518042 6.9639116,4.4513418 7.4425671,3.9593663 7.6386364,3.8586337 8.1171682,3.8588443 c 0.2939063,1.293e-4 0.3601567,0.01211 0.5299371,0.09583 0.1615832,0.079677 0.675529,0.5782836 3.0726977,2.980986 3.28689,3.2944737 3.045009,3.0050278 3.045009,3.6438177 0,0.63881 0.241471,0.34985 -3.041276,3.639394 -3.21491,3.22157 -3.0368565,3.066842 -3.5527064,3.087254 -0.1738721,0.0068 -0.3393186,-0.0074 -0.4309048,-0.03735 z"
       id="path1" /></g></svg>
