<?xml version="1.0" encoding="UTF-8" standalone="no"?>
<!-- Created with Inkscape (http://www.inkscape.org/) -->

<svg
   width="80"
   height="80"
   viewBox="0 0 21.166667 21.166667"
   version="1.1"
   id="svg5"
   xml:space="preserve"
   inkscape:export-filename="mic_on.svg"
   inkscape:export-xdpi="96"
   inkscape:export-ydpi="96"
   inkscape:version="1.3 (0e150ed6c4, 2023-07-21)"
   sodipodi:docname="stop_edit_objek.svg"
   xmlns:inkscape="http://www.inkscape.org/namespaces/inkscape"
   xmlns:sodipodi="http://sodipodi.sourceforge.net/DTD/sodipodi-0.dtd"
   xmlns="http://www.w3.org/2000/svg"
   xmlns:svg="http://www.w3.org/2000/svg"><sodipodi:namedview
     id="namedview7"
     pagecolor="#000000"
     bordercolor="#111111"
     borderopacity="1"
     inkscape:showpageshadow="0"
     inkscape:pageopacity="0"
     inkscape:pagecheckerboard="1"
     inkscape:deskcolor="#d1d1d1"
     inkscape:document-units="mm"
     showgrid="false"
     inkscape:zoom="2.8284272"
     inkscape:cx="40.835416"
     inkscape:cy="73.539103"
     inkscape:window-width="1366"
     inkscape:window-height="696"
     inkscape:window-x="0"
     inkscape:window-y="0"
     inkscape:window-maximized="1"
     inkscape:current-layer="layer1" /><defs
     id="defs2" /><g
     inkscape:label="Lapis 1"
     inkscape:groupmode="layer"
     id="layer1"><circle
       style="fill:#feffff;fill-opacity:0.5;stroke:#000000;stroke-width:1.32292;stroke-linecap:square;stroke-linejoin:round;stroke-dasharray:none;stroke-dashoffset:0.1;paint-order:stroke fill markers"
       id="path368"
       cx="10.583333"
       cy="10.583333"
       r="8.9292917" /><path
       style="fill:#000000;stroke-width:0.120007"
       d="M 8.0242656,16.600229 C 7.7880584,16.52314 7.6252574,16.404178 7.3068717,16.07602 6.9596294,15.71812 6.8524717,15.531225 6.820807,15.228274 6.798229,15.012256 6.864861,14.701553 6.9727707,14.519673 7.0098817,14.457123 7.8987369,13.545186 8.9480038,12.493147 L 10.855762,10.58035 8.9321875,8.6511893 C 7.4723592,7.1871211 6.9918314,6.6863992 6.939005,6.5742445 6.8266353,6.3356739 6.789635,6.0697576 6.8369413,5.8407234 6.8972614,5.5486821 6.9751957,5.424956 7.3258537,5.0645398 c 0.43079,-0.4427779 0.6072524,-0.5334373 1.037931,-0.5332477 0.2645157,1.164e-4 0.324141,0.010899 0.4769434,0.086247 0.1454249,0.071709 0.6079761,0.5204552 2.7654279,2.6828874 2.958201,2.9650265 2.740508,2.7045255 2.740508,3.2794355 0,0.574929 0.217324,0.314865 -2.737148,3.275455 -2.8934193,2.899413 -2.7331711,2.760158 -3.1974361,2.778529 -0.1564848,0.0061 -0.3053867,-0.0067 -0.3878143,-0.03361 z"
       id="path1" /></g></svg>
