<?xml version="1.0" encoding="UTF-8" standalone="no"?>
<!-- Created with Inkscape (http://www.inkscape.org/) -->

<svg
   width="80"
   height="80"
   viewBox="0 0 21.166667 21.166667"
   version="1.1"
   id="svg5"
   xml:space="preserve"
   inkscape:export-filename="mic_on.svg"
   inkscape:export-xdpi="96"
   inkscape:export-ydpi="96"
   inkscape:version="1.4.2 (ebf0e940d0, 2025-05-08)"
   sodipodi:docname="tutup_panel_objek_tekan.svg"
   xmlns:inkscape="http://www.inkscape.org/namespaces/inkscape"
   xmlns:sodipodi="http://sodipodi.sourceforge.net/DTD/sodipodi-0.dtd"
   xmlns="http://www.w3.org/2000/svg"
   xmlns:svg="http://www.w3.org/2000/svg"><sodipodi:namedview
     id="namedview7"
     pagecolor="#000000"
     bordercolor="#111111"
     borderopacity="1"
     inkscape:showpageshadow="0"
     inkscape:pageopacity="0"
     inkscape:pagecheckerboard="1"
     inkscape:deskcolor="#d1d1d1"
     inkscape:document-units="mm"
     showgrid="false"
     inkscape:zoom="1.4142136"
     inkscape:cx="25.455843"
     inkscape:cy="-21.566756"
     inkscape:window-width="1440"
     inkscape:window-height="822"
     inkscape:window-x="0"
     inkscape:window-y="0"
     inkscape:window-maximized="1"
     inkscape:current-layer="layer1" /><defs
     id="defs2" /><g
     inkscape:label="Lapis 1"
     inkscape:groupmode="layer"
     id="layer1"><circle
       style="fill:#feffff;fill-opacity:0.99879295;stroke:#000000;stroke-width:1.32292;stroke-linecap:square;stroke-linejoin:round;stroke-dasharray:none;stroke-dashoffset:0.1;paint-order:stroke fill markers"
       id="path368"
       cx="10.583333"
       cy="10.583333"
       r="8.9292917" /><path
       style="fill:#000000;stroke-width:0.133341"
       d="m 17.268785,13.42673 c -0.08565,0.262453 -0.217834,0.443343 -0.582454,0.797105 -0.397667,0.385825 -0.605328,0.504889 -0.94194,0.540072 -0.24002,0.02509 -0.585246,-0.04895 -0.787335,-0.168849 -0.0695,-0.04124 -1.082763,-1.028851 -2.251695,-2.194703 l -2.12533,-2.119732 -2.1435122,2.137305 C 6.8097763,14.03996 6.2534187,14.57388 6.1288023,14.632576 5.8637239,14.757431 5.5682613,14.798542 5.3137789,14.74598 4.9892885,14.678957 4.8518151,14.592364 4.4513527,14.202744 3.9593772,13.724088 3.8586446,13.528019 3.8588552,13.049487 c 1.293e-4,-0.293906 0.01211,-0.360157 0.09583,-0.529937 0.079677,-0.161583 0.5782836,-0.675529 2.980986,-3.0726978 3.2944738,-3.28689 3.0050278,-3.045009 3.6438178,-3.045009 0.63881,0 0.34985,-0.241471 3.639394,3.041276 3.22157,3.2149098 3.066842,3.0368568 3.087254,3.5527068 0.0068,0.173872 -0.0074,0.339318 -0.03735,0.430904 z"
       id="path1" /></g></svg>
