<?xml version="1.0" encoding="UTF-8" standalone="no"?>
<!-- Created with Inkscape (http://www.inkscape.org/) -->

<svg
   width="80"
   height="80"
   viewBox="0 0 21.166667 21.166667"
   version="1.1"
   id="svg5"
   xml:space="preserve"
   inkscape:export-filename="mic_on.svg"
   inkscape:export-xdpi="96"
   inkscape:export-ydpi="96"
   inkscape:version="1.4.2 (ebf0e940d0, 2025-05-08)"
   sodipodi:docname="tutup_panel_objek.svg"
   xmlns:inkscape="http://www.inkscape.org/namespaces/inkscape"
   xmlns:sodipodi="http://sodipodi.sourceforge.net/DTD/sodipodi-0.dtd"
   xmlns="http://www.w3.org/2000/svg"
   xmlns:svg="http://www.w3.org/2000/svg"><sodipodi:namedview
     id="namedview7"
     pagecolor="#000000"
     bordercolor="#111111"
     borderopacity="1"
     inkscape:showpageshadow="0"
     inkscape:pageopacity="0"
     inkscape:pagecheckerboard="1"
     inkscape:deskcolor="#d1d1d1"
     inkscape:document-units="mm"
     showgrid="false"
     inkscape:zoom="2.8284272"
     inkscape:cx="40.658639"
     inkscape:cy="73.362327"
     inkscape:window-width="1440"
     inkscape:window-height="822"
     inkscape:window-x="0"
     inkscape:window-y="0"
     inkscape:window-maximized="1"
     inkscape:current-layer="layer1" /><defs
     id="defs2" /><g
     inkscape:label="Lapis 1"
     inkscape:groupmode="layer"
     id="layer1"><circle
       style="fill:#feffff;fill-opacity:0.5;stroke:#000000;stroke-width:1.32292;stroke-linecap:square;stroke-linejoin:round;stroke-dasharray:none;stroke-dashoffset:0.1;paint-order:stroke fill markers"
       id="path368"
       cx="10.583333"
       cy="10.583333"
       r="8.9292917" /><path
       style="fill:#000000;stroke-width:0.120007"
       d="m 16.600244,13.142385 c -0.07709,0.236207 -0.196051,0.399008 -0.524209,0.717394 -0.3579,0.347242 -0.544795,0.4544 -0.847746,0.486065 -0.216018,0.02258 -0.526721,-0.04405 -0.708601,-0.151964 -0.06255,-0.03711 -0.974487,-0.925966 -2.026526,-1.975233 L 10.580365,10.310889 8.6512048,12.234463 C 7.1871366,13.694291 6.6864147,14.174819 6.57426,14.227646 6.3356894,14.340015 6.0697731,14.377016 5.8407389,14.329709 5.5486976,14.269389 5.4249715,14.191455 5.0645553,13.840797 4.6217774,13.410007 4.531118,13.233545 4.5313076,12.802866 c 1.164e-4,-0.264516 0.010899,-0.324141 0.086247,-0.476943 0.071709,-0.145425 0.5204552,-0.607977 2.6828874,-2.7654284 2.965026,-2.958201 2.704525,-2.740508 3.279435,-2.740508 0.574929,0 0.314865,-0.217324 3.275455,2.737148 2.899413,2.8934194 2.760158,2.7331714 2.778529,3.1974364 0.0061,0.156485 -0.0067,0.305386 -0.03361,0.387814 z"
       id="path1" /></g></svg>
