<?xml version="1.0" encoding="UTF-8" standalone="no"?>
<!-- Created with Inkscape (http://www.inkscape.org/) -->

<svg
   width="40"
   height="40"
   viewBox="0 0 10.583334 10.583333"
   version="1.1"
   id="svg5"
   xml:space="preserve"
   inkscape:version="1.4 (e7c3feb100, 2024-10-09)"
   sodipodi:docname="ikon_gender_cowok.svg"
   inkscape:export-filename="../../godot4_perf_test/tmp/antarmuka.png"
   inkscape:export-xdpi="96"
   inkscape:export-ydpi="96"
   xmlns:inkscape="http://www.inkscape.org/namespaces/inkscape"
   xmlns:sodipodi="http://sodipodi.sourceforge.net/DTD/sodipodi-0.dtd"
   xmlns="http://www.w3.org/2000/svg"
   xmlns:svg="http://www.w3.org/2000/svg"><sodipodi:namedview
     id="namedview7"
     pagecolor="#ffffff"
     bordercolor="#111111"
     borderopacity="1"
     inkscape:showpageshadow="0"
     inkscape:pageopacity="0"
     inkscape:pagecheckerboard="1"
     inkscape:deskcolor="#d1d1d1"
     inkscape:document-units="cm"
     showgrid="false"
     inkscape:zoom="7.8107535"
     inkscape:cx="17.027807"
     inkscape:cy="19.204293"
     inkscape:window-width="1283"
     inkscape:window-height="761"
     inkscape:window-x="41"
     inkscape:window-y="44"
     inkscape:window-maximized="0"
     inkscape:current-layer="g4915"
     showguides="true" /><defs
     id="defs2" /><g
     inkscape:groupmode="layer"
     id="g4915"
     inkscape:label="karakter"
     style="display:inline"
     transform="translate(-156.89478,-96.183191)"><path
       style="display:inline;fill:#ffffff;stroke-width:1"
       d="m 160.99364,106.11368 c 0,-0.0104 -0.0263,-0.0189 -0.0586,-0.0189 -0.10259,0 -0.4355,-0.0758 -0.67536,-0.15385 -0.28665,-0.0932 -0.73115,-0.31597 -0.96895,-0.48555 -0.60454,-0.43111 -1.06372,-1.01768 -1.3363,-1.70702 -0.0825,-0.20858 -0.18906,-0.61846 -0.20838,-0.80134 -0.007,-0.0703 -0.021,-0.12781 -0.0302,-0.12781 -0.009,0 -0.0167,-0.18744 -0.0167,-0.41654 0,-0.2291 0.007,-0.41655 0.0163,-0.41655 0.009,0 0.0218,-0.0537 0.0285,-0.11945 0.0455,-0.44436 0.28621,-1.08042 0.57454,-1.51833 1.09419,-1.661858 3.27759,-2.164091 5.02331,-1.155482 l 0.0856,0.04947 0.64082,-0.632604 c 0.35246,-0.34793 0.63344,-0.637 0.6244,-0.642379 -0.009,-0.0054 -0.21666,-0.01032 -0.46138,-0.01097 l -0.44494,-0.0012 -0.005,-0.569011 -0.005,-0.569014 h 1.44872 1.44872 v 1.438978 1.438978 h -0.57748 -0.57749 v -0.459037 -0.459037 l -0.60605,0.605775 c -0.33334,0.333176 -0.60278,0.614293 -0.59877,0.624703 0.004,0.0104 0.0637,0.0945 0.13256,0.18684 0.36945,0.49518 0.61502,1.1125 0.69394,1.74443 0.0304,0.24325 0.026,0.73949 -0.009,0.98212 -0.15185,1.0642 -0.73456,1.98694 -1.63903,2.59546 -0.22323,0.15018 -0.60974,0.33661 -0.88269,0.42575 -0.23137,0.0756 -0.57074,0.15266 -0.67194,0.15266 -0.0301,0 -0.0548,0.009 -0.0548,0.0189 0,0.0121 -0.16093,0.0189 -0.44494,0.0189 -0.28401,0 -0.44495,-0.007 -0.44495,-0.0189 z m 1.05339,-1.19934 c 0.98148,-0.24887 1.70881,-1.00045 1.9229,-1.987 0.0347,-0.15984 0.0419,-0.25244 0.0417,-0.53417 -1.7e-4,-0.30126 -0.006,-0.36552 -0.0502,-0.55377 -0.12246,-0.52235 -0.36831,-0.95346 -0.75062,-1.31623 -0.3682,-0.34938 -0.80864,-0.573187 -1.31786,-0.669666 -0.23198,-0.04395 -0.68019,-0.04422 -0.90883,-5.14e-4 -1.12545,0.21499 -1.95874,1.08467 -2.11147,2.20368 -0.0295,0.21631 -0.0154,0.65926 0.0273,0.85721 0.10704,0.49609 0.32348,0.90887 0.66306,1.26457 0.30781,0.32242 0.68304,0.55952 1.08342,0.68459 0.3103,0.0969 0.44758,0.11419 0.84893,0.1067 0.30968,-0.006 0.38644,-0.0135 0.55164,-0.0554 z"
       id="path6183"
       inkscape:label="ikon_cowok"
       inkscape:export-filename="../../godot4_perf_test/ui/ikon/ikon_gender_cowok.svg"
       inkscape:export-xdpi="96"
       inkscape:export-ydpi="96"
       transform="translate(-1.1791169e-6)" /></g></svg>
