<?xml version="1.0" encoding="UTF-8" standalone="no"?>
<!-- Created with Inkscape (http://www.inkscape.org/) -->

<svg
   width="33.91967"
   height="35.207867"
   viewBox="0 0 8.9745797 9.3154147"
   version="1.1"
   id="svg5"
   xml:space="preserve"
   inkscape:version="1.3.2 (091e20ef0f, 2023-11-25, custom)"
   sodipodi:docname="ikon_vr.svg"
   inkscape:export-filename="../../godot4_perf_test/tmp/antarmuka.png"
   inkscape:export-xdpi="96"
   inkscape:export-ydpi="96"
   xmlns:inkscape="http://www.inkscape.org/namespaces/inkscape"
   xmlns:sodipodi="http://sodipodi.sourceforge.net/DTD/sodipodi-0.dtd"
   xmlns="http://www.w3.org/2000/svg"
   xmlns:svg="http://www.w3.org/2000/svg"><sodipodi:namedview
     id="namedview7"
     pagecolor="#101010"
     bordercolor="#111111"
     borderopacity="1"
     inkscape:showpageshadow="0"
     inkscape:pageopacity="0"
     inkscape:pagecheckerboard="1"
     inkscape:deskcolor="#d1d1d1"
     inkscape:document-units="cm"
     showgrid="false"
     inkscape:zoom="5.627887"
     inkscape:cx="27.363734"
     inkscape:cy="26.475301"
     inkscape:window-width="1346"
     inkscape:window-height="702"
     inkscape:window-x="10"
     inkscape:window-y="56"
     inkscape:window-maximized="1"
     inkscape:current-layer="g4915"
     showguides="true" /><defs
     id="defs2" /><g
     inkscape:groupmode="layer"
     id="g4915"
     inkscape:label="bug"
     style="display:inline"
     transform="translate(-156.89478,-96.183191)"><path
       id="rect2"
       style="display:inline;fill:#ffffff;stroke-width:2.5;stroke-linecap:square;paint-order:stroke fill markers"
       d="m 158.07455,98.84246 v 3.99666 h 2.27377 l 1.03352,-0.8444 1.03405,0.8444 h 2.27325 v -3.99666 z m 1.77509,1.071253 a 0.91025531,0.91025531 0 0 1 0.67179,0.347787 0.91025531,0.91025531 0 0 1 -0.15503,1.27795 0.91025531,0.91025531 0 0 1 -1.27796,-0.15451 0.91025531,0.91025531 0 0 1 0.15452,-1.27796 l 0.56172,0.71624 -0.56121,-0.71675 a 0.91025531,0.91025531 0 0 1 0.60617,-0.192757 z m 3.13986,0 a 0.91025531,0.91025531 0 0 1 0.67179,0.347787 0.91025531,0.91025531 0 0 1 -0.15503,1.27795 0.91025531,0.91025531 0 0 1 -1.27796,-0.15451 0.91025531,0.91025531 0 0 1 0.15452,-1.27796 l 0.56172,0.71624 -0.56121,-0.71675 a 0.91025531,0.91025531 0 0 1 0.60617,-0.192757 z" /><path
       style="display:inline;fill:#fdfdfd;fill-opacity:1;stroke-width:0.0397829"
       d="m 158.45174,103.0486 c -0.24914,-0.0659 -0.45949,-0.23964 -0.57256,-0.4728 -0.0936,-0.19299 -0.091,-0.14083 -0.0867,-1.77706 l 0.004,-1.476249 0.0382,-0.112276 c 0.0482,-0.14149 0.12662,-0.261502 0.2401,-0.367654 0.10793,-0.100962 0.18185,-0.145469 0.32665,-0.196673 l 0.11073,-0.03915 h 2.86303 c 2.73717,0 2.86671,0.0011 2.94646,0.02574 0.14242,0.04395 0.25951,0.109908 0.35954,0.202514 0.12025,0.111334 0.19923,0.230563 0.24855,0.375225 l 0.0382,0.112275 0.004,1.466598 c 0.003,1.29894 0.002,1.47944 -0.0185,1.57888 -0.0535,0.2674 -0.22652,0.49307 -0.47314,0.61709 -0.18133,0.0912 -0.20765,0.0933 -1.08421,0.0886 -0.76865,-0.004 -0.78794,-0.005 -0.87716,-0.0353 -0.17573,-0.0598 -0.25573,-0.12034 -0.58199,-0.44014 -0.2751,-0.26966 -0.31815,-0.30641 -0.39042,-0.33332 -0.10599,-0.0394 -0.22276,-0.0394 -0.32876,0 -0.0722,0.027 -0.11531,0.0637 -0.39042,0.33332 -0.32625,0.31978 -0.40623,0.38028 -0.58199,0.44016 -0.0895,0.0305 -0.10642,0.0311 -0.89119,0.0342 -0.75159,0.003 -0.80615,0.002 -0.90239,-0.024 z m 1.69131,-0.42322 c 0.0722,-0.027 0.11525,-0.0637 0.38998,-0.33332 0.21803,-0.21398 0.33557,-0.3186 0.39999,-0.35602 0.26608,-0.1546 0.58181,-0.16175 0.86098,-0.0195 0.10246,0.0522 0.1474,0.0907 0.43018,0.36836 0.28134,0.27624 0.32464,0.31336 0.397,0.34041 0.0794,0.0297 0.0971,0.0303 0.81699,0.0303 0.70781,0 0.73868,-8e-4 0.81279,-0.0288 0.10184,-0.0381 0.20742,-0.13478 0.25663,-0.23499 l 0.0393,-0.08 v -1.47362 -1.473618 l -0.0389,-0.07918 c -0.0454,-0.09238 -0.13938,-0.184372 -0.23233,-0.227324 l -0.0656,-0.03033 h -2.82794 -2.82794 l -0.0654,0.03224 c -0.0992,0.04885 -0.188,0.134769 -0.23201,0.224393 l -0.0394,0.0802 v 1.473619 1.47362 l 0.0393,0.08 c 0.0483,0.0983 0.154,0.19638 0.25264,0.2343 0.0695,0.0267 0.10781,0.0281 0.81274,0.0288 0.72443,6.6e-4 0.74148,1.2e-4 0.82102,-0.0295 z"
       id="path2"
       sodipodi:nodetypes="ccccccccscccccccccccccccccccccccscccccccccccccccccccc" /></g></svg>
