<?xml version="1.0" encoding="UTF-8" standalone="no"?>
<!-- Created with Inkscape (http://www.inkscape.org/) -->

<svg
   width="41.752663"
   height="18.963657"
   viewBox="0 0 11.047059 5.0174677"
   version="1.1"
   id="svg5"
   xml:space="preserve"
   xmlns="http://www.w3.org/2000/svg"
   xmlns:svg="http://www.w3.org/2000/svg"><defs
     id="defs2" /><g
     id="g4915"
     style="display:inline"
     transform="translate(-219.66947,-39.243031)"><path
       style="fill:#feffff;fill-opacity:1;stroke-width:0.999998"
       d="m 219.7599,44.086212 c -0.0191,-0.09585 -0.0348,-0.271645 -0.0348,-0.390651 v -0.216375 l 5.47922,0.01422 5.47921,0.01422 0.0165,0.376434 0.0165,0.376436 h -5.46085 -5.46086 z m -0.0897,-1.735513 c 8.4e-4,-0.690735 0.0657,-1.73222 0.14597,-2.342535 0.0273,-0.207746 0.057,-0.264898 0.13774,-0.264898 0.057,0 0.13998,0.07167 0.186,0.160661 0.11299,0.218492 0.38844,0.442061 0.7563,0.613857 0.25293,0.118115 0.39009,0.143453 0.78193,0.144449 0.42622,0.0011 0.51375,-0.01776 0.84901,-0.182816 0.50048,-0.246384 0.87864,-0.720362 0.87864,-1.101269 0,-0.07524 0.0188,-0.136037 0.0418,-0.135108 0.023,9.28e-4 0.1924,0.08868 0.37644,0.195016 0.18403,0.106329 0.52283,0.282181 0.75287,0.390782 l 0.41826,0.197457 -0.0184,0.383731 c -0.0207,0.433115 0.0476,0.616311 0.22943,0.615053 0.2156,-0.0015 0.27762,-0.087 0.31273,-0.431236 l 0.0339,-0.332015 0.41907,0.16439 0.41907,0.164389 -0.0205,0.405794 c -0.0232,0.459274 0.0433,0.642982 0.23276,0.642982 0.20225,0 0.26015,-0.107995 0.26015,-0.485183 0,-0.193236 0.0187,-0.351339 0.0416,-0.351339 0.0229,0 0.23005,0.06275 0.46033,0.139437 l 0.41869,0.139437 v 0.541869 c 0,0.537921 8.4e-4,0.542257 0.14979,0.595142 0.25387,0.09015 0.324,-0.02342 0.324,-0.524694 v -0.433588 l 0.91978,0.294322 c 0.50587,0.161876 0.98274,0.335577 1.0597,0.386002 0.25537,0.16733 0.44219,0.518216 0.44442,0.834727 l 0.002,0.285957 -5.50711,0.01421 -5.5071,0.01421 8.4e-4,-0.7392 z"
       id="path3065" /></g></svg>
