<?xml version="1.0" encoding="UTF-8" standalone="no"?>
<!-- Created with Inkscape (http://www.inkscape.org/) -->

<svg
   width="30.001976"
   height="30.003674"
   viewBox="0 0 7.9380231 7.938472"
   version="1.1"
   id="svg5"
   xml:space="preserve"
   xmlns="http://www.w3.org/2000/svg"
   xmlns:svg="http://www.w3.org/2000/svg"><defs
     id="defs2" /><g
     id="layer1"
     style="display:inline"
     transform="translate(-4.3933793,-4.3931056)"><g
       id="g10285"><path
         id="path10283"
         style="display:inline;fill:#2a352e;fill-opacity:1;stroke-width:0.999998"
         d="M 8.361337,4.3931061 C 7.8368634,4.3934682 7.3094812,4.4990048 6.8072137,4.7122845 6.445141,4.866033 6.1082597,5.0758583 5.8082111,5.3293893 c 0.0024,-0.00282 0.00451,-0.00498 0.00715,-0.00835 0.02128,-0.027135 0.020685,-0.02773 -0.00645,-0.00645 -0.016467,0.012914 -0.02994,0.026387 -0.02994,0.02994 0,0.00436 0.00148,0.00625 0.00401,0.00628 -0.044662,0.038372 -0.088443,0.077766 -0.1313866,0.1180545 0.025663,-0.027297 0.044119,-0.049454 0.039997,-0.049454 -0.00471,0 -0.034675,0.026946 -0.066596,0.059879 -0.031921,0.032933 -0.054195,0.059879 -0.049488,0.059879 0.00113,0 0.00387,-0.00169 0.00759,-0.00451 -0.020499,0.020157 -0.040784,0.040527 -0.060849,0.061116 0.011104,-0.013078 0.017991,-0.022388 0.015371,-0.022388 -0.00471,0 -0.034676,0.026946 -0.066596,0.059879 -0.031921,0.032934 -0.054195,0.059879 -0.049488,0.059879 0.00343,0 0.021834,-0.016476 0.043139,-0.037057 -0.043925,0.046972 -0.086716,0.094971 -0.1283468,0.1439844 C 5.0798089,6.1020877 4.8676341,6.4416868 4.7125413,6.8069256 4.1875458,8.0432765 4.3154465,9.4317897 5.057716,10.554632 c 0.082989,0.125538 0.173586,0.245843 0.2707272,0.360612 -0.00255,-0.0022 -0.00435,-0.004 -0.00712,-0.0062 -0.027135,-0.02128 -0.02773,-0.02069 -0.00645,0.0065 0.020843,0.02658 0.034312,0.036 0.036055,0.02576 0.047705,0.05536 0.096938,0.109373 0.14766,0.161996 -0.00724,-0.0068 -0.01369,-0.01303 -0.02329,-0.02185 l -0.064157,-0.05898 0.058944,0.06416 c 0.032427,0.03529 0.061299,0.06416 0.064157,0.06416 0.00516,0 0.00616,-0.0024 0.00204,-0.0085 0.6434782,0.649575 1.5116859,1.077833 2.4154568,1.169686 0.8941266,0.09087 1.8298146,-0.136923 2.574813,-0.626829 0.149127,-0.09807 0.261016,-0.179723 0.373243,-0.27477 -0.0031,0.0035 -0.0054,0.0064 -0.0054,0.0077 0,0.01408 0.01404,0.005 0.03639,-0.02349 0.01759,-0.02243 0.01919,-0.02584 0.0042,-0.01464 0.05493,-0.04786 0.111314,-0.100061 0.172588,-0.159389 -0.0083,0.008 -0.01585,0.01485 -0.02503,0.02433 -0.03192,0.03293 -0.05419,0.05988 -0.04949,0.05988 0.0047,0 0.03468,-0.02695 0.0666,-0.05988 0.03192,-0.03293 0.05419,-0.05988 0.04949,-0.05988 -0.0022,0 -0.01044,0.0064 -0.02159,0.01634 0.0016,-0.0015 0.003,-0.0029 0.0046,-0.0044 0.08466,-0.0828 0.164998,-0.169046 0.241355,-0.258096 -5e-6,5.2e-5 -1.29e-4,1.87e-4 -1.29e-4,2.32e-4 0,0.01408 0.01404,0.005 0.03639,-0.02349 0.02128,-0.02714 0.02068,-0.02773 -0.0065,-0.0065 -0.0067,0.0053 -0.01223,0.01033 -0.01724,0.01507 0.608091,-0.716109 0.945373,-1.6220904 0.945373,-2.5620476 0,-0.9427398 -0.34497,-1.8533382 -0.943134,-2.561981 -0.07672,-0.090896 -0.157689,-0.178385 -0.242559,-0.2622729 0.0036,0.00148 0.0052,2.393e-4 0.0052,-0.00381 0,-0.00286 -0.02887,-0.031729 -0.06416,-0.064156 l -0.06416,-0.058977 0.05894,0.064156 c 0.0033,0.00364 0.0052,0.00553 0.0083,0.00882 -0.04795,-0.045558 -0.09683,-0.090201 -0.147159,-0.1333919 0.0083,-0.00258 -0.0015,-0.015851 -0.027,-0.035854 -0.02713,-0.02128 -0.02773,-0.020686 -0.0064,0.00645 0.0017,0.00219 0.0032,0.00356 0.0049,0.00561 C 10.80014,5.2305912 10.680456,5.1404045 10.554932,5.0574252 9.8882326,4.6167036 9.1278766,4.3925788 8.361337,4.3931061 Z m 3.027015,1.4069643 c 0.02235,0.028498 0.03639,0.037572 0.03639,0.023491 0,-0.00355 -0.01347,-0.017025 -0.02994,-0.02994 -0.02714,-0.02128 -0.02773,-0.020686 -0.0065,0.00645 z m -6.0520253,0 c 0.02128,-0.027135 0.020686,-0.02773 -0.00645,-0.00645 -0.016467,0.012914 -0.02994,0.026387 -0.02994,0.02994 0,0.014081 0.014039,0.00501 0.036388,-0.023491 z m 5.8403433,-0.2352402 0.05894,0.064156 c 0.05488,0.059715 0.06937,0.072042 0.06937,0.058977 0,-0.00286 -0.02887,-0.031729 -0.06416,-0.064156 z M 8.7252578,5.9084013 c 0.2383181,0.00257 0.4509023,0.131815 0.5554213,0.3454424 0.035821,0.073214 0.044405,0.1161341 0.04511,0.2252158 7.63e-4,0.1181218 -0.00591,0.1485774 -0.054065,0.2464009 -0.017622,0.035793 -0.038054,0.068719 -0.060816,0.099042 -0.00827,0.00493 -0.025991,0.02089 -0.044475,0.040566 -0.021475,0.022858 -0.035385,0.041524 -0.031845,0.04257 -0.07747,0.068878 -0.173136,0.115029 -0.2838587,0.1354971 -0.1684031,0.031131 -0.292814,0.014788 -0.4345587,-0.05704 C 8.1966697,6.8748667 8.076004,6.6461088 8.1073843,6.400635 8.1389217,6.1539258 8.3514289,5.9533639 8.621772,5.9151511 c 0.034855,-0.00493 0.069441,-0.00712 0.1034858,-0.00675 z m -0.5791121,1.652062 c 0.066576,-9.543e-4 0.1303734,0.00381 0.1933383,0.013967 0.4104978,0.066221 0.6083985,0.318237 0.5810169,0.7399382 C 8.9065219,8.5296613 8.8981179,8.567218 8.7289002,9.1702556 8.5302047,9.8783417 8.4982366,10.075308 8.5585181,10.219581 c 0.040168,0.09614 0.1453205,0.133792 0.341533,0.122298 0.0922,-0.0054 0.1962325,-0.02365 0.2563581,-0.04498 0.055649,-0.01974 0.1040858,-0.03298 0.1076292,-0.02944 0.00354,0.0035 -0.00975,0.07095 -0.029539,0.149832 l -0.035954,0.14345 -0.2888377,0.106493 c -0.2173652,0.08016 -0.3260782,0.110776 -0.4394714,0.123768 -0.1887679,0.02163 -0.2732257,0.02018 -0.4247027,-0.0074 -0.1657471,-0.03007 -0.3064101,-0.105621 -0.4057225,-0.214741 0.0025,-4.9e-5 0.00398,-0.0019 0.00398,-0.0063 0,-0.0035 -0.013473,-0.01703 -0.02994,-0.02994 -0.00475,-0.0037 -0.00765,-0.0059 -0.010793,-0.0083 -0.020534,-0.0274 -0.038884,-0.05641 -0.054469,-0.08716 -0.044453,-0.08773 -0.050887,-0.12006 -0.05597,-0.281353 C 7.4853512,9.925366 7.5055366,9.8232028 7.6814795,9.2003625 7.8900876,8.4618936 7.9172591,8.2930479 7.850893,8.1469269 7.8024938,8.0403635 7.7306579,8.013345 7.5254659,8.0245619 7.4246494,8.030073 7.3236111,8.0470264 7.2631266,8.0685692 7.1472084,8.1098546 7.1484667,8.11249 7.1960964,7.9257877 L 7.2266374,7.806029 7.4198754,7.732516 C 7.7217405,7.6176758 7.9464189,7.5633265 8.1461457,7.5604633 Z M 7.6224021,8.0048804 c -0.00521,1.423e-4 -0.010829,0.00126 -0.016039,0.00334 -0.013648,0.00546 -0.00961,0.0095 0.010325,0.010325 0.018032,7.43e-4 0.028138,-0.0033 0.022454,-0.00899 -0.00328,-0.00329 -0.00961,-0.00488 -0.01674,-0.00468 z m 1.248912,2.3438486 c -0.00521,1.43e-4 -0.010829,0.0013 -0.016039,0.0033 -0.013648,0.0055 -0.00961,0.0095 0.010325,0.01032 0.018032,7.43e-4 0.028139,-0.0033 0.022455,-0.009 -0.00328,-0.0033 -0.00961,-0.0049 -0.016741,-0.0047 z m 2.4318309,0.682231 c -0.0047,0 -0.03468,0.02695 -0.0666,0.05988 -0.03192,0.03293 -0.05419,0.05988 -0.04949,0.05988 0.0047,0 0.03468,-0.02695 0.0666,-0.05988 0.03192,-0.03293 0.05419,-0.05988 0.04949,-0.05988 z m -5.7380267,0.145422 0.058944,0.06416 c 0.032427,0.03529 0.061299,0.06416 0.064157,0.06416 0.013064,0 7.695e-4,-0.01446 -0.058944,-0.06934 z m 0.2138547,0.196746 c -8.858e-4,8.83e-4 0.00429,0.0078 0.014936,0.02139 0.02235,0.0285 0.036389,0.03757 0.036389,0.02349 0,-0.0035 -0.013473,-0.01703 -0.02994,-0.02994 -0.013567,-0.01064 -0.020502,-0.01582 -0.021386,-0.01494 z" /></g></g></svg>
