<?xml version="1.0" encoding="UTF-8" standalone="no"?>
<!-- Created with Inkscape (http://www.inkscape.org/) -->

<svg
   width="41.499775"
   height="41.527771"
   viewBox="0 0 10.980149 10.987556"
   version="1.1"
   id="svg5"
   xml:space="preserve"
   xmlns="http://www.w3.org/2000/svg"
   xmlns:svg="http://www.w3.org/2000/svg"><defs
     id="defs2" /><g
     id="layer8"
     transform="translate(-171.36919,-93.402521)"><g
       id="g513"
       transform="translate(1.5258789e-5,48.801605)"
       style="display:inline"><path
         style="fill:#333333;fill-opacity:1;stroke-width:1"
         d="m 176.24927,104.37147 c -0.82781,-0.0829 -1.80625,-0.4523 -2.53989,-0.95881 -1.29963,-0.89726 -2.20699,-2.46687 -2.32855,-4.028108 -0.0229,-0.294309 -0.0205,-0.305899 0.0866,-0.40509 l 0.11017,-0.102104 1.07118,0.0024 c 1.26093,0.0031 1.63173,0.03104 1.70362,0.129354 0.0276,0.03776 0.0883,0.220786 0.13498,0.406789 0.14979,0.597239 0.44819,1.060639 0.91352,1.418709 0.8599,0.66168 2.07921,0.6582 2.96276,-0.008 0.41328,-0.31182 0.77183,-0.903764 0.89321,-1.474585 0.16809,-0.790567 -0.13151,-1.672738 -0.76534,-2.25353 -0.37071,-0.339692 -0.70585,-0.494724 -1.40128,-0.648212 -0.2001,-0.04417 -0.20766,-0.09652 -0.22086,-1.528982 l -0.0122,-1.328332 0.1206,-0.101478 c 0.10726,-0.09026 0.14575,-0.09927 0.34816,-0.08149 1.25457,0.110176 2.42076,0.637126 3.33461,1.506772 0.86336,0.821602 1.44159,1.911916 1.63695,3.086637 0.084,0.504915 0.0623,1.647137 -0.0391,2.06 -0.17687,0.72014 -0.50899,1.46831 -0.89366,2.01313 -0.47083,0.66686 -1.24521,1.34331 -1.96093,1.71297 -0.40488,0.20911 -1.03157,0.4286 -1.47483,0.51654 -0.36846,0.0731 -1.25884,0.10801 -1.67964,0.0658 z m -3.29866,-6.226931 c -1.14675,-0.06539 -1.29313,-0.08472 -1.39231,-0.183909 -0.0684,-0.06842 -0.0763,-0.110286 -0.0535,-0.283275 0.07,-0.531028 0.56071,-1.61197 0.9558,-2.10532 0.14496,-0.181017 0.28679,-0.237687 0.42037,-0.167967 0.1226,0.06399 1.795,1.726251 1.88889,1.877448 0.0706,0.113694 0.0721,0.136013 0.0191,0.286152 -0.0801,0.226913 -0.25115,0.50942 -0.3508,0.579211 -0.0984,0.06895 -0.24129,0.06873 -1.48753,-0.0024 z m 2.27112,-1.355549 c -0.0652,-0.04173 -0.51427,-0.475326 -0.99791,-0.963562 -0.98638,-0.995756 -0.99664,-1.012896 -0.75089,-1.25384 0.25508,-0.25009 0.9711,-0.672136 1.23841,-0.729957 0.18029,-0.039 0.26478,0.05897 0.42331,0.49082 0.26106,0.711111 0.62835,1.955033 0.63438,2.148508 0.005,0.162719 -0.009,0.203593 -0.0928,0.266308 -0.15252,0.114367 -0.31732,0.129495 -0.45449,0.04173 z"
         id="path7347"
         transform="translate(-1.5258789e-5,-48.801605)" /></g></g></svg>
