<?xml version="1.0" encoding="UTF-8" standalone="no"?>
<!-- Created with Inkscape (http://www.inkscape.org/) -->

<svg
   width="41.98473"
   height="41.981903"
   viewBox="0 0 11.10846 11.107712"
   version="1.1"
   id="svg5"
   xml:space="preserve"
   xmlns="http://www.w3.org/2000/svg"
   xmlns:svg="http://www.w3.org/2000/svg"><defs
     id="defs2" /><g
     id="layer1"
     style="display:inline"
     transform="translate(-171.305,-66.363565)"><g
       id="g1216"
       transform="translate(1.5258789e-5,21.660494)"><path
         id="path1234"
         style="display:inline;fill:#333333;fill-opacity:1;stroke-width:0.999994"
         d="m 176.8707,44.703075 c -2.66153,0 -4.83914,0.0089 -4.83914,0.01973 0,0.01085 -0.0407,0.03189 -0.0904,0.04678 -0.23152,0.06937 -0.47475,0.306612 -0.55977,0.545988 -0.0222,0.06268 -0.0486,0.113966 -0.0584,0.113966 -0.01,0 -0.0179,0.300542 -0.0179,0.667873 0,0.367329 0.008,0.667871 0.0183,0.667871 0.0101,0 0.0328,0.04897 0.0505,0.108841 0.0742,0.251148 0.36596,0.517443 0.63973,0.583747 0.0978,0.02368 1.104,0.03027 4.84627,0.03185 5.21503,0.0022 4.86357,0.01218 5.12874,-0.145456 0.13669,-0.08125 0.31528,-0.286585 0.35581,-0.40909 0.0139,-0.04189 0.035,-0.07616 0.0468,-0.07616 0.0127,0 0.0216,-0.307617 0.0216,-0.749892 0,-0.412439 -0.008,-0.749934 -0.0176,-0.749982 -0.01,-4.9e-5 -0.0373,-0.04804 -0.0614,-0.106644 -0.0639,-0.15535 -0.24969,-0.346875 -0.41816,-0.431059 -0.0787,-0.03932 -0.15724,-0.0715 -0.17451,-0.0715 -0.0173,0 -0.0314,-0.01054 -0.0314,-0.02344 0,-0.01554 -1.62867,-0.02343 -4.83914,-0.02343 z m -4.18422,0.938279 c 0.1511,-0.004 0.3048,0.06472 0.3981,0.200883 0.15279,0.222993 0.0821,0.529407 -0.15172,0.657529 -0.0911,0.04989 -0.23397,0.08421 -0.2803,0.06728 -0.0129,-0.0047 -0.0527,-0.01503 -0.0885,-0.02293 -0.0854,-0.01885 -0.25015,-0.169067 -0.29005,-0.264366 -0.0668,-0.159587 -0.0287,-0.359888 0.0942,-0.495136 0.0848,-0.09325 0.20071,-0.140202 0.31824,-0.143259 z m 6.26198,0.465707 c 0.0567,6.87e-4 0.11463,0.02323 0.16198,0.07058 0.11337,0.113365 0.0827,0.295546 -0.0613,0.363869 -0.0914,0.04334 -0.0957,0.04343 -0.1909,0.002 -0.10796,-0.04695 -0.16051,-0.159477 -0.12693,-0.271596 0.0319,-0.106473 0.12269,-0.166002 0.21713,-0.164863 z m 1.86612,1.37e-4 c 0.0505,0.0035 0.10207,0.02535 0.14715,0.07044 0.0922,0.09216 0.0937,0.20864 0.004,0.30382 -0.0354,0.03763 -0.0908,0.074 -0.12303,0.08087 -0.0945,0.02015 -0.20814,-0.04248 -0.24734,-0.136302 -0.0739,-0.176878 0.0677,-0.3296 0.21915,-0.318833 z m -2.80289,6.41e-4 c 0.11692,-0.0089 0.23003,0.07559 0.24519,0.192692 -0.005,-0.01775 -0.0103,-0.0053 -0.0107,0.03122 -3.6e-4,0.02881 0.003,0.04646 0.006,0.04705 -0.004,0.01227 -0.006,0.02466 -0.0117,0.03726 -0.0163,0.03942 -0.0518,0.08554 -0.0788,0.102523 -0.11802,0.07421 -0.2227,0.06127 -0.30611,-0.03785 -0.0835,-0.09931 -0.0801,-0.213854 0.009,-0.303087 0.0443,-0.04431 0.0959,-0.06592 0.14682,-0.0698 z m 1.86269,0.0049 c 0.0406,6.1e-5 0.083,0.0098 0.124,0.03103 0.15503,0.08017 0.13456,0.329695 -0.0328,0.399615 -0.0451,0.01887 -0.0851,0.03288 -0.0888,0.03112 -0.004,-0.0018 -0.0299,-0.0077 -0.0585,-0.01323 -0.081,-0.01567 -0.17072,-0.138312 -0.17072,-0.233243 0,-0.128261 0.10503,-0.215483 0.22674,-0.215302 z m 1.77687,1.846397 -4.82742,0.0064 -4.82742,0.0064 -0.15783,0.07918 c -0.0924,0.0464 -0.20212,0.126621 -0.26481,0.193652 -0.0989,0.105695 -0.22105,0.320253 -0.22158,0.38918 -9e-5,0.01611 -0.0108,0.02929 -0.0237,0.02929 -0.0151,0 -0.0235,0.242153 -0.0235,0.67959 0,0.382349 0.009,0.679588 0.0209,0.679588 0.0115,0 0.0281,0.029 0.037,0.06445 0.027,0.108688 0.14881,0.301237 0.24606,0.389088 0.10141,0.09163 0.24269,0.170664 0.38739,0.216766 0.0749,0.02386 1.06276,0.02899 4.91068,0.02544 l 4.8169,-0.0044 0.17887,-0.08838 c 0.19642,-0.09708 0.32457,-0.222264 0.41833,-0.408587 0.0311,-0.06178 0.0645,-0.115849 0.0741,-0.120146 0.01,-0.0043 0.0176,-0.34349 0.0176,-0.753781 0,-0.410291 -0.008,-0.749486 -0.0176,-0.753782 -0.01,-0.0043 -0.0425,-0.05742 -0.0729,-0.11804 -0.11661,-0.231988 -0.27316,-0.368058 -0.53051,-0.46113 z m -8.96029,0.916494 c 0.35011,-0.0088 0.63862,0.428985 0.36542,0.760418 -0.0398,0.04833 -0.11536,0.107392 -0.16783,0.131222 -0.12874,0.05848 -0.23577,0.05491 -0.38094,-0.01268 -0.32183,-0.149844 -0.35664,-0.590621 -0.0628,-0.794746 0.0812,-0.0564 0.16531,-0.08218 0.24611,-0.08422 z m 7.19382,0.469277 c 0.0376,7.79e-4 0.0746,0.01341 0.11643,0.03812 0.1289,0.07615 0.14009,0.262581 0.0221,0.369316 -0.023,0.02081 -0.0774,0.04281 -0.12088,0.04889 -0.24502,0.03424 -0.35732,-0.309568 -0.13813,-0.422912 0.0445,-0.023 0.0827,-0.03416 0.12042,-0.03342 z m -0.96052,0.0013 c 0.015,-9.7e-5 0.032,0.0016 0.053,0.0043 0.22221,0.0298 0.27808,0.307829 0.0848,0.421997 -0.15708,0.09279 -0.33897,-0.01428 -0.33897,-0.199556 0,-0.07745 0.0141,-0.106856 0.0789,-0.164816 0.0514,-0.04589 0.0773,-0.06168 0.12226,-0.06198 z m -0.90204,5.49e-4 c 0.0875,-6.87e-4 0.17577,0.04511 0.21186,0.131497 0.009,0.02124 0.0145,0.04232 0.0179,0.06307 -0.004,-2.21e-4 -0.007,0.01285 -0.007,0.03592 0,0.02488 0.004,0.03797 0.008,0.03543 -0.007,0.04713 -0.0291,0.09027 -0.0664,0.125318 -0.20371,0.19138 -0.50469,-0.07475 -0.34235,-0.302721 0.0423,-0.05943 0.10996,-0.08801 0.17805,-0.08852 z m 2.78412,0.0011 c 0.0143,1.51e-4 0.0289,0.0016 0.0434,0.0043 0.21454,0.04024 0.24635,0.331432 0.0473,0.433212 -0.11261,0.05759 -0.23321,0.0087 -0.29636,-0.120329 -0.0355,-0.07245 -0.0384,-0.101164 -0.0169,-0.166419 0.0303,-0.0918 0.12213,-0.151806 0.22248,-0.150765 z m -3.93413,1.84324 c -2.38213,-2.04e-4 -4.76421,0.01137 -4.85237,0.03492 -0.15112,0.04037 -0.29395,0.113956 -0.39724,0.204636 -0.0978,0.08588 -0.2414,0.314434 -0.2619,0.416917 -0.008,0.04017 -0.0238,0.07305 -0.0351,0.07305 -0.0113,0 -0.0205,0.300543 -0.0205,0.667872 0,0.429625 0.008,0.667873 0.0235,0.667873 0.0129,0 0.0235,0.01412 0.0235,0.03139 0,0.01727 0.0318,0.09512 0.0707,0.172964 0.0862,0.172529 0.2595,0.339682 0.43971,0.424148 l 0.13402,0.0628 1.60523,0.01218 c 0.88288,0.0067 1.59361,0.01461 1.57938,0.01758 -0.0142,0.0029 -0.0538,0.03128 -0.0879,0.06289 -0.0557,0.05167 -0.062,0.07413 -0.062,0.222624 v 0.165136 h -0.12737 c -0.14649,0 -0.2258,0.02509 -0.29352,0.09282 -0.039,0.03901 -0.0478,0.07796 -0.0478,0.211822 v 0.164039 h -1.08648 -1.08648 l -0.0623,0.06225 c -0.11207,0.112074 -0.10831,0.252993 0.009,0.339291 0.0489,0.03599 0.15398,0.04228 0.89109,0.04737 -0.10482,4.43e-4 -0.2046,0.0011 -0.28766,0.0022 -0.28679,0.0037 -0.0521,0.0068 0.52139,0.0068 0.39135,0 0.62449,-0.0014 0.6423,-0.0035 l 0.4474,0.0026 0.0118,0.164037 c 0.008,0.113012 0.0263,0.183861 0.0585,0.22775 v 4.7e-5 l 0.0469,0.06371 1.04309,7.33e-4 1.04314,7.33e-4 0.0465,-0.06142 c 0.0612,-0.08073 0.0766,-0.135809 0.0794,-0.285101 l 0.003,-0.123852 1.07518,0.0028 c 1.14703,0.003 1.14364,0.0033 1.19629,-0.112274 0.0452,-0.09919 0.0299,-0.192162 -0.0435,-0.265555 l -0.0684,-0.06852 h -1.0798 -1.07975 V 54.77896 c 0,-0.144746 -0.0483,-0.266943 -0.12107,-0.306246 -0.0301,-0.01626 -0.12323,-0.0356 -0.20701,-0.04293 l -0.15232,-0.01332 -0.003,-0.08202 c -8.8e-4,-0.02906 -0.003,-0.06649 -0.004,-0.102753 0.003,0.0049 0.005,0.0064 0.009,0.0027 0.008,-0.0078 0.009,-0.02799 0.002,-0.0449 -0.005,-0.01402 -0.0102,-0.0144 -0.0125,-0.0022 -1.9e-4,-0.0036 -3.7e-4,-0.009 -4.5e-4,-0.01231 -0.003,-0.05494 -0.0249,-0.09745 -0.0781,-0.146096 l -0.0751,-0.06856 2.75245,-0.0063 2.75246,-0.0063 0.15593,-0.0763 c 0.18171,-0.0889 0.36613,-0.275411 0.43299,-0.43797 0.0241,-0.0586 0.0517,-0.106597 0.0614,-0.106644 0.01,-4.9e-5 0.0176,-0.337543 0.0176,-0.749983 0,-0.41244 -0.008,-0.749892 -0.0178,-0.749892 -0.01,0 -0.0411,-0.05088 -0.0696,-0.113051 -0.10833,-0.236127 -0.32828,-0.414509 -0.6005,-0.486989 -0.0885,-0.02357 -2.47074,-0.03554 -4.85287,-0.03575 z m -4.16156,0.923129 c 0.15549,0.0027 0.32515,0.108075 0.40341,0.258874 0.11992,0.231078 0.0248,0.50204 -0.22039,0.627778 -0.16935,0.08685 -0.4124,0.03474 -0.53884,-0.115524 -0.23601,-0.280475 -0.0779,-0.697467 0.29036,-0.765865 0.0214,-0.004 0.0432,-0.0057 0.0654,-0.0053 z m 6.21982,0.469597 c 0.0388,-0.0035 0.0798,0.0044 0.12138,0.02421 0.14304,0.06821 0.16736,0.278015 0.0446,0.384694 -0.0857,0.07454 -0.20258,0.06985 -0.29211,-0.01172 -0.0978,-0.08913 -0.1119,-0.183629 -0.0427,-0.28629 0.0455,-0.06732 0.10409,-0.105023 0.16876,-0.1109 z m 1.88055,0.0013 c 0.0135,6.41e-4 0.0275,0.0025 0.0416,0.0056 0.17579,0.03861 0.23765,0.257663 0.10907,0.386252 -0.0922,0.09218 -0.20744,0.09348 -0.30822,0.0034 -0.16293,-0.145583 -0.0454,-0.404645 0.1575,-0.395268 z m -0.91031,0.0013 c 0.10674,0.0074 0.20284,0.09396 0.20284,0.22711 0,0.07882 -0.0138,0.10837 -0.076,0.164039 -0.10402,0.09293 -0.21805,0.09273 -0.31137,-5.95e-4 -0.0934,-0.09333 -0.0935,-0.20734 -4.5e-4,-0.311372 0.0532,-0.05959 0.1211,-0.08363 0.18514,-0.07918 z m -1.88425,8.84e-4 c 0.0966,-0.0067 0.19747,0.04495 0.23584,0.171454 0.003,0.0069 0.004,0.01439 0.004,0.02179 -0.006,-0.01272 -0.011,-1.15e-4 -0.011,0.03057 0,0.02559 0.004,0.03845 0.008,0.03487 -0.0129,0.06381 -0.0519,0.128948 -0.10344,0.159369 -0.14523,0.08579 -0.31449,0.01826 -0.34364,-0.13708 -0.0314,-0.16707 0.0859,-0.272315 0.21018,-0.280981 z m -3.00022,1.591093 c -0.004,-5.5e-4 -0.006,0.008 -0.007,0.02508 -8.8e-4,0.0247 0.004,0.03854 0.0123,0.03076 0.008,-0.0078 0.009,-0.02798 0.002,-0.0449 -0.003,-0.007 -0.005,-0.01062 -0.007,-0.01094 z m 0.002,0.104264 c -0.004,0.0017 -0.005,0.01579 -0.005,0.03996 h -4e-5 c -4.4e-4,0.03867 0.004,0.05733 0.0108,0.04147 0.006,-0.01587 0.007,-0.0475 8.8e-4,-0.0703 -0.003,-0.0086 -0.004,-0.01211 -0.006,-0.01112 z m 2.84769,1.062407 c -0.17839,-10e-7 -0.3578,9.71e-4 -0.49518,0.0028 -0.27475,0.0038 -0.0567,0.0069 0.48466,0.0069 0.54133,9e-6 0.76615,-0.0031 0.49958,-0.0068 -0.13329,-0.0019 -0.31066,-0.0028 -0.48906,-0.0028 z" /></g></g></svg>
