<?xml version="1.0" encoding="UTF-8" standalone="no"?>
<!-- Created with Inkscape (http://www.inkscape.org/) -->

<svg
   width="44.750305"
   height="44.747368"
   viewBox="0 0 11.840185 11.839408"
   version="1.1"
   id="svg5"
   xml:space="preserve"
   inkscape:version="1.3 (0e150ed6c4, 2023-07-21)"
   sodipodi:docname="antarmuka.svg"
   inkscape:export-filename="../../godot4_perf_test/tmp/layer8.png"
   inkscape:export-xdpi="96"
   inkscape:export-ydpi="96"
   xmlns:inkscape="http://www.inkscape.org/namespaces/inkscape"
   xmlns:sodipodi="http://sodipodi.sourceforge.net/DTD/sodipodi-0.dtd"
   xmlns="http://www.w3.org/2000/svg"
   xmlns:svg="http://www.w3.org/2000/svg"><sodipodi:namedview
     id="namedview7"
     pagecolor="#ffffff"
     bordercolor="#111111"
     borderopacity="1"
     inkscape:showpageshadow="0"
     inkscape:pageopacity="0"
     inkscape:pagecheckerboard="1"
     inkscape:deskcolor="#d1d1d1"
     inkscape:document-units="px"
     showgrid="false"
     inkscape:zoom="0.95849188"
     inkscape:cx="781.43593"
     inkscape:cy="231.61386"
     inkscape:window-width="1366"
     inkscape:window-height="696"
     inkscape:window-x="0"
     inkscape:window-y="0"
     inkscape:window-maximized="1"
     inkscape:current-layer="layer9"
     showguides="true" /><defs
     id="defs2" /><g
     inkscape:groupmode="layer"
     id="layer9"
     inkscape:label="edit_objek"
     transform="translate(-204.2954,-20.851656)"><g
       id="g114"
       inkscape:label="posisi"
       sodipodi:insensitive="true"><path
         style="fill:#000000;stroke-width:0.0998995"
         d="m 210.03185,32.641853 c -0.0508,-0.0274 -0.58808,-0.54726 -1.1938,-1.15522 -1.18952,-1.193923 -1.18995,-1.194446 -1.14663,-1.42531 0.025,-0.132732 0.18166,-0.290517 0.3131,-0.31518 0.23322,-0.04375 0.23686,-0.04108 1.04199,0.761251 l 0.74593,0.743342 0.008,-1.681719 c 0.008,-1.651455 0.009,-1.683034 0.0619,-1.754696 0.0868,-0.116165 0.18153,-0.173545 0.31072,-0.188106 0.16888,-0.01902 0.34515,0.06843 0.4154,0.206111 0.0499,0.09811 0.052,0.163455 0.052,1.760903 v 1.659014 l 0.73349,-0.730501 c 0.81315,-0.809848 0.84281,-0.830991 1.07012,-0.762883 0.13772,0.04126 0.27655,0.183039 0.2996,0.305978 0.0438,0.233377 0.0702,0.200688 -1.1469,1.422687 -0.63836,0.64096 -1.16504,1.148718 -1.21317,1.1696 -0.11528,0.05002 -0.23994,0.0446 -0.35106,-0.01526 z m -3.37004,-3.381712 c -0.0705,-0.033 -0.47237,-0.417784 -1.20702,-1.155804 -1.18967,-1.195117 -1.18919,-1.194507 -1.14709,-1.427583 0.0163,-0.09031 0.14728,-0.230607 1.17301,-1.256333 1.24653,-1.246521 1.21038,-1.217163 1.44465,-1.173211 0.12294,0.02306 0.26472,0.161886 0.30598,0.299595 0.0681,0.227325 0.0469,0.256982 -0.76288,1.070133 l -0.7305,0.733479 h 1.65901 c 1.59746,0 1.6628,0.0018 1.76091,0.05198 0.13767,0.07024 0.22515,0.246524 0.2061,0.415406 -0.0146,0.129184 -0.0719,0.223964 -0.18809,0.310717 -0.0717,0.05352 -0.10331,0.05463 -1.7547,0.06188 l -1.68172,0.0074 0.74334,0.745933 c 0.7993,0.80207 0.80484,0.809615 0.76239,1.035903 -0.0329,0.175473 -0.22427,0.332013 -0.40413,0.330593 -0.0405,-3e-4 -0.12111,-0.02285 -0.17926,-0.05004 z m 6.76521,0.01343 c -0.10828,-0.04716 -0.2174,-0.181696 -0.23847,-0.293996 -0.0424,-0.226289 -0.0369,-0.23383 0.7624,-1.035901 l 0.74334,-0.745935 -1.68172,-0.0074 c -1.65146,-0.0072 -1.68303,-0.0083 -1.7547,-0.06188 -0.11616,-0.08676 -0.17355,-0.181533 -0.18811,-0.310721 -0.019,-0.168878 0.0684,-0.345165 0.20612,-0.415403 0.0981,-0.05004 0.16346,-0.05198 1.7609,-0.05198 h 1.65902 l -0.73051,-0.73348 c -0.80984,-0.813151 -0.83099,-0.842808 -0.76288,-1.070132 0.0413,-0.137709 0.18304,-0.276535 0.30598,-0.299599 0.23338,-0.04379 0.2007,-0.07014 1.42269,1.146911 0.64096,0.638363 1.14871,1.16503 1.16959,1.21316 0.0508,0.117128 0.0462,0.229589 -0.0141,0.345514 -0.0763,0.146327 -2.21178,2.267113 -2.33354,2.317395 -0.11901,0.04915 -0.21853,0.05019 -0.32594,0.0035 z m -3.38195,-3.383387 c -0.10666,-0.04742 -0.194,-0.146483 -0.2253,-0.255638 -0.0155,-0.05414 -0.0258,-0.737231 -0.0258,-1.715068 v -1.625105 l -0.74669,0.744108 c -0.80596,0.803165 -0.80952,0.805767 -1.04276,0.762012 -0.13144,-0.02467 -0.2882,-0.18245 -0.31309,-0.315178 -0.0435,-0.231934 -0.0459,-0.228946 1.17292,-1.4478 1.2191,-1.219108 1.21488,-1.215683 1.4491,-1.173391 0.0904,0.0163 0.23061,0.147296 1.25634,1.173021 1.24652,1.246522 1.21716,1.210372 1.17321,1.444655 -0.023,0.122939 -0.16189,0.264717 -0.2996,0.305974 -0.22733,0.06811 -0.25698,0.04697 -1.07013,-0.76288 L 210.63976,22.2944 v 1.659015 c 0,1.597445 -0.002,1.662791 -0.052,1.760901 -0.0903,0.176808 -0.3507,0.261221 -0.54273,0.175873 z"
         id="path4"
         inkscape:export-filename="../../godot4_perf_test/ui/ikon/ikon_posisi_objek.svg"
         inkscape:export-xdpi="96"
         inkscape:export-ydpi="96" /></g></g></svg>
