<?xml version="1.0" encoding="UTF-8" standalone="no"?>
<!-- Created with Inkscape (http://www.inkscape.org/) -->

<svg
   width="40"
   height="40"
   viewBox="0 0 10.583334 10.583333"
   version="1.1"
   id="svg5"
   xml:space="preserve"
   inkscape:version="1.3.2 (091e20ef0f, 2023-11-25, custom)"
   sodipodi:docname="ikon_tombol_login_google.svg"
   inkscape:export-filename="../../godot4_perf_test/tmp/layer7.png"
   inkscape:export-xdpi="96"
   inkscape:export-ydpi="96"
   xmlns:inkscape="http://www.inkscape.org/namespaces/inkscape"
   xmlns:sodipodi="http://sodipodi.sourceforge.net/DTD/sodipodi-0.dtd"
   xmlns="http://www.w3.org/2000/svg"
   xmlns:svg="http://www.w3.org/2000/svg"><sodipodi:namedview
     id="namedview7"
     pagecolor="#ffffff"
     bordercolor="#111111"
     borderopacity="1"
     inkscape:showpageshadow="0"
     inkscape:pageopacity="0"
     inkscape:pagecheckerboard="1"
     inkscape:deskcolor="#d1d1d1"
     inkscape:document-units="cm"
     showgrid="false"
     inkscape:zoom="7.0134142"
     inkscape:cx="18.393324"
     inkscape:cy="28.231614"
     inkscape:window-width="1346"
     inkscape:window-height="702"
     inkscape:window-x="10"
     inkscape:window-y="56"
     inkscape:window-maximized="1"
     inkscape:current-layer="g5132"
     showguides="true" /><defs
     id="defs2" /><g
     inkscape:groupmode="layer"
     id="g5132"
     inkscape:label="login_google"
     style="display:inline"
     inkscape:export-filename="../../godot4_perf_test/tmp/layer7.png"
     inkscape:export-xdpi="96"
     inkscape:export-ydpi="96"
     transform="translate(-148.54447,-102.97976)"><circle
       style="fill:#ffffff;fill-opacity:1;stroke-width:0.27649;stroke-linecap:square"
       id="path22"
       cy="108.27142"
       cx="153.83614"
       r="5.3079152" /><g
       id="g15"
       transform="matrix(0.06526434,0,0,0.06526434,143.86003,101.19328)"><path
         style="fill:#f0968f"
         d="m 110.64589,110.97915 c 0.0127,-0.30822 0.0754,-0.37092 0.15985,-0.15985 0.0764,0.19099 0.067,0.4192 -0.0209,0.50712 -0.0879,0.0879 -0.15045,-0.0683 -0.13896,-0.34727 z m -29.823423,-2.49149 c 0,-1.38245 0.04459,-1.948 0.0991,-1.25677 0.0545,0.69122 0.0545,1.82231 0,2.51354 -0.0545,0.69122 -0.0991,0.12568 -0.0991,-1.25677 z m 29.823423,-2.53559 c 0.0127,-0.30823 0.0754,-0.37092 0.15985,-0.15986 0.0764,0.191 0.067,0.4192 -0.0209,0.50712 -0.0879,0.0879 -0.15045,-0.0683 -0.13896,-0.34726 z m -29.633333,-3.96875 c 0.0127,-0.30823 0.07539,-0.37092 0.159853,-0.15986 0.07643,0.191 0.06703,0.4192 -0.02089,0.50712 -0.08792,0.0879 -0.150453,-0.0683 -0.138965,-0.34726 z m 32.530963,-9.767537 c 0,-0.145521 0.11542,-0.443178 0.25648,-0.661459 0.14107,-0.218281 0.25648,-0.277812 0.25648,-0.132291 0,0.14552 -0.11541,0.443177 -0.25648,0.661458 -0.14106,0.218281 -0.25648,0.277812 -0.25648,0.132292 z m 0.54325,-1.322917 c 0,-0.145521 0.22814,-0.681302 0.50698,-1.190625 0.27885,-0.509323 0.50699,-0.806979 0.50699,-0.661458 0,0.14552 -0.22814,0.681302 -0.50699,1.190625 -0.27884,0.509322 -0.50698,0.806979 -0.50698,0.661458 z m 2.09448,-4.365625 c 0.29696,-0.582083 0.59946,-1.058333 0.67222,-1.058333 0.0728,0 -0.11068,0.47625 -0.40763,1.058333 -0.29696,0.582083 -0.59946,1.058333 -0.67222,1.058333 -0.0728,0 0.11068,-0.47625 0.40763,-1.058333 z m 0.9525,-1.5875 c 1.09965,-2.20428 4.63494,-6.615215 7.47133,-9.321871 2.08919,-1.993639 5.90445,-4.987598 7.02538,-5.513052 0.41521,-0.194639 0.39052,-0.141121 -0.0965,0.209051 -5.50086,3.955564 -9.42399,7.716141 -12.17776,11.673175 -1.91693,2.754537 -2.52992,3.568926 -2.2225,2.952697 z m 64.64414,-11.007265 c -0.95122,-1.021045 -4.63844,-3.72087 -6.52841,-4.780177 -0.9095,-0.509768 -1.65364,-0.987501 -1.65364,-1.061628 0,-0.512204 5.42537,3.104499 7.62846,5.085347 l 1.41076,1.268443 10.34945,-10.349447 10.34945,-10.349446 -1.28612,-1.13781 c -4.20804,-3.722774 -9.6643,-7.477586 -14.69367,-10.111667 -1.81901,-0.952688 -3.19903,-1.734322 -3.06672,-1.736964 0.49438,-0.0099 6.43172,3.260086 9.2591,5.099397 2.75775,1.794014 6.63286,4.750317 9.02116,6.882202 l 1.05833,0.944708 -10.44978,10.467779 c -5.74738,5.757278 -10.51889,10.467778 -10.60336,10.467778 -0.0845,0 -0.44222,-0.309832 -0.79501,-0.688515 z M 90.119794,72.504324 c 0.225755,-0.436562 0.469996,-0.79375 0.542756,-0.79375 0.07276,0 -0.05242,0.357188 -0.278172,0.79375 -0.225756,0.436563 -0.469996,0.79375 -0.542756,0.79375 -0.07276,0 0.05242,-0.357187 0.278172,-0.79375 z m 1.345676,-2.248958 c 1.075314,-1.995659 4.41525,-6.694427 6.719312,-9.453021 4.346908,-5.20444 11.185348,-11.223763 16.875738,-14.854345 2.20938,-1.409627 6.4124,-3.718061 6.4124,-3.521896 0,0.07276 -1.0418,0.694323 -2.3151,1.381249 -5.74256,3.098005 -11.20834,7.239904 -16.36114,12.39825 -3.928834,3.933062 -6.598459,7.176145 -9.411758,11.433482 -2.658414,4.022951 -2.729923,4.120421 -1.919452,2.616281 z m 40.85537,-0.515578 c 0,-0.07276 0.35718,-0.317 0.79375,-0.542755 0.43656,-0.225756 0.79375,-0.350933 0.79375,-0.278173 0,0.07276 -0.35719,0.317001 -0.79375,0.542756 -0.43657,0.225755 -0.79375,0.350933 -0.79375,0.278172 z m 1.85208,-1.069984 c 0,-0.179236 2.1491,-1.248325 2.26879,-1.128631 0.0555,0.05547 -0.43232,0.35988 -1.08397,0.676477 -0.65165,0.316597 -1.18482,0.520066 -1.18482,0.452154 z m 37.30625,-1.457146 c -0.50932,-0.278843 -0.80698,-0.506987 -0.66146,-0.506987 0.14552,0 0.6813,0.228144 1.19063,0.506987 0.50932,0.278842 0.80698,0.506986 0.66145,0.506986 -0.14552,0 -0.6813,-0.228144 -1.19062,-0.506986 z M 137.6125,66.948074 c 0.21828,-0.141064 0.51594,-0.25648 0.66146,-0.25648 0.14552,0 0.086,0.115416 -0.13229,0.25648 -0.21828,0.141064 -0.51594,0.256481 -0.66146,0.256481 -0.14552,0 -0.086,-0.115417 0.13229,-0.256481 z m 1.32292,-0.529166 c 0.21828,-0.141065 0.51594,-0.256481 0.66146,-0.256481 0.14552,0 0.086,0.115416 -0.13229,0.256481 -0.21829,0.141064 -0.51594,0.25648 -0.66146,0.25648 -0.14552,0 -0.086,-0.115416 0.13229,-0.25648 z m 30.69167,0 c -0.21829,-0.141065 -0.27782,-0.256481 -0.1323,-0.256481 0.14553,0 0.44318,0.115416 0.66146,0.256481 0.21828,0.141064 0.27782,0.25648 0.13229,0.25648 -0.14552,0 -0.44317,-0.115416 -0.66145,-0.25648 z m -23.86211,-2.032824 c 0.19099,-0.07643 0.4192,-0.06703 0.50711,0.02089 0.0879,0.08792 -0.0683,0.150453 -0.34726,0.138964 -0.30823,-0.0127 -0.37092,-0.07539 -0.15985,-0.159852 z m 17.19791,0 c 0.191,-0.07643 0.4192,-0.06703 0.50712,0.02089 0.0879,0.08792 -0.0684,0.150453 -0.34726,0.138964 -0.30823,-0.0127 -0.37092,-0.07539 -0.15986,-0.159852 z m -15.89153,-0.259072 c 0.1819,-0.0734 0.47955,-0.0734 0.66146,0 0.1819,0.0734 0.0331,0.133453 -0.33073,0.133453 -0.36381,0 -0.51263,-0.06005 -0.33073,-0.133453 z m 14.2875,0 c 0.1819,-0.0734 0.47955,-0.0734 0.66146,0 0.1819,0.0734 0.0331,0.133453 -0.33073,0.133453 -0.36381,0 -0.51263,-0.06005 -0.33073,-0.133453 z m -12.43542,-0.264583 c 0.1819,-0.0734 0.47956,-0.0734 0.66146,0 0.1819,0.0734 0.0331,0.133452 -0.33073,0.133452 -0.3638,0 -0.51263,-0.06005 -0.33073,-0.133452 z m 10.58333,0 c 0.1819,-0.0734 0.47956,-0.0734 0.66146,0 0.1819,0.0734 0.0331,0.133452 -0.33073,0.133452 -0.3638,0 -0.51263,-0.06005 -0.33073,-0.133452 z m -6.60421,-0.285521 c 0.91521,-0.05181 2.34396,-0.05139 3.175,9.52e-4 0.83104,0.05234 0.0822,0.09473 -1.66402,0.09421 -1.74625,-5.23e-4 -2.42619,-0.04334 -1.51098,-0.09516 z M 123.58959,41.283491 c 0.50932,-0.278843 1.0451,-0.506986 1.19062,-0.506986 0.14552,0 -0.15213,0.228143 -0.66146,0.506986 -0.50932,0.278842 -1.0451,0.506986 -1.19062,0.506986 -0.14552,0 0.15213,-0.228144 0.66146,-0.506986 z m 59.26666,-0.926042 c -0.3638,-0.207968 -0.54239,-0.378124 -0.39687,-0.378124 0.14552,0 0.56224,0.170156 0.92604,0.378124 0.3638,0.207968 0.5424,0.378124 0.39687,0.378124 -0.14552,0 -0.56224,-0.170156 -0.92604,-0.378124 z m -56.88541,-0.132291 c 0.21828,-0.141065 0.51593,-0.256481 0.66145,-0.256481 0.14553,0 0.086,0.115416 -0.13229,0.256481 -0.21828,0.141064 -0.51593,0.25648 -0.66146,0.25648 -0.14552,0 -0.086,-0.115416 0.1323,-0.25648 z m 1.32291,-0.529167 c 0.21828,-0.141064 0.51594,-0.25648 0.66146,-0.25648 0.14552,0 0.086,0.115416 -0.13229,0.25648 -0.21828,0.141064 -0.51594,0.25648 -0.66146,0.25648 -0.14552,0 -0.086,-0.115416 0.13229,-0.25648 z m 53.975,0 c -0.21828,-0.141064 -0.27781,-0.25648 -0.13229,-0.25648 0.14552,0 0.44318,0.115416 0.66146,0.25648 0.21828,0.141064 0.27781,0.25648 0.13229,0.25648 -0.14552,0 -0.44318,-0.115416 -0.66146,-0.25648 z m -52.65208,-0.529167 c 0.21828,-0.141064 0.51594,-0.25648 0.66146,-0.25648 0.14552,0 0.086,0.115416 -0.13229,0.25648 -0.21829,0.141064 -0.51594,0.256481 -0.66146,0.256481 -0.14552,0 -0.086,-0.115417 0.13229,-0.256481 z m 51.32917,0 c -0.21829,-0.141064 -0.27782,-0.25648 -0.1323,-0.25648 0.14553,0 0.44318,0.115416 0.66146,0.25648 0.21828,0.141064 0.27782,0.256481 0.13229,0.256481 -0.14552,0 -0.44317,-0.115417 -0.66145,-0.256481 z m -46.08711,-1.76824 c 0.19099,-0.07643 0.4192,-0.06703 0.50711,0.02089 0.0879,0.08792 -0.0683,0.150453 -0.34726,0.138964 -0.30823,-0.0127 -0.37092,-0.07539 -0.15985,-0.159852 z m 41.01041,0 c 0.191,-0.07643 0.4192,-0.06703 0.50712,0.02089 0.0879,0.08792 -0.0684,0.150453 -0.34726,0.138964 -0.30823,-0.0127 -0.37092,-0.07539 -0.15986,-0.159852 z m -1.85208,-0.529167 c 0.191,-0.07643 0.4192,-0.06703 0.50712,0.02089 0.0879,0.08792 -0.0684,0.150453 -0.34727,0.138964 -0.30822,-0.0127 -0.37092,-0.07539 -0.15985,-0.159852 z m -1.05833,-0.264583 c 0.19099,-0.07643 0.4192,-0.06703 0.50711,0.02089 0.0879,0.08792 -0.0683,0.150453 -0.34726,0.138964 -0.30823,-0.0127 -0.37092,-0.07539 -0.15985,-0.159852 z m -1.05834,-0.264584 c 0.191,-0.07643 0.4192,-0.06703 0.50712,0.02089 0.0879,0.08792 -0.0684,0.150453 -0.34726,0.138965 -0.30823,-0.0127 -0.37092,-0.07539 -0.15986,-0.159853 z m -31.75,-0.264583 c 0.191,-0.07643 0.4192,-0.06703 0.50712,0.02089 0.0879,0.08792 -0.0684,0.150453 -0.34726,0.138964 -0.30823,-0.01269 -0.37092,-0.07539 -0.15986,-0.159852 z m 30.42709,0 c 0.19099,-0.07643 0.4192,-0.06703 0.50711,0.02089 0.0879,0.08792 -0.0683,0.150453 -0.34726,0.138964 -0.30823,-0.01269 -0.37092,-0.07539 -0.15985,-0.159852 z m -29.10417,-0.264583 c 0.191,-0.07643 0.4192,-0.06703 0.50712,0.02089 0.0879,0.08792 -0.0684,0.150453 -0.34727,0.138964 -0.30822,-0.0127 -0.37092,-0.07539 -0.15985,-0.159852 z m 27.78125,0 c 0.191,-0.07643 0.4192,-0.06703 0.50712,0.02089 0.0879,0.08792 -0.0684,0.150453 -0.34727,0.138964 -0.30822,-0.0127 -0.37092,-0.07539 -0.15985,-0.159852 z m -26.47487,-0.259072 c 0.1819,-0.0734 0.47956,-0.0734 0.66146,0 0.1819,0.0734 0.0331,0.133453 -0.33073,0.133453 -0.3638,0 -0.51263,-0.06005 -0.33073,-0.133453 z m 25.15195,-0.0055 c 0.191,-0.07643 0.4192,-0.06703 0.50712,0.02089 0.0879,0.08792 -0.0684,0.150453 -0.34726,0.138965 -0.30823,-0.0127 -0.37092,-0.07539 -0.15986,-0.159853 z m -23.28333,-0.264583 c 0.191,-0.07643 0.4192,-0.06703 0.50712,0.02089 0.0879,0.08792 -0.0684,0.150453 -0.34727,0.138964 -0.30822,-0.0127 -0.37092,-0.07539 -0.15985,-0.159852 z m 21.41471,0.0055 c 0.1819,-0.0734 0.47956,-0.0734 0.66146,0 0.1819,0.0734 0.0331,0.133452 -0.33073,0.133452 -0.3638,0 -0.51263,-0.06005 -0.33073,-0.133452 z m -19.57916,-0.264583 c 0.1819,-0.0734 0.47955,-0.0734 0.66146,0 0.1819,0.0734 0.0331,0.133452 -0.33073,0.133452 -0.36381,0 -0.51263,-0.06005 -0.33073,-0.133452 z m 17.4625,0 c 0.1819,-0.0734 0.47955,-0.0734 0.66146,0 0.1819,0.0734 0.0331,0.133452 -0.33073,0.133452 -0.36381,0 -0.51263,-0.06005 -0.33073,-0.133452 z m -14.94393,-0.272709 c 0.25743,-0.06708 0.61462,-0.06267 0.79375,0.0098 0.17914,0.07248 -0.0315,0.127362 -0.46805,0.12197 -0.43656,-0.0054 -0.58313,-0.06469 -0.3257,-0.131774 z m 12.1658,9.7e-4 c 0.25466,-0.06655 0.67138,-0.06655 0.92604,0 0.25466,0.06655 0.0463,0.121 -0.46302,0.121 -0.50932,0 -0.71768,-0.05445 -0.46302,-0.121 z m -7.01146,-0.277261 c 0.76399,-0.05345 2.01414,-0.05345 2.77813,0 0.76398,0.05345 0.1389,0.09718 -1.38906,0.09718 -1.52797,0 -2.15305,-0.04373 -1.38907,-0.09718 z"
         id="path21" /><path
         style="fill:#8ecc9d"
         d="m 153.15677,182.37593 c 0.76399,-0.0534 2.01414,-0.0534 2.77813,0 0.76398,0.0534 0.1389,0.0972 -1.38906,0.0972 -1.52797,0 -2.15305,-0.0437 -1.38907,-0.0972 z m -5.15937,-0.25191 c 0.25466,-0.0666 0.67138,-0.0666 0.92604,0 0.25466,0.0666 0.0463,0.121 -0.46302,0.121 -0.50932,0 -0.71768,-0.0545 -0.46302,-0.121 z m 12.70503,-9.7e-4 c 0.25743,-0.0671 0.61462,-0.0627 0.79375,0.01 0.17914,0.0725 -0.0315,0.12736 -0.46805,0.12197 -0.43656,-0.005 -0.58313,-0.0647 -0.3257,-0.13178 z m -15.21857,-0.25645 c 0.1819,-0.0734 0.47955,-0.0734 0.66146,0 0.1819,0.0734 0.0331,0.13345 -0.33073,0.13345 -0.36381,0 -0.51263,-0.0601 -0.33073,-0.13345 z m 17.86441,-0.008 c 0.25743,-0.0671 0.61462,-0.0627 0.79375,0.01 0.17913,0.0725 -0.0315,0.12737 -0.46806,0.12197 -0.43656,-0.005 -0.58312,-0.0647 -0.32569,-0.13177 z m -19.69996,-0.26197 c 0.191,-0.0764 0.4192,-0.067 0.50712,0.0209 0.0879,0.0879 -0.0684,0.15045 -0.34727,0.13896 -0.30822,-0.0127 -0.37092,-0.0754 -0.15985,-0.15985 z m 21.94388,0.006 c 0.1819,-0.0734 0.47956,-0.0734 0.66146,0 0.1819,0.0734 0.0331,0.13345 -0.33073,0.13345 -0.3638,0 -0.51263,-0.06 -0.33073,-0.13345 z m -23.8125,-0.26458 c 0.1819,-0.0734 0.47956,-0.0734 0.66146,0 0.1819,0.0734 0.0331,0.13345 -0.33073,0.13345 -0.3638,0 -0.51263,-0.06 -0.33073,-0.13345 z m 25.68112,-0.006 c 0.191,-0.0764 0.4192,-0.067 0.50712,0.0209 0.0879,0.0879 -0.0684,0.15045 -0.34727,0.13896 -0.30822,-0.0127 -0.37092,-0.0754 -0.15985,-0.15985 z m -26.9875,-0.26459 c 0.191,-0.0764 0.4192,-0.067 0.50712,0.0209 0.0879,0.0879 -0.0684,0.15045 -0.34727,0.13897 -0.30822,-0.0127 -0.37092,-0.0754 -0.15985,-0.15986 z m 28.575,0 c 0.191,-0.0764 0.4192,-0.067 0.50712,0.0209 0.0879,0.0879 -0.0684,0.15045 -0.34727,0.13897 -0.30822,-0.0127 -0.37092,-0.0754 -0.15985,-0.15986 z m -29.89792,-0.26458 c 0.191,-0.0764 0.4192,-0.067 0.50712,0.0209 0.0879,0.0879 -0.0684,0.15045 -0.34726,0.13896 -0.30823,-0.0127 -0.37092,-0.0754 -0.15986,-0.15985 z m 31.22084,0 c 0.19099,-0.0764 0.4192,-0.067 0.50711,0.0209 0.0879,0.0879 -0.0684,0.15045 -0.34726,0.13896 -0.30823,-0.0127 -0.37092,-0.0754 -0.15985,-0.15985 z m -32.27917,-0.26458 c 0.191,-0.0764 0.4192,-0.067 0.50712,0.0209 0.0879,0.0879 -0.0683,0.15045 -0.34727,0.13896 -0.30822,-0.0127 -0.37092,-0.0754 -0.15985,-0.15985 z m 33.60208,0 c 0.191,-0.0764 0.4192,-0.067 0.50712,0.0209 0.0879,0.0879 -0.0683,0.15045 -0.34726,0.13896 -0.30823,-0.0127 -0.37092,-0.0754 -0.15986,-0.15985 z m 4.23334,-1.05834 c 0.19099,-0.0764 0.4192,-0.067 0.50711,0.0209 0.0879,0.0879 -0.0683,0.15045 -0.34726,0.13897 -0.30823,-0.0127 -0.37092,-0.0754 -0.15985,-0.15986 z m -47.31081,-1.67134 c -0.21828,-0.14106 -0.27781,-0.25648 -0.13229,-0.25648 0.14552,0 0.44317,0.11542 0.66146,0.25648 0.21828,0.14107 0.27781,0.25648 0.13229,0.25648 -0.14552,0 -0.44318,-0.11541 -0.66146,-0.25648 z m 53.18125,-0.26458 c 0.21828,-0.14107 0.51594,-0.25648 0.66146,-0.25648 0.14552,0 0.086,0.11541 -0.13229,0.25648 -0.21829,0.14106 -0.51594,0.25648 -0.66146,0.25648 -0.14552,0 -0.086,-0.11542 0.13229,-0.25648 z m -54.50417,-0.26459 c -0.21828,-0.14106 -0.27781,-0.25648 -0.13229,-0.25648 0.14552,0 0.44318,0.11542 0.66146,0.25648 0.21828,0.14107 0.27781,0.25648 0.13229,0.25648 -0.14552,0 -0.44318,-0.11541 -0.66146,-0.25648 z m 55.82709,-0.26458 c 0.21828,-0.14106 0.51593,-0.25648 0.66145,-0.25648 0.14553,0 0.086,0.11542 -0.13229,0.25648 -0.21828,0.14107 -0.51593,0.25648 -0.66146,0.25648 -0.14552,0 -0.086,-0.11541 0.1323,-0.25648 z m -57.15,-0.26458 c -0.21829,-0.14107 -0.27782,-0.25648 -0.1323,-0.25648 0.14553,0 0.44318,0.11541 0.66146,0.25648 0.21828,0.14106 0.27782,0.25648 0.13229,0.25648 -0.14552,0 -0.44317,-0.11542 -0.66145,-0.25648 z m 58.7375,-0.39688 c 0.3638,-0.20797 0.78052,-0.37812 0.92604,-0.37812 0.14552,0 -0.0331,0.17015 -0.39688,0.37812 -0.3638,0.20797 -0.78052,0.37813 -0.92604,0.37813 -0.14552,0 0.0331,-0.17016 0.39688,-0.37813 z m -61.64792,-0.92604 c -0.80037,-0.42283 -1.33615,-0.76878 -1.19063,-0.76878 0.14553,0 0.91943,0.34595 1.7198,0.76878 0.80036,0.42283 1.33614,0.76879 1.19062,0.76879 -0.14552,0 -0.91943,-0.34596 -1.71979,-0.76879 z m 63.52205,0.16365 c 0.26954,-0.24691 3.41753,-1.74511 3.41753,-1.6266 0,0.14836 -3.05665,1.7274 -3.34384,1.7274 -0.10116,0 -0.13433,-0.0454 -0.0737,-0.10093 z m -67.22622,-2.04101 c -1.0914,-0.5919 -2.10343,-1.19965 -2.24896,-1.35055 -0.28907,-0.29977 3.8113,1.84876 4.22011,2.21127 0.46741,0.41448 0.0199,0.21906 -1.97115,-0.86072 z m 71.17292,0.036 c 0.21828,-0.15516 1.46844,-0.94473 2.77812,-1.75461 2.92197,-1.80688 6.53159,-4.51019 8.99584,-6.73714 1.15161,-1.04071 1.45181,-1.24454 0.79375,-0.53894 -2.19983,2.35877 -8.02624,6.69746 -11.37709,8.47205 -0.87312,0.46241 -1.4089,0.71379 -1.19062,0.55864 z m -76.62771,-3.34941 c -4.16341,-2.78818 -8.44786,-6.38799 -12.18869,-10.24099 -3.168133,-3.26313 -7.73923,-8.9565 -8.90338,-11.08929 -0.565323,-1.0357 -0.533525,-0.99571 3.100389,3.89922 3.246047,4.37246 6.805361,8.20776 10.815461,11.6541 2.74008,2.35486 6.78165,5.36888 8.99299,6.70657 0.8781,0.53118 1.19455,0.82162 0.89521,0.82162 -0.0533,0 -1.27373,-0.78806 -2.71198,-1.75123 z m 92.50271,-9.22898 c 0.79042,-0.80037 1.49666,-1.45521 1.56942,-1.45521 0.0728,0 -0.51441,0.65484 -1.30484,1.45521 -0.79042,0.80036 -1.49666,1.45521 -1.56942,1.45521 -0.0728,0 0.51442,-0.65485 1.30484,-1.45521 z m 2.11667,-2.38125 c 0.34177,-0.3638 0.68093,-0.66146 0.7537,-0.66146 0.0728,0 -0.14735,0.29766 -0.48912,0.66146 -0.34178,0.3638 -0.68094,0.66146 -0.7537,0.66146 -0.0728,0 0.14734,-0.29766 0.48912,-0.66146 z m 1.19062,-1.45521 c 0.26339,-0.29104 0.53842,-0.52917 0.61118,-0.52917 0.0728,0 -0.0832,0.23813 -0.3466,0.52917 -0.26338,0.29104 -0.53842,0.52917 -0.61118,0.52917 -0.0728,0 0.0832,-0.23813 0.3466,-0.52917 z m 0.66146,-0.89364 c 0,-0.055 0.20836,-0.26331 0.46302,-0.46302 0.41964,-0.32911 0.429,-0.31975 0.0999,0.0999 -0.34564,0.44073 -0.56291,0.58089 -0.56291,0.36313 z m 1.32292,-1.75219 c 0.31086,-0.43656 0.62473,-0.79375 0.69749,-0.79375 0.0728,0 -0.12205,0.35719 -0.43291,0.79375 -0.31086,0.43656 -0.62473,0.79375 -0.69749,0.79375 -0.0728,0 0.12205,-0.35719 0.43291,-0.79375 z m -58.66035,-1.25479 c 0.98831,-0.051 2.53613,-0.0507 3.43958,8.4e-4 0.90345,0.0515 0.0948,0.0933 -1.79694,0.0928 -1.89177,-4.6e-4 -2.63096,-0.0426 -1.64264,-0.0936 z m -4.11205,-0.24336 c 0.1819,-0.0734 0.47956,-0.0734 0.66146,0 0.1819,0.0734 0.0331,0.13345 -0.33073,0.13345 -0.3638,0 -0.51263,-0.06 -0.33073,-0.13345 z m 10.98524,-0.008 c 0.25743,-0.0671 0.61462,-0.0627 0.79375,0.01 0.17914,0.0725 -0.0315,0.12736 -0.46805,0.12197 -0.43656,-0.005 -0.58313,-0.0647 -0.3257,-0.13177 z m -12.5562,-0.26197 c 0.19099,-0.0764 0.4192,-0.067 0.50711,0.0209 0.0879,0.0879 -0.0684,0.15045 -0.34726,0.13896 -0.30823,-0.0127 -0.37092,-0.0754 -0.15985,-0.15985 z m 14.81666,0 c 0.191,-0.0764 0.4192,-0.067 0.50712,0.0209 0.0879,0.0879 -0.0684,0.15045 -0.34726,0.13896 -0.30823,-0.0127 -0.37092,-0.0754 -0.15986,-0.15985 z m -16.40416,-0.26459 c 0.19099,-0.0764 0.4192,-0.067 0.50711,0.0209 0.0879,0.0879 -0.0683,0.15045 -0.34726,0.13897 -0.30823,-0.0127 -0.37092,-0.0754 -0.15985,-0.15986 z m 17.99166,0 c 0.191,-0.0764 0.4192,-0.067 0.50712,0.0209 0.0879,0.0879 -0.0683,0.15045 -0.34726,0.13897 -0.30823,-0.0127 -0.37092,-0.0754 -0.15986,-0.15986 z m 1.32292,-0.26458 c 0.191,-0.0764 0.4192,-0.067 0.50712,0.0209 0.0879,0.0879 -0.0684,0.15045 -0.34727,0.13896 -0.30822,-0.0127 -0.37092,-0.0754 -0.15985,-0.15985 z m -22.48958,-0.52917 c 0.19099,-0.0764 0.4192,-0.067 0.50711,0.0209 0.0879,0.0879 -0.0684,0.15045 -0.34726,0.13897 -0.30823,-0.0127 -0.37092,-0.0754 -0.15985,-0.15986 z m 71.22252,-0.34842 c 0.15576,-0.29104 0.34274,-0.52917 0.4155,-0.52917 0.0728,0 0.005,0.23813 -0.15091,0.52917 -0.15576,0.29104 -0.34274,0.52916 -0.4155,0.52916 -0.0728,0 -0.005,-0.23812 0.15091,-0.52916 z m -74.87708,-0.79375 c -0.21828,-0.14107 -0.27781,-0.25648 -0.13229,-0.25648 0.14552,0 0.44317,0.11541 0.66146,0.25648 0.21828,0.14106 0.27781,0.25648 0.13229,0.25648 -0.14552,0 -0.44318,-0.11542 -0.66146,-0.25648 z m 32.78075,-0.28881 c 0.63968,-0.2838 1.21017,-0.46889 1.26775,-0.4113 0.11438,0.11438 -1.92448,0.97632 -2.23771,0.946 -0.10619,-0.0103 0.33029,-0.25089 0.96996,-0.5347 z m 42.89008,-0.24036 c 0.15576,-0.29104 0.34274,-0.52917 0.4155,-0.52917 0.0728,0 0.005,0.23813 -0.15091,0.52917 -0.15576,0.29104 -0.34274,0.52917 -0.4155,0.52917 -0.0728,0 -0.005,-0.23813 0.15091,-0.52917 z m -76.99375,0 c -0.21828,-0.14106 -0.27781,-0.25648 -0.13229,-0.25648 0.14552,0 0.44318,0.11542 0.66146,0.25648 0.21828,0.14107 0.27781,0.25648 0.13229,0.25648 -0.14552,0 -0.44318,-0.11541 -0.66146,-0.25648 z m 35.7408,-0.36586 c 0.26936,-0.24744 3.9467,-2.00822 3.9467,-1.88975 0,0.14777 -3.58643,1.99103 -3.87395,1.99103 -0.10064,0 -0.13338,-0.0456 -0.0728,-0.10128 z m -39.58836,-1.51544 c -1.30358,-0.74367 -3.32265,-2.0236 -4.48681,-2.84427 -2.8629,-2.01819 -8.09242,-7.29905 -10.17134,-10.2712 -1.707,-2.44043 -3.6186,-5.64073 -3.36931,-5.64073 0.0735,0 0.55247,0.74893 1.06437,1.66429 3.94166,7.04834 10.30853,13.21691 17.92918,17.37074 1.07549,0.58622 1.83137,1.06754 1.67974,1.06958 -0.15162,0.002 -1.34225,-0.60474 -2.64583,-1.34841 z m 81.89965,0.0292 c 0.15576,-0.29104 0.34273,-0.52917 0.41549,-0.52917 0.0728,0 0.005,0.23813 -0.15091,0.52917 -0.15576,0.29104 -0.34273,0.52916 -0.41549,0.52916 -0.0728,0 -0.005,-0.23812 0.15091,-0.52916 z m -123.885694,-0.8599 c -0.578821,-0.89238 -1.097995,-1.9552 -0.80779,-1.65364 0.371039,0.38554 1.462563,2.24895 1.317364,2.24895 -0.06789,0 -0.297201,-0.26789 -0.509574,-0.59531 z m 86.182564,-0.0709 c 0.29104,-0.23697 0.76729,-0.54776 1.05833,-0.69065 l 0.52917,-0.25979 -0.52917,0.43086 c -0.29104,0.23697 -0.76729,0.54777 -1.05833,0.69065 l -0.52917,0.25979 z m 2.51354,-1.52041 c 0,-0.0583 0.50602,-0.50816 1.12448,-0.99965 0.61847,-0.4915 0.95646,-0.68446 0.7511,-0.42881 -0.38679,0.48153 -1.87558,1.61541 -1.87558,1.42846 z m -90.487497,-1.5175 c -0.296957,-0.58209 -0.480391,-1.05834 -0.40763,-1.05834 0.07276,0 0.375256,0.47625 0.672213,1.05834 0.296957,0.58208 0.48039,1.05833 0.40763,1.05833 -0.07276,0 -0.375257,-0.47625 -0.672213,-1.05833 z m 127.801857,-0.13229 c 0,-0.14552 0.11541,-0.44318 0.25648,-0.66146 0.14106,-0.21828 0.25648,-0.27781 0.25648,-0.13229 0,0.14552 -0.11542,0.44317 -0.25648,0.66145 -0.14107,0.21829 -0.25648,0.27782 -0.25648,0.1323 z m -34.93311,-0.20506 c 0,-0.04 0.92274,-0.96276 2.05052,-2.05052 l 2.05052,-1.97776 -1.97775,2.05052 c -1.83689,1.90448 -2.12329,2.17125 -2.12329,1.97776 z m 4.36563,-4.68974 c 0.26339,-0.29104 0.53842,-0.52916 0.61118,-0.52916 0.0728,0 -0.0832,0.23812 -0.3466,0.52916 -0.26339,0.29105 -0.53842,0.52917 -0.61118,0.52917 -0.0728,0 0.0832,-0.23812 0.3466,-0.52917 z m 0.66146,-0.89364 c 0,-0.0549 0.20836,-0.2633 0.46302,-0.46302 0.41964,-0.32911 0.429,-0.31975 0.0999,0.0999 -0.34564,0.44073 -0.56291,0.58089 -0.56291,0.36313 z M 190,135.21057 c 0.15576,-0.29104 0.34274,-0.52916 0.4155,-0.52916 0.0728,0 0.005,0.23812 -0.15091,0.52916 -0.15576,0.29105 -0.34274,0.52917 -0.4155,0.52917 -0.0728,0 -0.005,-0.23812 0.15091,-0.52917 z m 1.86019,-3.57187 c 0,-0.14552 0.11542,-0.44318 0.25648,-0.66146 0.14106,-0.21828 0.25648,-0.27781 0.25648,-0.13229 0,0.14552 -0.11542,0.44318 -0.25648,0.66146 -0.14106,0.21828 -0.25648,0.27781 -0.25648,0.13229 z m -77.35131,-4.51022 c -0.62155,-1.3034 -0.53411,-1.5252 0.1157,-0.29346 0.29513,0.55944 0.4898,1.06396 0.4326,1.12116 -0.0572,0.0572 -0.30394,-0.31526 -0.5483,-0.8277 z m -0.80848,-1.85001 c -0.25532,-0.66535 -0.18,-0.83702 0.1319,-0.30066 0.15444,0.26558 0.22506,0.53861 0.15693,0.60673 -0.0681,0.0681 -0.1981,-0.0696 -0.28883,-0.30607 z m 80.28924,-0.2764 c 0.0127,-0.30823 0.0754,-0.37092 0.15985,-0.15986 0.0764,0.191 0.067,0.4192 -0.0209,0.50712 -0.0879,0.0879 -0.15045,-0.0683 -0.13896,-0.34726 z m 29.89792,-1.5875 c 0.0127,-0.30823 0.0754,-0.37092 0.15985,-0.15986 0.0764,0.191 0.067,0.4192 -0.0209,0.50712 -0.0879,0.0879 -0.15045,-0.0684 -0.13896,-0.34726 z m 0.26458,-1.85209 c 0.0127,-0.30822 0.0754,-0.37092 0.15985,-0.15985 0.0764,0.191 0.067,0.4192 -0.0209,0.50712 -0.0879,0.0879 -0.15045,-0.0684 -0.13896,-0.34727 z m 0.28547,-2.22691 c 0,-0.3638 0.0601,-0.51263 0.13345,-0.33072 0.0734,0.1819 0.0734,0.47955 0,0.66145 -0.0734,0.1819 -0.13345,0.0331 -0.13345,-0.33073 z m 0.27439,-3.0427 c 0.005,-0.43657 0.0647,-0.58313 0.13177,-0.3257 0.0671,0.25743 0.0627,0.61462 -0.01,0.79375 -0.0725,0.17913 -0.12736,-0.0315 -0.12197,-0.46805 z m 0,-12.17084 c 0.005,-0.43656 0.0647,-0.58312 0.13177,-0.32569 0.0671,0.25743 0.0627,0.61462 -0.01,0.79375 -0.0725,0.17913 -0.12736,-0.0315 -0.12197,-0.46806 z m -0.27439,-3.04271 c 0,-0.3638 0.0601,-0.51263 0.13345,-0.33072 0.0734,0.1819 0.0734,0.47955 0,0.66145 -0.0734,0.1819 -0.13345,0.0331 -0.13345,-0.33073 z m -0.28547,-2.271003 c 0.0127,-0.308224 0.0754,-0.370919 0.15985,-0.159852 0.0764,0.190996 0.067,0.419199 -0.0209,0.507118 -0.0879,0.08792 -0.15045,-0.06835 -0.13896,-0.347266 z"
         id="path20" /><path
         style="fill:#f7b403"
         d="m 87.500015,139.13161 c -4.345526,-9.35282 -6.508346,-19.53626 -6.508346,-30.64395 0,-7.49413 0.793261,-13.477371 2.676944,-20.191074 1.623065,-5.784826 4.68488,-13.10395 5.319068,-12.714983 0.1861,0.114141 5.654606,4.351987 12.152239,9.417436 l 11.81387,9.209908 -0.64069,2.310709 c -1.16049,4.185404 -1.52008,7.016574 -1.52008,11.968004 0,4.94982 0.35964,7.7828 1.51866,11.96283 l 0.63927,2.30555 -11.78693,9.20383 c -6.482818,5.06211 -11.951501,9.30142 -12.152633,9.4207 -0.27671,0.1641 -0.644472,-0.38314 -1.511372,-2.24896 z"
         id="path19" /><path
         style="fill:#3a7df1"
         d="m 191.39978,155.37269 c -6.28788,-4.90453 -11.43733,-8.9908 -11.44323,-9.0806 -0.006,-0.0898 0.43828,-0.46041 0.98704,-0.82356 1.76295,-1.16667 5.32257,-4.70941 7.0874,-7.05381 2.88985,-3.83887 5.70671,-10.08712 6.12549,-13.58735 l 0.15016,-1.25507 -19.81425,-0.0678 -19.81426,-0.0678 -0.0685,-14.08907 -0.0685,-14.089059 h 34.51483 c 18.98315,0 34.57111,0.09108 34.63991,0.202391 0.0688,0.111316 0.34193,1.867488 0.60697,3.902605 0.67888,5.212853 0.68217,16.544423 0.006,21.559583 -2.03093,15.06937 -7.20504,27.46157 -15.68693,37.57084 -2.1447,2.55619 -5.29279,5.82694 -5.59064,5.80847 -0.10962,-0.007 -5.34394,-4.02516 -11.63182,-8.92969 z"
         id="path18" /><path
         style="fill:#3589bb"
         d="m 202.13709,163.85172 c -0.32911,-0.41964 -0.31975,-0.429 0.0999,-0.0999 0.44073,0.34564 0.58089,0.56291 0.36313,0.56291 -0.0549,0 -0.2633,-0.20836 -0.46302,-0.46302 z m -2.38125,-1.85208 c -0.32911,-0.41965 -0.31975,-0.42901 0.0999,-0.0999 0.44073,0.34565 0.58089,0.56292 0.36313,0.56292 -0.0549,0 -0.2633,-0.20836 -0.46302,-0.46302 z m -1.32292,-1.05834 c -0.32911,-0.41964 -0.31975,-0.429 0.0999,-0.0999 0.44072,0.34564 0.58088,0.56291 0.36312,0.56291 -0.0549,0 -0.2633,-0.20836 -0.46302,-0.46302 z m -2.38125,-1.85208 c -0.32911,-0.41964 -0.31975,-0.429 0.0999,-0.0999 0.44072,0.34564 0.58088,0.56291 0.36312,0.56291 -0.0549,0 -0.2633,-0.20836 -0.46302,-0.46302 z m -2.38125,-1.85208 c -0.32911,-0.41965 -0.31975,-0.42901 0.0999,-0.0999 0.25466,0.19972 0.46302,0.40808 0.46302,0.46302 0,0.21776 -0.21728,0.0776 -0.56292,-0.36312 z m -2.38125,-1.85209 c -0.32911,-0.41964 -0.31975,-0.429 0.0999,-0.0999 0.44072,0.34564 0.58088,0.56291 0.36312,0.56291 -0.0549,0 -0.2633,-0.20836 -0.46302,-0.46302 z m -2.38125,-1.85208 c -0.32911,-0.41964 -0.31975,-0.429 0.0999,-0.0999 0.44072,0.34564 0.58088,0.56291 0.36312,0.56291 -0.0549,0 -0.2633,-0.20836 -0.46302,-0.46302 z m -3.70417,-2.91042 c -0.3291,-0.41964 -0.31975,-0.429 0.0999,-0.0999 0.44073,0.34564 0.58089,0.56291 0.36312,0.56291 -0.0549,0 -0.2633,-0.20836 -0.46302,-0.46302 z m -2.38125,-1.85208 c -0.3291,-0.41964 -0.31975,-0.429 0.0999,-0.0999 0.25466,0.19971 0.46302,0.40807 0.46302,0.46302 0,0.21776 -0.21727,0.0776 -0.56292,-0.36313 z m -2.38125,-1.85208 c -0.3291,-0.41965 -0.31975,-0.42901 0.0999,-0.0999 0.25466,0.19972 0.46302,0.40808 0.46302,0.46302 0,0.21776 -0.21727,0.0776 -0.56292,-0.36312 z"
         id="path17" /><path
         style="fill:#e53a2d"
         d="m 100.9097,84.843433 c -6.576396,-5.11302 -11.962356,-9.422318 -11.968805,-9.576218 -0.02029,-0.484239 3.829733,-6.888285 5.758489,-9.578543 11.298906,-15.759893 27.879786,-26.395312 46.484996,-29.81672 5.57848,-1.025856 9.19543,-1.290438 15.33465,-1.121737 7.51318,0.206455 12.52222,0.991715 19.19347,3.008934 9.39089,2.839568 18.68301,8.078728 26.33534,14.848609 l 1.28612,1.13781 -10.34758,10.347583 -10.34759,10.347583 -1.54491,-1.385459 c -10.6163,-9.520551 -28.04078,-12.190208 -42.45641,-6.504878 -11.2432,4.434164 -20.92342,14.354538 -25.0792,25.70137 l -0.6915,1.888067 z"
         id="path16" /><path
         style="fill:#2ca149"
         d="m 148.46042,182.12883 c -7.55209,-0.75754 -14.42042,-2.37263 -20.65845,-4.85785 -15.85736,-6.31755 -29.035764,-17.89952 -37.512837,-32.96853 -0.74798,-1.32962 -1.354837,-2.52025 -1.348571,-2.64583 0.0063,-0.12559 5.391229,-4.41445 11.966588,-9.53082 l 11.95519,-9.30248 0.7098,1.9469 c 1.03039,2.82625 3.43114,7.30464 5.38404,10.04348 6.86676,9.63028 16.64268,15.87116 28.25123,18.0354 3.4637,0.64575 11.46153,0.63952 15.40822,-0.012 5.77212,-0.95288 11.66286,-3.05134 15.55516,-5.54121 l 1.51515,-0.96923 10.91172,8.51039 c 6.00145,4.68072 11.23965,8.78031 11.64045,9.11021 l 0.72873,0.59981 -2.05165,1.74284 c -12.37287,10.51057 -28.73862,16.12589 -46.55636,15.97416 -2.7348,-0.0233 -5.38909,-0.0841 -5.89841,-0.13523 z"
         id="path15" /></g></g></svg>
