<?xml version="1.0" encoding="UTF-8" standalone="no"?>
<!-- Created with Inkscape (http://www.inkscape.org/) -->

<svg
   width="32.734589"
   height="32.733723"
   viewBox="0 0 8.6610269 8.6607975"
   version="1.1"
   id="svg5"
   xml:space="preserve"
   xmlns="http://www.w3.org/2000/svg"
   xmlns:svg="http://www.w3.org/2000/svg"><defs
     id="defs2" /><g
     id="layer3"
     style="display:inline"
     transform="translate(-110.45777,-33.748845)"><g
       id="g6221"><path
         style="fill:#ffffff;stroke-width:1"
         d="m 114.5733,42.407353 c -0.20217,-0.01555 -0.29093,-0.02435 -0.39805,-0.03977 -0.51332,-0.07386 -1.02183,-0.245127 -1.46951,-0.49491 -0.36467,-0.20347 -0.64261,-0.411477 -0.94091,-0.704186 -0.0803,-0.07877 -0.14853,-0.142537 -0.15167,-0.141717 -0.003,7.97e-4 -0.031,-0.03077 -0.0619,-0.07021 -0.0309,-0.03944 -0.0952,-0.120076 -0.14296,-0.179213 -0.77267,-0.957593 -1.09533,-2.198679 -0.89013,-3.423785 0.12214,-0.729132 0.45321,-1.450661 0.92774,-2.021867 0.0323,-0.03891 0.0824,-0.101615 0.11118,-0.139324 0.0288,-0.03771 0.0562,-0.06855 0.0609,-0.06855 0.005,0 0.0685,-0.05889 0.1418,-0.13087 0.49347,-0.484595 1.0599,-0.829343 1.70779,-1.039404 0.30289,-0.09821 0.59379,-0.157959 0.94205,-0.193535 0.16434,-0.01677 0.63351,-0.01415 0.80495,0.0045 0.41294,0.04497 0.81117,0.141611 1.17204,0.284386 0.13316,0.05268 0.42903,0.195855 0.55728,0.269663 0.50224,0.289045 0.96381,0.697883 1.31355,1.163479 0.41169,0.548074 0.69205,1.200844 0.80484,1.873934 0.0461,0.275327 0.0565,0.407527 0.0565,0.722247 0,0.314719 -0.0103,0.446919 -0.0565,0.722247 -0.0983,0.586351 -0.32035,1.150775 -0.65035,1.652794 -0.16882,0.256825 -0.32802,0.452021 -0.55246,0.677402 -0.35953,0.361034 -0.71389,0.615591 -1.16909,0.839831 -0.45622,0.224739 -0.94516,0.364751 -1.46696,0.42007 -0.12146,0.01293 -0.55495,0.02405 -0.65015,0.01677 z m -0.031,-1.390154 1e-5,-0.873501 -0.14375,0.0065 c -0.40589,0.01811 -0.87954,0.08665 -1.2434,0.179903 -0.0659,0.01694 -0.12144,0.03228 -0.12334,0.03418 -0.008,0.0082 0.12145,0.278816 0.19944,0.416383 0.0665,0.117299 0.2165,0.339111 0.2961,0.437855 0.26383,0.327296 0.57926,0.554198 0.904,0.650278 0.0391,0.01153 0.0801,0.02126 0.091,0.02152 l 0.0199,5.31e-4 z m 0.66332,0.832821 c 0.42256,-0.141193 0.82169,-0.51183 1.13262,-1.051749 0.0757,-0.131499 0.20571,-0.400778 0.20028,-0.414916 -0.005,-0.0117 -0.29527,-0.08635 -0.46593,-0.119623 -0.30048,-0.05858 -0.78466,-0.115448 -0.98407,-0.115587 l -0.0509,-3.4e-5 v 0.872421 0.872422 l 0.0376,-0.0059 c 0.0207,-0.0033 0.0794,-0.01993 0.13036,-0.03697 z m -2.09725,-0.37285 c -0.0773,-0.09615 -0.22667,-0.318406 -0.30457,-0.453336 -0.0605,-0.104811 -0.18952,-0.363933 -0.22535,-0.452675 l -0.0203,-0.0502 -0.0451,0.01767 c -0.14141,0.05542 -0.41004,0.18238 -0.45063,0.212961 -0.0152,0.01135 -0.009,0.01984 0.0929,0.117002 0.18836,0.180567 0.42449,0.359746 0.66206,0.502384 0.10979,0.06592 0.33139,0.183593 0.34574,0.183593 0.004,0 -0.0205,-0.03483 -0.0548,-0.07741 z m 3.41826,0.02325 c 0.3177,-0.159811 0.62202,-0.371638 0.88163,-0.6137 0.0559,-0.05217 0.10172,-0.09917 0.10172,-0.104462 0,-0.0178 -0.45232,-0.236084 -0.48919,-0.236084 -0.004,0 -0.0307,0.05076 -0.0589,0.112776 -0.13419,0.29547 -0.30857,0.58536 -0.49218,0.818216 -0.0336,0.04256 -0.0587,0.07741 -0.0559,0.07741 0.003,0 0.0536,-0.02437 0.11279,-0.05414 z m 1.36618,-1.164331 c 0.12895,-0.175207 0.23728,-0.355385 0.34349,-0.571299 0.21287,-0.432759 0.3377,-0.882961 0.37995,-1.370309 l 0.006,-0.06855 h -0.5748 -0.5748 l -0.006,0.103938 c -0.0311,0.547271 -0.10328,1.00437 -0.23187,1.468824 -0.0273,0.09877 -0.0483,0.180867 -0.0465,0.182443 0.002,0.0016 0.0526,0.02353 0.11288,0.04876 0.13848,0.05799 0.35296,0.161505 0.45646,0.220329 0.0438,0.02489 0.0822,0.04532 0.0854,0.04541 0.003,9.9e-5 0.0256,-0.0267 0.0497,-0.05954 z m -6.1034,0.0033 c 0.14205,-0.0805 0.48095,-0.238494 0.58744,-0.273856 0.0126,-0.0042 0.0136,-0.0096 0.006,-0.0342 -0.14467,-0.477586 -0.24049,-1.043201 -0.26907,-1.588245 l -0.006,-0.117212 h -0.57501 -0.57502 l 0.006,0.06855 c 0.0594,0.685774 0.28478,1.310688 0.67615,1.875266 0.0413,0.05959 0.0765,0.108357 0.0782,0.108357 0.002,0 0.0338,-0.01747 0.0714,-0.03869 z m 4.97067,-0.55913 c 0.11635,-0.411112 0.19131,-0.883053 0.21799,-1.372548 l 0.004,-0.08183 h -0.97244 -0.97244 v 0.662715 0.662715 l 0.0553,0.0045 c 0.0304,0.0024 0.14332,0.01083 0.25093,0.01848 0.42764,0.03043 0.95724,0.121229 1.29041,0.221238 0.0389,0.0117 0.0747,0.02021 0.0796,0.01893 0.005,-0.0013 0.0257,-0.06169 0.0462,-0.134258 z m -3.79437,0.09388 c 0.30804,-0.08525 0.73484,-0.15899 1.12546,-0.194487 0.10032,-0.0091 0.37947,-0.02667 0.4268,-0.02683 l 0.0243,-1e-4 V 38.989319 38.3259 h -0.97312 -0.97312 l 0.004,0.03317 c 0.002,0.01825 0.007,0.08293 0.009,0.143742 0.0192,0.40455 0.10308,0.906206 0.21782,1.302513 0.0152,0.05229 0.0311,0.0951 0.0354,0.0951 0.004,0 0.0506,-0.01188 0.10279,-0.02627 z m -0.85227,-2.156379 c 0.0286,-0.530933 0.11038,-1.040419 0.23886,-1.487765 l 0.0387,-0.134835 -0.0323,-0.01327 c -0.1581,-0.0648 -0.30822,-0.133805 -0.46022,-0.211576 -0.16809,-0.086 -0.18112,-0.09119 -0.19273,-0.07662 -0.0302,0.03783 -0.21627,0.323095 -0.2534,0.388487 -0.27461,0.483678 -0.44004,1.018452 -0.48871,1.579779 l -0.006,0.06855 h 0.57481 0.5748 z m 2.42885,-0.549533 v -0.662313 l -0.0276,-0.0056 c -0.0152,-0.003 -0.0567,-0.0056 -0.0922,-0.0056 -0.0355,0 -0.13948,-0.0059 -0.23109,-0.01345 -0.42005,-0.03373 -0.80434,-0.09779 -1.19611,-0.199409 -0.0749,-0.01942 -0.13695,-0.03423 -0.13789,-0.03289 -0.004,0.0059 -0.0595,0.206857 -0.0842,0.306002 -0.0818,0.328596 -0.14839,0.776117 -0.16352,1.098447 -0.003,0.06082 -0.007,0.125491 -0.009,0.143743 l -0.004,0.03317 h 0.97312 0.97312 z m 2.43578,0.580493 c -0.0287,-0.526768 -0.11103,-1.020564 -0.24311,-1.458346 l -0.0177,-0.05853 -0.0725,0.02117 c -0.41336,0.120793 -1.00209,0.216583 -1.4745,0.239925 l -0.12826,0.0063 -0.002,0.665632 -0.002,0.665631 h 0.97249 0.9725 z m 1.64195,0.06633 c -2.7e-4,-0.04124 -0.0284,-0.275508 -0.0448,-0.373725 -0.0887,-0.52846 -0.28956,-1.036707 -0.58555,-1.481638 -0.078,-0.117282 -0.13954,-0.199025 -0.14975,-0.199025 -0.005,0 -0.0434,0.01937 -0.0854,0.04307 -0.11854,0.06682 -0.31192,0.161522 -0.44571,0.218282 -0.0669,0.02838 -0.12163,0.05538 -0.12163,0.06003 0,0.0047 0.0178,0.07056 0.0395,0.146485 0.12324,0.431019 0.20249,0.905151 0.23449,1.402826 0.005,0.07776 0.009,0.154379 0.009,0.170273 v 0.02891 h 0.57497 c 0.54172,0 0.57496,-8.89e-4 0.57487,-0.01555 z m -4.07772,-2.679109 v -0.872422 l -0.0376,0.0059 c -0.0648,0.0103 -0.2162,0.06502 -0.31009,0.112112 -0.42745,0.21433 -0.79622,0.631864 -1.0813,1.224289 -0.0398,0.0827 -0.0747,0.157121 -0.0775,0.165365 -0.006,0.01729 0.0181,0.0255 0.19744,0.06785 0.39197,0.09255 0.90765,0.163147 1.22724,0.16802 l 0.0818,0.0012 z m 0.84917,0.849513 c 0.18124,-0.01659 0.42025,-0.04971 0.60592,-0.08408 0.18393,-0.03406 0.54401,-0.122766 0.54401,-0.134014 0,-0.0049 -0.0331,-0.07694 -0.0736,-0.1603 -0.28863,-0.594592 -0.65717,-1.013372 -1.07628,-1.223003 -0.0965,-0.04828 -0.25084,-0.104183 -0.31631,-0.114575 l -0.0376,-0.0059 v 0.873623 0.873624 l 0.10394,-0.0059 c 0.0572,-0.0033 0.16961,-0.01205 0.24989,-0.01932 z m -2.81625,-0.392927 c 0.10769,-0.269137 0.35257,-0.688429 0.53335,-0.913215 0.0342,-0.04256 0.06,-0.07741 0.0572,-0.07741 -0.003,0 -0.0574,0.02637 -0.12142,0.05862 -0.31778,0.16009 -0.64814,0.393714 -0.89357,0.631923 l -0.10734,0.104183 0.18133,0.08857 c 0.17665,0.08628 0.30262,0.14142 0.32515,0.142345 0.006,2.66e-4 0.0175,-0.01554 0.0253,-0.03502 z m 4.54874,-0.02297 c 0.1191,-0.05156 0.39045,-0.188973 0.39045,-0.197721 0,-0.0073 -0.19565,-0.18605 -0.27863,-0.254524 -0.15029,-0.124006 -0.37438,-0.278301 -0.53958,-0.371528 -0.11246,-0.06347 -0.27202,-0.144598 -0.27619,-0.140424 -0.002,0.0019 0.0268,0.04228 0.0638,0.08969 0.16369,0.209402 0.34531,0.511676 0.46623,0.775954 0.035,0.07662 0.0673,0.139324 0.0717,0.139324 0.004,0 0.0503,-0.01834 0.10212,-0.04075 z"
         id="path4941" /></g></g></svg>
