<?xml version="1.0" encoding="UTF-8" standalone="no"?>
<!-- Created with Inkscape (http://www.inkscape.org/) -->

<svg
   width="34.660858"
   height="34.660923"
   viewBox="0 0 9.1706857 9.1707025"
   version="1.1"
   id="svg5"
   xml:space="preserve"
   xmlns="http://www.w3.org/2000/svg"
   xmlns:svg="http://www.w3.org/2000/svg"><defs
     id="defs2" /><g
     id="layer3"
     style="display:inline"
     transform="translate(-185.89875,-10.414651)"><g
       id="g12074"
       transform="translate(32.878316,0.88289657)"><path
         style="display:inline;fill:#f9f9f9;fill-opacity:1;stroke-width:0.999998"
         d="m 161.69283,10.030082 0.49827,0.498339 v 0.08937 0.08937 l -0.32837,0.334079 -0.32837,0.334078 0.11908,0.123954 c 0.25283,0.26321 0.29165,0.349528 0.28283,0.629005 -0.008,0.256893 -0.0159,0.267304 -0.74599,0.997324 -0.25503,0.255009 -0.47705,0.472985 -0.49338,0.484392 l -0.0297,0.02074 -0.65385,-0.64526 c -0.72806,-0.718495 -1.92101,-1.923429 -1.92101,-1.940313 0,-0.01751 1.04479,-1.0544847 1.1323,-1.1238371 0.0438,-0.034664 0.11091,-0.078602 0.14926,-0.097634 l 0.0698,-0.034606 0.18762,2.83e-4 c 0.17762,2.472e-4 0.19088,0.0015 0.24859,0.023775 0.10754,0.041457 0.18373,0.099876 0.37658,0.2887171 l 0.0913,0.0894 0.32985,-0.3297518 0.32985,-0.3297521 h 0.0936 0.0936 z m -4.20406,1.201556 c 0.0154,0.0023 0.0546,0.01277 0.087,0.02332 0.0504,0.0164 0.0742,0.03307 0.16376,0.114929 0.34267,0.313033 2.30959,2.282775 2.64212,2.645899 0.0805,0.08789 0.10629,0.153189 0.10629,0.268961 0,0.175422 -0.0931,0.325523 -0.25735,0.414772 -0.056,0.03047 -0.0563,0.03052 -0.19183,0.03052 -0.1265,0 -0.13917,-0.0017 -0.18716,-0.02423 -0.0677,-0.03187 -0.14215,-0.0927 -0.31615,-0.258293 l -0.14348,-0.136541 -0.28721,0.284998 c -0.31199,0.309589 -0.45767,0.443329 -0.50425,0.46289 -0.0449,0.01883 -0.17565,0.0259 -0.25381,0.0137 -0.0902,-0.01407 -0.16989,-0.05534 -0.23753,-0.122981 -0.0931,-0.09307 -0.13616,-0.219493 -0.12724,-0.373366 0.008,-0.143778 0.052,-0.202146 0.46539,-0.620794 l 0.29417,-0.297965 -0.34067,-0.340763 -0.34066,-0.340764 -0.31379,0.311339 c -0.30964,0.307243 -0.38907,0.377526 -0.47198,0.417662 -0.0982,0.04754 -0.27913,0.04227 -0.38801,-0.01133 -0.0877,-0.04318 -0.16135,-0.118521 -0.20439,-0.209159 -0.0331,-0.0697 -0.0349,-0.07856 -0.0385,-0.188428 -0.004,-0.113496 -0.003,-0.116198 0.0251,-0.174066 0.0408,-0.08284 0.11541,-0.166715 0.44345,-0.498407 0.15833,-0.160092 0.28788,-0.294134 0.28788,-0.29787 0,-0.0037 -0.0565,-0.06646 -0.1257,-0.139383 -0.25539,-0.269389 -0.29502,-0.336242 -0.29529,-0.49819 -3.1e-4,-0.191021 0.12862,-0.370938 0.31077,-0.433605 0.0545,-0.01877 0.15141,-0.02988 0.19912,-0.02285 z m -2.16036,2.277742 c 0.0502,0.01592 0.0727,0.0322 0.17885,0.12974 0.38617,0.354738 2.22128,2.189938 2.57749,2.577613 0.13308,0.144833 0.14201,0.165725 0.14268,0.334067 3.1e-4,0.1074 1.4e-4,0.108876 -0.0361,0.182479 -0.069,0.139928 -0.19979,0.239596 -0.33664,0.256568 -0.0718,0.0089 -0.17771,-0.0022 -0.24219,-0.02522 -0.064,-0.02291 -0.34122,-0.290247 -1.42924,-1.378228 -0.97397,-0.973931 -1.39458,-1.4062 -1.42388,-1.463324 -0.0102,-0.01987 -0.0248,-0.06612 -0.0324,-0.102775 -0.0447,-0.214467 0.099,-0.442682 0.32212,-0.511604 0.0797,-0.02461 0.20055,-0.02431 0.27938,6.72e-4 z m 0.2432,2.107313 c 0.55893,0.557143 1.13626,1.136159 1.28296,1.2867 l 0.26673,0.273711 -0.0167,0.02574 c -0.0296,0.04558 -0.98797,0.996701 -1.08966,1.081445 -0.15275,0.127303 -0.24831,0.165244 -0.41667,0.165425 -0.0922,1.06e-4 -0.214,-0.01649 -0.27282,-0.03716 -0.0773,-0.02716 -0.17279,-0.09622 -0.29679,-0.21462 -0.0624,-0.05963 -0.12523,-0.118767 -0.13947,-0.13141 l -0.0259,-0.02298 -0.18449,0.182714 c -0.42037,0.416296 -0.49049,0.476199 -0.55747,0.476199 -0.0904,0 -0.16596,-0.06498 -0.70552,-0.607001 l -0.39538,-0.397168 v -0.08986 -0.08985 l 0.32753,-0.327426 c 0.18014,-0.180083 0.32753,-0.331178 0.32753,-0.335766 0,-0.0046 -0.058,-0.06788 -0.12893,-0.140654 -0.14767,-0.151548 -0.2172,-0.248527 -0.24767,-0.345431 -0.0186,-0.05942 -0.0211,-0.08652 -0.0209,-0.235587 3.1e-4,-0.287508 -0.0114,-0.271382 0.74814,-1.031705 0.27378,-0.274068 0.50487,-0.498306 0.51355,-0.498306 0.009,0 0.47306,0.455845 1.03199,1.012989 z"
         id="path12360" /></g></g></svg>
