<?xml version="1.0" encoding="UTF-8" standalone="no"?>
<!-- Created with Inkscape (http://www.inkscape.org/) -->

<svg
   width="40"
   height="40"
   viewBox="0 0 10.583334 10.583333"
   version="1.1"
   id="svg5"
   xml:space="preserve"
   inkscape:version="1.4 (e7c3feb100, 2024-10-09)"
   sodipodi:docname="ikon_reset_rotasi_objek.svg"
   inkscape:export-filename="../../godot4_perf_test/tmp/antarmuka.png"
   inkscape:export-xdpi="96"
   inkscape:export-ydpi="96"
   xmlns:inkscape="http://www.inkscape.org/namespaces/inkscape"
   xmlns:sodipodi="http://sodipodi.sourceforge.net/DTD/sodipodi-0.dtd"
   xmlns="http://www.w3.org/2000/svg"
   xmlns:svg="http://www.w3.org/2000/svg"><sodipodi:namedview
     id="namedview7"
     pagecolor="#0c0c0c"
     bordercolor="#111111"
     borderopacity="1"
     inkscape:showpageshadow="0"
     inkscape:pageopacity="0"
     inkscape:pagecheckerboard="1"
     inkscape:deskcolor="#d1d1d1"
     inkscape:document-units="cm"
     showgrid="false"
     inkscape:zoom="3.5537506"
     inkscape:cx="19.978892"
     inkscape:cy="19.978892"
     inkscape:window-width="1283"
     inkscape:window-height="761"
     inkscape:window-x="41"
     inkscape:window-y="44"
     inkscape:window-maximized="0"
     inkscape:current-layer="layer1"
     showguides="true" /><defs
     id="defs2" /><g
     inkscape:groupmode="layer"
     id="layer1"
     inkscape:label="Layer 1"><path
       style="fill:#ffffff;fill-opacity:1;stroke-width:0.134985"
       d="m 8.3980543,1.9661237 c 0.012459,0.1757532 0.019966,0.532491 0.016678,0.792746 C 8.4064523,3.4138599 8.4395603,3.389772 7.5151785,3.4131392 7.1131502,3.4232987 6.7369912,3.4120511 6.679268,3.3881413 6.5510689,3.3350341 6.4977897,3.2183444 6.5303701,3.0619659 6.5636668,2.9020815 6.6790319,2.8558063 7.0604737,2.8490545 7.2640394,2.8454743 7.3841235,2.8271321 7.3602675,2.8032761 7.2681034,2.711112 6.8616173,2.4564724 6.6476284,2.3568489 6.1039748,2.1037547 5.3570519,2.0024351 4.7647323,2.1014381 3.590096,2.2977668 2.6228269,3.1098427 2.2385321,4.222313 1.9277326,5.1220766 2.0039772,6.0133193 2.4659736,6.880703 2.6075591,7.1465318 2.6600532,7.2121874 3.0139954,7.5661296 3.3666093,7.9187436 3.4341662,7.9728654 3.6951044,8.1117767 4.9468524,8.7781597 6.3288827,8.6365955 7.4220103,7.7300472 7.6559531,7.5360589 7.9820867,7.124337 8.1436538,6.8191675 8.4959669,6.1536575 8.6060325,5.3146452 8.4394804,4.5640889 8.40174,4.394005 8.3743424,4.2229484 8.3786016,4.1839673 8.399854,3.9893285 8.7052839,3.895617 8.8489822,4.039581 8.9893407,4.1801311 9.1159749,4.9260672 9.0898888,5.4581559 8.9898444,7.4985092 7.3287201,9.0883137 5.2954358,9.0896978 4.46799,9.0902577 3.7161732,8.8484036 3.0479568,8.3667007 1.0496393,6.9261512 0.95773533,3.9175341 2.8645579,2.3628191 4.1676282,1.3003681 5.9931876,1.2026176 7.3815964,2.1209433 c 0.1696948,0.112238 0.3399761,0.2355109 0.3783993,0.2739341 0.065834,0.065834 0.070168,0.047221 0.075211,-0.3230503 0.00606,-0.4453357 0.06212,-0.5525362 0.2889393,-0.5525375 0.1941364,-2.3e-6 0.2485075,0.088692 0.2739083,0.4468341 z"
       id="path6"
       inkscape:label="rotasi" /><path
       style="fill:#ffffff;fill-opacity:1;stroke:#000000;stroke-width:0.948799;stroke-linejoin:round;stroke-dasharray:none;stroke-opacity:1;paint-order:stroke markers fill"
       d="M 4.5499951,10.03827 C 4.5570237,9.9378156 4.5541334,9.7039077 4.5446089,9.6022587 4.5259895,9.403541 4.4909314,9.249766 4.4299123,9.0991692 4.2895584,8.7527718 4.0240229,8.5196986 3.6154616,8.3842865 3.3224847,8.2871834 2.9775814,8.2385908 2.5125347,8.2288982 l -0.1638266,-0.00341 v 0.3661712 0.3661711 l -0.013433,0.026957 c -0.015431,0.030967 -0.036673,0.049069 -0.071505,0.060938 -0.029261,0.00997 -0.068396,0.00681 -0.092353,-0.00744 C 2.1625041,9.0329741 2.0309877,8.9314704 1.8791579,8.8127147 1.7273281,8.6939589 1.5079036,8.5224934 1.3915481,8.43168 0.80030644,7.9702272 0.63974614,7.8432278 0.62860114,7.8282072 0.59258844,7.7796712 0.59739844,7.7185738 0.64068654,7.6746939 c 0.0128243,-0.013 0.0767217,-0.065429 0.1419943,-0.1165097 C 1.012215,7.3785566 1.4879043,7.0050484 1.8161193,6.7467348 1.9985505,6.6031567 2.1564433,6.4805291 2.166992,6.474229 2.22228,6.441208 2.298478,6.461379 2.3316532,6.517818 l 0.014475,0.024625 0.00258,0.3766722 0.00258,0.3766721 0.087718,0.00104 c 0.8653142,0.010257 1.4828542,0.1930014 1.8508125,0.5476992 0.2484917,0.2395366 0.3813789,0.5296729 0.428122,0.9347301 0.010168,0.088111 0.00861,0.3862002 -0.0026,0.4953497 -0.017828,0.1737055 -0.047959,0.3519897 -0.090334,0.5345009 -0.021449,0.09238 -0.072088,0.2815418 -0.076543,0.2859218 -0.00144,0.0014 -7.53e-4,-0.02412 0.00153,-0.05676 z"
       id="path1"
       inkscape:label="undo" /></g></svg>
