<?xml version="1.0" encoding="UTF-8" standalone="no"?>
<!-- Created with Inkscape (http://www.inkscape.org/) -->

<svg
   width="43.075405"
   height="41.981472"
   viewBox="0 0 11.397035 11.107598"
   version="1.1"
   id="svg5"
   xml:space="preserve"
   xmlns="http://www.w3.org/2000/svg"
   xmlns:svg="http://www.w3.org/2000/svg"><defs
     id="defs2" /><g
     id="layer1"
     style="display:inline"
     transform="translate(-171.16073,-93.342058)"><g
       id="g1411"
       transform="translate(1.5258789e-5,48.801605)"><path
         id="path1340"
         style="display:inline;fill:#333333;fill-opacity:1;stroke-width:0.999999"
         d="m 176.85839,44.540452 c -0.62827,0 -1.25763,8.62e-4 -1.73636,0.0025 -0.95745,0.0034 -0.18095,0.0061 1.72555,0.0061 1.90649,0 2.68985,-0.0027 1.74081,-0.0061 -0.47452,-0.0017 -1.10172,-0.0025 -1.73,-0.0025 z m -1.57528,0.02336 c -1.41594,4.31e-4 -2.08861,0.0069 -2.16575,0.02004 -0.20484,0.035 -0.51953,0.137309 -0.50326,0.163622 0.007,0.01198 -0.002,0.01582 -0.0212,0.0085 -0.0354,-0.01358 -0.33742,0.142306 -0.3302,0.169119 -0.002,-5.62e-4 -0.005,-8.26e-4 -0.006,-0.0019 -0.012,-0.0074 -0.0281,0.0028 -0.0358,0.02272 -0.008,0.02114 -0.0261,0.02923 -0.0431,0.0194 -0.0161,-0.0093 -0.0214,-0.0082 -0.0118,0.0025 0.003,0.0036 0.004,0.0099 0.003,0.01713 -0.15361,0.08526 -0.38868,0.303927 -0.55175,0.526578 -0.0832,0.113583 -0.10154,0.152477 -0.0834,0.178117 -0.009,-0.0072 -0.0213,-0.01226 -0.0318,-0.01213 -0.0166,2.11e-4 -0.0138,0.0094 0.007,0.02295 0.007,0.0047 0.012,0.0074 0.0174,0.01054 -4.4e-4,-1.76e-4 -6.2e-4,-1.84e-4 -0.001,-3.6e-4 -0.0411,-0.01579 -0.12054,0.12299 -0.21697,0.379178 -0.0617,0.163823 -0.0679,0.202788 -0.0284,0.178389 0.0168,-0.01037 0.0206,-0.0064 0.01,0.01063 -0.009,0.01497 -0.0256,0.02177 -0.0364,0.01513 -0.0108,-0.0066 -0.0336,0.06387 -0.0507,0.156669 -0.0464,0.250902 -0.046,7.075 4.4e-4,7.304803 0.0195,0.09672 0.041,0.151017 0.0559,0.141766 0.0139,-0.0086 0.0173,-0.0038 0.008,0.01136 -0.0211,0.03409 0.0266,0.210942 0.0535,0.202424 -0.003,0.0017 -0.005,0.004 -0.007,0.0068 -0.005,0.0086 -2e-5,0.01582 0.0116,0.01849 -0.006,0.02103 0.0233,0.09585 0.0911,0.228461 0.01,0.01932 0.0226,0.0405 0.0338,0.06089 -3.5e-4,5.27e-4 -7.1e-4,7.91e-4 -0.001,0.0013 -0.0105,0.01707 -0.007,0.02041 0.008,0.01172 0.006,0.01024 0.011,0.02008 0.0169,0.0304 -0.003,0.01101 -8.8e-4,0.01523 0.007,0.0134 0.0444,0.07625 0.0896,0.145888 0.1289,0.201016 -7e-4,0.0031 -0.001,0.0064 -0.003,0.0083 -0.009,0.01039 -0.004,0.01139 0.011,0.0028 0.0157,0.02164 0.0313,0.0431 0.0426,0.05575 0.004,0.01936 0.008,0.0393 0.009,0.04439 0.003,0.0171 0.0275,-0.01522 0.0357,-0.04362 -2.6e-4,0.0025 -6e-5,0.0047 -6.1e-4,0.0074 -0.0106,0.05531 0.0543,0.136747 0.092,0.115276 0.0143,-0.0082 0.0179,-0.0059 0.008,0.0049 -0.0234,0.02569 0.14631,0.199605 0.17652,0.180934 0.0127,-0.0078 0.0159,-0.0027 0.007,0.01145 -0.0158,0.02557 0.0727,0.08946 0.10928,0.07892 0.0105,-0.003 0.0133,0.0041 0.006,0.01577 -0.007,0.01171 0.0125,0.03816 0.044,0.05875 0.0335,0.02197 0.0556,0.03349 0.0671,0.03531 0.001,0.0295 0.009,0.0313 0.0255,0.0038 2.7e-4,0.002 0.002,0.0043 0.002,0.0061 3.5e-4,0.01493 0.0185,0.0257 0.0404,0.02394 0.0219,-0.0017 0.0352,0.0044 0.0295,0.01372 -0.0161,0.02598 0.17141,0.123317 0.20942,0.108732 0.0185,-0.0071 0.0311,-7.03e-4 0.028,0.01427 -0.002,0.0094 0.024,0.02565 0.0651,0.04457 -0.007,0.01091 -0.0112,0.01967 -0.006,0.01967 0.004,0 0.0116,-0.0059 0.0203,-0.01386 0.12557,0.0555 0.36481,0.129265 0.43156,0.123273 0.0407,-0.0036 0.0693,9.85e-4 0.0635,0.01031 -0.006,0.0093 0.0289,0.02121 0.0772,0.0264 0.0482,0.0052 1.73136,0.0084 3.74021,0.007 l 3.65247,-0.0024 0.18612,-0.05393 c 0.10236,-0.02966 0.25939,-0.08445 0.34896,-0.121773 0.21599,-0.09001 0.53116,-0.292709 0.50954,-0.327697 -0.0107,-0.01734 -0.006,-0.02043 0.0126,-0.0088 0.0189,0.01166 0.10197,-0.05453 0.1743,-0.125545 7e-4,0.0068 0.002,0.02167 0.002,0.02167 0.001,0 0.0331,-0.03365 0.0707,-0.07474 0.0376,-0.0411 0.051,-0.06161 0.0299,-0.04557 -0.008,0.0061 -0.0161,0.01008 -0.0234,0.01272 0.0246,-0.03079 0.0392,-0.05559 0.0338,-0.06511 -0.008,-0.01379 -0.006,-0.01717 0.005,-0.0075 0.0106,0.0096 0.0384,8.8e-5 0.0619,-0.02108 0.03,-0.02714 0.0451,-0.05536 0.0414,-0.06629 0.005,-0.0029 0.01,-0.0073 0.0128,-0.01272 0.0158,-0.003 0.0639,-0.07178 0.11005,-0.147309 6.2e-4,2.64e-4 10e-4,-4.9e-5 0.002,2.64e-4 0.0155,0.0087 0.0146,0.004 0.004,-0.0091 0.0527,-0.08725 0.10077,-0.180201 0.0924,-0.193701 -0.0107,-0.0173 -0.008,-0.02245 0.007,-0.01318 0.0314,0.01939 0.15124,-0.265657 0.22028,-0.523897 l 0.0518,-0.193702 2.7e-4,-0.08647 c 0.001,-1.76e-4 0.002,-1.6e-5 0.003,-0.0013 0.008,-0.0077 0.009,-0.02778 0.002,-0.04458 -0.002,-0.0046 -0.004,-0.0077 -0.005,-0.0094 l 0.008,-3.278108 c 0.008,-3.378618 -0.001,-3.901524 -0.0675,-3.860438 -0.0112,0.0069 -0.0143,-0.0033 -0.007,-0.02267 0.0178,-0.04644 -0.0699,-0.309646 -0.17121,-0.51381 -0.0895,-0.180274 -0.19276,-0.33319 -0.34982,-0.517945 -0.0893,-0.105082 -0.10938,-0.118269 -0.14168,-0.09306 -0.0325,0.02533 -0.0338,0.02435 -0.009,-0.007 0.0238,-0.03052 0.0125,-0.0496 -0.0698,-0.118183 -0.27139,-0.226187 -0.5309,-0.365291 -0.89413,-0.479232 l -0.20438,-0.06407 -3.68736,-0.0067 c -0.64264,-0.0012 -1.19718,-0.0017 -1.66916,-0.0015 z m -2.55347,0.18575 c 0.007,0.0044 0.0118,0.0085 0.0118,0.01109 0,0.0013 -6.2e-4,0.0021 -0.001,0.0031 -0.002,0.0052 -0.009,0.0064 -0.0173,0.0055 0.01,-5.27e-4 0.016,-0.0023 0.0173,-0.0055 0.001,-0.0037 -0.002,-0.0087 -0.0108,-0.01418 z m 0.0931,0 c 0.007,0.0044 0.0118,0.0085 0.0118,0.01109 0,0.0013 -6.1e-4,0.0021 -0.001,0.0031 -0.002,0.0052 -0.009,0.0064 -0.0173,0.0055 0.01,-5.27e-4 0.016,-0.0023 0.0173,-0.0055 0.001,-0.0037 -0.002,-0.0087 -0.0108,-0.01418 z m -0.34905,0.07779 c 0.004,0.0016 0.004,0.0059 1.7e-4,0.0125 -6.1e-4,10e-4 -0.002,0.0017 -0.003,0.0026 0.002,-0.0055 -0.003,-0.01011 -0.0113,-0.013 0.005,-0.0012 0.0113,-0.0032 0.0138,-0.0021 z m -0.0558,0.02699 c 0.006,0.0047 0.0136,0.0081 0.0205,0.0083 -1.8e-4,5e-6 -4.4e-4,2.28e-4 -6.2e-4,2.28e-4 -0.0148,0 -0.0203,-0.0036 -0.0199,-0.0085 z m -0.0864,0.04489 c 2e-5,3e-6 3e-5,4.2e-5 5e-5,4.5e-5 -6.2e-4,-9.6e-5 -0.002,5.81e-4 -0.002,6.33e-4 6.1e-4,-5.6e-5 0.002,-7.65e-4 0.002,-6.86e-4 z m -0.0294,0.01659 c -0.003,0.002 -0.006,0.0039 -0.009,0.0053 0.003,-0.0017 0.006,-0.003 0.009,-0.0053 z m 0.0362,0.0012 c 1e-5,3.43e-4 9e-5,4.57e-4 9e-5,8.18e-4 0,0.003 -0.002,0.0054 -0.003,0.008 0.001,-0.0029 0.003,-0.0057 0.003,-0.0088 z m -0.004,0.01172 c -0.001,0.0015 -0.003,0.0027 -0.004,0.0041 0.001,-0.0014 0.003,-0.0026 0.004,-0.0041 z m 9.16262,0.03317 c 0.002,-7.83e-4 0.006,0.002 0.0126,0.0064 -0.006,0.0047 -0.008,0.01271 -0.005,0.02231 -5.3e-4,-0.0011 -0.002,-0.0019 -0.002,-0.0031 -0.006,-0.01597 -0.008,-0.0243 -0.005,-0.02558 z m 0.0518,0.04121 c 0.006,0.0062 0.01,0.01152 0.01,0.01377 0,0.01235 -0.01,0.01317 -0.0217,0.0077 0.006,-0.0021 0.0101,-0.01076 0.012,-0.02149 z m -9.35877,0.0028 c -0.003,0.003 -0.004,0.005 -0.007,0.0081 -0.0301,0.03199 -0.0599,0.05816 -0.0662,0.05816 -0.005,0 0.01,-0.02015 0.0318,-0.04503 -0.002,0.0028 -0.004,0.0055 -0.006,0.0082 -0.0222,0.02663 -0.008,0.01908 0.0316,-0.01677 0.005,-0.0045 0.0105,-0.0085 0.0157,-0.01272 z m 4.6691,0.322199 c 3.44565,0 3.53298,0.0011 3.70958,0.04621 0.0995,0.02544 0.19175,0.03953 0.20506,0.03131 0.0151,-0.0093 0.0171,-0.0034 0.005,0.01559 -0.0142,0.02293 -0.006,0.02712 0.0336,0.01681 0.0289,-0.0075 0.0462,-0.0075 0.0386,1.32e-4 -0.0216,0.02158 0.12517,0.102304 0.15381,0.08461 0.0164,-0.01016 0.0187,-0.0049 0.006,0.01504 -0.014,0.02256 -0.008,0.02671 0.0209,0.01549 0.022,-0.0084 0.0343,-0.0062 0.0275,0.0048 -0.007,0.01106 0.0272,0.04758 0.0756,0.08115 0.0485,0.03357 0.1232,0.0973 0.16612,0.141584 0.0429,0.04428 0.0871,0.07492 0.0982,0.06807 0.0111,-0.0069 0.0177,-0.0038 0.0146,0.0067 -0.01,0.03421 0.0526,0.125572 0.0759,0.111141 0.0125,-0.0077 0.0198,-0.0054 0.0163,0.0052 -0.004,0.01059 0.0381,0.108206 0.0926,0.21692 0.18951,0.378605 0.18073,0.157286 0.18012,3.672598 -2e-5,0.106906 -2.7e-4,0.119844 -2.7e-4,0.235731 0,0.09009 1.8e-4,0.09857 1.8e-4,0.183251 -2.6e-4,2.606002 -0.006,3.249784 -0.0314,3.347537 -0.025,0.09744 -0.0256,0.125891 -0.003,0.15726 -0.006,-0.0051 -0.0107,-0.01 -0.0175,-0.01531 -0.0369,-0.02894 -0.0377,-0.02808 -0.009,0.0088 0.006,0.0081 0.0119,0.01437 0.0172,0.02013 -0.0246,-0.01491 -0.0374,7.03e-4 -0.0676,0.08224 -0.0216,0.05841 -0.0326,0.117155 -0.0243,0.130543 0.009,0.01418 0.004,0.0174 -0.0118,0.0077 -0.0309,-0.01912 -0.0324,0.0066 -0.009,0.04021 -0.004,-0.0036 -0.007,-0.0068 -0.012,-0.0105 -0.0369,-0.02894 -0.0377,-0.02808 -0.009,0.0088 0.005,0.006 0.009,0.01011 0.0127,0.01481 -0.0254,-0.01646 -0.0367,-0.01044 -0.0583,0.03022 -0.0157,0.02962 -0.0635,0.09983 -0.10632,0.156078 -0.0651,0.08558 -0.073,0.108354 -0.0487,0.139585 0.0137,0.01759 0.0175,0.02397 0.0149,0.02399 1.7e-4,-0.0017 -0.005,-0.0089 -0.0158,-0.02372 -0.0153,-0.02037 -0.02,-0.04654 -0.0106,-0.05816 0.009,-0.01162 -0.0168,0.0096 -0.0583,0.04721 -0.0415,0.03758 -0.0755,0.07346 -0.0755,0.0797 0,0.0015 0.002,0.0015 0.004,4.39e-4 -0.0107,0.0087 -0.0192,0.01501 -0.0319,0.02567 -0.0729,0.06133 -0.12782,0.116173 -0.12213,0.121864 0.006,0.0057 -0.003,0.01072 -0.0187,0.01118 -0.0372,0.0011 -0.23013,0.112199 -0.2172,0.125134 0.005,0.0054 -0.0129,0.01133 -0.0406,0.01327 -0.0277,0.0019 -0.12372,0.02798 -0.21328,0.05784 l -0.16285,0.0543 -3.51289,0.0036 c -2.31647,0.0024 -3.56042,-0.0045 -3.65247,-0.02031 -0.0768,-0.01316 -0.16737,-0.0251 -0.20133,-0.02654 -0.034,-0.0014 -0.056,-0.01198 -0.0489,-0.02345 0.007,-0.0116 -0.017,-0.01457 -0.0546,-0.0067 -0.003,6.15e-4 -0.004,4.4e-4 -0.006,0.001 0.003,-0.0026 0.007,-0.0049 0.008,-0.0081 0.008,-0.01319 -0.001,-0.01708 -0.0219,-0.0091 -0.006,0.0023 -0.0106,0.0051 -0.0157,0.0077 -0.007,-0.01182 -0.0357,-0.03272 -0.0794,-0.05766 -9.1e-4,-10e-4 -0.002,-0.002 -0.003,-0.0019 -0.0134,-0.0076 -0.0266,-0.01516 -0.0426,-0.02336 -0.0825,-0.04226 -0.15628,-0.07202 -0.16907,-0.06861 0.001,-0.0019 0.002,-0.0029 0.004,-0.0053 0.003,-0.0055 -6.1e-4,-0.01082 -0.009,-0.01499 -7.1e-4,-0.01078 -0.12216,-0.103423 -0.19843,-0.155351 0.002,7.03e-4 0.004,0.0027 0.005,0.0027 0.007,0 -9e-5,-0.01599 -0.0163,-0.03549 -0.0162,-0.0195 -0.0348,-0.03004 -0.0414,-0.02345 -0.002,0.0017 -0.004,0.0025 -0.007,0.0027 0.002,-0.0012 0.003,-0.0032 0.003,-0.0061 0,-0.03531 -0.15284,-0.172546 -0.17144,-0.153944 -0.009,0.0094 -0.0106,1.76e-4 -0.003,-0.02049 0.008,-0.02071 0.002,-0.04558 -0.014,-0.05525 -0.004,-0.0025 -0.006,-0.0021 -0.008,-0.0031 0.001,-0.01688 -9e-5,-0.02789 -0.006,-0.02149 -0.006,0.0064 -0.0132,0.02569 -0.0183,0.04635 3.5e-4,-0.0024 -1e-5,-0.0023 4.4e-4,-0.0048 0.009,-0.05598 0.005,-0.07268 -0.0148,-0.06039 -0.0167,0.01034 -0.0213,0.007 -0.0118,-0.0085 0.007,-0.01154 -0.002,-0.0449 -0.0211,-0.07997 0.0103,-0.01382 0.009,-0.01587 -0.004,-0.0067 -0.003,-0.0053 -0.006,-0.01057 -0.009,-0.01581 -0.005,-0.0082 -0.008,-0.01015 -0.012,-0.01627 0.002,-0.0023 0.003,-0.0034 0.005,-0.0062 0.0111,-0.01787 0.006,-0.02049 -0.0142,-0.0078 -1.8e-4,8.8e-5 -2.6e-4,7.9e-5 -4.4e-4,1.76e-4 -0.0113,-0.01401 -0.0185,-0.01981 -0.0136,-0.005 0.002,0.0052 8e-4,0.0071 10e-4,0.011 -0.0111,0.0035 -0.0112,-0.0058 -10e-4,-0.03162 0.0129,-0.03397 0.0105,-0.03813 -0.0103,-0.01749 -0.005,0.005 -0.008,0.01097 -0.0111,0.01718 6.2e-4,-0.0084 0.002,-0.01707 0.004,-0.02585 0.0115,-0.0459 0.008,-0.05578 -0.0151,-0.04153 -0.02,0.01238 -0.0246,0.0096 -0.0135,-0.0084 0.0193,-0.03122 -0.005,-0.125231 -0.0287,-0.110641 -0.009,0.0054 -0.0194,-0.01802 -0.0238,-0.05198 -0.004,-0.03397 -0.0124,-1.629731 -0.0178,-3.546146 -0.009,-3.060362 -0.005,-3.503003 0.0256,-3.637066 0.0195,-0.08395 0.0284,-0.164817 0.0199,-0.179706 -0.009,-0.01489 -0.007,-0.01943 0.003,-0.01009 0.0103,0.0093 0.0437,-0.03688 0.0743,-0.102735 0.0305,-0.06586 0.10186,-0.184718 0.15853,-0.26413 0.0567,-0.07941 0.0956,-0.152642 0.0865,-0.162712 -0.009,-0.01007 -0.005,-0.01148 0.01,-0.0031 0.0147,0.0084 0.0643,-0.0266 0.11101,-0.07829 0.0486,-0.05383 0.0667,-0.08045 0.068,-0.105688 0.002,0.01373 0.002,0.0271 -0.001,0.03671 -0.009,0.03001 -0.007,0.03015 0.0132,0.0012 0.009,-0.01297 0.01,-0.03531 0.006,-0.05711 0.007,0.01673 0.009,0.03285 0.004,0.04185 -0.008,0.01411 0.002,0.0114 0.0238,-0.006 0.0215,-0.01744 0.0338,-0.04029 0.0273,-0.05075 -0.001,-0.0016 -0.001,-0.0036 -0.001,-0.0055 7e-4,0.0028 0.002,0.0055 0.003,0.0081 0.0172,0.02789 0.0245,0.02586 0.0257,-0.0046 0.003,-4.4e-4 0.006,-0.0011 0.0108,-0.0027 0.0178,-0.0065 0.0298,-0.02314 0.0268,-0.03708 -0.003,-0.01463 0.0107,-0.0191 0.0329,-0.01059 0.0279,0.01069 0.0332,0.0062 0.0194,-0.01608 -0.0123,-0.0199 -0.01,-0.0252 0.006,-0.01504 0.0286,0.0177 0.17543,-0.06302 0.15385,-0.0846 -0.008,-0.0076 0.0107,-0.0084 0.0408,-0.0018 0.0448,0.0099 0.0483,0.0073 0.0204,-0.01481 0.044,0.02833 0.052,0.02829 0.0342,-4.14e-4 -0.003,-0.0054 -0.009,-0.01009 -0.0149,-0.014 0.0349,0.0017 0.11817,-0.01135 0.20438,-0.0334 0.17357,-0.04439 0.27695,-0.04566 3.70727,-0.04566 z m 4.10734,0.03762 c -0.009,0.0036 -0.0179,0.0079 -0.0243,0.01195 0.006,-0.0039 0.0139,-0.0079 0.0243,-0.01195 z m 0.0219,0.0091 c -0.008,0.01265 -0.0241,0.02304 -0.0361,0.02304 -0.002,0 -0.002,-5.1e-4 -0.004,-5.9e-4 0.0139,-0.0015 0.0317,-0.0096 0.0397,-0.02245 z m -8.08247,0.02576 c 1.7e-4,-3.78e-4 0.004,0.0011 0.005,10e-4 -5.3e-4,8.36e-4 -0.001,0.0016 -9.6e-4,0.0027 -4.4e-4,-6.86e-4 -0.004,-0.0034 -0.004,-0.0038 z m -0.41431,0.162258 c 5e-5,-3.7e-5 9.4e-4,0.0011 0.001,0.0011 -6e-5,3.69e-4 1.7e-4,0.0011 1.7e-4,0.0015 3e-5,-1.85e-4 -0.001,-0.0026 -0.001,-0.0027 z m 0.12914,0.0025 c 0.001,0.002 -0.001,0.0081 -0.006,0.01654 -0.003,-0.0063 -0.007,-0.0092 -0.0124,-0.0081 0.001,-10e-4 0.002,-0.0025 0.003,-0.0034 0.009,-0.0056 0.0143,-0.0072 0.0157,-0.005 z m -0.0332,0.03026 c 4e-5,0.0011 -1.7e-4,0.0023 0,0.0034 -8e-5,-0.0011 -8e-5,-0.0022 0,-0.0034 z m -1.08864,0.293437 c 0.012,0.01808 0.0207,0.02288 0.031,0.01372 -0.004,0.0039 -0.008,0.007 -0.01,0.007 -0.008,0 -0.0153,-0.0095 -0.0211,-0.02067 z m 5.36025,0.186794 c -0.59665,0 -1.19331,8.62e-4 -1.64594,0.0025 -0.90527,0.0034 -0.16459,0.0061 1.64594,0.0061 1.81053,0 2.5512,-0.0028 1.64593,-0.0061 -0.45263,-0.0017 -1.04928,-0.0025 -1.64593,-0.0025 z m -3.50594,0.03162 -0.16048,0.08297 c -0.0883,0.04564 -0.15764,0.09614 -0.15413,0.112232 0.004,0.01608 -0.003,0.02334 -0.0148,0.01613 -0.028,-0.01732 -0.0775,0.0434 -0.0553,0.06788 0.009,0.01047 0.005,0.01201 -0.0101,0.0034 -0.0156,-0.009 -0.0479,0.01333 -0.0756,0.05221 -0.0295,0.04146 -0.0446,0.06846 -0.0462,0.08124 -0.0114,0.0026 -0.0166,0.0097 -0.0114,0.01817 0.002,0.0028 0.004,0.0047 0.006,0.0071 -7.1e-4,4.7e-5 -0.002,6.33e-4 -0.002,6.33e-4 -0.0139,0 -0.0297,0.01341 -0.0351,0.02981 -0.004,0.01082 -0.003,0.01858 10e-4,0.0219 -0.0257,0.01027 -0.0268,0.0174 -0.004,0.0314 0.002,0.0012 0.004,0.0018 0.006,0.0027 -0.002,-1.85e-4 -0.004,-8e-6 -0.006,-4.57e-4 -0.024,-0.0055 -0.0282,0.0091 -0.0167,0.0583 10e-4,0.0057 7e-4,0.0064 0.002,0.011 -0.002,-0.0033 -0.005,-0.0065 -0.008,-0.0097 -0.023,-0.0228 -0.0257,-0.02012 -0.013,0.01304 0.001,0.0029 0.002,0.0052 0.004,0.0078 -0.0104,-0.009 -0.0185,-0.0018 -0.031,0.02417 -0.0115,0.02376 -0.0235,1.086247 -0.0271,2.39816 l -0.006,2.355494 h 0.62877 0.62877 v 0.604867 0.604868 h 0.56997 0.56997 v 0.546707 0.546707 h 1.69828 1.69828 v -0.546707 -0.546708 h 0.56997 0.56998 v -0.604867 -0.604867 h 0.69847 0.69846 l -0.006,-2.355494 c -0.006,-2.224768 -0.009,-2.361653 -0.0493,-2.465999 -0.0236,-0.06076 -0.0541,-0.117442 -0.0679,-0.125953 -0.002,-0.0015 -0.004,-0.0017 -0.006,-0.0023 -0.003,-0.0129 -0.01,-0.01624 -0.019,-0.0072 -0.002,0.0021 -0.003,0.0047 -0.005,0.0073 5.3e-4,-0.0023 6.1e-4,-0.0047 0.001,-0.007 0.0219,-0.06904 -0.17643,-0.264641 -0.35896,-0.35396 l -0.1533,-0.07497 h -3.50357 z m 8.33329,0.0063 c 0.001,0.009 0.002,0.02222 0.003,0.04021 h 4e-5 c 9.6e-4,0.01658 6.2e-4,0.03109 -5.3e-4,0.04171 0.001,-0.0106 0.001,-0.02532 4.4e-4,-0.04171 -10e-4,-0.01789 -0.002,-0.0312 -0.003,-0.04021 z m -1.31783,0.0433 c 0,0.0017 -9.4e-4,0.0032 -0.003,0.0045 0.002,-0.0013 0.003,-0.0029 0.003,-0.0045 z m -0.0418,0.01349 c 2.6e-4,0.0034 0.008,0.009 0.0219,0.01831 -0.0144,-0.0093 -0.0216,-0.01494 -0.0219,-0.01831 z m 1.35722,0.04144 c -2e-5,10e-7 -2e-5,1.32e-4 -4e-5,1.32e-4 h -5e-5 c 1e-5,0 -1e-5,-4.5e-5 0,-4.5e-5 3e-5,-10e-7 6e-5,-8.8e-5 9e-5,-8.7e-5 z m -1.1926,0.02408 c 7e-4,0.0066 0.003,0.01413 0.008,0.02104 -0.004,-0.0069 -0.007,-0.01446 -0.008,-0.02104 z m 1.25626,0.186114 c 7.1e-4,0.0066 0.003,0.01413 0.008,0.02104 -0.004,-0.0069 -0.007,-0.01446 -0.008,-0.02104 z m -8.74659,0.01354 c 0.0104,0.0036 0.0194,0.0098 0.0194,0.01813 0,0.0018 -0.004,0.0034 -0.0104,0.0046 0.0139,-0.003 0.0105,-0.01017 -0.009,-0.02272 z m -0.12223,0.08206 c 0.002,7.92e-4 -4e-5,0.0043 -0.006,0.01045 -0.001,0.0015 -0.004,0.0024 -0.005,0.0038 -0.001,-0.0029 -0.004,-0.0053 -0.008,-0.007 0.001,-7.56e-4 0.002,-3.34e-4 0.003,-0.0012 0.008,-0.0049 0.0137,-0.0068 0.0154,-0.006 z m 8.01673,0.07565 c -1.8e-4,0.001 -3.6e-4,0.0021 -7.9e-4,0.0027 2.6e-4,-0.0011 6.1e-4,-0.0014 7.9e-4,-0.0027 z m -9.72973,0.04621 c -0.002,0.0024 -0.004,0.01062 -0.005,0.02417 -0.001,0.02452 0.004,0.03826 0.0122,0.03054 0.008,-0.0077 0.009,-0.02778 0.002,-0.04458 -0.004,-0.0093 -0.007,-0.01258 -0.009,-0.01013 z m 4.94881,0.03099 c -0.0125,0.0033 -0.0237,0.0072 -0.0321,0.01095 0.008,-0.0036 0.0181,-0.0073 0.0321,-0.01095 z m -2.28788,0.0013 c 0.011,-3.25e-4 0.0172,3.08e-4 0.0278,1.32e-4 -0.0247,1.67e-4 -0.054,0.0011 -0.0818,0.0018 0.0207,-6.6e-4 0.0309,-0.0012 0.0541,-0.0019 z m 5.36456,4.5e-5 c 0.0111,-3.42e-4 0.0178,3.17e-4 0.0284,1.41e-4 -0.0246,1.85e-4 -0.0538,0.0011 -0.0817,0.0018 0.0204,-6.77e-4 0.0303,-0.0013 0.0532,-0.002 z m -5.30354,2.73e-4 c 0.0707,-4.6e-5 0.12951,0.0021 0.13927,0.008 -0.0105,-0.0054 -0.0659,-0.0077 -0.13927,-0.008 z m 5.3702,4.5e-5 c 0.0542,1.59e-4 0.10264,0.0013 0.12282,0.0054 -0.0203,-0.0036 -0.0666,-0.0051 -0.12282,-0.0054 z m -4.67718,0.0017 c 0.0419,0.0011 0.0841,0.0026 0.13049,0.0048 -0.0348,-0.0015 -0.0806,-0.0031 -0.13049,-0.0048 z m -0.94693,0.0048 c -0.0183,8.53e-4 -0.0365,0.0018 -0.0549,0.0028 0.0165,-9.32e-4 0.0319,-0.0018 0.0549,-0.0028 z m 5.37029,1.32e-4 c -0.0175,8.36e-4 -0.035,0.0018 -0.0528,0.0028 0.0157,-9.04e-4 0.0311,-0.0018 0.0528,-0.0028 z m -2.58954,10e-4 c 0.038,2.5e-5 0.075,0.0012 0.10201,0.0037 0.0135,0.0012 0.0205,0.0024 0.0216,0.0035 -0.001,-0.0011 -0.008,-0.0022 -0.0216,-0.0034 -0.027,-0.0024 -0.0641,-0.0037 -0.10201,-0.0037 z m 0,0 c -0.0379,-2.5e-5 -0.0768,0.0012 -0.10737,0.0036 -0.0152,0.0012 -0.0239,0.0024 -0.0266,0.0034 0.003,-0.0011 0.0111,-0.0022 0.0266,-0.0035 0.0306,-0.0024 0.0694,-0.0036 0.10737,-0.0035 z m 0.88645,8.8e-5 c 0.0527,0 0.10541,0.0011 0.1454,0.0034 0.02,0.0011 0.0309,0.0022 0.0335,0.0032 -0.003,-9.87e-4 -0.0135,-0.002 -0.0335,-0.0032 -0.04,-0.0023 -0.0927,-0.0034 -0.1454,-0.0034 z m 0,0 c -0.0527,0 -0.10542,0.0011 -0.1454,0.0034 -0.02,0.0011 -0.0309,0.0022 -0.0335,0.0032 0.003,-9.87e-4 0.0135,-0.0021 0.0335,-0.0032 0.04,-0.0023 0.0927,-0.0034 0.1454,-0.0034 z m -2.34268,2.28e-4 c 0.002,1.85e-4 0.004,0.0011 0.007,0.0029 8e-4,4.57e-4 10e-4,0.0057 0.002,0.0085 -0.003,0.0022 -0.006,0.0062 -0.007,0.01218 -6.2e-4,0.0029 -10e-4,0.0058 -10e-4,0.0094 0,0.02899 0.004,0.03815 0.0138,0.02881 0.007,0.112507 0.01,0.376509 0.007,0.700741 l -0.006,0.746724 h -0.37159 -0.37159 v -0.73282 -0.73282 h 0.37358 c 0.24192,0 0.34324,-0.0054 0.35655,-0.02004 0.002,-0.0021 0.002,-0.0044 4.4e-4,-0.0069 -0.007,-0.01108 -0.007,-0.01733 -0.002,-0.01677 z m -0.18998,0.0015 c 0.0225,0.0013 0.044,0.002 0.0667,0.0035 v -4.5e-5 c 0.0301,0.002 0.0163,0.0043 -0.0249,0.0065 0.0436,-0.0027 0.0239,-0.0061 -0.0418,-0.0099 z m 0.79948,7.73e-4 c 0.005,-6.9e-5 0.008,2.38e-4 0.0127,1.85e-4 -0.0132,2.73e-4 -0.0221,-1.2e-5 -0.036,3.61e-4 l -0.22709,0.0061 -0.0521,-0.0023 z m 4.26156,0.004 c 2e-5,-4e-6 1.8e-4,5e-6 1.8e-4,0 -0.003,9.65e-4 0.002,0.0019 0.0145,0.0026 -0.0131,-7.48e-4 -0.0182,-0.0016 -0.0147,-0.0026 z m -0.45842,0.003 c -0.0157,0.0019 -0.0382,0.0035 -0.0667,0.0048 0.0283,-0.0012 0.051,-0.0029 0.0667,-0.0048 z m -3.23685,9.54e-4 c -0.01,0.0057 -0.0209,0.01018 -0.0326,0.01018 -0.002,0 -0.003,-3.96e-4 -0.004,-4.58e-4 0.0127,-0.0011 0.0263,-0.0042 0.037,-0.0097 z m -2.60077,0.0011 c 0.0374,0.0019 0.0971,0.0037 0.1778,0.0048 -0.0895,-0.0012 -0.14639,-0.0029 -0.1778,-0.0048 z m 5.3742,4.5e-5 c 0.0376,0.0019 0.0978,0.0037 0.17898,0.0048 0.001,1.8e-5 0.002,-1.7e-5 0.004,0 -0.001,-1.8e-5 -0.002,6.5e-5 -0.004,4.6e-5 -0.0902,-0.0012 -0.1474,-0.0029 -0.17898,-0.0048 z m -3.50666,0.0012 0.16694,0.0028 0.30243,0.005 v 0.01272 l -0.2908,-0.01268 z m 0.51731,0.01954 c 0.006,0.0065 0.005,0.01102 -0.007,0.01118 -0.002,2.2e-5 -0.003,0.003 -0.005,0.0053 0.001,-0.0029 0.003,-0.0071 0.004,-0.008 0.005,-0.003 0.007,-0.0058 0.008,-0.0085 z m -0.0479,0.0022 -6.1e-4,0.724642 h -5e-5 l -6.1e-4,0.738682 0.007,-0.720052 c 0.003,-0.265786 0.006,-0.447141 0.0118,-0.564292 -0.004,0.11295 -0.006,0.288841 -0.006,0.563156 v 0.73282 h -0.37222 -0.37223 v -0.73282 -0.732821 l 0.37804,-0.0048 z m 1.64289,0.0022 c 0.1481,-2.2e-5 0.17513,0.0078 0.17062,0.03035 -0.004,0.01919 -0.008,0.35158 -0.009,0.738637 l -0.002,0.70374 h -0.36059 -0.3606 v -0.73173 -0.73173 l 0.36937,-0.0069 c 0.0796,-0.0015 0.14238,-0.0024 0.19174,-0.0024 z m -4.19031,0.0071 h 0.37222 0.37223 v 0.73282 0.73282 h -0.37223 -0.37222 v -0.73282 z m 2.7219,0 h 0.3606 0.36059 v 0.73282 0.73282 h -0.36059 -0.3606 v -0.73282 z m 1.79134,0 h 0.37223 0.37222 v 0.73282 0.73282 h -0.37222 -0.37223 v -0.73282 z m 0.9073,0 h 0.37223 0.37223 v 0.73282 0.73282 h -0.37223 -0.37223 v -0.73282 z m 0.9073,0 h 0.37223 0.37223 v 0.73282 0.73282 h -0.37223 -0.37223 v -0.73282 z m -1.87594,0.08156 h 5e-5 c 0.004,0.01004 0.007,0.0176 0.008,0.0229 -0.001,-0.0053 -0.004,-0.01286 -0.008,-0.0229 z m 0.076,0.1977 c -0.003,-0.02268 -0.004,0.146474 -0.004,0.45356 -10e-6,0.409448 0.003,0.580216 0.007,0.379496 0.004,-0.200719 0.004,-0.535723 0,-0.744452 -9.6e-4,-0.05218 -0.002,-0.08105 -0.003,-0.0886 z m 0.9073,0.02867 c -0.003,-0.01683 -0.004,0.150663 -0.004,0.448153 1e-5,0.396653 0.003,0.555648 0.007,0.353324 0.004,-0.202324 0.004,-0.526859 0,-0.721188 -9.7e-4,-0.04858 -0.002,-0.07468 -0.003,-0.08029 z m -3.63575,1.177066 c 0.004,0.0043 0.006,0.0066 0.009,0.0097 -0.002,-0.003 -0.005,-0.0061 -0.009,-0.0097 z m 0.0124,0.01472 c 4.4e-4,9.04e-4 0.003,0.0031 0.003,0.0036 0,0.0014 -8.8e-4,0.0015 -0.001,0.0025 -8e-5,-0.0018 -1.7e-4,-0.0036 -0.002,-0.0062 z m -0.0124,0.0075 c 8.8e-4,6.16e-4 0.002,0.0018 0.003,0.0021 -7.9e-4,-4.75e-4 -0.002,-0.0015 -0.003,-0.0021 z m 0.0126,0.0024 c -9.3e-4,0.0011 -0.002,0.0016 -0.004,0.0015 0.002,-2.99e-4 0.003,-7.83e-4 0.004,-0.0015 z m 0.77516,0.02758 c 0.003,3.7e-4 0.006,0.0015 0.008,0.0035 4.4e-4,4.31e-4 -0.001,0.0024 -0.001,0.0032 -8.8e-4,-0.0065 -0.0145,-0.0052 -0.0398,0.0041 0.0118,-0.0068 0.0245,-0.01181 0.0333,-0.01082 z m -4.74429,5.241429 c -0.002,0.0024 -0.004,0.01062 -0.005,0.02417 -0.001,0.02452 0.004,0.03826 0.0122,0.03053 0.008,-0.0077 0.009,-0.02778 0.002,-0.04457 -0.004,-0.0093 -0.007,-0.01258 -0.009,-0.01013 z m 7.28722,0.04557 c 7e-4,0.02253 0.001,0.03242 0.002,0.02922 -9e-4,0.0037 -0.002,-0.0063 -0.002,-0.02922 z m -1.6638,0.25127 c -0.30992,0 -0.61984,8.8e-4 -0.85495,0.0026 -0.47023,0.0035 -0.0855,0.0064 0.85495,0.0064 0.94046,0 1.32519,-0.0029 0.85496,-0.0064 -0.23511,-0.0018 -0.54503,-0.0026 -0.85496,-0.0026 z m 4.9763,0.01677 c 2.7e-4,7.92e-4 -1e-5,0.0014 -5.2e-4,0.0014 2.6e-4,-2.64e-4 3.5e-4,-10e-4 5.2e-4,-0.0014 z m -0.11618,0.278852 c -5e-5,1.76e-4 7e-5,6.15e-4 -2.6e-4,6.15e-4 8e-5,-1.76e-4 8e-5,-4.39e-4 2.6e-4,-6.15e-4 z m -10.28738,0.0388 c 0.002,0.0063 -0.001,0.0081 -0.011,0.0025 0.005,-5.28e-4 0.008,-0.0014 0.011,-0.0025 z m 10.21745,0.0129 c 1e-5,2e-6 -10e-6,8.8e-5 0,8.8e-5 -0.002,-4.4e-4 -0.007,0.0065 -0.0174,0.02081 -1.7e-4,1.76e-4 -1.7e-4,4.39e-4 -3.5e-4,6.15e-4 1.8e-4,-1.76e-4 1.8e-4,-4.39e-4 3.5e-4,-6.15e-4 0.0102,-0.01441 0.0157,-0.02144 0.0175,-0.0209 z m -9.38649,0.05112 c 5.3e-4,0.01047 -0.003,0.02269 -0.009,0.03408 0.003,-0.0091 0.006,-0.02097 0.009,-0.03408 z m 9.36613,0.02822 c 0.001,0.0018 0.002,0.0035 0.003,0.0053 -9.8e-4,-0.0019 -0.002,-0.0032 -0.003,-0.0053 z m 0.004,0.0055 c 0.0136,0.0164 0.0308,0.02987 0.0382,0.0299 -0.0163,0 -0.0297,-0.01324 -0.0382,-0.0299 z m -9.38049,0.0048 c -5.3e-4,9.32e-4 -5.3e-4,0.002 -10e-4,0.003 -4.4e-4,7.04e-4 -6.1e-4,6.16e-4 -0.001,0.0012 7.9e-4,-0.0017 0.001,-0.0022 0.002,-0.0042 z m 0.14867,0.151535 c 7.9e-4,3.7e-5 0.002,7.04e-4 0.003,7.91e-4 -0.001,-8.7e-5 -0.002,-7.03e-4 -0.003,-7.03e-4 1.8e-4,4e-6 3.5e-4,-1.76e-4 6.2e-4,-1.76e-4 z m -0.004,10e-4 c -0.006,0.0014 -0.0112,0.0055 -0.0162,0.0129 2.6e-4,-5.28e-4 8e-5,-7.92e-4 4.4e-4,-0.0013 0.004,-0.0072 0.01,-0.01056 0.0158,-0.01159 z m 9.04139,0.0039 c 0.009,5.27e-4 0.0175,0.0055 0.0274,0.01427 0.0107,0.0095 0.0141,0.01179 0.0167,0.01313 -0.003,-0.0016 -0.006,-0.0028 -0.017,-0.01109 -0.0203,-0.01564 -0.0436,-0.01038 -0.0945,0.02676 0.003,-0.0029 0.005,-0.0042 0.009,-0.0073 0.0272,-0.02552 0.0438,-0.03669 0.0588,-0.03576 z m -9.89826,0.01486 c 0.003,-0.0018 0.01,0.0028 0.0223,0.01322 0.0165,0.01369 0.0374,0.01768 0.0486,0.01013 -6.2e-4,5.27e-4 -9.5e-4,3.52e-4 -0.002,9.06e-4 -0.008,0.0084 -0.0284,0.0044 -0.0444,-0.0089 -0.01,-0.0081 -0.0179,-0.01175 -0.0252,-0.01159 8e-5,-0.0013 -3.5e-4,-0.0033 2.6e-4,-0.0038 z m 0.85814,0.0041 c 0.0113,-0.0019 0.023,0.0027 0.0291,0.01259 4.3e-4,7.04e-4 10e-4,0.0011 0.002,0.0017 -0.002,-6.16e-4 -0.006,-10e-4 -0.007,-0.0016 -0.01,-0.0031 -0.0261,-0.0041 -0.0366,-0.0023 -0.003,6.15e-4 -0.005,-3.52e-4 -0.007,-0.0018 0.002,-6.16e-4 0.005,-0.0021 0.009,-0.0045 0.003,-0.0021 0.007,-0.0035 0.011,-0.0041 z m -0.85269,0.01727 c 0.008,-0.0023 0.009,0.0029 0.006,0.01468 -0.002,-0.0039 -0.004,-0.0063 -0.006,-0.01104 -5.3e-4,-0.0013 -5.3e-4,-0.0018 -10e-4,-0.003 3.5e-4,-8.8e-5 9.5e-4,-5.27e-4 10e-4,-6.15e-4 z m 0.92566,0.004 c 0.009,-8.79e-4 0.0197,0.0044 0.0257,0.01418 0.003,0.0052 0.007,0.0095 0.0114,0.01345 -0.0215,-0.01429 -0.037,-0.02342 -0.0438,-0.02544 0.002,-9.85e-4 0.004,-0.002 0.007,-0.0022 z m -0.86377,0.0184 c -0.008,0.01021 -0.0165,0.01611 -0.0249,0.01663 0.009,-0.0054 0.018,-0.01106 0.0249,-0.01663 z m 0.0437,0.04108 c -0.012,0.0064 -0.0249,0.01034 -0.0361,0.01154 0.0112,-0.0012 0.0242,-0.0051 0.0361,-0.01154 z m 0.007,0.06429 c -0.0178,0.0076 -0.0229,0.01507 -0.0148,0.03281 -0.008,-0.01463 -0.0123,-0.02567 -0.009,-0.02567 0.003,0 0.015,-0.0045 0.0237,-0.0071 z m 0.0598,0.0046 c 4e-5,5.27e-4 4.4e-4,7.91e-4 4.4e-4,0.0014 0,3.51e-4 -1.8e-4,5.27e-4 -1.8e-4,8.79e-4 -1e-5,-9.23e-4 -1.7e-4,-0.0014 -2.6e-4,-0.0022 z m 9.54875,0.0038 c -0.009,0.0075 -0.0157,0.01677 -0.0191,0.02572 0.003,-0.0089 0.0101,-0.01824 0.0191,-0.02572 z m 0.94647,4.5e-5 c 0.003,-0.0012 0.005,-0.0012 0.007,3.51e-4 9.4e-4,9.5e-4 5.3e-4,0.0034 2.7e-4,0.0057 -0.007,-0.0027 -0.0131,-0.0013 -0.0202,0.004 0.005,-0.0045 0.01,-0.0085 0.0133,-0.0099 z m -10.53934,0.0078 c -4.4e-4,0.0012 -9.3e-4,0.0023 -9.1e-4,0.004 7e-5,0.0051 0.002,0.01252 0.006,0.02222 0.004,0.0097 0.01,0.02166 0.0171,0.03585 0.0193,0.03599 0.0194,0.04694 0.009,0.03962 0.003,-0.01031 -2.6e-4,-0.02323 -0.01,-0.04103 -0.007,-0.01361 -0.0127,-0.02504 -0.0164,-0.03444 -0.004,-0.0097 -0.006,-0.01717 -0.006,-0.02222 -10e-6,-0.0017 4.4e-4,-0.0029 9.1e-4,-0.004 z m 10.4969,0.03594 c -0.0153,0.02206 -0.0274,0.04547 -0.0286,0.05702 -9e-5,-4.39e-4 -7e-4,-1.76e-4 -7e-4,-7.03e-4 4.4e-4,-0.01247 0.014,-0.03536 0.0293,-0.0563 z m -9.51894,0.0042 c 4.4e-4,-7.03e-4 0.008,0.0019 0.0115,0.0026 -0.003,2.64e-4 -0.006,7.92e-4 -0.007,0.0016 -7e-4,-8.79e-4 -0.005,-0.0038 -0.005,-0.0042 z m 9.53784,0.01077 c -0.002,0.0023 -0.003,0.0041 -0.004,0.0065 -0.004,0.0056 -0.007,0.0076 -0.0115,0.01209 10e-4,-0.0018 0.002,-0.0021 0.003,-0.004 0.004,-0.0055 0.008,-0.01001 0.0125,-0.01449 z m -0.0531,0.07997 c 0.003,0.0011 9e-5,0.0079 -0.005,0.01772 -0.003,-0.0083 -0.0112,-0.0058 -0.0258,0.0057 0.0149,-0.01561 0.0271,-0.0251 0.031,-0.02345 z m -10.38498,0.0073 c 3.5e-4,0 5.3e-4,1.76e-4 8.8e-4,2.64e-4 -0.009,3.52e-4 -0.0151,0.0054 -0.0189,0.01318 -0.004,-0.0094 0.002,-0.0134 0.018,-0.0134 z m 10.32609,0.05194 c 0.003,7.04e-4 0.006,0.0011 0.011,0.0015 -9e-5,5.6e-5 -1.8e-4,8.1e-5 -2.7e-4,1.76e-4 -0.0119,0.0071 -0.0138,0.0051 -0.0107,-0.0016 z m -5.14809,0.106461 c -0.62617,0 -1.25234,8.8e-4 -1.72737,0.0025 -0.95004,0.0034 -0.17273,0.0061 1.72737,0.0061 1.90009,0 2.67741,-0.0027 1.72736,-0.0061 -0.47503,-0.0017 -1.1012,-0.0025 -1.72736,-0.0025 z m 5.01324,0.08838 c -0.003,0.005 -0.006,0.009 -0.0102,0.01141 0.004,-0.0039 0.007,-0.0075 0.0102,-0.01141 z m -9.96387,0.01822 c 0.004,0.0038 0.005,0.0055 0.008,0.0085 -0.002,-0.0026 -0.005,-0.0053 -0.008,-0.0085 z m 0.0146,0.01672 c 8e-4,0.0012 0.004,0.0044 0.004,0.005 0,0.0014 -8.8e-4,0.0013 -0.001,0.0023 -1.7e-4,-0.0019 -0.001,-0.0043 -0.003,-0.0073 z m -0.0133,0.0053 c 0.001,0.0012 0.003,0.0029 0.004,0.0036 -0.001,-7.92e-4 -0.003,-0.0025 -0.004,-0.0036 z m 0.0141,0.007 c -3.5e-4,1.76e-4 -7.9e-4,1.76e-4 -0.001,1.76e-4 3.6e-4,-8.5e-5 9.1e-4,-6.7e-5 0.001,-1.76e-4 z m 0.28566,0.212149 c 8e-4,-0.0017 0.004,8.8e-5 0.0105,0.0057 0.002,0.0014 0.003,0.0039 0.004,0.0056 -0.003,0.0012 -0.005,0.0038 -0.007,0.0077 -7.9e-4,-0.0015 -5.3e-4,-0.002 -0.001,-0.0036 -0.005,-0.0085 -0.007,-0.01373 -0.006,-0.01545 z m 0.43798,0.196972 c 0.002,2.64e-4 0.003,2.64e-4 0.005,0.0014 0.0109,0.0067 0.0137,0.02199 0.006,0.0339 -0.009,0.01513 -0.0158,0.02179 -0.02,0.01995 0.003,-0.0028 0.005,-0.0048 0.008,-0.0079 0.0195,-0.02344 0.0194,-0.03508 9.1e-4,-0.04735 z m -0.0122,0.01445 c 2e-5,0.0043 -7.1e-4,0.0087 -0.002,0.0134 -4e-5,-0.0019 -3.5e-4,-0.0027 -3.5e-4,-0.0048 0,-0.0039 0.002,-0.0055 0.002,-0.0086 z" /></g></g></svg>
