<?xml version="1.0" encoding="UTF-8" standalone="no"?>
<!-- Created with Inkscape (http://www.inkscape.org/) -->

<svg
   width="29.342667"
   height="32.5443"
   viewBox="0 0 7.7635808 8.6106794"
   version="1.1"
   id="svg5"
   xml:space="preserve"
   inkscape:version="1.2.2 (b0a8486541, 2022-12-01)"
   sodipodi:docname="antarmuka.svg"
   inkscape:export-filename="../../../../Desktop/antarmuka.png"
   inkscape:export-xdpi="96"
   inkscape:export-ydpi="96"
   xmlns:inkscape="http://www.inkscape.org/namespaces/inkscape"
   xmlns:sodipodi="http://sodipodi.sourceforge.net/DTD/sodipodi-0.dtd"
   xmlns="http://www.w3.org/2000/svg"
   xmlns:svg="http://www.w3.org/2000/svg"><sodipodi:namedview
     id="namedview7"
     pagecolor="#ffffff"
     bordercolor="#111111"
     borderopacity="1"
     inkscape:showpageshadow="0"
     inkscape:pageopacity="0"
     inkscape:pagecheckerboard="1"
     inkscape:deskcolor="#d1d1d1"
     inkscape:document-units="cm"
     showgrid="false"
     inkscape:zoom="0.68313753"
     inkscape:cx="519.6611"
     inkscape:cy="282.51998"
     inkscape:window-width="1366"
     inkscape:window-height="717"
     inkscape:window-x="0"
     inkscape:window-y="27"
     inkscape:window-maximized="1"
     inkscape:current-layer="layer8"
     showguides="true" /><defs
     id="defs2" /><g
     inkscape:groupmode="layer"
     id="layer8"
     inkscape:label="menu_jeda"
     sodipodi:insensitive="true"
     transform="translate(-172.97747,-67.628198)"><g
       id="g525"
       inkscape:label="tombol1"
       transform="translate(1.5258789e-5,21.660494)"
       sodipodi:insensitive="true"
       style="display:inline"><path
         style="fill:#333333;fill-opacity:1;stroke-width:0.999998"
         d="m 173.5044,54.549097 c -0.1601,-0.04906 -0.36909,-0.269777 -0.44757,-0.47269 -0.063,-0.162957 -0.0665,-0.333961 -0.0756,-3.710774 -0.0104,-3.878314 -0.0139,-3.805925 0.19352,-4.103913 0.0525,-0.07534 0.16604,-0.174971 0.25246,-0.221401 0.13476,-0.0724 0.18942,-0.08182 0.38407,-0.06614 0.12581,0.01013 0.30672,0.05435 0.40593,0.0992 0.40455,0.182899 6.03469,3.439842 6.199,3.586015 0.43286,0.385085 0.4331,0.854709 6.5e-4,1.227233 -0.17007,0.146498 -5.57259,3.271674 -6.10532,3.531727 -0.30869,0.150681 -0.59218,0.196607 -0.80709,0.130747 z"
         id="path4595" /></g></g></svg>
