<?xml version="1.0" encoding="UTF-8" standalone="no"?>
<!-- Created with Inkscape (http://www.inkscape.org/) -->

<svg
   width="33.599594"
   height="41.755486"
   viewBox="0 0 8.8898929 11.047806"
   version="1.1"
   id="svg5"
   xml:space="preserve"
   xmlns="http://www.w3.org/2000/svg"
   xmlns:svg="http://www.w3.org/2000/svg"><defs
     id="defs2" /><g
     id="layer8"
     transform="translate(-172.4141,-126.02263)"><g
       id="g501"
       transform="translate(3.0517579e-5,81.559956)"
       style="display:inline"><path
         style="fill:#333333;fill-opacity:1;stroke-width:1"
         d="m 179.77101,135.80314 c 0.008,-1.20184 0.012,-1.2763 0.0602,-1.45028 0.0607,-0.21861 0.19221,-0.4898 0.32106,-0.66217 l 0.0935,-0.12506 v -0.7223 c 0,-1.00537 0.0207,-0.96925 -0.56084,-0.98033 l -0.38781,-0.007 -0.0521,0.24065 c -0.16622,0.76798 -0.73645,1.43328 -1.48559,1.73326 -0.92276,0.36949 -2.02824,0.11766 -2.69734,-0.61446 -0.32195,-0.35225 -0.50449,-0.7344 -0.61537,-1.28826 l -0.0127,-0.0637 -0.41443,-0.01 c -0.3632,-0.009 -0.43225,-0.0169 -0.55852,-0.0662 -0.1989,-0.0777 -0.43818,-0.31641 -0.51822,-0.51699 -0.056,-0.14041 -0.0576,-0.16492 -0.0653,-0.95638 l -0.008,-0.81227 -0.0829,-0.10858 c -0.13032,-0.17072 -0.20392,-0.30875 -0.28415,-0.53285 l -0.0744,-0.20775 -0.007,-1.31492 -0.007,-1.31492 h 0.77138 0.77138 l -0.01,1.26689 c -0.008,1.21428 -0.0108,1.27476 -0.0616,1.45657 -0.0561,0.20252 -0.22188,0.53664 -0.34064,0.68659 l -0.0723,0.0913 v 0.72382 c 0,0.80408 0.007,0.85179 0.14865,0.93782 0.0704,0.0429 0.12079,0.0485 0.44034,0.0486 l 0.36085,9e-5 0.0433,-0.21015 c 0.1836,-0.8922 0.88089,-1.61705 1.78862,-1.85935 0.26373,-0.0704 0.76369,-0.0865 1.04478,-0.0336 0.59009,0.11102 1.08667,0.4089 1.46359,0.87801 0.25931,0.32273 0.41101,0.6675 0.50894,1.15665 l 0.0127,0.0637 0.41443,0.01 c 0.36321,0.009 0.43224,0.0169 0.55853,0.0662 0.1989,0.0777 0.43818,0.31641 0.5182,0.51699 0.056,0.14041 0.0576,0.16492 0.0653,0.95637 l 0.008,0.81228 0.0829,0.10858 c 0.13032,0.17072 0.20392,0.30875 0.28415,0.53285 l 0.0744,0.20774 0.007,1.31491 0.007,1.31493 h -0.77138 -0.77137 z m 0.93094,0.51036 v -0.15612 h -0.15612 -0.15611 v 0.1401 c 0,0.077 0.007,0.1473 0.016,0.15612 0.008,0.008 0.079,0.016 0.15612,0.016 h 0.14009 z m 0.024,-1.17354 c 0,-0.21616 -0.0108,-0.45122 -0.0241,-0.52238 -0.0273,-0.14579 -0.116,-0.38153 -0.14382,-0.38153 -0.0349,0 -0.12004,0.23721 -0.14362,0.4003 -0.013,0.0903 -0.0239,0.32891 -0.0243,0.53034 l -4.5e-4,0.36625 h 0.16812 0.16812 z m -3.55448,-1.77892 c 0.4086,-0.0743 0.68694,-0.22082 0.98438,-0.51827 0.23024,-0.23023 0.33803,-0.39696 0.43644,-0.67501 0.14499,-0.40975 0.14499,-0.83344 0,-1.24319 -0.21934,-0.6198 -0.76137,-1.0781 -1.40858,-1.19096 -0.26452,-0.0461 -0.38441,-0.0461 -0.64893,0 -0.75771,0.13214 -1.35596,0.73038 -1.48809,1.48809 -0.0462,0.26452 -0.0462,0.38441 0,0.64893 0.11025,0.63215 0.56372,1.17962 1.1583,1.39837 0.32621,0.12001 0.64539,0.15039 0.96648,0.0921 z m -1.183,-0.9441 -0.20984,-0.20983 0.32984,-0.33047 0.32984,-0.33048 -0.32984,-0.33047 -0.32984,-0.33047 0.20984,-0.20983 0.20982,-0.20984 0.33048,0.32984 0.33047,0.32984 0.33047,-0.32984 0.33048,-0.32984 0.20984,0.20984 0.20982,0.20983 -0.32983,0.33047 -0.32984,0.33047 0.32984,0.33048 0.32983,0.33047 -0.20982,0.20983 -0.20984,0.20984 -0.33048,-0.32984 -0.33047,-0.32984 -0.33047,0.32984 -0.33048,0.32984 z M 173.26,128.69372 c 0.049,-0.12385 0.0554,-0.18758 0.0637,-0.63599 l 0.01,-0.49835 h -0.15821 -0.1582 v 0.43926 c 0,0.31304 0.0108,0.47902 0.036,0.57762 0.0434,0.16646 0.10224,0.28649 0.13157,0.26835 0.0119,-0.007 0.0459,-0.0752 0.0758,-0.15089 z m 0.0688,-1.91489 v -0.15611 h -0.15612 -0.15611 v 0.15611 0.15611 h 0.15611 0.15612 z"
         id="path5726"
         transform="translate(-3.0517579e-5,-81.559956)" /></g></g></svg>
