<?xml version="1.0" encoding="UTF-8" standalone="no"?>
<!-- Created with Inkscape (http://www.inkscape.org/) -->

<svg
   width="37.700867"
   height="37.663994"
   viewBox="0 0 9.9750209 9.965265"
   version="1.1"
   id="svg5"
   xml:space="preserve"
   inkscape:version="1.3 (0e150ed6c4, 2023-07-21)"
   sodipodi:docname="antarmuka.svg"
   inkscape:export-filename="../../godot4_perf_test/tmp/layer8.png"
   inkscape:export-xdpi="96"
   inkscape:export-ydpi="96"
   xmlns:inkscape="http://www.inkscape.org/namespaces/inkscape"
   xmlns:sodipodi="http://sodipodi.sourceforge.net/DTD/sodipodi-0.dtd"
   xmlns="http://www.w3.org/2000/svg"
   xmlns:svg="http://www.w3.org/2000/svg"><sodipodi:namedview
     id="namedview7"
     pagecolor="#ffffff"
     bordercolor="#111111"
     borderopacity="1"
     inkscape:showpageshadow="0"
     inkscape:pageopacity="0"
     inkscape:pagecheckerboard="1"
     inkscape:deskcolor="#d1d1d1"
     inkscape:document-units="px"
     showgrid="false"
     inkscape:zoom="0.95849188"
     inkscape:cx="781.43593"
     inkscape:cy="231.61386"
     inkscape:window-width="1366"
     inkscape:window-height="696"
     inkscape:window-x="0"
     inkscape:window-y="0"
     inkscape:window-maximized="1"
     inkscape:current-layer="layer9"
     showguides="true" /><defs
     id="defs2" /><g
     inkscape:groupmode="layer"
     id="layer9"
     inkscape:label="edit_objek"
     transform="translate(-250.43721,-21.788732)"><g
       id="g116"
       inkscape:label="skala"
       sodipodi:insensitive="true"><path
         style="fill:#000000;stroke-width:0.0736451"
         d="m 251.17861,31.734224 c -0.33736,-0.0654 -0.64815,-0.374588 -0.71898,-0.71526 -0.0299,-0.144069 -0.0299,-3.176657 7e-5,-3.320315 0.0663,-0.317899 0.29803,-0.582193 0.61663,-0.70327 0.11009,-0.04184 0.12999,-0.04257 1.1579,-0.04278 1.03085,-2.21e-4 1.04668,3.78e-4 1.10092,0.04055 0.10604,0.07854 0.14699,0.161749 0.13861,0.281631 -0.009,0.129598 -0.0531,0.197768 -0.1628,0.252139 -0.0762,0.03774 -0.11614,0.03925 -1.03346,0.03925 -0.95086,0 -0.95455,1.48e-4 -1.0411,0.04384 -0.0571,0.02881 -0.10187,0.07056 -0.13066,0.121782 l -0.0438,0.07794 0.005,1.562269 c 0.005,1.543763 0.005,1.562907 0.0449,1.616071 0.0221,0.02959 0.0644,0.07188 0.094,0.09398 0.0532,0.03969 0.0727,0.04024 1.61408,0.04539 1.54264,0.0052 1.56122,0.0048 1.64347,-0.03506 0.16207,-0.07846 0.15337,-0.01766 0.16435,-1.149016 l 0.01,-1.00349 0.0446,-0.07169 c 0.0598,-0.09621 0.19287,-0.160959 0.30094,-0.146464 0.093,0.01247 0.16281,0.05922 0.22506,0.150687 l 0.0445,0.06535 -0.006,1.063003 -0.006,1.063004 -0.0731,0.153043 c -0.0866,0.181396 -0.24829,0.351526 -0.40725,0.42854 -0.23171,0.11226 -0.19749,0.110331 -1.91558,0.108008 -0.8685,-0.0012 -1.61854,-0.0098 -1.66677,-0.01913 z m 0.77324,-1.292763 c -0.13963,-0.05022 -0.20817,-0.14696 -0.20817,-0.293815 0,-0.04946 0.01,-0.109085 0.0215,-0.132493 0.0118,-0.02341 1.43448,-1.456459 3.16146,-3.184557 l 3.13995,-3.141995 h -0.60011 c -0.47744,0 -0.61087,-0.0056 -0.65274,-0.02738 -0.17414,-0.09061 -0.22668,-0.318809 -0.10632,-0.461847 0.10744,-0.127679 0.0762,-0.123978 1.1016,-0.130316 0.5921,-0.0037 0.97126,0.0017 1.04162,0.0147 0.13198,0.0244 0.2292,0.106465 0.25952,0.219081 0.0125,0.04655 0.0177,0.434031 0.0142,1.05635 -0.005,0.962298 -0.006,0.98399 -0.0463,1.037833 -0.10956,0.147808 -0.30064,0.189217 -0.43906,0.09515 -0.12951,-0.088 -0.13397,-0.113251 -0.13397,-0.759188 0,-0.317208 -0.007,-0.576741 -0.0146,-0.576741 -0.008,0 -1.41756,1.403497 -3.13225,3.118883 -1.71469,1.715386 -3.13954,3.13042 -3.16633,3.14452 -0.0811,0.04266 -0.16166,0.04998 -0.23998,0.02181 z m 3.8138,-1.957365 c -0.18912,-0.115323 -0.21446,-0.336356 -0.0562,-0.489809 l 0.0698,-0.06764 1.79644,-0.0097 c 1.77508,-0.0096 1.7975,-0.01023 1.88512,-0.05077 0.12318,-0.057 0.21564,-0.143339 0.27232,-0.254315 l 0.0482,-0.09436 v -2.367458 -2.367456 l -0.0422,-0.07794 c -0.05,-0.09242 -0.16482,-0.205537 -0.25983,-0.256033 -0.0652,-0.03467 -0.17115,-0.0365 -2.43566,-0.04205 -1.67124,-0.0041 -2.38904,4.32e-4 -2.44085,0.01549 -0.092,0.02669 -0.20011,0.120313 -0.24845,0.21507 -0.0721,0.14135 -0.0773,0.277537 -0.0774,2.033234 -1.5e-4,1.705646 -2.7e-4,1.712663 -0.0411,1.778634 -0.0491,0.07939 -0.16516,0.142963 -0.26108,0.142963 -0.0959,0 -0.21203,-0.06358 -0.26109,-0.142963 -0.0408,-0.06606 -0.0409,-0.0709 -0.0406,-1.885803 2.7e-4,-1.961465 -0.001,-1.928917 0.10335,-2.163175 0.12099,-0.271014 0.37977,-0.500052 0.64873,-0.57418 0.12852,-0.03542 0.23794,-0.03699 2.57961,-0.03699 2.70515,0 2.51674,-0.0089 2.79052,0.131259 0.26039,0.133265 0.466,0.380148 0.57584,0.691411 0.03,0.08506 0.0334,0.299564 0.0387,2.474306 0.006,2.64864 0.0115,2.534444 -0.12451,2.810745 -0.0927,0.188369 -0.29336,0.39197 -0.48438,0.49155 -0.26563,0.138478 -0.17408,0.132889 -2.17541,0.132808 -1.7281,-7e-5 -1.80196,-0.0015 -1.85976,-0.03677 z"
         id="path7" /></g></g></svg>
