<?xml version="1.0" encoding="UTF-8" standalone="no"?>
<!-- Created with Inkscape (http://www.inkscape.org/) -->

<svg
   width="27.582947"
   height="43.491501"
   viewBox="0 0 7.2979882 11.507126"
   version="1.1"
   id="svg5"
   xml:space="preserve"
   xmlns="http://www.w3.org/2000/svg"
   xmlns:svg="http://www.w3.org/2000/svg"><defs
     id="defs2" /><g
     id="layer1"
     style="display:inline"
     transform="translate(-9.1426938,-140.20478)"><g
       id="g547"
       transform="translate(5.2916666,-5.2916666)"><path
         style="fill:#2b0000;stroke-width:1"
         d="m 6.0464334,156.04511 c -1.2399544,-0.61568 -1.954731,-0.98393 -2.0074509,-1.03423 -0.045029,-0.0429 -0.1057393,-0.12228 -0.1349135,-0.17625 l -0.053042,-0.0981 v -4.3908 -4.39082 l 0.067432,-0.11471 c 0.087617,-0.14905 0.2214995,-0.25798 0.3724212,-0.303 0.1834521,-0.0547 6.2237418,-0.0542 6.4081588,7.1e-4 0.162656,0.0483 0.329988,0.1973 0.397296,0.35376 l 0.05268,0.12247 -0.0063,4.2754 c -0.0062,4.1728 -0.0075,4.27771 -0.05385,4.37116 -0.02613,0.0527 -0.08239,0.13063 -0.125017,0.17326 -0.04263,0.0426 -0.120598,0.0989 -0.173259,0.12501 -0.09018,0.0447 -0.173518,0.0482 -1.4326183,0.0598 l -1.3368678,0.0123 -0.00641,0.98732 c -0.00351,0.54303 -0.014565,0.98636 -0.024532,0.98518 -0.00997,-0.001 -0.8846301,-0.4324 -1.9436993,-0.95827 z m 1.5451383,-4.01299 -1.852e-4,-4.31109 -1.6444807,-0.84084 c -0.9044644,-0.46246 -1.6549689,-0.83435 -1.6677871,-0.82643 -0.014577,0.009 -0.023305,1.61501 -0.023305,4.28794 0,3.95423 0.00307,4.27789 0.041011,4.33207 0.027347,0.039 0.5810425,0.32637 1.661886,0.86243 0.8914813,0.44213 1.6236356,0.80458 1.6270083,0.80544 0.00336,7.1e-4 0.00603,-1.93842 0.0059,-4.30952 z m -0.9318954,-0.64391 v -0.44153 h 0.2085021 0.2085018 v 0.44153 0.44154 H 6.8681784 6.6596763 Z m 4.0072577,3.14872 0.06467,-0.0647 v -4.20538 -4.20539 l -0.07171,-0.0717 -0.0717,-0.0717 H 7.7972873 c -1.5811118,0 -2.7808104,0.009 -2.7676084,0.0213 0.012816,0.0117 0.6883633,0.3604 1.5012155,0.77484 l 1.4779142,0.75353 v 3.56691 3.56691 h 1.2967285 1.2967279 z"
         id="path540" /></g></g></svg>
