<?xml version="1.0" encoding="UTF-8" standalone="no"?>
<!-- Created with Inkscape (http://www.inkscape.org/) -->

<svg
   width="29.342667"
   height="32.5443"
   viewBox="0 0 7.7635808 8.6106794"
   version="1.1"
   id="svg5"
   xml:space="preserve"
   inkscape:version="1.3.2 (091e20ef0f, 2023-11-25, custom)"
   sodipodi:docname="ikon_mode_render.svg"
   inkscape:export-filename="../../../../Desktop/antarmuka.png"
   inkscape:export-xdpi="96"
   inkscape:export-ydpi="96"
   xmlns:inkscape="http://www.inkscape.org/namespaces/inkscape"
   xmlns:sodipodi="http://sodipodi.sourceforge.net/DTD/sodipodi-0.dtd"
   xmlns="http://www.w3.org/2000/svg"
   xmlns:svg="http://www.w3.org/2000/svg"><sodipodi:namedview
     id="namedview7"
     pagecolor="#ffffff"
     bordercolor="#111111"
     borderopacity="1"
     inkscape:showpageshadow="0"
     inkscape:pageopacity="0"
     inkscape:pagecheckerboard="1"
     inkscape:deskcolor="#d1d1d1"
     inkscape:document-units="cm"
     showgrid="false"
     inkscape:zoom="15.457638"
     inkscape:cx="15.461612"
     inkscape:cy="14.2001"
     inkscape:window-width="1366"
     inkscape:window-height="749"
     inkscape:window-x="0"
     inkscape:window-y="19"
     inkscape:window-maximized="1"
     inkscape:current-layer="layer8"
     showguides="true" /><defs
     id="defs2" /><g
     inkscape:groupmode="layer"
     id="layer8"
     inkscape:label="mode_edit"
     transform="translate(-172.97747,-67.628198)"><path
       style="fill:#fffffd;fill-opacity:1;stroke-width:0.162872"
       d="m 176.39958,75.792916 c -0.0712,-0.0094 -0.26171,-0.04832 -0.42356,-0.08634 -0.32836,-0.07709 -0.42621,-0.181066 -0.33347,-0.354334 0.0588,-0.109982 0.10418,-0.1116 0.61696,-0.02198 2.12339,0.371022 4.05858,-1.244352 4.05858,-3.387804 0,-0.954212 -0.37376,-1.829763 -1.05854,-2.479698 -0.33571,-0.318613 -0.45381,-0.402473 -0.83937,-0.59597 -0.38964,-0.19554 -0.85232,-0.322466 -1.30234,-0.357262 -0.3681,-0.02845 -0.48124,-0.08169 -0.48124,-0.226366 0,-0.04203 0.0397,-0.112355 0.0882,-0.156246 0.0821,-0.07419 0.12,-0.07626 0.53968,-0.02936 1.00439,0.112237 1.79764,0.512746 2.47967,1.251942 0.66403,0.719717 0.9969,1.585489 0.9969,2.592969 0,1.032362 -0.33613,1.884848 -1.03916,2.635633 -0.72076,0.7697 -1.64331,1.185953 -2.699,1.217774 -0.2607,0.0079 -0.5322,0.0066 -0.60331,-0.003 z m -1.81593,-0.718544 c -0.54929,-0.405099 -0.66733,-0.579359 -0.49693,-0.733582 0.11821,-0.106974 0.1725,-0.09023 0.43498,0.134094 0.1322,0.11298 0.31308,0.259403 0.40196,0.32539 0.18806,0.139628 0.21323,0.290003 0.0659,0.393253 -0.0526,0.0369 -0.10877,0.06709 -0.12455,0.06709 -0.0159,0 -0.14239,-0.08381 -0.28129,-0.186239 z m 0.71707,-0.970632 -1.01268,-0.589458 -0.0118,-1.236963 -0.0118,-1.236962 0.10702,-0.07011 c 0.10362,-0.06791 0.11951,-0.06303 0.50699,0.15593 0.22,0.124318 0.46302,0.272559 0.54005,0.329428 l 0.14005,0.103397 1.5e-4,0.525695 1.3e-4,0.525694 0.44156,0.237011 c 0.66419,0.356499 0.63548,0.309345 0.63548,1.044229 0,0.669177 -0.0407,0.812331 -0.22867,0.805162 -0.052,-0.002 -0.55022,-0.268859 -1.10721,-0.593059 z m 0.896,-0.334591 -0.0125,-0.327952 -0.31433,-0.172659 -0.31433,-0.172658 0.0126,0.336846 0.0126,0.336844 0.28012,0.162921 c 0.15405,0.0896 0.29546,0.163303 0.31424,0.163767 0.0188,4.9e-4 0.0285,-0.146736 0.0216,-0.327109 z m -1.06838,-0.597818 v -0.322472 l -0.21545,-0.109186 -0.21547,-0.109185 v 0.316677 0.316675 l 0.2047,0.113938 c 0.11253,0.06266 0.20953,0.114397 0.21544,0.114976 0.005,6.52e-4 0.0109,-0.144063 0.0109,-0.321422 z m -0.0159,-1.380281 c -0.0109,-0.02901 -0.1091,-0.102412 -0.21767,-0.163102 l -0.19744,-0.110349 6.6e-4,0.309391 6.5e-4,0.30939 0.20407,0.112686 0.20405,0.112685 0.013,-0.258973 c 0.007,-0.142436 0.003,-0.282714 -0.007,-0.311727 z m 2.0434,2.308256 c -0.0844,-0.08447 -0.0884,-0.136792 -0.0884,-1.177663 V 71.83237 l -0.92864,-0.533546 c -0.51076,-0.293449 -0.94846,-0.570552 -0.97266,-0.615786 -0.0321,-0.06011 -0.0271,-0.107565 0.0186,-0.176309 0.0647,-0.09696 2.0063,-1.236032 2.10695,-1.236032 0.0769,0 2.06467,1.145482 2.109,1.215376 0.0195,0.03074 0.0358,0.590982 0.0361,1.245014 6.6e-4,1.079376 -0.005,1.195187 -0.0747,1.254547 -0.0967,0.08382 -1.92917,1.142159 -2.0368,1.176319 -0.0509,0.01614 -0.11405,-0.0072 -0.1695,-0.06265 z m 1.31296,-1.072797 0.51627,-0.299977 0.0118,-0.866059 c 0.005,-0.476333 0.003,-0.866059 -0.007,-0.866059 -0.0109,0 -0.34529,0.189544 -0.74424,0.421212 l -0.72536,0.421213 -0.0118,0.875254 -0.0118,0.875254 0.22797,-0.130431 c 0.12539,-0.07174 0.46031,-0.26542 0.74427,-0.430407 z m -0.82385,-1.758149 c 0.19195,-0.110041 0.52966,-0.305852 0.75048,-0.435135 l 0.40146,-0.235061 -0.73918,-0.42672 c -0.40658,-0.234698 -0.75037,-0.426724 -0.76404,-0.426724 -0.043,0 -1.47599,0.83578 -1.47481,0.860176 9e-4,0.0196 1.40905,0.848989 1.4598,0.859838 0.01,0.0021 0.17436,-0.08634 0.36629,-0.196374 z m -4.17139,2.513832 c -0.12037,-0.120361 -0.37067,-0.751285 -0.37067,-0.934318 0,-0.0996 0.027,-0.143894 0.1111,-0.182203 0.16843,-0.07674 0.23876,-0.0044 0.39034,0.401578 0.0743,0.199051 0.16159,0.426626 0.19393,0.505722 0.055,0.134642 0.0523,0.149063 -0.043,0.226238 -0.13029,0.105574 -0.16099,0.103724 -0.28172,-0.01702 z m -0.43223,-1.821266 c -0.0804,-0.08038 -0.0821,-0.124845 -0.0209,-0.564314 0.0665,-0.47786 0.13219,-0.617663 0.29045,-0.617663 0.21633,0 0.24136,0.0777 0.16283,0.505552 -0.0382,0.20782 -0.0693,0.436998 -0.0693,0.509285 4e-5,0.07229 -0.0232,0.154705 -0.0516,0.183146 -0.0724,0.07251 -0.23114,0.06436 -0.31152,-0.01601 z m 0.58146,-1.770939 c -0.049,-0.03427 -0.0891,-0.105104 -0.0891,-0.157408 0,-0.192785 0.56497,-0.89116 0.72092,-0.89116 0.0934,0 0.22713,0.126011 0.22713,0.214212 0,0.03113 -0.0841,0.155649 -0.18702,0.27671 -0.10286,0.12106 -0.23992,0.300608 -0.30456,0.398989 -0.13356,0.203285 -0.23886,0.24875 -0.36748,0.158657 z"
       id="path1" /></g></svg>
