<?xml version="1.0" encoding="UTF-8" standalone="no"?>
<!-- Created with Inkscape (http://www.inkscape.org/) -->

<svg
   width="33"
   height="33"
   viewBox="0 0 8.7312498 8.73125"
   version="1.1"
   id="svg1"
   inkscape:version="1.4.2 (ebf0e940d0, 2025-05-08)"
   sodipodi:docname="ikon_properti_objek.svg"
   xml:space="preserve"
   xmlns:inkscape="http://www.inkscape.org/namespaces/inkscape"
   xmlns:sodipodi="http://sodipodi.sourceforge.net/DTD/sodipodi-0.dtd"
   xmlns="http://www.w3.org/2000/svg"
   xmlns:svg="http://www.w3.org/2000/svg"><sodipodi:namedview
     id="namedview1"
     pagecolor="#3dba48"
     bordercolor="#000000"
     borderopacity="0.25"
     inkscape:showpageshadow="2"
     inkscape:pageopacity="0.0"
     inkscape:pagecheckerboard="true"
     inkscape:deskcolor="#d1d1d1"
     inkscape:document-units="px"
     inkscape:zoom="12.706495"
     inkscape:cx="11.450837"
     inkscape:cy="16.172832"
     inkscape:window-width="1440"
     inkscape:window-height="822"
     inkscape:window-x="0"
     inkscape:window-y="0"
     inkscape:window-maximized="1"
     inkscape:current-layer="layer1" /><defs
     id="defs1" /><g
     inkscape:label="Lapis 1"
     inkscape:groupmode="layer"
     id="layer1"><path
       style="fill:#ffffff;stroke-width:0.147285"
       d="M 2.201785,8.7073206 C 1.3377457,8.575168 0.58481207,7.9959167 0.21987762,7.1825934 0.00205105,6.6971257 0.00109075,6.6847582 0.00109075,4.3633251 c 0,-2.3431879 -2.9456727e-4,-2.3388276 0.23298069,-2.8447409 0.26798583,-0.5810396 0.66680457,-0.98518784 1.24784386,-1.26452106 0.5358656,-0.25761596 0.5093868,-0.25527207 2.883709,-0.25527207 2.3428622,0 2.338476,-3.5348e-4 2.8447418,0.23279217 C 7.8897768,0.54447305 8.3737246,1.0916495 8.624375,1.8303365 L 8.7301592,2.142089 v 2.2212361 2.221236 L 8.624375,6.8963134 C 8.3754699,7.62986 7.9052108,8.1690837 7.2403076,8.4833611 6.7267954,8.7260802 6.7784275,8.7214069 4.5020172,8.7312499 3.355352,8.7362134 2.3202475,8.7254322 2.201785,8.7073206 Z M 6.3876152,7.8520035 C 7.1181513,7.7323671 7.7358128,7.1163816 7.8538821,6.3897158 7.9044081,6.0787545 7.9030221,2.6820944 7.8522325,2.3564188 7.7358556,1.6101124 7.1288927,0.99604207 6.3876107,0.8746467 6.0874535,0.82549179 2.6421424,0.82584984 2.3392295,0.87507383 1.6247666,0.99116017 1.015677,1.5909061 0.87869642,2.3132017 0.8274075,2.5836468 0.82626605,6.0752391 0.87737086,6.3897221 0.9924134,7.0977638 1.6151637,7.7329199 2.3086474,7.8495133 c 0.2684718,0.045138 3.8053704,0.047302 4.0789707,0.00249 z M 4.1902643,6.4979427 C 4.1076582,6.4559966 4.0252584,6.3701022 3.9813101,6.2801294 3.9167449,6.1479464 3.9146005,6.1161964 3.9618523,5.9920472 3.9910603,5.9153075 4.064467,5.8155647 4.1249803,5.7703966 4.2314951,5.6908924 4.2746642,5.6882728 5.4783948,5.6882728 h 1.2433915 l 0.1273835,0.1273988 c 0.105793,0.1058068 0.127382,0.1568658 0.127382,0.3012608 0,0.1443753 -0.021598,0.1954685 -0.1273422,0.3012608 L 6.7218687,6.5455921 5.5242622,6.5563969 c -1.0836023,0.00978 -1.2105896,0.00421 -1.3339979,-0.058454 z M 2.3002654,5.4427507 C 2.2359668,5.4018126 2.0299171,5.2085633 1.8423782,5.0133078 1.5191753,4.6768057 1.5013996,4.6493593 1.5013996,4.48684 c 0,-0.2088176 0.1013553,-0.3527759 0.2928769,-0.4159839 0.1895847,-0.062569 0.3538262,-7.11e-5 0.5648365,0.2149331 L 2.5306126,4.4605335 3.0204003,3.9759087 C 3.2897853,3.7093651 3.5621911,3.4715129 3.6257488,3.4473484 3.9123205,3.338394 4.1902643,3.5451841 4.1902643,3.8673481 V 4.0473498 L 3.4758485,4.7646992 C 2.7945938,5.4487528 2.7534454,5.4828641 2.5893026,5.4996161 2.4638471,5.5124195 2.3854725,5.4970003 2.3002654,5.4427507 Z M 5.0948098,4.7689613 C 4.8452021,4.6941029 4.7413223,4.3657127 4.8900753,4.1217492 5.0027333,3.9369852 5.1705494,3.9069667 6.0072821,3.9219062 l 0.7146308,0.012759 0.1273187,0.1273988 c 0.1057195,0.1057845 0.1273202,0.1568962 0.1273202,0.3012608 0,0.1443645 -0.021601,0.1954764 -0.1273202,0.3012608 l -0.1273187,0.1273988 -0.7494842,0.0077 C 5.5602115,4.8039221 5.165284,4.7900965 5.0948098,4.7689606 Z M 4.1902643,2.990728 C 4.1076582,2.9487819 4.0252584,2.8628874 3.9813101,2.7729146 3.9167449,2.6407317 3.9146005,2.6089817 3.9618523,2.4848324 3.9910603,2.4080927 4.064467,2.3083499 4.1249803,2.2631819 4.2314951,2.1836776 4.2746642,2.181058 5.4783948,2.181058 h 1.2433915 l 0.1273835,0.1273989 c 0.105793,0.1058067 0.127382,0.1568657 0.127382,0.3012608 0,0.1443753 -0.021598,0.1954685 -0.1273422,0.3012608 L 6.7218687,3.0383773 5.5242622,3.0491821 c -1.0836023,0.00978 -1.2105896,0.00421 -1.3339979,-0.058454 z"
       id="path1" /></g></svg>
