<?xml version="1.0" encoding="UTF-8" standalone="no"?>
<!-- Created with Inkscape (http://www.inkscape.org/) -->

<svg
   width="40.093811"
   height="45.139256"
   viewBox="0 0 10.608154 11.943095"
   version="1.1"
   id="svg5"
   xml:space="preserve"
   inkscape:version="1.3 (0e150ed6c4, 2023-07-21)"
   sodipodi:docname="antarmuka.svg"
   inkscape:export-filename="../../godot4_perf_test/tmp/layer8.png"
   inkscape:export-xdpi="96"
   inkscape:export-ydpi="96"
   xmlns:inkscape="http://www.inkscape.org/namespaces/inkscape"
   xmlns:sodipodi="http://sodipodi.sourceforge.net/DTD/sodipodi-0.dtd"
   xmlns="http://www.w3.org/2000/svg"
   xmlns:svg="http://www.w3.org/2000/svg"><sodipodi:namedview
     id="namedview7"
     pagecolor="#ffffff"
     bordercolor="#111111"
     borderopacity="1"
     inkscape:showpageshadow="0"
     inkscape:pageopacity="0"
     inkscape:pagecheckerboard="1"
     inkscape:deskcolor="#d1d1d1"
     inkscape:document-units="px"
     showgrid="false"
     inkscape:zoom="0.95849188"
     inkscape:cx="781.43593"
     inkscape:cy="231.61386"
     inkscape:window-width="1366"
     inkscape:window-height="696"
     inkscape:window-x="0"
     inkscape:window-y="0"
     inkscape:window-maximized="1"
     inkscape:current-layer="layer9"
     showguides="true" /><defs
     id="defs2" /><g
     inkscape:groupmode="layer"
     id="layer9"
     inkscape:label="edit_objek"
     transform="translate(-227.51602,-20.799818)"><g
       id="g115"
       inkscape:label="rotasi"
       sodipodi:insensitive="true"><path
         style="fill:#000000;stroke-width:0.188247"
         d="m 233.03168,32.455207 c -0.1856,-0.161027 -0.54479,-0.505411 -0.79819,-0.765297 -0.63773,-0.65407 -0.64663,-0.597663 0.24188,-1.532259 0.38643,-0.406467 0.76846,-0.766314 0.84896,-0.799658 0.17879,-0.07405 0.3464,-0.01152 0.46848,0.174817 0.12483,0.1905 0.0567,0.349897 -0.31279,0.732703 -0.19721,0.204271 -0.29754,0.340776 -0.25049,0.340776 0.18177,0 0.83372,-0.149739 1.14298,-0.262517 0.78569,-0.286527 1.62216,-0.92317 2.10863,-1.604898 0.96473,-1.351938 1.11777,-3.106588 0.3997,-4.58258 -0.58079,-1.193762 -1.53485,-1.997449 -2.84578,-2.39721 -0.40176,-0.122519 -0.51827,-0.135498 -1.21633,-0.135498 -0.69544,0 -0.81543,0.01325 -1.20973,0.133582 -1.89151,0.577241 -3.11476,2.07969 -3.29875,4.051613 -0.0394,0.421992 0.045,1.149607 0.18661,1.609866 0.30885,1.003697 1.02768,1.939603 1.93206,2.515502 0.20494,0.130507 0.40064,0.272172 0.43488,0.314812 0.17098,0.212895 -0.0378,0.606497 -0.32147,0.606235 -0.27701,-1.89e-4 -1.13747,-0.610896 -1.63645,-1.161324 -1.91338,-2.110692 -1.84305,-5.316502 0.16065,-7.322932 0.81541,-0.816514 1.79529,-1.319399 2.92925,-1.503324 3.39114,-0.550027 6.44863,2.326206 6.10141,5.739702 -0.23728,2.332691 -1.94111,4.229308 -4.21583,4.692867 -0.27802,0.05666 -0.5675,0.103016 -0.64328,0.103016 -0.12984,0 -0.11576,0.02263 0.2444,0.392734 0.43318,0.44513 0.48361,0.606125 0.25994,0.829798 -0.19144,0.191444 -0.33252,0.157597 -0.71074,-0.170526 z"
         id="path6" /></g></g></svg>
