<?xml version="1.0" encoding="UTF-8" standalone="no"?>
<!-- Created with Inkscape (http://www.inkscape.org/) -->

<svg
   width="24"
   height="24"
   viewBox="0 0 6.3500002 6.35"
   version="1.1"
   id="svg5"
   xml:space="preserve"
   sodipodi:docname="ikon_informasi_pemain.svg"
   inkscape:version="1.4 (e7c3feb100, 2024-10-09)"
   xmlns:inkscape="http://www.inkscape.org/namespaces/inkscape"
   xmlns:sodipodi="http://sodipodi.sourceforge.net/DTD/sodipodi-0.dtd"
   xmlns="http://www.w3.org/2000/svg"
   xmlns:svg="http://www.w3.org/2000/svg"><sodipodi:namedview
     id="namedview1"
     pagecolor="#ffffff"
     bordercolor="#000000"
     borderopacity="0.25"
     inkscape:showpageshadow="2"
     inkscape:pageopacity="0.0"
     inkscape:pagecheckerboard="true"
     inkscape:deskcolor="#d1d1d1"
     inkscape:zoom="20.785587"
     inkscape:cx="11.979455"
     inkscape:cy="11.979455"
     inkscape:window-width="1283"
     inkscape:window-height="761"
     inkscape:window-x="41"
     inkscape:window-y="44"
     inkscape:window-maximized="1"
     inkscape:current-layer="svg5" /><defs
     id="defs2" /><path
     style="fill:#ffffff;stroke-width:0.0747691;fill-opacity:1"
     d="M 1.1336727,4.8214838 C 1.0542555,4.7984913 0.97424735,4.704274 0.95726417,4.6137455 0.92396742,4.4362587 1.0695676,4.0782879 1.2577111,3.8750705 1.3988057,3.7226715 1.5768466,3.6114844 1.8048813,3.5333612 1.9792786,3.4736134 2.0020994,3.4706958 2.304154,3.4695247 c 0.2012783,-7.84e-4 0.3614166,0.00873 0.4398263,0.026132 l 0.1233041,0.02736 -0.1572798,0.1661551 C 2.5962388,3.8093581 2.5302279,3.9007286 2.4714098,4.0194283 2.3361884,4.2923164 2.3018024,4.6017046 2.3837027,4.8085715 2.3965834,4.8411068 2.3612467,4.8430836 1.7968675,4.8414071 1.4665697,4.8404271 1.168132,4.8314601 1.1336727,4.8214838 Z M 2.775534,4.8051701 C 2.6633038,4.7537774 2.6286439,4.6944157 2.6279649,4.5524295 2.6263873,4.2225895 2.9003898,3.8084028 3.2372871,3.6313683 3.4846617,3.5013766 3.6424933,3.4682975 4.0153526,3.4682975 c 0.368075,0 0.4974382,0.027861 0.7616318,0.1640308 0.2984094,0.1538057 0.552326,0.4996584 0.6066887,0.8263542 0.021011,0.1262654 0.019588,0.1471134 -0.014762,0.2163324 -0.020908,0.042131 -0.06314,0.09498 -0.09385,0.117443 -0.054758,0.040053 -0.078645,0.040935 -1.2364152,0.045674 -1.1258412,0.00461 -1.1844049,0.00308 -1.2631119,-0.032962 z M 1.9841534,3.134324 C 1.8011701,3.0745957 1.6528922,2.9379439 1.5666421,2.7495487 1.5275687,2.6642011 1.5157992,2.6056037 1.5145115,2.4900003 1.5122678,2.2885957 1.5619164,2.1576166 1.6952042,2.013309 2.0274748,1.6535671 2.5939124,1.7336826 2.8209704,2.1725344 c 0.050189,0.097005 0.056326,0.1291856 0.056587,0.2967397 2.53e-4,0.162313 -0.00685,0.203168 -0.052091,0.2996667 C 2.7612154,2.905986 2.6460399,3.0242234 2.5076017,3.0952563 2.4229844,3.1386736 2.3710287,3.1500741 2.2349148,3.1550909 2.1300416,3.1589563 2.0356749,3.1511413 1.9841534,3.134324 Z M 3.7539186,3.131307 C 3.6021498,3.0828453 3.4240365,2.9476784 3.3290589,2.8088899 3.2138777,2.6405783 3.1778055,2.5076846 3.1882132,2.2899991 3.1954225,2.139211 3.2060267,2.097446 3.2699344,1.9681377 3.5247147,1.4526247 4.2118066,1.3490444 4.6067264,1.7666141 4.9986512,2.1810167 4.8730476,2.8456645 4.3570746,3.0876798 4.240481,3.1423676 4.1986527,3.15122 4.0351353,3.1558144 3.9089707,3.1593591 3.8165403,3.1513044 3.7539186,3.1313081 Z"
     id="path2" /></svg>
