<?xml version="1.0" encoding="UTF-8" standalone="no"?>
<!-- Created with Inkscape (http://www.inkscape.org/) -->

<svg
   width="29.342667"
   height="32.5443"
   viewBox="0 0 7.7635808 8.6106794"
   version="1.1"
   id="svg5"
   xml:space="preserve"
   inkscape:version="1.3 (0e150ed6c4, 2023-07-21)"
   sodipodi:docname="ikon_mode_bermain.svg"
   inkscape:export-filename="../../../../Desktop/antarmuka.png"
   inkscape:export-xdpi="96"
   inkscape:export-ydpi="96"
   xmlns:inkscape="http://www.inkscape.org/namespaces/inkscape"
   xmlns:sodipodi="http://sodipodi.sourceforge.net/DTD/sodipodi-0.dtd"
   xmlns="http://www.w3.org/2000/svg"
   xmlns:svg="http://www.w3.org/2000/svg"><sodipodi:namedview
     id="namedview7"
     pagecolor="#ffffff"
     bordercolor="#111111"
     borderopacity="1"
     inkscape:showpageshadow="0"
     inkscape:pageopacity="0"
     inkscape:pagecheckerboard="1"
     inkscape:deskcolor="#d1d1d1"
     inkscape:document-units="cm"
     showgrid="false"
     inkscape:zoom="7.7288189"
     inkscape:cx="13.067973"
     inkscape:cy="16.94955"
     inkscape:window-width="1366"
     inkscape:window-height="696"
     inkscape:window-x="0"
     inkscape:window-y="0"
     inkscape:window-maximized="1"
     inkscape:current-layer="layer8"
     showguides="true" /><defs
     id="defs2" /><g
     inkscape:groupmode="layer"
     id="layer8"
     inkscape:label="mode_bermain"
     transform="translate(-172.97747,-67.628198)"><path
       style="display:inline;fill:#fffffb;fill-opacity:1;stroke-width:0.999998"
       d="m 174.03357,54.549097 c -0.1601,-0.04906 -0.36909,-0.269777 -0.44757,-0.47269 -0.063,-0.162957 -0.0665,-0.333961 -0.0756,-3.710774 -0.0104,-3.878314 -0.0139,-3.805925 0.19352,-4.103913 0.0525,-0.07534 0.16604,-0.174971 0.25246,-0.221401 0.13476,-0.0724 0.18942,-0.08182 0.38407,-0.06614 0.12581,0.01013 0.30672,0.05435 0.40593,0.0992 0.40455,0.182899 4.97635,3.439842 5.14066,3.586015 0.43286,0.385085 0.4331,0.854709 6.5e-4,1.227233 -0.17007,0.146498 -4.51425,3.271674 -5.04698,3.531727 -0.30869,0.150681 -0.59218,0.196607 -0.80709,0.130747 z"
       id="path4595"
       transform="translate(1.4304134e-5,21.660494)"
       sodipodi:nodetypes="cccccccccccc" /></g></svg>
