<?xml version="1.0" encoding="UTF-8" standalone="no"?>
<!-- Created with Inkscape (http://www.inkscape.org/) -->

<svg
   width="18.301319"
   height="46.654537"
   viewBox="0 0 4.8422242 12.344013"
   version="1.1"
   id="svg5"
   xml:space="preserve"
   xmlns="http://www.w3.org/2000/svg"
   xmlns:svg="http://www.w3.org/2000/svg"><defs
     id="defs2" /><g
     id="g4915"
     style="display:inline"
     transform="translate(-114.47156,-35.579758)"><path
       style="fill:#ffffff;fill-opacity:1;stroke-width:1"
       d="m 115.94951,47.871654 c -0.138,-0.0639 -0.25022,-0.17995 -0.3082,-0.31876 -0.0388,-0.093 -0.0437,-0.55212 -0.0437,-4.105033 v -4.000365 l -0.11965,0.0087 -0.11965,0.0087 -0.0141,1.493418 c -0.0156,1.657296 -0.006,1.57969 -0.20565,1.704936 -0.13787,0.08661 -0.3842,0.06357 -0.50169,-0.04693 -0.16944,-0.159343 -0.16544,-0.113609 -0.16527,-1.890641 9e-5,-0.929525 0.012,-1.69919 0.0278,-1.79571 0.0621,-0.379602 0.33736,-0.755878 0.67746,-0.926022 0.31324,-0.156707 0.36855,-0.161337 1.81807,-0.152169 1.29748,0.0082 1.32215,0.0094 1.47771,0.07234 0.37172,0.150358 0.6776,0.467847 0.78465,0.814432 0.0541,0.175286 0.0566,0.259551 0.0565,1.932886 -1.1e-4,1.696178 -0.002,1.752412 -0.056,1.841367 -0.16681,0.273593 -0.54001,0.27244 -0.74364,-0.0023 -0.0578,-0.07795 -0.059,-0.107888 -0.0667,-1.569575 l -0.008,-1.49011 h -0.11189 -0.1119 l -6.4e-4,4.004881 c -6.4e-4,3.838115 -0.003,4.009565 -0.0528,4.117495 -0.20902,0.45146 -0.82493,0.4677 -1.06825,0.0282 -0.0422,-0.0763 -0.0481,-0.31574 -0.0608,-2.463454 l -0.0141,-2.378998 -0.11966,-0.0087 -0.11965,-0.0087 -6.4e-4,2.359501 c -6.4e-4,2.236581 -0.003,2.365371 -0.0528,2.472121 -0.13822,0.29854 -0.48743,0.43269 -0.77716,0.29855 z m 0.75753,-10.308087 c -0.3117,-0.0618 -0.57986,-0.278023 -0.7223,-0.582415 -0.22479,-0.480363 -0.0186,-1.057366 0.46861,-1.311564 0.15787,-0.08236 0.19361,-0.08967 0.43931,-0.08983 0.23037,-1.49e-4 0.2894,0.01011 0.42568,0.07402 0.22271,0.104426 0.37521,0.25324 0.48201,0.470374 0.0842,0.171182 0.0917,0.20869 0.0915,0.454469 -3.2e-4,0.321679 -0.0524,0.458643 -0.25757,0.678006 -0.1527,0.163245 -0.32041,0.257952 -0.53886,0.304303 -0.16656,0.03534 -0.22153,0.03571 -0.38835,0.0026 z"
       id="path487" /></g></svg>
