<?xml version="1.0" encoding="UTF-8" standalone="no"?>
<!-- Created with Inkscape (http://www.inkscape.org/) -->

<svg
   width="33.91967"
   height="35.207867"
   viewBox="0 0 8.9745797 9.3154147"
   version="1.1"
   id="svg5"
   xml:space="preserve"
   inkscape:version="1.3 (0e150ed6c4, 2023-07-21)"
   sodipodi:docname="ikon_lampu.svg"
   inkscape:export-filename="../../godot4_perf_test/tmp/antarmuka.png"
   inkscape:export-xdpi="96"
   inkscape:export-ydpi="96"
   xmlns:inkscape="http://www.inkscape.org/namespaces/inkscape"
   xmlns:sodipodi="http://sodipodi.sourceforge.net/DTD/sodipodi-0.dtd"
   xmlns="http://www.w3.org/2000/svg"
   xmlns:svg="http://www.w3.org/2000/svg"><sodipodi:namedview
     id="namedview7"
     pagecolor="#ffffff"
     bordercolor="#111111"
     borderopacity="1"
     inkscape:showpageshadow="0"
     inkscape:pageopacity="0"
     inkscape:pagecheckerboard="1"
     inkscape:deskcolor="#d1d1d1"
     inkscape:document-units="cm"
     showgrid="false"
     inkscape:zoom="8"
     inkscape:cx="21.3125"
     inkscape:cy="14.9375"
     inkscape:window-width="1364"
     inkscape:window-height="745"
     inkscape:window-x="0"
     inkscape:window-y="21"
     inkscape:window-maximized="1"
     inkscape:current-layer="g4915"
     showguides="true" /><defs
     id="defs2" /><g
     inkscape:groupmode="layer"
     id="g4915"
     inkscape:label="bug"
     style="display:inline"
     transform="translate(-156.89478,-96.183191)"><path
       style="fill:#fffffe;fill-opacity:1;stroke-width:0.0724512"
       d="m 161.20929,104.54596 c -0.10659,-0.03 -0.20081,-0.0898 -0.33169,-0.21039 l -0.0959,-0.0883 0.0958,-8e-4 c 0.10925,-8e-4 0.9445,0.0727 0.98532,0.0868 0.0441,0.0152 -0.0486,0.0983 -0.18414,0.16498 -0.14109,0.0694 -0.32563,0.0882 -0.46948,0.0476 z m 0.77055,-0.38937 c -0.0474,-0.004 -0.358,-0.0286 -0.6901,-0.055 -0.86258,-0.0686 -0.78094,-0.0521 -0.83491,-0.16854 -0.0249,-0.0538 -0.0435,-0.0993 -0.0413,-0.10107 0.003,-0.002 1.53474,0.12441 1.79486,0.14886 0.0855,0.008 0.0926,0.0375 0.0265,0.11012 -0.0574,0.063 -0.1128,0.0774 -0.25508,0.0657 z m 0.27796,-0.34739 c -0.14241,-0.008 -0.93614,-0.0754 -1.42812,-0.12157 -0.23916,-0.0225 -0.44136,-0.0502 -0.45388,-0.0623 -0.0124,-0.0119 -0.0287,-0.0554 -0.0362,-0.0965 l -0.0137,-0.0747 0.18958,0.0134 c 0.34846,0.0246 1.7413,0.14506 1.81642,0.15706 0.074,0.0118 0.0741,0.0119 0.0638,0.0888 -0.006,0.0423 -0.0174,0.0824 -0.0262,0.089 -0.009,0.006 -0.059,0.01 -0.11175,0.006 z m -0.21087,-0.38988 c -1.03073,-0.0821 -1.65484,-0.13579 -1.68691,-0.14516 -0.0511,-0.015 -0.0665,-0.0416 -0.0668,-0.11627 l -2.9e-4,-0.0623 h 0.10598 c 0.10112,0 1.66516,0.12143 1.92597,0.14952 l 0.12461,0.0134 v 0.0863 0.0862 l -0.0958,0.002 c -0.0527,0.002 -0.19073,-0.005 -0.30671,-0.0142 z m -0.17252,-0.38307 c -1.1089,-0.094 -1.57221,-0.13621 -1.58581,-0.14461 -0.008,-0.005 -0.0149,-0.0498 -0.0149,-0.0994 v -0.0902 l 1.10704,0.093 c 0.60887,0.0511 1.11024,0.0961 1.11414,0.10003 0.004,0.004 0.002,0.0462 -0.006,0.0942 l -0.013,0.0871 -0.0899,-0.002 c -0.0494,-0.002 -0.27966,-0.0183 -0.51161,-0.038 z m -0.0287,-0.37329 c -0.85032,-0.075 -0.85376,-0.0795 -0.0623,-0.0824 l 0.71407,-0.002 v 0.0671 c 0,0.0813 0.0522,0.0799 -0.65176,0.0178 z m -1.57199,-0.34852 c -2.2e-4,-0.0785 -0.0579,-0.68065 -0.0698,-0.72864 -0.0258,-0.10411 -0.16113,-0.40809 -0.23656,-0.53133 -0.20077,-0.32803 -0.43814,-0.86691 -0.48744,-1.106646 -0.0416,-0.202149 -0.039,-0.536524 0.006,-0.753624 0.14591,-0.706959 0.65556,-1.256025 1.37276,-1.478949 0.16344,-0.05081 0.19068,-0.05352 0.51757,-0.05164 0.28409,0.0016 0.37094,0.009 0.49163,0.04156 0.75777,0.20456 1.31318,0.814857 1.43398,1.575705 0.0283,0.178443 0.0246,0.490287 -0.008,0.659864 -0.0459,0.2399 -0.26396,0.73458 -0.49777,1.12922 -0.12474,0.21052 -0.23558,0.47946 -0.25812,0.62626 -0.0106,0.0686 -0.0251,0.24322 -0.0324,0.38818 l -0.0133,0.26359 h -1.10924 c -1.0436,0 -1.10925,-0.002 -1.10934,-0.0336 z m 3.15826,-1.09971 c -0.0712,-0.0436 -0.1294,-0.0884 -0.1294,-0.0997 0,-0.0362 0.15431,-0.28145 0.17707,-0.28145 0.031,0 0.283,0.1518 0.283,0.17048 0,0.0375 -0.14727,0.28012 -0.17284,0.28475 -0.0157,0.003 -0.0867,-0.0305 -0.15783,-0.0741 z m -4.3849,-0.12217 c -0.0436,-0.079 -0.074,-0.15216 -0.0675,-0.16264 0.0126,-0.0205 0.26258,-0.173 0.2835,-0.173 0.016,0 0.16668,0.27046 0.16702,0.29973 3e-4,0.0221 -0.2492,0.17951 -0.2845,0.17951 -0.0106,0 -0.055,-0.0646 -0.0985,-0.1436 z m 4.6455,-1.112832 c -0.014,-0.03652 0.004,-0.313651 0.0219,-0.331254 0.006,-0.0066 0.087,-0.01228 0.17866,-0.01252 l 0.16658,-4.19e-4 v 0.182109 0.18211 l -0.17764,0.0055 c -0.14935,0.005 -0.17955,5.9e-4 -0.18956,-0.02552 z m -4.98227,-0.07202 c -0.006,-0.01451 -0.007,-0.09463 -0.005,-0.17804 l 0.006,-0.151662 h 0.18211 0.18212 v 0.172525 0.172525 l -0.17765,0.0055 c -0.13697,0.0042 -0.17995,-5.04e-4 -0.18776,-0.02086 z m 4.7451,-1.168364 c -0.021,-0.03426 -0.0569,-0.100349 -0.0796,-0.146854 l -0.0414,-0.08455 0.0535,-0.0427 c 0.0294,-0.02348 0.0959,-0.0625 0.14754,-0.08672 0.11079,-0.05189 0.11459,-0.04959 0.20614,0.124272 0.0546,0.103664 0.0571,0.116109 0.0296,0.146463 -0.0282,0.03114 -0.23955,0.152389 -0.26567,0.152389 -0.006,0 -0.0292,-0.02803 -0.0502,-0.0623 z m -4.29945,-0.0743 c -0.0718,-0.04266 -0.13492,-0.08874 -0.14017,-0.102398 -0.007,-0.01854 0.11448,-0.247564 0.1563,-0.294406 0.0122,-0.01366 0.29658,0.154958 0.29635,0.175711 -3.6e-4,0.03127 -0.15146,0.300349 -0.16814,0.299419 -0.007,-4.2e-4 -0.0725,-0.03567 -0.14434,-0.07833 z m 3.4038,-0.874721 c -0.0659,-0.03795 -0.11982,-0.08105 -0.11982,-0.09579 0,-0.03014 0.14896,-0.292261 0.16608,-0.292261 0.03,0 0.294,0.163842 0.294,0.182449 0,0.04748 -0.15018,0.268157 -0.18463,0.271315 -0.0198,0.0018 -0.0897,-0.02777 -0.15563,-0.06572 z m -2.55126,-0.09351 c -0.096,-0.16841 -0.0995,-0.15851 0.0949,-0.264401 l 0.12667,-0.069 0.048,0.07258 c 0.0936,0.141399 0.1308,0.229361 0.10542,0.249155 -0.039,0.03043 -0.26413,0.158044 -0.27842,0.157826 -0.007,-1.08e-4 -0.0508,-0.06588 -0.0965,-0.146155 z m 1.22377,-0.409554 v -0.17252 h 0.18211 0.18211 v 0.172524 0.172524 h -0.18211 -0.18211 z"
       id="path1" /></g></svg>
