<?xml version="1.0" encoding="UTF-8" standalone="no"?>
<!-- Created with Inkscape (http://www.inkscape.org/) -->

<svg
   width="48"
   height="48"
   viewBox="0 0 12.7 12.7"
   version="1.1"
   id="svg5"
   xml:space="preserve"
   inkscape:version="1.2.2 (b0a8486541, 2022-12-01)"
   sodipodi:docname="ubuntu.svg"
   xmlns:inkscape="http://www.inkscape.org/namespaces/inkscape"
   xmlns:sodipodi="http://sodipodi.sourceforge.net/DTD/sodipodi-0.dtd"
   xmlns="http://www.w3.org/2000/svg"
   xmlns:svg="http://www.w3.org/2000/svg"><sodipodi:namedview
     id="namedview7"
     pagecolor="#ffffff"
     bordercolor="#111111"
     borderopacity="1"
     inkscape:showpageshadow="0"
     inkscape:pageopacity="0"
     inkscape:pagecheckerboard="1"
     inkscape:deskcolor="#d1d1d1"
     inkscape:document-units="mm"
     showgrid="false"
     inkscape:zoom="3.7914703"
     inkscape:cx="37.979989"
     inkscape:cy="31.649991"
     inkscape:window-width="1366"
     inkscape:window-height="717"
     inkscape:window-x="0"
     inkscape:window-y="27"
     inkscape:window-maximized="1"
     inkscape:current-layer="layer1" /><defs
     id="defs2" /><g
     inkscape:label="Lapis 1"
     inkscape:groupmode="layer"
     id="layer1"><g
       id="g350"
       transform="matrix(0.07546598,0,0,0.07546598,0.37749583,-4.8571734)"><path
         style="fill:#fed7cb;stroke-width:0.264583"
         d="m 129.0161,212.13229 c 0.34178,-0.3638 0.68094,-0.66146 0.7537,-0.66146 0.0728,0 -0.14734,0.29766 -0.48912,0.66146 -0.34177,0.3638 -0.68094,0.66146 -0.7537,0.66146 -0.0728,0 0.14734,-0.29766 0.48912,-0.66146 z m -40.150519,-7.19384 c 0.254662,-0.0665 0.671381,-0.0665 0.926042,0 0.254661,0.0666 0.0463,0.121 -0.463021,0.121 -0.509323,0 -0.717682,-0.0545 -0.463021,-0.121 z m 2.649472,-0.007 c 0.402182,-0.0608 0.997495,-0.0592 1.322916,0.004 0.325422,0.0628 -0.0037,0.11255 -0.731242,0.11057 -0.727604,-0.002 -0.993857,-0.0534 -0.591674,-0.11419 z m 7.90949,-3.5143 c 0,-0.3638 0.06006,-0.51263 0.133454,-0.33073 0.0734,0.18191 0.0734,0.47956 0,0.66146 -0.0734,0.1819 -0.133454,0.0331 -0.133454,-0.33073 z M 117.58941,182.451 c 0.19099,-0.0764 0.4192,-0.067 0.50712,0.0209 0.0879,0.0879 -0.0684,0.15046 -0.34727,0.13897 -0.30822,-0.0127 -0.37092,-0.0754 -0.15985,-0.15985 z m 2.64583,0 c 0.191,-0.0764 0.4192,-0.067 0.50712,0.0209 0.0879,0.0879 -0.0684,0.15046 -0.34727,0.13897 -0.30822,-0.0127 -0.37091,-0.0754 -0.15985,-0.15985 z M 69.715686,167.08698 c -0.329107,-0.41965 -0.319749,-0.42901 0.0999,-0.0999 0.254662,0.19972 0.463021,0.40808 0.463021,0.46302 0,0.21777 -0.217273,0.0776 -0.562917,-0.36312 z m -32.48911,-1.27882 c 0.0127,-0.30823 0.07539,-0.37092 0.159853,-0.15985 0.07643,0.19099 0.06703,0.4192 -0.02089,0.50712 -0.08792,0.0879 -0.150453,-0.0684 -0.138965,-0.34727 z M 24.96871,162.61227 c 0.181901,-0.0734 0.479557,-0.0734 0.661458,0 0.181901,0.0734 0.03307,0.13345 -0.330729,0.13345 -0.363802,0 -0.512631,-0.0601 -0.330729,-0.13345 z m 1.604036,-0.005 c 0.190996,-0.0764 0.419199,-0.067 0.507118,0.0209 0.08792,0.0879 -0.06835,0.15046 -0.347266,0.13897 -0.308224,-0.0127 -0.370919,-0.0754 -0.159852,-0.15985 z m -10.68266,-4.11875 -0.777105,-0.8599 0.859896,0.77711 c 0.801543,0.72437 0.981512,0.94269 0.777105,0.94269 -0.04554,0 -0.432488,-0.38696 -0.859896,-0.8599 z m -0.644814,-19.33123 c 0,-0.0455 0.386954,-0.43248 0.859896,-0.85989 l 0.859896,-0.77711 -0.777105,0.8599 c -0.724371,0.80154 -0.942687,0.98151 -0.942687,0.7771 z m 9.723438,-4.85493 c 0.181901,-0.0734 0.479557,-0.0734 0.661458,0 0.181901,0.0734 0.03307,0.13345 -0.330729,0.13345 -0.363802,0 -0.512631,-0.0601 -0.330729,-0.13345 z m 1.604036,-0.006 c 0.190996,-0.0764 0.419199,-0.067 0.507118,0.0209 0.08792,0.0879 -0.06835,0.15045 -0.347266,0.13896 -0.308224,-0.0127 -0.370919,-0.0754 -0.159852,-0.15985 z m 10.65383,-3.1486 c 0.0127,-0.30822 0.07539,-0.37092 0.159853,-0.15985 0.07643,0.19099 0.06703,0.4192 -0.02089,0.50712 -0.08792,0.0879 -0.150453,-0.0684 -0.138965,-0.34727 z M 120.23524,114.4526 c 0.191,-0.0764 0.4192,-0.067 0.50712,0.0209 0.0879,0.0879 -0.0684,0.15045 -0.34727,0.13897 -0.30822,-0.0127 -0.37091,-0.0754 -0.15985,-0.15986 z m 13.24503,-2.92812 c -0.32911,-0.41964 -0.31975,-0.429 0.0999,-0.0999 0.44073,0.34565 0.58089,0.56292 0.36313,0.56292 -0.0549,0 -0.2633,-0.20836 -0.46302,-0.46302 z M 89.791623,91.950024 c 0.618463,-0.05571 1.630495,-0.05571 2.248958,0 0.618464,0.0557 0.112448,0.10128 -1.124479,0.10128 -1.236927,0 -1.742943,-0.04558 -1.124479,-0.10128 z m 39.204447,-7.148458 -0.64143,-0.727604 0.72761,0.641433 c 0.40018,0.352788 0.7276,0.68021 0.7276,0.727604 0,0.207506 -0.21426,0.03862 -0.81378,-0.641433 z"
         id="path364" /><path
         style="fill:#fec6b4;stroke-width:0.264583"
         d="m 90.337326,204.94009 c 0.190995,-0.0764 0.419201,-0.067 0.507119,0.0209 0.08792,0.0879 -0.06835,0.15045 -0.347266,0.13896 -0.308226,-0.0127 -0.370919,-0.0754 -0.159853,-0.15985 z M 105.2036,188.05521 c 0.34178,-0.36381 0.68094,-0.66146 0.7537,-0.66146 0.0728,0 -0.14734,0.29765 -0.48912,0.66146 -0.34177,0.3638 -0.68093,0.66145 -0.7537,0.66145 -0.0728,0 0.14735,-0.29765 0.48912,-0.66145 z M 90.456719,176.62056 c 0.402183,-0.0608 0.997495,-0.0592 1.322917,0.004 0.325422,0.0628 -0.0037,0.11256 -0.731242,0.11058 -0.727604,-0.002 -0.993857,-0.0534 -0.591675,-0.11419 z M 62.647462,148.5 c 0,-0.3638 0.06006,-0.51263 0.133453,-0.33073 0.0734,0.1819 0.0734,0.47956 0,0.66146 -0.0734,0.1819 -0.133453,0.0331 -0.133453,-0.33073 z m 27.809257,-28.23569 c 0.402183,-0.0608 0.997495,-0.0592 1.322917,0.004 0.325422,0.0628 -0.0037,0.11256 -0.731242,0.11057 -0.727604,-0.002 -0.993857,-0.0534 -0.591675,-0.11418 z"
         id="path362" /><path
         style="fill:#fead94;stroke-width:0.264583"
         d="m 85.83941,204.67551 c 0.190994,-0.0764 0.4192,-0.067 0.507119,0.0209 0.08792,0.0879 -0.06835,0.15046 -0.347266,0.13897 -0.308226,-0.0127 -0.370919,-0.0754 -0.159853,-0.15985 z m 19.1205,-3.67777 c 0.0127,-0.30822 0.0754,-0.37092 0.15985,-0.15985 0.0764,0.19099 0.067,0.4192 -0.0209,0.50712 -0.0879,0.0879 -0.15045,-0.0684 -0.13896,-0.34727 z m 13.15866,-12.99098 c 0.191,-0.0764 0.41921,-0.067 0.50712,0.0209 0.0879,0.0879 -0.0684,0.15046 -0.34726,0.13897 -0.30823,-0.0127 -0.37092,-0.0754 -0.15986,-0.15985 z m 1.85209,0 c 0.19099,-0.0764 0.4192,-0.067 0.50712,0.0209 0.0879,0.0879 -0.0684,0.15046 -0.34727,0.13897 -0.30823,-0.0127 -0.37092,-0.0754 -0.15985,-0.15985 z M 89.278993,176.62968 c 0.190995,-0.0764 0.4192,-0.067 0.507119,0.0209 0.08792,0.0879 -0.06835,0.15045 -0.347266,0.13897 -0.308226,-0.0127 -0.370919,-0.0754 -0.159853,-0.15985 z m -17.921168,-6.58819 c 0.0127,-0.30822 0.07539,-0.37092 0.159851,-0.15985 0.07643,0.19099 0.06703,0.4192 -0.02088,0.50712 -0.08792,0.0879 -0.150452,-0.0683 -0.138964,-0.34727 z m 39.402025,-1.56545 c 0.34178,-0.3638 0.68094,-0.66146 0.7537,-0.66146 0.0728,0 -0.14734,0.29766 -0.48912,0.66146 -0.34177,0.3638 -0.68094,0.66146 -0.7537,0.66146 -0.0728,0 0.14735,-0.29766 0.48912,-0.66146 z m -75.00937,-9.92187 c 0.263389,-0.29105 0.53842,-0.52917 0.611181,-0.52917 0.07276,0 -0.08321,0.23812 -0.346598,0.52917 -0.263389,0.29104 -0.53842,0.52916 -0.611181,0.52916 -0.07276,0 0.08321,-0.23812 0.346598,-0.52916 z m 26.906787,-8.86355 c 0.0054,-0.43656 0.06469,-0.58312 0.131773,-0.32569 0.06708,0.25743 0.06267,0.61462 -0.0098,0.79375 -0.07248,0.17913 -0.127362,-0.0315 -0.12197,-0.46806 z m -50.83069,-0.28663 c 0.0127,-0.30822 0.07539,-0.37092 0.159853,-0.15985 0.07643,0.191 0.06703,0.4192 -0.02089,0.50712 -0.08792,0.0879 -0.150453,-0.0684 -0.138965,-0.34727 z m 0,-1.85208 c 0.0127,-0.30823 0.07539,-0.37092 0.159853,-0.15985 0.07643,0.19099 0.06703,0.4192 -0.02089,0.50712 -0.08792,0.0879 -0.150453,-0.0684 -0.138965,-0.34727 z m 50.83069,-0.24253 c 0.0054,-0.43657 0.06469,-0.58313 0.131773,-0.3257 0.06708,0.25743 0.06267,0.61462 -0.0098,0.79375 -0.07248,0.17913 -0.127362,-0.0315 -0.12197,-0.46805 z m -26.794521,-8.7974 -0.641433,-0.7276 0.727604,0.64143 c 0.680056,0.59951 0.848939,0.81377 0.641433,0.81377 -0.04739,0 -0.374816,-0.32742 -0.727604,-0.7276 z m 74.877074,-10.05417 -0.64143,-0.7276 0.72761,0.64143 c 0.40018,0.35279 0.7276,0.68021 0.7276,0.72761 0,0.2075 -0.21426,0.0386 -0.81378,-0.64144 z m -39.381995,-1.5434 c 0.0127,-0.30822 0.07539,-0.37092 0.159851,-0.15985 0.07643,0.19099 0.06703,0.4192 -0.02088,0.50712 -0.08792,0.0879 -0.150452,-0.0684 -0.138964,-0.34727 z m 17.921168,-6.64098 c 0.190995,-0.0764 0.4192,-0.067 0.507119,0.0209 0.08792,0.0879 -0.06835,0.15046 -0.347266,0.13897 -0.308226,-0.0127 -0.370919,-0.0754 -0.159853,-0.15985 z m 15.775667,-11.52707 -0.7771,-0.8599 0.8599,0.77711 c 0.80154,0.72437 0.98151,0.94268 0.7771,0.94268 -0.0455,0 -0.43249,-0.38695 -0.8599,-0.85989 z m 13.06391,0.14999 c 0.191,-0.0764 0.41921,-0.067 0.50712,0.0209 0.0879,0.0879 -0.0684,0.15045 -0.34726,0.13897 -0.30823,-0.0127 -0.37092,-0.0754 -0.15986,-0.15985 z m 1.57097,0.005 c 0.1819,-0.0734 0.47956,-0.0734 0.66146,0 0.1819,0.0734 0.0331,0.13345 -0.33073,0.13345 -0.3638,0 -0.51263,-0.0601 -0.33073,-0.13345 z M 104.95991,95.958162 c 0.0127,-0.308224 0.0754,-0.370919 0.15985,-0.159852 0.0764,0.190996 0.067,0.419199 -0.0209,0.507118 -0.0879,0.08792 -0.15045,-0.06835 -0.13896,-0.347266 z"
         id="path360" /><path
         style="fill:#fe8e6b;stroke-width:0.264583"
         d="m 105.0004,202.21041 c 0,-0.50932 0.0545,-0.71768 0.121,-0.46302 0.0666,0.25466 0.0666,0.67138 0,0.92604 -0.0665,0.25467 -0.121,0.0463 -0.121,-0.46302 z m 13.89539,-14.19814 c 0.1819,-0.0734 0.47956,-0.0734 0.66146,0 0.1819,0.0734 0.0331,0.13345 -0.33073,0.13345 -0.3638,0 -0.51263,-0.0601 -0.33073,-0.13345 z m -69.288436,-1.08154 c -0.329107,-0.41965 -0.319749,-0.42901 0.0999,-0.0999 0.254661,0.19972 0.463021,0.40808 0.463021,0.46302 0,0.21776 -0.217273,0.0776 -0.562917,-0.36312 z m 43.375805,-10.30105 c 0.190995,-0.0764 0.419201,-0.067 0.507119,0.0209 0.08792,0.0879 -0.06835,0.15045 -0.347265,0.13897 -0.308227,-0.0127 -0.37092,-0.0754 -0.159854,-0.15985 z M 126.45448,154.1226 c 3.32053,-0.042 8.67834,-0.042 11.90625,1.1e-4 3.2279,0.0421 0.5111,0.0764 -6.03734,0.0764 -6.54844,-6e-5 -9.18945,-0.0345 -5.86891,-0.0765 z M 45.733738,148.5 c 0,-0.50932 0.05445,-0.71768 0.121002,-0.46302 0.06655,0.25466 0.06655,0.67138 0,0.92604 -0.06655,0.25466 -0.121002,0.0463 -0.121002,-0.46302 z m -33.886272,0 c 0,-0.3638 0.06005,-0.51263 0.133452,-0.33073 0.0734,0.1819 0.0734,0.47956 0,0.66146 -0.0734,0.1819 -0.133452,0.0331 -0.133452,-0.33073 z m 114.607014,-5.75448 c 3.32053,-0.042 8.67834,-0.042 11.90625,1e-4 3.2279,0.0421 0.5111,0.0764 -6.03734,0.0764 -6.54844,-6e-5 -9.18945,-0.0345 -5.86891,-0.0765 z m -86.372126,-7.93771 c -0.329107,-0.41964 -0.319749,-0.429 0.0999,-0.0999 0.254662,0.19972 0.463021,0.40808 0.463021,0.46302 0,0.21776 -0.217273,0.0776 -0.562917,-0.36313 z m 52.900805,-14.53438 c 0.190995,-0.0764 0.419201,-0.067 0.507119,0.0209 0.08792,0.0879 -0.06835,0.15046 -0.347265,0.13897 -0.308227,-0.0127 -0.37092,-0.0754 -0.159854,-0.15985 z m 25.929161,-11.37708 c 0.191,-0.0764 0.41921,-0.067 0.50712,0.0209 0.0879,0.0879 -0.0683,0.15045 -0.34726,0.13897 -0.30823,-0.0127 -0.37092,-0.0754 -0.15986,-0.15985 z M 105.0004,94.789586 c 0,-0.509323 0.0545,-0.717682 0.121,-0.463021 0.0666,0.254662 0.0666,0.67138 0,0.926042 -0.0665,0.254661 -0.121,0.0463 -0.121,-0.463021 z"
         id="path358" /><path
         style="fill:#fe764b;stroke-width:0.264583"
         d="m 119.97066,216.05259 c 0.19099,-0.0764 0.4192,-0.067 0.50712,0.0209 0.0879,0.0879 -0.0684,0.15045 -0.34727,0.13896 -0.30823,-0.0127 -0.37092,-0.0754 -0.15985,-0.15985 z m -10.95574,-4.11874 -0.50403,-0.59531 0.59532,0.50403 c 0.55944,0.47366 0.71576,0.68659 0.50402,0.68659 -0.0502,0 -0.31809,-0.26789 -0.59531,-0.59531 z m 23.99082,-9.08403 c 0.0127,-0.30822 0.0754,-0.37091 0.15985,-0.15985 0.0764,0.191 0.067,0.4192 -0.0209,0.50712 -0.0879,0.0879 -0.15045,-0.0684 -0.13896,-0.34727 z m -63.290054,-2.42534 c -0.329107,-0.41965 -0.319749,-0.42901 0.0999,-0.0999 0.254662,0.19972 0.463021,0.40808 0.463021,0.46302 0,0.21776 -0.217273,0.0776 -0.562917,-0.36312 z m -18.631822,-12.03854 -1.045885,-1.12448 1.124479,1.04588 c 1.045755,0.97266 1.246063,1.20307 1.045885,1.20307 -0.04323,0 -0.549243,-0.50601 -1.124479,-1.12447 z M 39.057771,163.21677 c 0,-0.0549 0.20836,-0.2633 0.463021,-0.46302 0.419645,-0.32911 0.429003,-0.31975 0.0999,0.0999 -0.345644,0.44072 -0.562917,0.58088 -0.562917,0.36312 z m 0.230833,-29.20271 c -0.329107,-0.41964 -0.319749,-0.429 0.0999,-0.0999 0.254662,0.19972 0.463021,0.40808 0.463021,0.46302 0,0.21776 -0.217273,0.0776 -0.562917,-0.36313 z m 10.881667,-24.5401 c 0.341775,-0.3638 0.680939,-0.66146 0.7537,-0.66146 0.07276,0 -0.147341,0.29766 -0.489117,0.66146 -0.341775,0.3638 -0.680939,0.66146 -0.7537,0.66146 -0.07276,0 0.147341,-0.29766 0.489117,-0.66146 z m 1.5875,-1.5875 c 0.341775,-0.3638 0.680939,-0.66146 0.7537,-0.66146 0.07276,0 -0.147341,0.29766 -0.489117,0.66146 -0.341775,0.3638 -0.68094,0.66146 -0.7537,0.66146 -0.07276,0 0.147341,-0.29766 0.489117,-0.66146 z M 133.00574,94.106079 c 0.0127,-0.308224 0.0754,-0.370919 0.15985,-0.159852 0.0764,0.190996 0.067,0.419199 -0.0209,0.507118 -0.0879,0.08792 -0.15045,-0.06835 -0.13896,-0.347266 z m -23.96568,-9.106076 c 0.26339,-0.291042 0.53842,-0.529167 0.61118,-0.529167 0.0728,0 -0.0832,0.238125 -0.3466,0.529167 -0.26339,0.291042 -0.53842,0.529167 -0.61118,0.529167 -0.0728,0 0.0832,-0.238125 0.3466,-0.529167 z m 8.81393,-4.14949 c 0.191,-0.07643 0.4192,-0.06703 0.50712,0.02089 0.0879,0.08792 -0.0683,0.150453 -0.34727,0.138964 -0.30822,-0.0127 -0.37091,-0.07539 -0.15985,-0.159852 z"
         id="path356" /><path
         style="fill:#fe6636;stroke-width:0.264583"
         d="m 128.75152,212.13229 c 0.34177,-0.3638 0.68094,-0.66146 0.7537,-0.66146 0.0728,0 -0.14734,0.29766 -0.48912,0.66146 -0.34178,0.3638 -0.68094,0.66146 -0.7537,0.66146 -0.0728,0 0.14734,-0.29766 0.48912,-0.66146 z m 4.25422,-10.07622 c 0.0127,-0.30822 0.0754,-0.37091 0.15985,-0.15985 0.0764,0.191 0.067,0.4192 -0.0209,0.50712 -0.0879,0.0879 -0.15045,-0.0683 -0.13896,-0.34727 z M 15.245272,139.40427 c 0,-0.0549 0.20836,-0.2633 0.463021,-0.46302 0.419644,-0.32911 0.429003,-0.31975 0.0999,0.0999 -0.345643,0.44073 -0.562916,0.58088 -0.562916,0.36312 z m 67.948304,-18.33709 c 0.190995,-0.0764 0.419201,-0.067 0.507119,0.0209 0.08792,0.0879 -0.06835,0.15046 -0.347265,0.13897 -0.308227,-0.0127 -0.37092,-0.0754 -0.159854,-0.15985 z m 50.286694,-9.27812 c -0.32911,-0.41964 -0.31975,-0.429 0.0999,-0.0999 0.44073,0.34564 0.58089,0.56292 0.36313,0.56292 -0.0549,0 -0.2633,-0.20836 -0.46302,-0.46303 z m -0.47453,-16.889231 c 0.0127,-0.308224 0.0754,-0.370919 0.15985,-0.159852 0.0764,0.190996 0.067,0.419199 -0.0209,0.507118 -0.0879,0.08792 -0.15045,-0.06835 -0.13896,-0.347266 z m -4.13858,-9.965972 -0.7771,-0.859895 0.85989,0.777105 c 0.47295,0.427408 0.8599,0.814361 0.8599,0.859896 0,0.204406 -0.21832,0.02444 -0.94269,-0.777106 z m -9.42567,-4.083344 c 0.191,-0.07643 0.4192,-0.06703 0.50712,0.02089 0.0879,0.08792 -0.0683,0.150453 -0.34727,0.138964 -0.30822,-0.0127 -0.37091,-0.07539 -0.15985,-0.159852 z"
         id="path354" /><path
         style="fill:#fe5621;stroke-width:0.264583"
         d="m 117.50673,215.94842 c -5.61749,-0.54688 -10.42056,-4.76943 -11.90417,-10.46539 -2.24477,-8.61827 4.52407,-17.29553 13.49167,-17.29553 5.18118,0 10.24883,3.11431 12.48546,7.67291 1.09326,2.22824 1.39077,3.58707 1.39869,6.38828 0.0115,4.04905 -1.49066,7.37973 -4.6122,10.22678 -3.01424,2.74918 -6.58004,3.88955 -10.85945,3.47295 z m -30.823961,-11.2546 c -6.622084,-0.60549 -15.21847,-2.8445 -16.731987,-4.35802 -1.439307,-1.43931 -1.346433,-1.66991 5.318955,-13.20664 7.00396,-12.12273 6.577909,-11.64294 9.69324,-10.91589 1.289418,0.30092 3.138178,0.43586 6.085417,0.44417 3.620635,0.0102 4.577976,-0.0782 6.614583,-0.61112 5.351433,-1.4002 9.408503,-3.71433 13.242763,-7.55357 3.36897,-3.37335 5.42151,-6.67029 6.88564,-11.0602 1.12397,-3.37001 -0.0869,-3.11172 14.58805,-3.11172 h 12.55238 l 0.77339,0.7734 c 0.97679,0.97679 0.99268,1.80995 0.10888,5.70889 -1.98549,8.75905 -6.48305,17.86053 -11.71175,23.70042 -1.69573,1.89394 -2.16008,1.90656 -5.7009,0.15488 -3.65213,-1.80675 -5.60245,-2.29176 -9.21564,-2.29176 -3.45667,0 -6.12423,0.62874 -9.21969,2.17305 -1.79847,0.89725 -2.7269,1.60022 -4.63497,3.50937 -1.35979,1.36057 -2.81362,3.12706 -3.38021,4.10717 -1.31005,2.26617 -2.282526,5.40497 -2.540384,8.19943 -0.3689,3.99787 -0.73221,4.21982 -7.127488,4.35428 -2.425308,0.051 -4.945435,0.0437 -5.600279,-0.0161 z M 54.11325,191.01012 c -6.793904,-5.81117 -12.424227,-13.83935 -15.755825,-22.46596 -1.173431,-3.0384 -1.08024,-3.53397 1.031001,-5.48279 4.268057,-3.9397 6.38289,-8.7643 6.38289,-14.56137 0,-5.79707 -2.114833,-10.62167 -6.38289,-14.56137 -2.111241,-1.94882 -2.204432,-2.44439 -1.031001,-5.48279 2.807456,-7.26944 6.844675,-13.56141 12.307344,-19.18092 4.811866,-4.95002 6.426028,-5.82018 8.09716,-4.36502 0.376018,0.32742 3.359221,5.23422 6.629339,10.90401 4.327935,7.50384 5.945668,10.53658 5.945668,11.14623 0,0.63493 -0.376983,1.28764 -1.55835,2.69814 -2.062996,2.46313 -2.993697,3.84119 -4.149201,6.14361 -2.214571,4.41268 -3.190293,9.04871 -2.946614,14.00049 0.321103,6.52515 2.490414,11.99205 6.831578,17.21634 1.398585,1.68309 1.822587,2.38606 1.822587,3.02171 0,0.59772 -1.656244,3.69986 -5.948415,11.14136 -3.271628,5.67215 -6.254829,10.58089 -6.629336,10.90831 -0.449479,0.39297 -1.021911,0.59531 -1.684126,0.59531 -0.849373,0 -1.303538,-0.25688 -2.961809,-1.67529 z M 22.991147,162.14059 c -4.52694,-1.03195 -8.539056,-4.5859 -10.183653,-9.02074 -0.841167,-2.26829 -0.841167,-6.97141 0,-9.2397 1.744502,-4.70424 6.070515,-8.32313 10.92908,-9.14264 5.987014,-1.00984 11.951433,2.00839 14.648074,7.41249 1.111085,2.22663 1.508241,3.89873 1.508241,6.35 0,6.01918 -3.582558,11.0974 -9.290636,13.16932 -2.171211,0.7881 -5.356101,0.98531 -7.611106,0.47127 z m 96.159533,-19.99345 c -0.44183,-0.34755 -0.91318,-1.24207 -1.3593,-2.57969 -1.45922,-4.3752 -3.4972,-7.64555 -6.89414,-11.06302 -3.77513,-3.79796 -7.90264,-6.16294 -13.101972,-7.50718 -3.143027,-0.81261 -8.081126,-1.00525 -11.311053,-0.44128 -3.125337,0.54572 -4.109466,0.53839 -4.788209,-0.0357 -0.529183,-0.44755 -11.684315,-19.49265 -12.359079,-21.100583 -0.457144,-1.089355 -0.200051,-2.13168 0.715883,-2.902387 1.72397,-1.450626 10.15174,-3.559175 16.497667,-4.127562 3.627528,-0.324908 9.625438,-0.149487 10.975041,0.320986 1.168093,0.4072 1.602099,1.330315 1.87765,3.993704 0.285303,2.757645 1.359072,6.121882 2.661082,8.337432 1.20209,2.04553 4.99615,5.79177 7.1081,7.01852 0.94589,0.54942 2.67229,1.31913 3.83646,1.71045 1.91595,0.64403 2.493,0.71238 6.08542,0.72083 4.57633,0.0108 6.0503,-0.34686 9.85321,-2.39073 1.19916,-0.64449 2.50212,-1.1718 2.89544,-1.1718 0.93496,0 2.82445,1.94123 5.15061,5.29166 4.29833,6.191 7.20147,12.76817 8.81881,19.97938 0.88476,3.94482 0.87004,4.72842 -0.1071,5.70556 l -0.77339,0.7734 h -12.55238 c -12.17426,0 -12.57276,-0.016 -13.22875,-0.53203 z m -3.76062,-33.82851 c -2.35869,-0.67777 -4.30001,-1.82918 -6.08192,-3.60721 -5.26717,-5.255722 -5.51227,-13.534834 -0.56502,-19.085523 2.76144,-3.098263 6.17612,-4.620825 10.35111,-4.615417 3.80844,0.0049 6.57293,1.052354 9.26998,3.512256 3.12062,2.846212 4.62307,6.174395 4.6175,10.228574 -0.006,4.079394 -1.19002,7.0227 -3.96561,9.85462 -3.57013,3.64259 -8.85697,5.0831 -13.62604,3.7127 z"
         id="path352" /></g></g></svg>
