<?xml version="1.0" encoding="UTF-8" standalone="no"?>
<!-- Created with Inkscape (http://www.inkscape.org/) -->

<svg
   width="36.782688"
   height="36.78664"
   viewBox="0 0 9.7320866 9.7331319"
   version="1.1"
   id="svg5"
   xml:space="preserve"
   inkscape:version="1.2.2 (b0a8486541, 2022-12-01)"
   sodipodi:docname="antarmuka.svg"
   inkscape:export-filename="../../godot4_perf_test/tmp/layer7.png"
   inkscape:export-xdpi="96"
   inkscape:export-ydpi="96"
   xmlns:inkscape="http://www.inkscape.org/namespaces/inkscape"
   xmlns:sodipodi="http://sodipodi.sourceforge.net/DTD/sodipodi-0.dtd"
   xmlns="http://www.w3.org/2000/svg"
   xmlns:svg="http://www.w3.org/2000/svg"><sodipodi:namedview
     id="namedview7"
     pagecolor="#ffffff"
     bordercolor="#111111"
     borderopacity="1"
     inkscape:showpageshadow="0"
     inkscape:pageopacity="0"
     inkscape:pagecheckerboard="1"
     inkscape:deskcolor="#d1d1d1"
     inkscape:document-units="cm"
     showgrid="false"
     inkscape:zoom="0.67775611"
     inkscape:cx="514.9345"
     inkscape:cy="264.10681"
     inkscape:window-width="1366"
     inkscape:window-height="717"
     inkscape:window-x="0"
     inkscape:window-y="27"
     inkscape:window-maximized="1"
     inkscape:current-layer="g5132"
     showguides="true" /><defs
     id="defs2" /><g
     inkscape:groupmode="layer"
     id="g5132"
     inkscape:label="popup_konfirmasi"
     style="display:inline"
     inkscape:export-filename="../../godot4_perf_test/tmp/layer7.png"
     inkscape:export-xdpi="96"
     inkscape:export-ydpi="96"
     transform="translate(-148.54447,-102.97976)"><g
       id="g5318"
       inkscape:label="tombol_konfirmasi"
       transform="translate(-4.1951273,93.72924)"
       style="display:inline"><path
         id="path5312"
         style="display:inline;fill:#f9f9f9;fill-opacity:1;stroke-width:0.999996"
         inkscape:label="path15422"
         d="m 65.030846,10.133417 c -0.949718,0.0057 -1.895302,0.286173 -2.695443,0.830957 -1.263615,0.860342 -2.040857,2.221687 -2.135787,3.741373 -0.06963,1.11467 0.258112,2.241636 0.913639,3.143995 0.869832,1.19735 2.218736,1.931203 3.695899,2.010213 1.018356,0.05447 2.0662,-0.230067 2.918685,-0.7922 1.1334,-0.747375 1.907416,-1.932942 2.127001,-3.257166 0.179664,-1.083467 -0.0011,-2.169065 -0.509529,-3.114021 -0.0176,0.02699 -1.52105,2.130157 -2.722315,3.809586 -0.757255,1.058682 -1.421651,1.98766 -1.431437,1.999878 -0.0023,0.0028 -0.0049,0.0054 -0.0072,0.0083 -0.03082,0.04157 -0.230198,0.290518 -0.607199,0.349333 -0.01797,0.003 -0.03601,0.0057 -0.05426,0.0078 -0.04605,0.01235 -0.127005,0.0067 -0.147794,0.0052 -0.0046,-1.04e-4 -0.01076,2.11e-4 -0.01395,0 l -5.17e-4,-5.17e-4 c -0.215437,-0.007 -0.350209,-0.07763 -0.434082,-0.128674 -0.01862,-0.01068 -0.03695,-0.02168 -0.05478,-0.03359 l -2.758221,-2.27583 -0.295339,-1.286743 1.266355,-0.168793 2.036473,1.595252 c 0,0 0.34882,-0.514439 0.86746,-1.239907 8.88e-4,-0.0012 0.0017,-0.0024 0.0026,-0.0036 0.322433,-0.451019 0.432854,-0.605069 0.961181,-1.344104 0.964759,-1.349539 1.760675,-2.462344 1.768885,-2.473234 0.0283,-0.0375 0.05212,-0.06467 0.09302,-0.10542 0.08661,-0.08638 0.186952,-0.154251 0.295589,-0.202572 -0.280576,-0.228666 -0.578193,-0.417096 -0.92139,-0.585494 -0.67737,-0.332366 -1.418822,-0.494315 -2.157491,-0.489892 z"
         transform="translate(92.549173,-0.88289657)"
         sodipodi:nodetypes="ssssssscssccccccccccccscssccsss" /></g></g></svg>
