<?xml version="1.0" encoding="UTF-8" standalone="no"?>
<!-- Created with Inkscape (http://www.inkscape.org/) -->

<svg
   width="24.81105"
   height="31.708633"
   viewBox="0 0 6.5645906 8.3895759"
   version="1.1"
   id="svg5"
   xml:space="preserve"
   xmlns="http://www.w3.org/2000/svg"
   xmlns:svg="http://www.w3.org/2000/svg"><defs
     id="defs2" /><g
     id="g4915"
     style="display:inline"
     transform="translate(-202.16096,-37.556973)"><path
       id="path1210"
       style="fill:#fffffe;fill-opacity:1;stroke-width:0.264583;stroke-linecap:square;stroke-dashoffset:0.1;stroke-opacity:0.999907;paint-order:markers stroke fill"
       d="m 202.26321,37.556974 -0.0586,0.04032 -0.0396,0.0608 v 0.474524 h 4.6679 l 0.0609,0.03509 0.037,0.03698 0.0141,0.05285 v 0.07558 l -0.0207,0.06538 -0.0374,0.04199 -0.0448,0.02154 h -0.78475 v 1.320955 l -0.0397,0.193802 -0.10605,0.222292 -0.13453,0.163244 -0.17763,0.159553 -0.21543,0.116114 -0.22255,0.06221 h -0.2008 l -0.0788,-0.05412 -0.0475,-0.07747 v -2.106582 l -1.2543,-0.0044 h -0.22594 v 0.552563 l -0.0528,0.169357 -0.0902,0.162058 -0.11823,0.137174 -0.15045,0.100374 -0.17353,0.07184 h -0.60788 v 6.187058 l 0.0314,0.06001 0.0618,0.04849 h 2.4828 l 0.0641,-0.04427 0.0484,-0.0616 0.26828,-4.458758 0.10622,-0.147769 0.1352,-0.08806 0.0743,-0.0054 h 0.0195 l 0.0744,0.0054 0.13519,0.08806 0.10623,0.147769 0.26828,4.458758 0.0484,0.0616 0.0641,0.04427 h 2.4828 l 0.0618,-0.04849 0.0314,-0.06001 v -6.187058 h -0.60787 l -0.17353,-0.07184 -0.15046,-0.100374 -0.11822,-0.137174 -0.0902,-0.162058 -0.0528,-0.169357 v -0.552574 h -4.2e-4 l -0.003,-0.148472 0.0169,-0.04757 0.0452,-0.07808 0.057,-0.04942 h 0.0961 l 0.0622,0.03038 0.049,0.07808 v 0.237855 l -0.003,0.02273 v 0.477294 l 0.0213,0.08028 0.0587,0.08512 0.0744,0.08217 0.0789,0.06371 0.12126,0.03671 h 0.51835 v -0.874218 -0.760478 l -0.0171,-0.05346 -0.0518,-0.0528 -0.0593,-0.03047 z m -0.10226,0.897212 v 0.874218 h 0.51836 l 0.12126,-0.03671 0.0789,-0.06371 0.0744,-0.08217 0.0587,-0.08512 0.0213,-0.08028 V 38.50312 l -0.005,-0.0455 z m 2.98964,0 -0.003,1.929048 0.0596,-0.01636 0.14961,-0.06683 0.13185,-0.08521 0.12016,-0.131898 0.0715,-0.119103 0.0607,-0.177754 v -1.331894 z" /></g></svg>
