<?xml version="1.0" encoding="UTF-8" standalone="no"?>
<!-- Created with Inkscape (http://www.inkscape.org/) -->

<svg
   width="30.823225"
   height="30.822922"
   viewBox="0 0 8.1553119 8.1552314"
   version="1.1"
   id="svg5"
   xml:space="preserve"
   inkscape:version="1.3 (0e150ed6c4, 2023-07-21)"
   sodipodi:docname="ikon_tombol_mulai.svg"
   inkscape:export-filename="../../godot4_perf_test/tmp/antarmuka2.png"
   inkscape:export-xdpi="96"
   inkscape:export-ydpi="96"
   xmlns:inkscape="http://www.inkscape.org/namespaces/inkscape"
   xmlns:sodipodi="http://sodipodi.sourceforge.net/DTD/sodipodi-0.dtd"
   xmlns="http://www.w3.org/2000/svg"
   xmlns:svg="http://www.w3.org/2000/svg"><sodipodi:namedview
     id="namedview7"
     pagecolor="#ffffff"
     bordercolor="#111111"
     borderopacity="1"
     inkscape:showpageshadow="0"
     inkscape:pageopacity="0"
     inkscape:pagecheckerboard="1"
     inkscape:deskcolor="#d1d1d1"
     inkscape:document-units="cm"
     showgrid="false"
     inkscape:zoom="7.351644"
     inkscape:cx="14.486556"
     inkscape:cy="15.710772"
     inkscape:window-width="1364"
     inkscape:window-height="745"
     inkscape:window-x="0"
     inkscape:window-y="21"
     inkscape:window-maximized="1"
     inkscape:current-layer="layer3"
     showguides="true" /><defs
     id="defs2" /><g
     inkscape:groupmode="layer"
     id="layer3"
     inkscape:label="gabung_server"
     style="display:inline"
     transform="translate(-33.62082,-34.001633)"><path
       style="fill:#ffffff;fill-opacity:1;stroke-width:0.948531"
       d="m 35.310061,42.135225 c -0.151861,-0.04653 -0.350094,-0.255892 -0.424535,-0.448362 -0.05976,-0.15457 -0.06308,-0.316773 -0.07171,-3.519791 -0.0099,-3.678709 -0.01319,-3.610045 0.18356,-3.892697 0.0498,-0.07146 0.157494,-0.165966 0.239466,-0.210006 0.127825,-0.06867 0.179671,-0.07761 0.364303,-0.06274 0.119335,0.0096 0.290934,0.05155 0.385038,0.09409 0.383729,0.173486 4.136603,3.262804 4.292456,3.401454 0.410582,0.365266 0.41081,0.810719 6.17e-4,1.164071 -0.161317,0.138958 -3.698286,3.10329 -4.203598,3.349959 -0.292802,0.142926 -0.561702,0.186488 -0.765551,0.124018 z"
       id="path4595"
       sodipodi:nodetypes="cccccccccccc" /></g></svg>
