<?xml version="1.0" encoding="UTF-8" standalone="no"?>
<!-- Created with Inkscape (http://www.inkscape.org/) -->

<svg
   width="40.373287"
   height="28.552645"
   viewBox="0 0 10.682099 7.5545539"
   version="1.1"
   id="svg5"
   xml:space="preserve"
   xmlns="http://www.w3.org/2000/svg"
   xmlns:svg="http://www.w3.org/2000/svg"><defs
     id="defs2" /><g
     id="g4915"
     style="display:inline"
     transform="translate(-157.94239,-37.974488)"><g
       id="g4993"
       transform="matrix(1.0778516,0,0,1.0778516,-299.23398,92.358875)"
       style="display:inline;stroke-width:0.927773"><path
         style="display:inline;fill:#ffffff;fill-opacity:1;stroke-width:0.24547;stroke-linecap:square;stroke-dashoffset:0.1;stroke-opacity:0.999907;paint-order:markers stroke fill"
         d="m 425.38591,-43.447387 0.33904,-1.703219 c 0,0 0.55047,-0.199469 0.95184,-0.533889 0.4014,-0.334423 1.00044,-1.232392 1.00044,-1.232392 0,0 1.18144,0.902687 1.85206,1.14622 0.67058,0.243536 2.93976,0.668015 2.93976,0.668015 l 0.49293,1.562823 c 0,0 0.99077,-1.695784 1.09552,-2.63655 0.10477,-0.940769 -0.78177,-3.252907 -2.94582,-3.93749 -2.16405,-0.684585 -3.43048,-0.16967 -3.90286,0.06086 -0.47236,0.230532 -1.18338,0.836513 -1.18338,0.836513 0,0 -1.29037,-0.04601 -1.76888,1.514697 -0.31622,1.03142 0.12041,3.618415 1.12935,4.254409 z"
         id="path3902" /></g></g></svg>
