<?xml version="1.0" encoding="UTF-8" standalone="no"?>
<!-- Created with Inkscape (http://www.inkscape.org/) -->

<svg
   width="120"
   height="120"
   viewBox="0 0 31.75 31.75"
   version="1.1"
   id="svg5"
   xml:space="preserve"
   inkscape:version="1.3.2 (091e20ef0f, 2023-11-25, custom)"
   sodipodi:docname="ikon_bahasa_english_l.svg"
   inkscape:export-filename="../../godot4_perf_test/tmp/antarmuka.png"
   inkscape:export-xdpi="96"
   inkscape:export-ydpi="96"
   xmlns:inkscape="http://www.inkscape.org/namespaces/inkscape"
   xmlns:sodipodi="http://sodipodi.sourceforge.net/DTD/sodipodi-0.dtd"
   xmlns="http://www.w3.org/2000/svg"
   xmlns:svg="http://www.w3.org/2000/svg"><sodipodi:namedview
     id="namedview7"
     pagecolor="#ffffff"
     bordercolor="#111111"
     borderopacity="1"
     inkscape:showpageshadow="0"
     inkscape:pageopacity="0"
     inkscape:pagecheckerboard="1"
     inkscape:deskcolor="#d1d1d1"
     inkscape:document-units="cm"
     showgrid="false"
     inkscape:zoom="4.0021412"
     inkscape:cx="54.720708"
     inkscape:cy="59.2183"
     inkscape:window-width="1346"
     inkscape:window-height="702"
     inkscape:window-x="10"
     inkscape:window-y="56"
     inkscape:window-maximized="1"
     inkscape:current-layer="g4915"
     showguides="true" /><defs
     id="defs2" /><g
     inkscape:groupmode="layer"
     id="g4915"
     inkscape:label="bendera_mamarika"
     style="display:inline"
     transform="translate(-156.89478,-96.183191)"><rect
       style="fill:#000000;stroke:#000000;stroke-width:0.989543;stroke-linecap:square;stroke-linejoin:round;stroke-dasharray:none;stroke-opacity:1"
       id="rect2"
       width="30.51362"
       height="28.006498"
       x="157.51297"
       y="98.054947"
       inkscape:label="stroke" /><rect
       style="fill:#b12233;fill-opacity:1;stroke-width:2.53306;stroke-opacity:0.994009"
       id="rect1"
       width="30.513601"
       height="28.006485"
       x="157.51297"
       y="98.054947" /><rect
       style="fill:#fffffb;fill-opacity:0.996078;stroke-width:1.79917;stroke-opacity:0.994009"
       id="rect15"
       width="30.513588"
       height="2.1182752"
       x="157.51297"
       y="121.73536" /><rect
       style="fill:#fffffb;fill-opacity:0.996078;stroke-width:1.79917;stroke-opacity:0.994009"
       id="rect16"
       width="30.513588"
       height="2.1182752"
       x="157.51303"
       y="117.43498" /><rect
       style="fill:#fffffb;fill-opacity:0.996078;stroke-width:1.79917;stroke-opacity:0.994009"
       id="rect17"
       width="30.513588"
       height="2.1182752"
       x="157.51297"
       y="113.09892" /><rect
       style="fill:#fffffb;fill-opacity:0.996078;stroke-width:1.79917;stroke-opacity:0.994009"
       id="rect18"
       width="30.513588"
       height="2.1182752"
       x="157.51303"
       y="108.79854" /><rect
       style="fill:#fffffb;fill-opacity:0.996078;stroke-width:1.79917;stroke-opacity:0.994009"
       id="rect19"
       width="30.513588"
       height="2.1182752"
       x="157.51297"
       y="104.57272" /><rect
       style="fill:#fffffb;fill-opacity:0.996078;stroke-width:1.79917;stroke-opacity:0.994009"
       id="rect20"
       width="30.513588"
       height="2.1182752"
       x="157.51303"
       y="100.27229" /><rect
       style="fill:#3b3a6d;fill-opacity:1;stroke-width:1.79917;stroke-opacity:0.994009"
       id="rect14"
       width="15.260547"
       height="15.107816"
       x="157.51297"
       y="98.054947" /><path
       sodipodi:type="star"
       style="fill:#fffefa;fill-opacity:1;stroke-width:0.529167;stroke-opacity:0.994009"
       id="path20"
       inkscape:flatsided="false"
       sodipodi:sides="5"
       sodipodi:cx="48.430332"
       sodipodi:cy="5.6797633"
       sodipodi:r1="1.2504038"
       sodipodi:r2="0.50313556"
       sodipodi:arg1="0.91966633"
       sodipodi:arg2="1.5479849"
       inkscape:rounded="0"
       inkscape:randomized="0"
       d="M 49.188184,6.6743338 48.441808,6.182768 47.718629,6.7078623 47.955493,5.8461149 47.232623,5.320593 l 0.892766,-0.041023 0.276422,-0.8498847 0.314895,0.8363935 0.893708,2.643e-4 -0.69815,0.557943 z"
       transform="matrix(0.89958336,0,0,0.89958336,116.86367,97.13327)"
       inkscape:transform-center-x="0.0079326534"
       inkscape:transform-center-y="-0.099844763" /><path
       sodipodi:type="star"
       style="fill:#fffefa;fill-opacity:1;stroke-width:0.529167;stroke-opacity:0.994009"
       id="path21"
       inkscape:flatsided="false"
       sodipodi:sides="5"
       sodipodi:cx="48.430332"
       sodipodi:cy="5.6797633"
       sodipodi:r1="1.2504038"
       sodipodi:r2="0.67835325"
       sodipodi:arg1="0.91966633"
       sodipodi:arg2="1.5479849"
       inkscape:rounded="0"
       inkscape:randomized="0"
       d="m 49.188184,6.6743338 -0.742379,-0.3163937 -0.727176,0.3499222 0.0715,-0.8038153 -0.557506,-0.583454 0.786569,-0.1803915 0.382619,-0.7105166 0.414626,0.6923272 0.793977,0.1443306 -0.530316,0.6082732 z"
       transform="matrix(0.89958336,0,0,0.89958336,121.5841,97.13327)"
       inkscape:transform-center-x="0.0079266534"
       inkscape:transform-center-y="-0.099844763" /><path
       sodipodi:type="star"
       style="fill:#fffefa;fill-opacity:1;stroke-width:0.529167;stroke-opacity:0.994009"
       id="path22"
       inkscape:flatsided="false"
       sodipodi:sides="5"
       sodipodi:cx="48.430332"
       sodipodi:cy="5.6797633"
       sodipodi:r1="1.2504038"
       sodipodi:r2="0.58031702"
       sodipodi:arg1="0.91966633"
       sodipodi:arg2="1.5479849"
       inkscape:rounded="0"
       inkscape:randomized="0"
       d="m 49.188184,6.6743338 -0.744615,-0.4144044 -0.72494,0.4479329 0.164023,-0.836229 -0.650029,-0.5510403 0.845987,-0.1024135 0.323201,-0.7884946 0.358826,0.7729339 0.849777,0.063724 -0.624221,0.5801129 z"
       transform="matrix(0.89958336,0,0,0.89958336,126.30452,97.13327)"
       inkscape:transform-center-x="0.0079306534"
       inkscape:transform-center-y="-0.099844763" /><path
       sodipodi:type="star"
       style="fill:#fffefa;fill-opacity:1;stroke-width:0.529167;stroke-opacity:0.994009"
       id="path23"
       inkscape:flatsided="false"
       sodipodi:sides="5"
       sodipodi:cx="48.430332"
       sodipodi:cy="5.6797633"
       sodipodi:r1="1.2504038"
       sodipodi:r2="0.67835325"
       sodipodi:arg1="0.91966633"
       sodipodi:arg2="1.5479849"
       inkscape:rounded="0"
       inkscape:randomized="0"
       d="m 49.188184,6.6743338 -0.742379,-0.3163937 -0.727176,0.3499222 0.0715,-0.8038153 -0.557506,-0.583454 0.786569,-0.1803915 0.382619,-0.7105166 0.414626,0.6923272 0.793977,0.1443306 -0.530316,0.6082732 z"
       transform="matrix(0.89958336,0,0,0.89958336,116.86367,100.47442)"
       inkscape:transform-center-x="0.0079326534"
       inkscape:transform-center-y="-0.099840763" /><path
       sodipodi:type="star"
       style="fill:#fffefa;fill-opacity:1;stroke-width:0.529167;stroke-opacity:0.994009"
       id="path24"
       inkscape:flatsided="false"
       sodipodi:sides="5"
       sodipodi:cx="48.430332"
       sodipodi:cy="5.6797633"
       sodipodi:r1="1.2504038"
       sodipodi:r2="0.51897919"
       sodipodi:arg1="0.91966633"
       sodipodi:arg2="1.5479849"
       inkscape:rounded="0"
       inkscape:randomized="0"
       d="M 49.188184,6.6743338 48.44217,6.1986075 47.718629,6.7078623 47.94054,5.8513532 47.232623,5.320593 l 0.883163,-0.053625 0.286025,-0.8372827 0.323913,0.8233667 0.88469,0.013291 -0.682974,0.562494 z"
       transform="matrix(0.89958336,0,0,0.89958336,121.5841,100.47442)"
       inkscape:transform-center-x="0.0079266534"
       inkscape:transform-center-y="-0.099840763" /><path
       sodipodi:type="star"
       style="fill:#fffefa;fill-opacity:1;stroke-width:0.529167;stroke-opacity:0.994009"
       id="path25"
       inkscape:flatsided="false"
       sodipodi:sides="5"
       sodipodi:cx="48.430332"
       sodipodi:cy="5.6797633"
       sodipodi:r1="1.2504038"
       sodipodi:r2="0.67835325"
       sodipodi:arg1="0.91966633"
       sodipodi:arg2="1.5479849"
       inkscape:rounded="0"
       inkscape:randomized="0"
       d="m 49.188184,6.6743338 -0.742379,-0.3163937 -0.727176,0.3499222 0.0715,-0.8038153 -0.557506,-0.583454 0.786569,-0.1803915 0.382619,-0.7105166 0.414626,0.6923272 0.793977,0.1443306 -0.530316,0.6082732 z"
       transform="matrix(0.89958336,0,0,0.89958336,126.30452,100.47442)"
       inkscape:transform-center-x="0.0079306534"
       inkscape:transform-center-y="-0.099840763" /><path
       sodipodi:type="star"
       style="fill:#fffefa;fill-opacity:1;stroke-width:0.529167;stroke-opacity:0.994009"
       id="path26"
       inkscape:flatsided="false"
       sodipodi:sides="5"
       sodipodi:cx="48.430332"
       sodipodi:cy="5.6797633"
       sodipodi:r1="1.2504038"
       sodipodi:r2="0.52199888"
       sodipodi:arg1="0.91966633"
       sodipodi:arg2="1.5479849"
       inkscape:rounded="0"
       inkscape:randomized="0"
       d="M 49.188184,6.6743338 48.442239,6.2016264 47.718629,6.7078623 47.93769,5.8523516 47.232623,5.320593 l 0.881333,-0.056027 0.287855,-0.8348808 0.325632,0.8208839 0.882971,0.015774 -0.680081,0.5633614 z"
       transform="matrix(0.89958336,0,0,0.89958336,116.86367,104.06536)"
       inkscape:transform-center-x="0.0079326534"
       inkscape:transform-center-y="-0.099844763" /><path
       sodipodi:type="star"
       style="fill:#fffefa;fill-opacity:1;stroke-width:0.529167;stroke-opacity:0.994009"
       id="path27"
       inkscape:flatsided="false"
       sodipodi:sides="5"
       sodipodi:cx="48.430332"
       sodipodi:cy="5.6797633"
       sodipodi:r1="1.2504038"
       sodipodi:r2="0.67835325"
       sodipodi:arg1="0.91966633"
       sodipodi:arg2="1.5479849"
       inkscape:rounded="0"
       inkscape:randomized="0"
       d="m 49.188184,6.6743338 -0.742379,-0.3163937 -0.727176,0.3499222 0.0715,-0.8038153 -0.557506,-0.583454 0.786569,-0.1803915 0.382619,-0.7105166 0.414626,0.6923272 0.793977,0.1443306 -0.530316,0.6082732 z"
       transform="matrix(0.89958336,0,0,0.89958336,121.5841,104.06536)"
       inkscape:transform-center-x="0.0079266534"
       inkscape:transform-center-y="-0.099844763" /><path
       sodipodi:type="star"
       style="fill:#fffefa;fill-opacity:1;stroke-width:0.529167;stroke-opacity:0.994009"
       id="path28"
       inkscape:flatsided="false"
       sodipodi:sides="5"
       sodipodi:cx="48.430332"
       sodipodi:cy="5.6797633"
       sodipodi:r1="1.2504038"
       sodipodi:r2="0.51715565"
       sodipodi:arg1="0.91966633"
       sodipodi:arg2="1.5479849"
       inkscape:rounded="0"
       inkscape:randomized="0"
       d="m 49.188184,6.6743338 -0.746056,-0.4775494 -0.723499,0.5110779 0.223632,-0.857112 -0.709638,-0.5301573 0.884269,-0.052175 0.284919,-0.8387331 0.322875,0.824866 0.885728,0.011792 -0.68472,0.5619702 z"
       transform="matrix(0.89958336,0,0,0.89958336,126.30452,104.06536)"
       inkscape:transform-center-x="0.0079306534"
       inkscape:transform-center-y="-0.099844763" /><path
       sodipodi:type="star"
       style="fill:#fffefa;fill-opacity:1;stroke-width:0.529167;stroke-opacity:0.994009"
       id="path29"
       inkscape:flatsided="false"
       sodipodi:sides="5"
       sodipodi:cx="48.430332"
       sodipodi:cy="5.6797633"
       sodipodi:r1="1.2504038"
       sodipodi:r2="0.50313556"
       sodipodi:arg1="0.91966633"
       sodipodi:arg2="1.5479849"
       inkscape:rounded="0"
       inkscape:randomized="0"
       d="M 49.188184,6.6743338 48.441808,6.182768 47.718629,6.7078623 47.955493,5.8461149 47.232623,5.320593 l 0.892766,-0.041023 0.276422,-0.8498847 0.314895,0.8363935 0.893708,2.643e-4 -0.69815,0.557943 z"
       transform="matrix(0.89958336,0,0,0.89958336,116.86367,97.13327)"
       inkscape:transform-center-x="0.0079326534"
       inkscape:transform-center-y="-0.099844763" /></g></svg>
