<?xml version="1.0" encoding="UTF-8" standalone="no"?>
<!-- Created with Inkscape (http://www.inkscape.org/) -->

<svg
   width="21.49762"
   height="32.472992"
   viewBox="0 0 5.687912 8.5918125"
   version="1.1"
   id="svg5"
   xml:space="preserve"
   inkscape:version="1.2.2 (b0a8486541, 2022-12-01)"
   sodipodi:docname="antarmuka.svg"
   inkscape:export-filename="../../godot4_perf_test/tmp/antarmuka.png"
   inkscape:export-xdpi="96"
   inkscape:export-ydpi="96"
   xmlns:inkscape="http://www.inkscape.org/namespaces/inkscape"
   xmlns:sodipodi="http://sodipodi.sourceforge.net/DTD/sodipodi-0.dtd"
   xmlns="http://www.w3.org/2000/svg"
   xmlns:svg="http://www.w3.org/2000/svg"><sodipodi:namedview
     id="namedview7"
     pagecolor="#ffffff"
     bordercolor="#111111"
     borderopacity="1"
     inkscape:showpageshadow="0"
     inkscape:pageopacity="0"
     inkscape:pagecheckerboard="1"
     inkscape:deskcolor="#d1d1d1"
     inkscape:document-units="cm"
     showgrid="false"
     inkscape:zoom="0.64979967"
     inkscape:cx="574.02307"
     inkscape:cy="290.85888"
     inkscape:window-width="1366"
     inkscape:window-height="717"
     inkscape:window-x="0"
     inkscape:window-y="27"
     inkscape:window-maximized="1"
     inkscape:current-layer="g4915"
     showguides="true" /><defs
     id="defs2" /><g
     inkscape:groupmode="layer"
     id="g4915"
     inkscape:label="karakter"
     style="display:inline"
     sodipodi:insensitive="true"
     transform="translate(-158.53809,-96.544992)"><g
       id="g6461"
       style="display:inline"
       inkscape:label="tab_karakter"
       sodipodi:insensitive="true"><path
         style="fill:#ffffff;stroke-width:1"
         d="m 161.1779,104.645 v -0.49199 h -0.50999 -0.51001 v -0.312 -0.312 h 0.51001 0.50999 v -0.66526 -0.66525 l -0.0571,-0.007 c -0.16103,-0.0198 -0.32099,-0.0475 -0.42483,-0.0734 -0.98881,-0.24692 -1.76518,-0.99186 -2.04428,-1.96155 -0.0423,-0.147 -0.0898,-0.382801 -0.0898,-0.445636 0,-0.01871 -0.005,-0.03396 -0.0119,-0.03396 -0.008,0 -0.0119,-0.10799 -0.0119,-0.299996 0,-0.164995 0.004,-0.299995 0.009,-0.299995 0.005,0 0.0163,-0.05161 0.0248,-0.114623 0.0362,-0.269575 0.12537,-0.553903 0.2596,-0.827432 0.15014,-0.305992 0.31231,-0.53139 0.55424,-0.770333 0.4209,-0.415706 1.01023,-0.711018 1.56693,-0.785218 0.0643,-0.008 0.11701,-0.01977 0.11701,-0.02507 0,-0.0053 0.1404,-0.0093 0.312,-0.0093 0.17159,0 0.31199,0.004 0.31199,0.0093 0,0.0053 0.0527,0.01645 0.11701,0.02507 0.14836,0.01977 0.39787,0.08331 0.55072,0.14028 0.69756,0.259904 1.24743,0.755196 1.57121,1.415271 0.1312,0.267559 0.24381,0.634471 0.26531,0.864777 0.004,0.04245 0.0119,0.07721 0.0175,0.07721 0.005,0 0.0106,0.135 0.0106,0.299996 0,0.164995 -0.004,0.299995 -0.009,0.299995 -0.005,0 -0.0164,0.05267 -0.0249,0.117011 -0.0352,0.263963 -0.12829,0.557143 -0.26595,0.836993 -0.38311,0.77907 -1.12239,1.34588 -1.97573,1.51481 l -0.15987,0.0316 v 0.67577 0.67575 h 0.51 0.50999 v 0.312 0.31199 h -0.50999 -0.51 v 0.492 0.49199 h -0.306 -0.30599 z m 0.59791,-3.34674 c 0.76734,-0.17037 1.33384,-0.71639 1.52014,-1.465221 0.0434,-0.174499 0.0581,-0.328364 0.0508,-0.532509 -0.0207,-0.577451 -0.29222,-1.110155 -0.74685,-1.46506 -0.51908,-0.405213 -1.20464,-0.52757 -1.82232,-0.325242 -0.30615,0.100295 -0.55796,0.255473 -0.78857,0.485979 -0.28416,0.284022 -0.45478,0.600641 -0.54109,1.004102 -0.0243,0.113428 -0.028,0.163337 -0.0275,0.376729 2.8e-4,0.209398 0.004,0.264746 0.0277,0.372011 0.18481,0.856151 0.82398,1.448991 1.69982,1.576591 0.0198,0.003 0.14401,0.004 0.276,10e-4 0.18779,-0.003 0.26435,-0.009 0.35191,-0.0287 z"
         id="path5798"
         inkscape:label="ikon_cewek"
         inkscape:export-filename="../../godot4_perf_test/ui/ikon/ikon_gender_cewek.svg"
         inkscape:export-xdpi="96"
         inkscape:export-ydpi="96" /></g></g></svg>
