<?xml version="1.0" encoding="UTF-8" standalone="no"?>
<!-- Created with Inkscape (http://www.inkscape.org/) -->

<svg
   width="24"
   height="24"
   viewBox="0 0 6.3500002 6.35"
   version="1.1"
   id="svg5"
   xml:space="preserve"
   sodipodi:docname="ikon_informasi_sinyal.svg"
   inkscape:version="1.4 (e7c3feb100, 2024-10-09)"
   xmlns:inkscape="http://www.inkscape.org/namespaces/inkscape"
   xmlns:sodipodi="http://sodipodi.sourceforge.net/DTD/sodipodi-0.dtd"
   xmlns="http://www.w3.org/2000/svg"
   xmlns:svg="http://www.w3.org/2000/svg"><sodipodi:namedview
     id="namedview1"
     pagecolor="#ffffff"
     bordercolor="#000000"
     borderopacity="0.25"
     inkscape:showpageshadow="2"
     inkscape:pageopacity="0.0"
     inkscape:pagecheckerboard="true"
     inkscape:deskcolor="#d1d1d1"
     inkscape:zoom="22.916667"
     inkscape:cx="12"
     inkscape:cy="12"
     inkscape:window-width="1283"
     inkscape:window-height="761"
     inkscape:window-x="41"
     inkscape:window-y="44"
     inkscape:window-maximized="1"
     inkscape:current-layer="svg5" /><defs
     id="defs2" /><path
     style="fill:#ffffff;stroke-width:0.0350328;fill-opacity:1"
     d="M 1.0291409,4.5410807 C 1.0124109,4.5328407 0.9894689,4.5131167 0.9781613,4.4972637 0.957622,4.4684697 0.9575979,4.4679157 0.9550528,3.9719393 L 0.9525078,3.4754391 0.9736253,3.4441021 c 0.0116145,-0.017235 0.0357023,-0.039904 0.0535278,-0.050376 0.031097,-0.018267 0.046137,-0.019039 0.3711397,-0.019039 0.3776674,0 0.3611931,-0.00264 0.4137672,0.066289 l 0.026107,0.034229 v 0.487349 c 0,0.4749262 -4.93e-4,0.488175 -0.019039,0.519759 -0.010474,0.017827 -0.032986,0.04181 -0.050034,0.053297 C 1.738325,4.5563451 1.735637,4.5564951 1.3988315,4.5562851 1.1053066,4.556103 1.0554616,4.5540551 1.0291437,4.5410811 Z m 1.1864438,0 c -0.01673,-0.00824 -0.039672,-0.027964 -0.050981,-0.043817 l -0.02056,-0.028824 -0.00247,-0.7932302 -0.00247,-0.7932299 0.021038,-0.031218 c 0.011572,-0.01717 0.035623,-0.039786 0.053449,-0.050257 0.031097,-0.018267 0.046138,-0.019039 0.3711398,-0.019039 0.3776674,0 0.3611933,-0.00264 0.4137671,0.066288 l 0.026107,0.034229 v 0.7839599 c 0,0.7741398 -2.367e-4,0.7843659 -0.019039,0.8163701 -0.010474,0.017826 -0.032987,0.04181 -0.050034,0.053297 -0.030769,0.020735 -0.033456,0.020885 -0.3702627,0.020675 C 2.291744,4.5561024 2.241899,4.5540546 2.2155811,4.5410806 Z m 1.1864437,0 c -0.016732,-0.00824 -0.039672,-0.027964 -0.05098,-0.043817 l -0.02056,-0.028824 -0.00243,-1.0898987 -0.00243,-1.0898986 0.020999,-0.03116 c 0.011549,-0.017139 0.035584,-0.039729 0.053409,-0.050201 0.031097,-0.018268 0.046136,-0.019039 0.37114,-0.019039 0.3776671,0 0.3611929,-0.00264 0.413767,0.066288 l 0.026107,0.034228 v 1.0805709 c 0,1.073353 -1.262e-4,1.0807874 -0.019039,1.1129811 -0.010474,0.017825 -0.032986,0.04181 -0.050034,0.053297 -0.030769,0.020735 -0.033457,0.020885 -0.3702624,0.020675 -0.2935252,-1.822e-4 -0.3433699,-0.00223 -0.3696881,-0.015204 z m 1.1864439,0 c -0.01673,-0.00824 -0.039672,-0.027964 -0.05098,-0.043817 l -0.02056,-0.028824 -0.00241,-1.2821648 c -0.00267,-1.4206617 -0.00681,-1.3212486 0.056855,-1.3666609 0.028572,-0.02038 0.033911,-0.02071 0.377054,-0.023303 l 0.3480721,-0.00263 0.031459,0.0212 c 0.017304,0.01166 0.040027,0.035785 0.050499,0.053611 0.018956,0.03227 0.019039,0.037926 0.019039,1.3069104 0,1.2689842 -8.4e-5,1.2746406 -0.019039,1.3069106 C 5.3679874,4.500138 5.3454754,4.524123 5.3284274,4.53561 5.2976584,4.556345 5.2949714,4.556495 4.9581649,4.556285 4.6646364,4.556101 4.6147916,4.5540505 4.5884732,4.5410788 Z"
     id="path1" /></svg>
