<?xml version="1.0" encoding="UTF-8" standalone="no"?>
<!-- Created with Inkscape (http://www.inkscape.org/) -->

<svg
   width="27.539738"
   height="27.552485"
   viewBox="0 0 7.2865558 7.2899282"
   version="1.1"
   id="svg5"
   xml:space="preserve"
   xmlns="http://www.w3.org/2000/svg"
   xmlns:svg="http://www.w3.org/2000/svg"><defs
     id="defs2" /><g
     id="layer8"
     transform="translate(-4.7191545,-4.717331)"><g
       id="g3426"
       style="display:inline"><path
         style="fill:#333333;fill-opacity:1;stroke-width:1"
         d="m -145.09731,17.243289 c -0.14775,-0.02675 -0.28333,-0.09843 -0.39555,-0.20912 -0.065,-0.06406 -0.11128,-0.133278 -0.14474,-0.216262 -0.067,-0.166045 -0.13652,-0.27165 -0.259,-0.393183 -0.0495,-0.04914 -0.10926,-0.100656 -0.13276,-0.114485 -0.10028,-0.05902 -0.20803,-0.08039 -0.36645,-0.07265 -0.15069,0.0074 -0.2737,0.03704 -0.43302,0.104489 -0.079,0.03343 -0.14948,0.04401 -0.26296,0.03947 -0.33238,-0.01332 -0.57381,-0.205242 -0.65639,-0.521807 -0.0217,-0.08311 -0.027,-0.225743 -0.0114,-0.307953 0.006,-0.03378 0.0248,-0.09241 0.0408,-0.13029 0.0663,-0.1564 0.0899,-0.260693 0.0958,-0.422515 0.009,-0.234648 -0.0362,-0.345988 -0.20354,-0.506381 -0.11314,-0.108466 -0.23029,-0.183123 -0.37986,-0.242083 -0.15575,-0.06139 -0.29791,-0.205259 -0.37218,-0.376632 -0.0421,-0.09709 -0.056,-0.162267 -0.0564,-0.263425 -7.2e-4,-0.182784 0.0697,-0.351717 0.20558,-0.493281 0.07,-0.07288 0.13593,-0.118785 0.21749,-0.151351 0.23342,-0.0932 0.43501,-0.254366 0.53069,-0.424293 0.0433,-0.07691 0.0557,-0.142038 0.0557,-0.293538 9e-5,-0.182091 -0.0233,-0.29091 -0.10274,-0.478828 -0.0292,-0.06898 -0.041,-0.135812 -0.041,-0.232184 -1.2e-4,-0.298791 0.15799,-0.545763 0.4167,-0.650931 0.0881,-0.03582 0.15461,-0.0498 0.25746,-0.05412 0.11809,-0.005 0.1905,0.0074 0.28976,0.04954 0.15004,0.06368 0.26196,0.08891 0.42065,0.09483 0.23271,0.0087 0.34682,-0.0372 0.50638,-0.203636 0.10741,-0.112038 0.1808,-0.226617 0.23878,-0.372775 0.0333,-0.08391 0.0693,-0.139061 0.1366,-0.209202 0.0968,-0.100875 0.22177,-0.174125 0.35962,-0.2107843 0.0745,-0.0198 0.21328,-0.02171 0.28664,-0.0039 0.13341,0.03233 0.25496,0.09891 0.35378,0.1937813 0.0729,0.06997 0.11878,0.135933 0.15135,0.217499 0.064,0.160393 0.14093,0.278903 0.25606,0.394679 0.0881,0.08861 0.15006,0.133983 0.21805,0.159716 0.1632,0.06177 0.44186,0.04365 0.64948,-0.04223 0.1358,-0.05617 0.16746,-0.06397 0.27547,-0.06783 0.35673,-0.01275 0.62787,0.18503 0.71581,0.522142 0.0102,0.039 0.0171,0.09358 0.0195,0.154016 0.004,0.113827 -0.008,0.188041 -0.0498,0.286092 -0.0648,0.15356 -0.0889,0.259671 -0.0948,0.416928 -0.009,0.234066 0.0355,0.347624 0.19594,0.50314 0.11354,0.110033 0.21932,0.179911 0.36377,0.240309 0.10594,0.0443 0.15811,0.07707 0.22521,0.141493 0.18891,0.181362 0.2697,0.441093 0.20804,0.668869 -0.0375,0.138526 -0.10646,0.255673 -0.20767,0.352799 -0.07,0.06718 -0.12517,0.10317 -0.20917,0.136488 -0.1612,0.06395 -0.29484,0.153912 -0.40998,0.276006 -0.133,0.141029 -0.17642,0.26634 -0.1664,0.480273 0.007,0.141462 0.0365,0.267894 0.098,0.415094 0.0418,0.100073 0.0508,0.154568 0.0465,0.281028 -0.003,0.08725 -0.007,0.1205 -0.0231,0.173353 -0.0759,0.255526 -0.23903,0.414876 -0.49453,0.483077 -0.0381,0.01017 -0.0907,0.01652 -0.1578,0.01907 -0.11297,0.0043 -0.18353,-0.0063 -0.26296,-0.03937 -0.0252,-0.01051 -0.0676,-0.02759 -0.0943,-0.03796 -0.19858,-0.07738 -0.47137,-0.09157 -0.62715,-0.03261 -0.1654,0.0626 -0.36621,0.292183 -0.46028,0.526235 -0.0174,0.04326 -0.0473,0.102601 -0.0664,0.131861 -0.10531,0.160976 -0.28935,0.278763 -0.49066,0.314018 -0.0751,0.01315 -0.12729,0.01299 -0.20258,-6.44e-4 z m 0.24978,-2.304191 c 0.39846,-0.04565 0.74012,-0.253053 0.96838,-0.587848 0.0523,-0.0767 0.12788,-0.231696 0.15919,-0.32641 0.0888,-0.268689 0.0876,-0.56896 -0.003,-0.841183 -0.23245,-0.695898 -0.98514,-1.076582 -1.68102,-0.850188 -0.57416,0.186792 -0.94997,0.724762 -0.92588,1.325381 0.005,0.128486 0.02,0.219703 0.0543,0.333275 0.15464,0.51217 0.59929,0.884781 1.12961,0.94659 0.0774,0.009 0.22172,0.0092 0.29871,3.94e-4 z"
         id="path3424"
         transform="translate(153.35412,-5.24644)" /></g></g></svg>
