<?xml version="1.0" encoding="UTF-8" standalone="no"?>
<!-- Created with Inkscape (http://www.inkscape.org/) -->

<svg
   width="33"
   height="33"
   viewBox="0 0 8.7312498 8.73125"
   version="1.1"
   id="svg1"
   inkscape:version="1.4.2 (ebf0e940d0, 2025-05-08)"
   sodipodi:docname="ikon_kode_objek .svg"
   xml:space="preserve"
   xmlns:inkscape="http://www.inkscape.org/namespaces/inkscape"
   xmlns:sodipodi="http://sodipodi.sourceforge.net/DTD/sodipodi-0.dtd"
   xmlns="http://www.w3.org/2000/svg"
   xmlns:svg="http://www.w3.org/2000/svg"><sodipodi:namedview
     id="namedview1"
     pagecolor="#3dba48"
     bordercolor="#000000"
     borderopacity="0.25"
     inkscape:showpageshadow="2"
     inkscape:pageopacity="0.0"
     inkscape:pagecheckerboard="true"
     inkscape:deskcolor="#d1d1d1"
     inkscape:document-units="px"
     inkscape:zoom="12.706495"
     inkscape:cx="28.450018"
     inkscape:cy="17.274631"
     inkscape:window-width="1440"
     inkscape:window-height="822"
     inkscape:window-x="0"
     inkscape:window-y="0"
     inkscape:window-maximized="1"
     inkscape:current-layer="layer1" /><defs
     id="defs1" /><g
     inkscape:label="Lapis 1"
     inkscape:groupmode="layer"
     id="layer1"><path
       style="fill:#ffffff;stroke-width:0.0644531"
       d="M 3.7995131,7.1716744 C 3.5925155,7.1146393 3.4451582,6.9239939 3.4448462,6.7128211 3.4447818,6.6548866 4.5658402,2.0979809 4.6347419,1.8761955 4.6723858,1.7550256 4.7802384,1.6353531 4.8980368,1.5840467 5.2078333,1.449116 5.5598067,1.6757696 5.5594348,2.0099547 5.5593704,2.0989793 4.3930878,6.81236 4.3459197,6.9143657 4.2528803,7.1155706 4.0103676,7.2297724 3.7995131,7.1716744 Z M 2.1913392,6.549006 C 2.1632016,6.5417544 2.1113013,6.5220682 2.0760049,6.5052589 1.9994623,6.4688063 0.18644468,4.8870553 0.10653954,4.787016 0.04721691,4.7127457 -2e-7,4.5809334 -2e-7,4.4895965 -2e-7,4.413793 0.0458446,4.28212 0.09494119,4.2169116 0.16090543,4.1293005 1.9884472,2.5346417 2.0759507,2.488342 c 0.066923,-0.03541 0.103747,-0.042555 0.217354,-0.04217 0.157985,5.349e-4 0.2338714,0.031946 0.3352762,0.1387813 0.1015833,0.1070232 0.1250074,0.1670801 0.1252763,0.3211928 3.867e-4,0.2302562 0.00981,0.2194022 -0.8213817,0.9477402 -0.3977584,0.3485389 -0.7209412,0.6397031 -0.7181839,0.6470312 0.00276,0.00733 0.3243675,0.2934776 0.7146886,0.6358877 0.3903211,0.3424102 0.7269745,0.6468597 0.7481191,0.6765544 0.1623793,0.2280413 0.07617,0.5680779 -0.1747292,0.6891838 -0.097756,0.047186 -0.2309943,0.067089 -0.3110309,0.046463 z M 6.3259025,6.54166 C 6.1643429,6.4963716 6.0481043,6.3883054 5.9962582,6.2351919 5.9470914,6.0899908 5.9724743,5.9216039 6.0610304,5.8055009 6.0852957,5.773688 6.4216779,5.4701615 6.8085468,5.1309976 7.1954158,4.7918336 7.514201,4.5083189 7.5169583,4.5009648 7.5197169,4.4936108 7.1965334,4.2024254 6.7987751,3.8538861 5.9675843,3.1255482 5.9769913,3.1364021 5.9773928,2.906146 5.9776506,2.7520333 6.0010864,2.6919764 6.1026697,2.5849531 6.2040744,2.4781182 6.2799609,2.4467063 6.4379458,2.4461718 c 0.1136064,-3.868e-4 0.1504311,0.00676 0.2173534,0.04217 0.087504,0.046299 1.9150464,1.6409584 1.9810099,1.7285696 0.049093,0.065208 0.094941,0.1968814 0.094941,0.2726849 0,0.091337 -0.047216,0.2231491 -0.1065388,0.2974194 C 8.5364023,4.8975769 6.7285987,6.4705144 6.6442927,6.5101428 6.5460087,6.5563418 6.4220512,6.5686118 6.3259025,6.54166 Z"
       id="path1" /></g></svg>
