<?xml version="1.0" encoding="UTF-8" standalone="no"?>
<!-- Created with Inkscape (http://www.inkscape.org/) -->

<svg
   width="29.342667"
   height="32.5443"
   viewBox="0 0 7.7635808 8.6106794"
   version="1.1"
   id="svg5"
   xml:space="preserve"
   inkscape:version="1.3 (0e150ed6c4, 2023-07-21)"
   sodipodi:docname="ikon_mode_edit.svg"
   inkscape:export-filename="../../../../Desktop/antarmuka.png"
   inkscape:export-xdpi="96"
   inkscape:export-ydpi="96"
   xmlns:inkscape="http://www.inkscape.org/namespaces/inkscape"
   xmlns:sodipodi="http://sodipodi.sourceforge.net/DTD/sodipodi-0.dtd"
   xmlns="http://www.w3.org/2000/svg"
   xmlns:svg="http://www.w3.org/2000/svg"><sodipodi:namedview
     id="namedview7"
     pagecolor="#ffffff"
     bordercolor="#111111"
     borderopacity="1"
     inkscape:showpageshadow="0"
     inkscape:pageopacity="0"
     inkscape:pagecheckerboard="1"
     inkscape:deskcolor="#d1d1d1"
     inkscape:document-units="cm"
     showgrid="false"
     inkscape:zoom="5.4651003"
     inkscape:cx="-5.1234193"
     inkscape:cy="9.5149215"
     inkscape:window-width="1366"
     inkscape:window-height="696"
     inkscape:window-x="0"
     inkscape:window-y="0"
     inkscape:window-maximized="1"
     inkscape:current-layer="layer8"
     showguides="true" /><defs
     id="defs2" /><g
     inkscape:groupmode="layer"
     id="layer8"
     inkscape:label="mode_edit"
     transform="translate(-172.97747,-67.628198)"><path
       style="fill:#ffffff;stroke-width:0.0342351;fill-opacity:1"
       d="m 173.54047,75.448319 c -0.12055,-0.03974 -0.19372,-0.132664 -0.20182,-0.256315 l -0.004,-0.06457 0.28225,-0.846796 c 0.18575,-0.557246 0.29111,-0.860377 0.30813,-0.88652 0.0143,-0.02184 1.12786,-1.141112 2.47476,-2.487251 2.71367,-2.71214 2.48445,-2.493366 2.6126,-2.493542 0.13119,-1.72e-4 0.0868,-0.03691 0.73565,0.610213 0.65329,0.65163 0.63156,0.625846 0.6308,0.748351 -8.7e-4,0.137662 0.23884,-0.114201 -2.48937,2.615845 -1.34563,1.346521 -2.46703,2.462368 -2.49201,2.479664 -0.0366,0.02536 -0.20635,0.08497 -0.87862,0.308557 -0.87626,0.291426 -0.90017,0.298082 -0.97815,0.272365 z m 1.04629,-0.898291 0.50264,-0.167597 1.75951,-1.759491 c 0.96773,-0.967721 1.75952,-1.763592 1.75952,-1.768604 0,-0.005 -0.15083,-0.159905 -0.33518,-0.34421 l -0.33519,-0.335099 -1.76574,1.770842 -1.76573,1.770843 -0.16738,0.500456 c -0.0921,0.275251 -0.16462,0.500457 -0.16123,0.500457 0.003,0 0.23233,-0.07542 0.50878,-0.167597 z m 5.09958,-4.77356 c 0,-0.005 -0.15081,-0.159932 -0.33516,-0.344222 l -0.33517,-0.33507 -0.33736,0.337367 -0.33737,0.337366 0.33961,0.33969 0.3396,0.339692 0.33291,-0.332837 c 0.18313,-0.183059 0.33294,-0.336953 0.33294,-0.341986 z"
       id="path2"
       sodipodi:nodetypes="sccssscscsssssccssscccsscsscccccss" /></g></svg>
