<?xml version="1.0" encoding="UTF-8" standalone="no"?>
<!-- Created with Inkscape (http://www.inkscape.org/) -->

<svg
   width="40"
   height="40"
   viewBox="0 0 10.583334 10.583333"
   version="1.1"
   id="svg5"
   xml:space="preserve"
   inkscape:version="1.4 (e7c3feb100, 2024-10-09)"
   sodipodi:docname="ikon_reset_posisi_objek.svg"
   inkscape:export-filename="../../godot4_perf_test/tmp/antarmuka.png"
   inkscape:export-xdpi="96"
   inkscape:export-ydpi="96"
   xmlns:inkscape="http://www.inkscape.org/namespaces/inkscape"
   xmlns:sodipodi="http://sodipodi.sourceforge.net/DTD/sodipodi-0.dtd"
   xmlns="http://www.w3.org/2000/svg"
   xmlns:svg="http://www.w3.org/2000/svg"><sodipodi:namedview
     id="namedview7"
     pagecolor="#0c0c0c"
     bordercolor="#111111"
     borderopacity="1"
     inkscape:showpageshadow="0"
     inkscape:pageopacity="0"
     inkscape:pagecheckerboard="1"
     inkscape:deskcolor="#d1d1d1"
     inkscape:document-units="cm"
     showgrid="false"
     inkscape:zoom="3.5537506"
     inkscape:cx="19.978892"
     inkscape:cy="19.978892"
     inkscape:window-width="1283"
     inkscape:window-height="761"
     inkscape:window-x="41"
     inkscape:window-y="44"
     inkscape:window-maximized="0"
     inkscape:current-layer="layer1"
     showguides="true" /><defs
     id="defs2" /><g
     inkscape:groupmode="layer"
     id="layer1"
     inkscape:label="Layer 1"><path
       style="fill:#ffffff;fill-opacity:1;stroke-width:0.0715915"
       d="M 5.1600677,9.4986686 C 5.1236626,9.4790326 4.7386289,9.106483 4.3045486,8.6707978 3.4520966,7.8151902 3.4517885,7.8148155 3.4828332,7.6493701 3.500749,7.5542497 3.6130171,7.4411755 3.7072117,7.4235011 3.8743453,7.3921483 3.8769538,7.3940617 4.4539384,7.9690403 l 0.5345597,0.5327051 0.00573,-1.2051791 C 4.9999581,6.1130755 5.0006781,6.090445 5.0385871,6.0390894 5.1007901,5.9558414 5.1686779,5.914721 5.26126,5.904286 c 0.1210253,-0.01363 0.2473466,0.049039 0.2976902,0.1477064 0.03576,0.070309 0.037265,0.1171376 0.037265,1.2619251 V 8.5028254 L 6.1218639,7.9793227 C 6.7045957,7.398957 6.7258512,7.3838052 6.8887496,7.4326139 6.9874446,7.4621822 7.086935,7.563786 7.1034535,7.6518884 7.134842,7.8191346 7.1537612,7.7957085 6.2815445,8.6714363 5.8240732,9.1307702 5.4466358,9.4946478 5.4121441,9.5096126 5.3295301,9.5454606 5.2401947,9.5415726 5.1605622,9.4986758 Z M 2.7449784,7.0752149 C 2.6944556,7.0515659 2.4064615,6.7758162 1.8799854,6.2469251 1.027426,5.3904622 1.0277699,5.3908993 1.0579403,5.2238688 1.0696214,5.1591495 1.1634863,5.0586077 1.8985606,4.3235364 2.7918678,3.4302355 2.7659614,3.4512745 2.9338476,3.482772 c 0.088103,0.016526 0.1897076,0.1160132 0.219276,0.2147003 0.048803,0.1629092 0.03361,0.1841624 -0.5467066,0.7668951 L 2.0829149,4.9900042 H 3.27182 c 1.144796,0 1.1916209,0.0013 1.26193,0.03725 0.098659,0.050336 0.1613504,0.1766677 0.1476986,0.2976945 -0.010463,0.092578 -0.051526,0.1605005 -0.1347919,0.2226708 -0.051382,0.038354 -0.074035,0.03915 -1.2574799,0.044345 l -1.2051797,0.0053 0.5327036,0.5345619 C 3.1895072,6.7066175 3.1934774,6.7120245 3.1630563,6.8741904 3.1394788,6.9999406 3.0023364,7.1121227 2.8734424,7.1111051 2.8444187,7.11089 2.7866511,7.0947299 2.7449784,7.0752447 Z m 4.8481877,0.00962 C 7.5155688,7.0510429 7.4373696,6.9546296 7.4222701,6.8741515 7.3918848,6.7119847 7.3958263,6.7065807 7.9686328,6.1317883 L 8.5013364,5.5972251 7.2961567,5.591922 C 6.1126624,5.5867621 6.0900381,5.5859739 6.0386768,5.5475765 5.9554325,5.4854012 5.9143048,5.4174836 5.9038706,5.3249029 5.8902545,5.2038791 5.9528884,5.0775455 6.0515835,5.0272105 6.1218854,4.9913501 6.1687246,4.9899599 7.3135064,4.9899599 H 8.5024186 L 7.9789093,4.4643222 C 7.3985495,3.8815895 7.3833927,3.8603363 7.4322027,3.6974279 7.4617996,3.5987408 7.5633756,3.4992533 7.6514788,3.4827248 7.818727,3.4513428 7.7953074,3.4324598 8.6710285,4.3046416 9.1303632,4.762115 9.4942344,5.1395431 9.5091976,5.1740347 c 0.036408,0.083938 0.033112,0.1645316 -0.010104,0.2476076 -0.05468,0.104863 -1.5850405,1.6246929 -1.672298,1.6607268 -0.085287,0.035222 -0.1566064,0.035968 -0.2335801,0.00251 z M 5.1695416,4.6601851 C 5.0931054,4.6262022 5.0305144,4.5552102 5.0080837,4.4769859 4.9969759,4.4381872 4.9895945,3.9486602 4.9895945,3.2479078 V 2.0833003 L 4.4544902,2.6165542 C 3.8769109,3.1921306 3.8743596,3.1939953 3.7072117,3.1626389 3.6130171,3.1449595 3.5006774,3.0318888 3.4828404,2.9367712 3.4516667,2.7705591 3.4499468,2.7727003 4.3233961,1.8992267 5.197046,1.025571 5.194022,1.0280254 5.3618722,1.0583334 5.426656,1.0700145 5.5271354,1.1638909 6.2622097,1.8989616 7.1555098,2.7922631 7.1344694,2.7663567 7.1029733,2.9342522 7.0864907,3.0223546 6.9869572,3.1239579 6.8882694,3.1535239 6.7253567,3.2023341 6.7041085,3.1871843 6.1213765,2.6068173 L 5.5957175,2.0833195 v 1.1889087 c 0,1.1447853 -0.00143,1.1916145 -0.037265,1.2619237 -0.064712,0.1267068 -0.2513243,0.1872 -0.3889398,0.1260367 z"
       id="path4"
       inkscape:export-filename="../../godot4_perf_test/ui/ikon/ikon_posisi_objek.svg"
       inkscape:export-xdpi="96"
       inkscape:export-ydpi="96"
       inkscape:label="translasi" /><path
       style="fill:#ffffff;fill-opacity:1;stroke:#000000;stroke-width:0.948799;stroke-linejoin:round;stroke-dasharray:none;stroke-opacity:1;paint-order:stroke markers fill"
       d="M 4.5499951,10.03827 C 4.5570237,9.9378156 4.5541334,9.7039077 4.5446089,9.6022587 4.5259895,9.403541 4.4909314,9.249766 4.4299123,9.0991692 4.2895584,8.7527718 4.0240229,8.5196986 3.6154616,8.3842865 3.3224847,8.2871834 2.9775814,8.2385908 2.5125347,8.2288982 l -0.1638266,-0.00341 v 0.3661712 0.3661711 l -0.013433,0.026957 c -0.015431,0.030967 -0.036673,0.049069 -0.071505,0.060938 -0.029261,0.00997 -0.068396,0.00681 -0.092353,-0.00744 C 2.1625041,9.0329741 2.0309877,8.9314704 1.8791579,8.8127147 1.7273281,8.6939589 1.5079036,8.5224934 1.3915481,8.43168 0.80030644,7.9702272 0.63974614,7.8432278 0.62860114,7.8282072 0.59258844,7.7796712 0.59739844,7.7185738 0.64068654,7.6746939 c 0.0128243,-0.013 0.0767217,-0.065429 0.1419943,-0.1165097 C 1.012215,7.3785566 1.4879043,7.0050484 1.8161193,6.7467348 1.9985505,6.6031567 2.1564433,6.4805291 2.166992,6.474229 2.22228,6.441208 2.298478,6.461379 2.3316532,6.517818 l 0.014475,0.024625 0.00258,0.3766722 0.00258,0.3766721 0.087718,0.00104 c 0.8653142,0.010257 1.4828542,0.1930014 1.8508125,0.5476992 0.2484917,0.2395366 0.3813789,0.5296729 0.428122,0.9347301 0.010168,0.088111 0.00861,0.3862002 -0.0026,0.4953497 -0.017828,0.1737055 -0.047959,0.3519897 -0.090334,0.5345009 -0.021449,0.09238 -0.072088,0.2815418 -0.076543,0.2859218 -0.00144,0.0014 -7.53e-4,-0.02412 0.00153,-0.05676 z"
       id="path1"
       inkscape:label="undo" /></g></svg>
