<?xml version="1.0" encoding="UTF-8" standalone="no"?>
<!-- Created with Inkscape (http://www.inkscape.org/) -->

<svg
   width="36.782127"
   height="36.785553"
   viewBox="0 0 9.7319382 9.7328442"
   version="1.1"
   id="svg5"
   xml:space="preserve"
   xmlns="http://www.w3.org/2000/svg"
   xmlns:svg="http://www.w3.org/2000/svg"><defs
     id="defs2" /><g
     id="layer3"
     style="display:inline"
     transform="translate(-40.965108,-10.13358)"><g
       id="g15406"
       transform="translate(-111.77469,0.88289657)"><path
         style="display:inline;fill:#f9f9f9;fill-opacity:1;stroke-width:0.999996"
         d="m 64.809015,19.859824 c -1.477165,-0.07901 -2.826084,-0.812595 -3.695918,-2.009949 -0.655529,-0.902359 -0.982896,-2.029355 -0.913269,-3.144027 0.09493,-1.51969 0.872071,-2.88117 2.135688,-3.741514 1.422477,-0.9685058 3.304352,-1.1007798 4.852627,-0.341083 0.486083,0.238508 0.880945,0.517415 1.265188,0.893652 0.231912,0.227081 0.402228,0.424934 0.573115,0.665778 0.747274,1.053186 1.04164,2.342386 0.828429,3.628164 -0.219587,1.324226 -0.993773,2.509603 -2.127177,3.25698 -0.852485,0.562135 -1.900325,0.846472 -2.918683,0.791999 z m -0.538929,-3.214391 0.787272,-0.787225 0.787272,0.787225 0.787271,0.787225 h 0.42961 0.429611 v -0.429611 -0.429611 l -0.787224,-0.787271 -0.787225,-0.787272 0.787225,-0.787271 0.787224,-0.787272 v -0.42961 -0.429611 h -0.429611 -0.42961 l -0.787271,0.787225 -0.787272,0.787225 -0.787272,-0.787225 -0.787271,-0.787225 h -0.429611 -0.42961 v 0.429611 0.42961 l 0.787224,0.787272 0.787225,0.787271 -0.787225,0.787272 -0.787224,0.787271 v 0.429611 0.429611 h 0.42961 0.429611 z"
         id="path15422"
         transform="translate(92.549173,-0.88289657)" /></g></g></svg>
