<?xml version="1.0" encoding="UTF-8" standalone="no"?>
<!-- Created with Inkscape (http://www.inkscape.org/) -->

<svg
   width="40"
   height="40"
   viewBox="0 0 10.583334 10.583333"
   version="1.1"
   id="svg5"
   xml:space="preserve"
   inkscape:version="1.4 (e7c3feb100, 2024-10-09)"
   sodipodi:docname="ikon_reset_skala_objek.svg"
   inkscape:export-filename="../../godot4_perf_test/tmp/antarmuka.png"
   inkscape:export-xdpi="96"
   inkscape:export-ydpi="96"
   xmlns:inkscape="http://www.inkscape.org/namespaces/inkscape"
   xmlns:sodipodi="http://sodipodi.sourceforge.net/DTD/sodipodi-0.dtd"
   xmlns="http://www.w3.org/2000/svg"
   xmlns:svg="http://www.w3.org/2000/svg"><sodipodi:namedview
     id="namedview7"
     pagecolor="#0c0c0c"
     bordercolor="#111111"
     borderopacity="1"
     inkscape:showpageshadow="0"
     inkscape:pageopacity="0"
     inkscape:pagecheckerboard="1"
     inkscape:deskcolor="#d1d1d1"
     inkscape:document-units="cm"
     showgrid="false"
     inkscape:zoom="3.5537506"
     inkscape:cx="19.978892"
     inkscape:cy="19.978892"
     inkscape:window-width="1283"
     inkscape:window-height="761"
     inkscape:window-x="41"
     inkscape:window-y="44"
     inkscape:window-maximized="0"
     inkscape:current-layer="layer1"
     showguides="true" /><defs
     id="defs2" /><g
     inkscape:groupmode="layer"
     id="layer1"
     inkscape:label="Layer 1"><path
       style="fill:#ffffff;fill-opacity:1;stroke-width:0.0630396"
       d="M 1.6570271,9.5398358 C 1.3682497,9.4838534 1.1022159,9.219191 1.041586,8.9275784 1.0159919,8.8042564 1.0159919,6.2083853 1.0416459,6.0854152 1.0983982,5.8132962 1.2967572,5.5870627 1.5694763,5.4834217 c 0.094236,-0.035815 0.1112704,-0.03644 0.9911531,-0.036619 0.8823994,-1.892e-4 0.8959498,3.236e-4 0.9423788,0.03471 0.090769,0.06723 0.1258222,0.1384559 0.118649,0.241074 -0.0077,0.1109348 -0.045453,0.1692877 -0.1393555,0.2158289 -0.065226,0.032305 -0.099415,0.033598 -0.8846335,0.033598 -0.8139286,0 -0.8170872,1.266e-4 -0.8911733,0.037526 -0.048877,0.024661 -0.0872,0.060399 -0.1118439,0.1042445 l -0.037493,0.066716 0.00428,1.3372898 c 0.00428,1.3214487 0.00428,1.3378359 0.038434,1.3833439 0.018917,0.025329 0.055126,0.061529 0.080463,0.080446 0.045539,0.033974 0.062231,0.034445 1.3816397,0.038854 1.3204874,0.00445 1.3363917,0.00411 1.4067971,-0.030011 C 4.6075024,8.9232618 4.6000553,8.9753058 4.609454,8.0068744 L 4.618014,7.1478949 4.656192,7.0865289 C 4.70738,7.0041739 4.8212867,6.948749 4.9137938,6.9611566 c 0.079607,0.010674 0.1393641,0.050692 0.1926495,0.128987 l 0.038092,0.055939 -0.00514,0.909922 -0.00514,0.9099229 L 5.071691,9.096931 C 4.9975622,9.2522046 4.8591568,9.397835 4.7230883,9.4637582 4.5247464,9.5598518 4.5540384,9.5582006 3.0833672,9.5562126 2.339938,9.5551726 1.6979098,9.5478206 1.6566253,9.5398366 Z M 2.3189144,8.4332404 C 2.1993922,8.3902524 2.1407225,8.3074438 2.1407225,8.1817371 c 0,-0.042338 0.00856,-0.093376 0.018404,-0.113413 0.010101,-0.020039 1.2279034,-1.2467173 2.7061844,-2.7259553 L 7.553083,2.6528461 H 7.0393936 c -0.4086848,0 -0.5228999,-0.00479 -0.5587402,-0.023437 C 6.3315909,2.5518476 6.2866171,2.3565112 6.3896443,2.2340717 6.481612,2.1247796 6.4548709,2.1279476 7.3326052,2.1225223 c 0.5068328,-0.00317 0.8313908,0.00146 0.8916184,0.012583 0.1129737,0.020886 0.1961933,0.091133 0.222147,0.1875316 0.0107,0.039846 0.015151,0.371527 0.012155,0.9042272 -0.00428,0.8237193 -0.00514,0.8422875 -0.039632,0.8883767 C 8.3251106,4.2417632 8.1615476,4.277209 8.0430612,4.1966888 7.9322017,4.1213618 7.9283839,4.0997468 7.9283839,3.5468299 c 0,-0.2715275 -0.00599,-0.4936857 -0.012498,-0.4936857 -0.00685,0 -1.2134201,1.2013822 -2.681181,2.6697389 -1.4677607,1.4683567 -2.687421,2.6796145 -2.7103531,2.691684 -0.069421,0.036517 -0.1383796,0.042782 -0.2054209,0.018669 z M 5.5834968,6.7577516 C 5.4216115,6.659036 5.3999207,6.4698335 5.53539,6.3384789 l 0.059748,-0.057899 1.5377383,-0.0083 c 1.5194545,-0.00822 1.5386458,-0.00876 1.6136479,-0.043459 0.105441,-0.048792 0.1845861,-0.122697 0.2331037,-0.2176916 l 0.041259,-0.080771 V 3.9038297 1.8773064 L 8.9847639,1.8105903 C 8.9419643,1.7314796 8.8436792,1.6346523 8.7623515,1.5914281 8.7065408,1.5617509 8.6158484,1.5601844 6.677446,1.5554336 5.2468779,1.5519241 4.6324468,1.5558034 4.5880979,1.568693 4.5093466,1.5915394 4.4168053,1.67168 4.3754267,1.7527912 4.3137096,1.8737856 4.3092585,1.9903606 4.3091729,3.4932232 4.3090445,4.9532425 4.3089418,4.959249 4.2739913,5.0157196 4.2319625,5.0836772 4.1326156,5.1380948 4.0505089,5.1380948 c -0.08209,0 -0.181496,-0.054424 -0.2234909,-0.1223752 C 3.792094,4.9591726 3.792008,4.9550296 3.792265,3.4014874 3.7924961,1.7224891 3.791409,1.7503499 3.880732,1.5498269 3.9842985,1.3178411 4.2058121,1.1217864 4.4360397,1.0583334 c 0.1100121,-0.030319 0.2036747,-0.031663 2.2081254,-0.031663 2.3155869,0 2.1543095,-0.00762 2.3886629,0.1123566 0.2228921,0.1140738 0.3988929,0.3254037 0.4929145,0.5918423 0.02568,0.072811 0.028592,0.2564244 0.033128,2.1179861 0.00512,2.2672147 0.00984,2.1694638 -0.10658,2.4059753 C 9.3729391,6.4160729 9.2011759,6.5903537 9.0376642,6.6755934 8.810287,6.7941295 8.8886531,6.7893453 7.1755306,6.789276 5.6962908,6.7892161 5.6330672,6.787992 5.5835909,6.7578012 Z"
       id="path7"
       inkscape:label="skala" /><path
       style="fill:#ffffff;fill-opacity:1;stroke:#000000;stroke-width:0.948799;stroke-linejoin:round;stroke-dasharray:none;stroke-opacity:1;paint-order:stroke markers fill"
       d="M 4.5499951,10.03827 C 4.5570237,9.9378156 4.5541334,9.7039077 4.5446089,9.6022587 4.5259895,9.403541 4.4909314,9.249766 4.4299123,9.0991692 4.2895584,8.7527718 4.0240229,8.5196986 3.6154616,8.3842865 3.3224847,8.2871834 2.9775814,8.2385908 2.5125347,8.2288982 l -0.1638266,-0.00341 v 0.3661712 0.3661711 l -0.013433,0.026957 c -0.015431,0.030967 -0.036673,0.049069 -0.071505,0.060938 -0.029261,0.00997 -0.068396,0.00681 -0.092353,-0.00744 C 2.1625041,9.0329741 2.0309877,8.9314704 1.8791579,8.8127147 1.7273281,8.6939589 1.5079036,8.5224934 1.3915481,8.43168 0.80030644,7.9702272 0.63974614,7.8432278 0.62860114,7.8282072 0.59258844,7.7796712 0.59739844,7.7185738 0.64068654,7.6746939 c 0.0128243,-0.013 0.0767217,-0.065429 0.1419943,-0.1165097 C 1.012215,7.3785566 1.4879043,7.0050484 1.8161193,6.7467348 1.9985505,6.6031567 2.1564433,6.4805291 2.166992,6.474229 2.22228,6.441208 2.298478,6.461379 2.3316532,6.517818 l 0.014475,0.024625 0.00258,0.3766722 0.00258,0.3766721 0.087718,0.00104 c 0.8653142,0.010257 1.4828542,0.1930014 1.8508125,0.5476992 0.2484917,0.2395366 0.3813789,0.5296729 0.428122,0.9347301 0.010168,0.088111 0.00861,0.3862002 -0.0026,0.4953497 -0.017828,0.1737055 -0.047959,0.3519897 -0.090334,0.5345009 -0.021449,0.09238 -0.072088,0.2815418 -0.076543,0.2859218 -0.00144,0.0014 -7.53e-4,-0.02412 0.00153,-0.05676 z"
       id="path1"
       inkscape:label="undo" /></g></svg>
