<?xml version="1.0" encoding="UTF-8" standalone="no"?>
<!-- Created with Inkscape (http://www.inkscape.org/) -->

<svg
   width="30.80353"
   height="30.803484"
   viewBox="0 0 8.1501008 8.1500885"
   version="1.1"
   id="svg5"
   xml:space="preserve"
   xmlns="http://www.w3.org/2000/svg"
   xmlns:svg="http://www.w3.org/2000/svg"><defs
     id="defs2" /><g
     id="g4915"
     style="display:inline"
     transform="translate(-186.409,-10.925012)"><g
       id="g4895"
       transform="translate(32.878316,0.88289657)"><path
         style="display:inline;fill:#ffffff;stroke-width:0.999999"
         d="m 153.83856,18.191515 c -0.0177,-0.0016 -0.0551,-0.0096 -0.0739,-0.01575 -0.0865,-0.02849 -0.16095,-0.09402 -0.20087,-0.176684 -0.0129,-0.02685 -0.0219,-0.05345 -0.0281,-0.08453 l -0.005,-0.02405 v -3.772998 -3.773007 l 0.005,-0.02404 c 0.0142,-0.07018 0.0451,-0.127978 0.0948,-0.177718 0.0493,-0.04918 0.10628,-0.07982 0.17657,-0.09475 l 0.0231,-0.0048 0.93449,-5.36e-4 0.9345,-5.36e-4 v 1.335167 1.335168 h 1.90614 1.90614 v -1.335146 -1.335146 h 0.57365 0.57364 l 0.51103,0.511036 0.51104,0.511034 -6e-4,3.414272 -5.9e-4,3.41427 -0.005,0.02293 c -0.015,0.07089 -0.0452,0.127213 -0.0948,0.176716 -0.0493,0.04929 -0.10611,0.07979 -0.17656,0.09475 l -0.0231,0.0048 -3.76663,1.89e-4 c -2.07166,1.88e-4 -3.77047,-1.89e-4 -3.77514,-5.94e-4 z m 5.91157,-0.651548 c 0.0421,-0.0099 0.0758,-0.02415 0.1089,-0.04603 0.0728,-0.04815 0.11855,-0.117331 0.13779,-0.208542 0.003,-0.01558 0.003,-0.106307 0.004,-1.228853 6e-4,-0.824813 0,-1.220848 -8.7e-4,-1.239626 -0.003,-0.04631 -0.0128,-0.0802 -0.0321,-0.118869 -0.0213,-0.04255 -0.0589,-0.0869 -0.097,-0.114223 -0.0347,-0.02486 -0.0798,-0.04454 -0.12358,-0.05386 -0.0173,-0.0037 -0.0994,-0.0039 -2.14175,-0.0039 -2.04237,0 -2.1244,1.47e-4 -2.14174,0.0039 -0.0279,0.006 -0.0603,0.01753 -0.0845,0.03009 -0.0831,0.04338 -0.1437,0.122894 -0.16268,0.213347 -0.002,0.0087 -0.004,0.02833 -0.005,0.04351 -8.7e-4,0.01879 -0.002,0.414813 -8.7e-4,1.239626 5.8e-4,1.122546 6.8e-4,1.213274 0.004,1.228853 0.0158,0.07484 0.0506,0.136734 0.10255,0.182166 0.0167,0.01457 0.0468,0.03512 0.0654,0.04453 0.0295,0.01488 0.0688,0.02716 0.0998,0.03108 0.009,0.001 0.91204,0.0018 2.1322,0.0016 l 2.11735,-2.98e-4 z m -1.56306,-5.077141 c -0.0483,-0.01053 -0.0876,-0.04911 -0.10012,-0.09812 -0.004,-0.01575 -0.004,-0.03395 -0.004,-0.987549 0,-0.959948 8e-5,-0.971689 0.004,-0.987861 0.0105,-0.03911 0.035,-0.06983 0.0703,-0.08694 0.011,-0.0052 0.0256,-0.01066 0.0327,-0.01196 0.01,-0.0017 0.12642,-0.0022 0.41391,-0.0017 l 0.40119,6.25e-4 0.0138,0.0047 c 0.0416,0.01412 0.0734,0.04729 0.0883,0.09187 0.003,0.01127 0.004,0.04479 0.004,0.981725 5.9e-4,0.843818 1.3e-4,0.972395 -0.003,0.988069 -0.009,0.04727 -0.0427,0.08725 -0.0904,0.104375 l -0.0138,0.005 -0.40223,3.87e-4 c -0.33651,3.28e-4 -0.40446,-1.12e-4 -0.41576,-0.0025 z"
         id="path4944" /></g></g></svg>
