<?xml version="1.0" encoding="UTF-8" standalone="no"?>
<!-- Created with Inkscape (http://www.inkscape.org/) -->

<svg
   width="39.156948"
   height="35.997669"
   viewBox="0 0 10.360276 9.5243833"
   version="1.1"
   id="svg5"
   xml:space="preserve"
   xmlns="http://www.w3.org/2000/svg"
   xmlns:svg="http://www.w3.org/2000/svg"><defs
     id="defs2" /><g
     id="layer1"
     style="display:inline"
     transform="translate(-171.67881,-127.05463)"><g
       id="g1743"
       transform="translate(3.0517578e-5,81.559955)"><path
         style="display:inline;fill:#333333;fill-opacity:1;stroke-width:1"
         d="m 171.70577,114.63983 c 0.0524,-0.54126 0.12239,-0.90767 0.24922,-1.30474 0.38433,-1.20317 1.22472,-2.2376 2.35705,-2.90123 l 0.26475,-0.15517 0.29701,0.2248 c 0.35154,0.26608 0.6096,0.40221 1.02858,0.54257 0.26971,0.0904 0.39233,0.10305 0.97751,0.10073 0.63115,-0.002 0.68974,-0.0103 1.03332,-0.13725 0.39911,-0.14764 0.77668,-0.35999 1.04211,-0.58608 l 0.17134,-0.14595 0.34561,0.20432 c 0.87501,0.51734 1.52881,1.21812 1.99795,2.14158 0.29343,0.5776 0.46528,1.21218 0.54004,1.99403 l 0.0288,0.30109 h -5.18013 -5.18013 z m 4.67461,-4.24645 c -0.57995,-0.10829 -1.15934,-0.46667 -1.51805,-0.93906 -0.91799,-1.20888 -0.5978,-2.91749 0.69256,-3.6957 0.99699,-0.60131 2.25816,-0.447 3.08231,0.37715 1.0769,1.07689 0.96315,2.86071 -0.24069,3.77486 -0.59243,0.44986 -1.29329,0.61768 -2.01613,0.48275 z"
         id="path1863"
         transform="translate(-1.5258789e-5,-59.899461)" /></g></g></svg>
