<?xml version="1.0" encoding="UTF-8" standalone="no"?>
<!-- Created with Inkscape (http://www.inkscape.org/) -->

<svg
   width="48"
   height="48"
   viewBox="0 0 12.7 12.7"
   version="1.1"
   id="svg5"
   xml:space="preserve"
   inkscape:version="1.4 (e7c3feb100, 2024-10-09)"
   sodipodi:docname="ikon_os_steam.svg"
   xmlns:inkscape="http://www.inkscape.org/namespaces/inkscape"
   xmlns:sodipodi="http://sodipodi.sourceforge.net/DTD/sodipodi-0.dtd"
   xmlns:xlink="http://www.w3.org/1999/xlink"
   xmlns="http://www.w3.org/2000/svg"
   xmlns:svg="http://www.w3.org/2000/svg"><sodipodi:namedview
     id="namedview7"
     pagecolor="#ffffff"
     bordercolor="#111111"
     borderopacity="1"
     inkscape:showpageshadow="0"
     inkscape:pageopacity="0"
     inkscape:pagecheckerboard="1"
     inkscape:deskcolor="#d1d1d1"
     inkscape:document-units="mm"
     showgrid="false"
     inkscape:zoom="5.7291689"
     inkscape:cx="16.581812"
     inkscape:cy="38.399985"
     inkscape:window-width="1283"
     inkscape:window-height="761"
     inkscape:window-x="38"
     inkscape:window-y="44"
     inkscape:window-maximized="0"
     inkscape:current-layer="layer1" /><defs
     id="defs2"><linearGradient
       id="linearGradient16"
       inkscape:collect="always"><stop
         style="stop-color:#0e1c31;stop-opacity:1;"
         offset="0"
         id="stop16" /><stop
         style="stop-color:#1381b2;stop-opacity:1;"
         offset="1"
         id="stop17" /></linearGradient><linearGradient
       inkscape:collect="always"
       xlink:href="#linearGradient16"
       id="linearGradient17"
       x1="155.11499"
       y1="-55.787273"
       x2="162.07816"
       y2="60.753902"
       gradientUnits="userSpaceOnUse" /></defs><g
     inkscape:label="Lapis 1"
     inkscape:groupmode="layer"
     id="layer1"><g
       id="g17"
       transform="matrix(0.0846718,0,0,0.0846718,-6.6953827,6.8014095)"><circle
         style="fill:#f9f9f9;stroke-width:1.0099;stroke-linecap:square;paint-order:markers stroke fill"
         id="path16"
         cx="154.07002"
         cy="-5.3312817"
         r="66.653107" /><path
         style="fill:url(#linearGradient17);fill-opacity:1"
         d="m 149.47957,61.098918 c -5.76349,-0.383589 -11.5745,-1.562909 -17.23072,-3.496901 -16.53179,-5.652604 -30.34306,-17.85897 -38.082488,-33.657224 -1.52767,-3.118369 -4.00033,-9.334534 -3.79484,-9.540029 0.0668,-0.06681 15.988498,6.434703 23.406668,9.557947 1.415,0.595751 1.66082,0.803296 1.8079,1.526417 0.0936,0.460303 0.71045,1.962211 1.3707,3.337573 1.0124,2.108887 1.56021,2.860395 3.49665,4.796836 1.93038,1.930378 2.69455,2.488381 4.79684,3.502675 5.52995,2.668048 10.90275,2.685625 16.25899,0.05319 5.16048,-2.536227 8.52786,-6.661284 9.92033,-12.152452 0.29189,-1.151066 0.53071,-2.720709 0.53071,-3.488097 v -1.395252 l 11.65459,-8.352008 c 11.43208,-8.1925577 11.67893,-8.3520076 12.92992,-8.3520076 0.70144,0 2.2942,-0.1776753 3.53948,-0.3948339 9.75331,-1.7008345 17.71957,-9.0131582 20.34276,-18.6728475 0.85439,-3.146235 0.85899,-9.681236 0.009,-12.757401 -2.47529,-8.957991 -9.3472,-15.791516 -18.33092,-18.228514 -3.15696,-0.856384 -9.41871,-0.855265 -12.55002,0.0022 -2.35262,0.644262 -5.82485,2.221406 -7.74155,3.516343 -6.67363,4.508731 -10.96832,12.024637 -11.20386,19.607238 l -0.0553,1.779517 -8.13799,11.814221 -8.13799,11.8142205 -1.80854,0.11055 c -2.56853,0.1570055 -4.66308,0.7242846 -7.10021,1.9229876 l -2.11666,1.0410837 -17.85938,-7.3464153 -17.859368,-7.3464153 0.088,-1.5669252 c 0.15164,-2.700595 1.29527,-8.837759 2.28878,-12.282549 7.34524,-25.468047 28.787388,-44.116497 54.905518,-47.75188 6.95444,-0.967988 14.45968,-0.783528 21.57273,0.530203 23.16554,4.278521 42.71676,21.120789 50.51697,43.51751 8.52599,24.4806462 2.03305,51.804272 -16.5688,69.724897 -5.3095,5.115061 -10.2033,8.537921 -17.02403,11.907068 -10.55553,5.213982 -22.07508,7.501639 -33.83386,6.719033 z M 129.76503,34.24223 c -1.84555,-0.496332 -4.25384,-1.787634 -5.6875,-3.049591 -1.13171,-0.996174 -3.26545,-3.836772 -3.04649,-4.05573 0.0633,-0.06327 2.13691,0.737435 4.60809,1.779342 l 4.49306,1.894376 2.78368,0.0067 c 2.61678,0.0063 2.8892,-0.04528 4.54335,-0.85961 2.83854,-1.397407 5.05063,-4.185278 5.75958,-7.258705 0.89515,-3.880658 -0.83118,-8.413169 -4.09437,-10.74989 -0.75417,-0.540052 -3.41736,-1.812417 -5.9182,-2.8274781 l -4.54697,-1.8455664 0.86875,-0.3594473 c 1.2725,-0.5264937 4.68341,-0.6908569 6.61069,-0.3185526 5.22192,1.0087462 9.58819,5.0851884 11.07762,10.3422894 0.54693,1.930456 0.44164,5.657122 -0.22064,7.809197 -1.42165,4.619632 -5.27988,8.277542 -10.03809,9.516899 -1.88917,0.492065 -5.31576,0.480537 -7.19256,-0.0242 z m 43.75882,-39.5501794 c -5.21559,-0.7762768 -10.04904,-4.1705961 -12.40183,-8.7092666 -1.59435,-3.075603 -1.88117,-4.285151 -1.88353,-7.943197 -0.002,-2.785921 0.0986,-3.61493 0.63705,-5.25878 1.6763,-5.117895 6.1936,-9.444424 11.53164,-11.044656 2.18029,-0.653602 6.81555,-0.653602 8.99584,0 2.79859,0.838959 5.14208,2.25243 7.28144,4.391786 10.26503,10.26503 3.80261,27.5393435 -10.72103,28.6577696 -1.01864,0.078443 -2.56646,0.036298 -3.43958,-0.093656 z m 5.30222,-4.3577169 c 3.80799,-0.9785997 6.74292,-3.3387187 8.42638,-6.7760667 3.17061,-6.473855 0.51281,-13.951107 -6.07018,-17.077354 -1.67527,-0.795584 -2.35622,-0.965207 -4.3256,-1.077496 -1.43963,-0.08208 -2.88417,-0.0043 -3.76112,0.202495 -3.73614,0.881074 -6.94512,3.504999 -8.63463,7.060389 -0.89362,1.880532 -0.99074,2.307398 -1.08181,4.755157 -0.11327,3.044542 0.3939,5.088863 1.82061,7.338546 2.86996,4.525463 8.59475,6.8673827 13.62635,5.5743297 z"
         id="path15" /></g></g></svg>
