<?xml version="1.0" encoding="UTF-8" standalone="no"?>
<!-- Created with Inkscape (http://www.inkscape.org/) -->

<svg
   width="39.505913"
   height="39.514637"
   viewBox="0 0 10.452606 10.454914"
   version="1.1"
   id="svg5"
   xml:space="preserve"
   inkscape:version="1.2.2 (b0a8486541, 2022-12-01)"
   sodipodi:docname="antarmuka.svg"
   inkscape:export-filename="../../godot4_perf_test/tmp/antarmuka.png"
   inkscape:export-xdpi="96"
   inkscape:export-ydpi="96"
   xmlns:inkscape="http://www.inkscape.org/namespaces/inkscape"
   xmlns:sodipodi="http://sodipodi.sourceforge.net/DTD/sodipodi-0.dtd"
   xmlns="http://www.w3.org/2000/svg"
   xmlns:svg="http://www.w3.org/2000/svg"><sodipodi:namedview
     id="namedview7"
     pagecolor="#ffffff"
     bordercolor="#111111"
     borderopacity="1"
     inkscape:showpageshadow="0"
     inkscape:pageopacity="0"
     inkscape:pagecheckerboard="1"
     inkscape:deskcolor="#d1d1d1"
     inkscape:document-units="cm"
     showgrid="false"
     inkscape:zoom="0.64979967"
     inkscape:cx="510.9267"
     inkscape:cy="943.36767"
     inkscape:window-width="1366"
     inkscape:window-height="717"
     inkscape:window-x="0"
     inkscape:window-y="27"
     inkscape:window-maximized="1"
     inkscape:current-layer="g4915"
     showguides="true" /><defs
     id="defs2" /><g
     inkscape:groupmode="layer"
     id="g4915"
     inkscape:label="karakter"
     style="display:inline"
     sodipodi:insensitive="true"
     transform="translate(-135.64713,-36.524304)"><path
       style="display:inline;fill:#feffff;fill-opacity:1;stroke-width:0.999998"
       d="m 140.48226,46.967094 c -2.23681,-0.174354 -4.11851,-1.747333 -4.67227,-3.905718 -0.10607,-0.413415 -0.14598,-0.704762 -0.16035,-1.170549 -0.0738,-2.391317 1.4814,-4.508294 3.80191,-5.17537 0.88575,-0.254626 1.93042,-0.254885 2.83106,-6.75e-4 1.21562,0.343077 2.24865,1.098356 2.95301,2.159021 0.6213,0.935583 0.93052,2.097752 0.85216,3.202763 -0.0546,0.770184 -0.22423,1.386713 -0.56664,2.059683 -0.71629,1.407755 -2.05887,2.424336 -3.61861,2.739953 -0.43474,0.08797 -0.99664,0.12394 -1.42027,0.09092 z m 0.85066,-0.83433 c 0.7207,-0.0785 1.38321,-0.318129 1.97687,-0.715012 1.29182,-0.863628 2.01683,-2.280486 1.96025,-3.830817 -0.0171,-0.467569 -0.0844,-0.838597 -0.23221,-1.27847 -0.0833,-0.248153 -0.3423,-0.771202 -0.49264,-0.995094 -1.23531,-1.839623 -3.60606,-2.488569 -5.59037,-1.530249 -1.08516,0.524079 -1.89852,1.45407 -2.27457,2.600731 -0.26695,0.814001 -0.28672,1.727838 -0.0553,2.553715 0.48134,1.717427 1.97377,2.990279 3.74471,3.193767 0.24533,0.02819 0.71121,0.02888 0.96321,0.0014 z m -0.94246,-2.262175 c -0.80772,-0.146266 -1.49774,-0.633945 -1.86522,-1.318253 -0.12492,-0.232634 -0.20857,-0.477167 -0.18985,-0.555052 0.0506,-0.210828 0.17703,-0.311112 0.36883,-0.292682 0.16588,0.01594 0.23083,0.07808 0.36232,0.346641 0.24152,0.49331 0.53787,0.778692 1.02587,0.987918 0.23673,0.101497 0.47983,0.147603 0.78127,0.148178 0.80681,0.0015 1.48242,-0.431135 1.81288,-1.160989 0.0817,-0.180569 0.14074,-0.252426 0.243,-0.295998 0.17639,-0.07516 0.36002,-0.0096 0.43486,0.155313 0.0567,0.124918 0.0551,0.189069 -0.009,0.359484 -0.18114,0.481258 -0.50296,0.889362 -0.93314,1.183352 -0.34665,0.236899 -0.67703,0.371368 -1.0829,0.440748 -0.25663,0.04387 -0.71048,0.04451 -0.94887,0.0014 z m -1.59982,-3.192876 c -0.37766,-0.134917 -0.48474,-0.629108 -0.19857,-0.916517 0.2387,-0.239741 0.58781,-0.230184 0.81595,0.02234 0.25785,0.285416 0.14611,0.740157 -0.2194,0.89288 -0.0959,0.04005 -0.28776,0.04068 -0.39798,0.0013 z m 3.80052,0.0084 c -0.0652,-0.01956 -0.20657,-0.117307 -0.25864,-0.178789 -0.0674,-0.07958 -0.11598,-0.219726 -0.11645,-0.335962 -8.5e-4,-0.183618 0.0415,-0.29338 0.15777,-0.410187 0.23784,-0.238877 0.58786,-0.230139 0.81413,0.02032 0.25875,0.286405 0.14794,0.742167 -0.21758,0.894891 -0.0845,0.03531 -0.27751,0.04026 -0.37923,0.0097 z"
       id="path3309"
       inkscape:label="ikon_wajah"
       sodipodi:insensitive="true" /></g></svg>
