<?xml version="1.0" encoding="UTF-8" standalone="no"?>
<!-- Created with Inkscape (http://www.inkscape.org/) -->

<svg
   width="20.728729"
   height="24.659895"
   viewBox="0 0 5.4844765 6.5245972"
   version="1.1"
   id="svg5"
   xml:space="preserve"
   inkscape:version="1.2.2 (b0a8486541, 2022-12-01)"
   sodipodi:docname="antarmuka.svg"
   inkscape:export-filename="../../../../Desktop/antarmuka.png"
   inkscape:export-xdpi="96"
   inkscape:export-ydpi="96"
   xmlns:inkscape="http://www.inkscape.org/namespaces/inkscape"
   xmlns:sodipodi="http://sodipodi.sourceforge.net/DTD/sodipodi-0.dtd"
   xmlns="http://www.w3.org/2000/svg"
   xmlns:svg="http://www.w3.org/2000/svg"><sodipodi:namedview
     id="namedview7"
     pagecolor="#ffffff"
     bordercolor="#111111"
     borderopacity="1"
     inkscape:showpageshadow="0"
     inkscape:pageopacity="0"
     inkscape:pagecheckerboard="1"
     inkscape:deskcolor="#d1d1d1"
     inkscape:document-units="cm"
     showgrid="false"
     inkscape:zoom="0.83058992"
     inkscape:cx="375.03465"
     inkscape:cy="296.17504"
     inkscape:window-width="1366"
     inkscape:window-height="717"
     inkscape:window-x="0"
     inkscape:window-y="27"
     inkscape:window-maximized="1"
     inkscape:current-layer="layer1"
     showguides="true" /><defs
     id="defs2" /><g
     inkscape:label="menu_utama"
     inkscape:groupmode="layer"
     id="layer1"
     style="display:inline"
     sodipodi:insensitive="true"
     transform="translate(-5.1563522,-19.057593)"><g
       id="g5059"
       inkscape:label="tombol5"
       transform="translate(0,14.078758)"
       sodipodi:insensitive="true"><path
         id="path10305"
         style="fill:#2a352e;fill-opacity:1;stroke-width:1"
         d="m -37.179785,0.32697041 c -0.173499,-0.002496 -0.606738,0.0874763 -1.780635,0.32975696 -1.613044,0.33291636 -1.753379,0.36621443 -1.808691,0.42865773 l -0.05996,0.067669 -1e-4,1.9240932 c -9.6e-5,1.237289 -0.0099,1.9593079 -0.02759,2.0228379 -0.0083,0.030042 -0.02036,0.056488 -0.03623,0.08037 -0.0055,0.00393 -0.01281,0.00962 -0.02264,0.017334 -0.02565,0.020119 -0.04664,0.041106 -0.04664,0.046639 0,0.00172 1.97e-4,0.00314 5.09e-4,0.00443 -0.06671,0.045399 -0.168079,0.075279 -0.320856,0.09583 -0.0017,-6.634e-4 -0.0035,-0.00129 -0.0061,-0.00197 -0.02565,-0.0067 -0.06763,-0.0067 -0.09328,0 -0.02018,0.00527 -0.01072,0.00971 0.0189,0.011399 -0.07145,0.00739 -0.151835,0.013391 -0.243764,0.018272 -0.581311,0.030864 -0.863033,0.255154 -0.855963,0.681428 0.0069,0.414023 0.214984,0.6671621 0.62542,0.7607049 h 10e-5 c 0.0287,0.00653 0.06139,0.011763 0.0964,0.015929 -0.0084,1.111e-4 -0.01742,0.00152 -0.02587,0.00489 -0.02127,0.00851 -0.01496,0.014857 0.01608,0.016135 0.02809,0.00118 0.04383,-0.00515 0.03498,-0.014001 -0.0025,-0.00255 -0.0065,-0.00424 -0.01093,-0.00546 0.210224,0.02269 0.506056,0.00529 0.66878,-0.044818 0.279906,-0.086191 0.448831,-0.2294824 0.565818,-0.4799822 l 0.0622,-0.1332559 3.09e-4,-1.8305537 c 1.01e-4,-1.0539095 0.01071,-1.857989 0.02488,-1.8952556 0.01353,-0.0356 0.04439,-0.072327 0.06861,-0.081619 0.08811,-0.033812 2.724414,-0.6033483 2.792809,-0.6033483 0.04314,0 0.08145,0.020648 0.09895,0.053355 0.01592,0.029751 0.0228,0.3352373 0.02212,0.9185302 -5.09e-4,-0.098213 -0.0012,-0.1921514 -0.0022,-0.2722901 -0.0042,-0.3481312 -0.0076,-0.063296 -0.0076,0.6329664 0,0.3955767 0.0012,0.652103 0.0028,0.7414453 -0.0064,0.5003622 -0.01685,0.626985 -0.04164,0.6644066 -0.07273,0.1097914 -0.19886,0.1453289 -0.597726,0.1683398 -0.660773,0.03812 -0.908865,0.1747852 -0.975945,0.537657 -0.0011,0.0058 -0.0017,0.011629 -0.0026,0.017438 -3.09e-4,-0.011105 -0.0019,-0.022067 -0.0053,-0.030503 -0.0074,-0.018323 -0.01343,-0.00333 -0.01343,0.033315 0,0.036645 0.006,0.051636 0.01343,0.033314 3.1e-4,-6.414e-4 3.1e-4,-0.00152 5.98e-4,-0.00219 -0.02534,0.2315281 0.06443,0.4670058 0.232728,0.6346322 -0.009,-0.00836 -0.01894,-0.017465 -0.03107,-0.028161 l -0.0733,-0.064598 0.0646,0.073291 c 0.03554,0.04031 0.06852,0.073291 0.07329,0.073291 0.01405,0 0.01046,-0.010106 -0.01385,-0.034824 0.05305,0.049412 0.113181,0.092309 0.179478,0.1265934 0.133019,0.068786 0.403299,0.1206313 0.629219,0.1207114 0.380802,1.411e-4 0.622709,-0.1023554 0.80469,-0.3409482 0.173804,-0.2278758 0.16808,-0.130664 0.16808,-2.8595926 0,-1.5533987 -0.0097,-2.49755923 -0.02618,-2.54081884 -0.02097,-0.0551672 -0.03155,-0.0899596 -0.13565,-0.0914576 z m 0.17875,1.13012629 c -0.0025,-0.013308 -0.0041,0.5412706 -0.0041,1.5052734 0,1.3412212 0.0032,1.8899039 0.0072,1.2192934 0.004,-0.6706108 0.004,-1.7679761 0,-2.4385867 -0.0012,-0.1886092 -0.0022,-0.2807726 -0.0031,-0.2859801 z m -3.837827,0.4724866 c -0.0025,-0.010544 -0.0042,0.4288667 -0.0042,1.1926941 0,1.0627162 0.0033,1.4974649 0.0073,0.9661067 0.0041,-0.5313582 0.0041,-1.4008553 0,-1.9322134 -0.0012,-0.1494444 -0.0022,-0.2224613 -0.0032,-0.2265874 z m 0.426055,1.2389694 c -0.0023,0.022747 -0.0038,0.4277841 -0.0038,1.1130528 -1e-5,0.9967544 0.0033,1.4083725 0.0074,0.9147303 0.0041,-0.4936421 0.0041,-1.3091706 0,-1.812283 -0.0013,-0.1572226 -0.0025,-0.2258396 -0.0035,-0.2155001 z m 2.411884,1.4757593 c -0.03382,3.86e-5 -0.0666,0.00152 -0.09026,0.00448 v 5.2e-5 c -0.04732,0.00589 -0.0021,0.010574 0.100514,0.010463 0.102608,-1.21e-4 0.14134,-0.00495 0.08604,-0.010724 -0.02765,-0.00289 -0.06249,-0.00431 -0.0963,-0.00426 z m -0.351776,0.027016 c -0.0093,-3.76e-4 -0.0198,0.0013 -0.02941,0.00516 -0.02126,0.00851 -0.01496,0.014857 0.01609,0.016135 0.02809,0.00117 0.04383,-0.00515 0.03498,-0.014004 -0.0045,-0.00443 -0.01239,-0.0069 -0.02165,-0.00729 z m -3.409117,0.6930876 c -0.01208,0 -0.02415,0.00189 -0.03332,0.00557 -0.01833,0.0074 -0.0033,0.013431 0.03332,0.013431 0.03665,0 0.05164,-0.00603 0.03332,-0.013431 -0.0092,-0.00369 -0.02123,-0.00557 -0.03332,-0.00557 z m 2.701507,0.05908 c -0.0041,-5.971e-4 -0.0069,0.00912 -0.0076,0.028526 -0.0012,0.028095 0.0052,0.043836 0.01401,0.03498 0.0089,-0.00886 0.0098,-0.031825 0.0022,-0.051064 -0.0032,-0.00797 -0.0061,-0.012075 -0.0085,-0.01244 z m -3.411357,0.4530708 c -0.0041,-5.97e-4 -0.0068,0.00912 -0.0076,0.028525 -0.0012,0.028095 0.0052,0.043836 0.01401,0.03498 0.0089,-0.00885 0.0098,-0.031825 0.0022,-0.051064 -0.0032,-0.00797 -0.0061,-0.012075 -0.0085,-0.01244 z m 0.0027,0.2429842 c -0.0048,-0.00179 -0.0082,0.013481 -0.0082,0.040966 0,0.036645 0.006,0.051636 0.01343,0.033314 0.0074,-0.018323 0.0074,-0.048305 0,-0.066628 -0.0018,-0.00458 -0.0035,-0.00705 -0.0052,-0.00765 z m 4.782541,0.017593 c -0.0093,-3.76e-4 -0.0198,0.0013 -0.02941,0.00516 -0.02127,0.00851 -0.01496,0.014857 0.01609,0.016135 0.02809,0.00115 0.04383,-0.00515 0.03498,-0.014004 -0.0045,-0.00443 -0.0124,-0.0069 -0.02165,-0.00729 z m -0.294153,0.026339 c -0.02898,-4.94e-5 -0.05897,0.00142 -0.08292,0.00437 -0.0479,0.00593 -0.01512,0.010874 0.07282,0.011034 0.088,1.512e-4 0.127132,-0.00469 0.08709,-0.010774 -0.02002,-0.00304 -0.048,-0.00458 -0.07699,-0.00463 z m -3.27711,0.6665928 c -0.0093,-3.76e-4 -0.0198,0.0013 -0.02941,0.00516 -0.02126,0.00851 -0.01496,0.014857 0.01609,0.016135 0.0281,0.00118 0.04383,-0.00515 0.03498,-0.014004 -0.0045,-0.00443 -0.0124,-0.0069 -0.02166,-0.00729 z"
         transform="translate(47.635763,4.651914)"
         inkscape:export-filename="../../godot4_perf_test/ui/tombol/ikon_tombol_musik.svg"
         inkscape:export-xdpi="96"
         inkscape:export-ydpi="96" /></g></g></svg>
