<?xml version="1.0" encoding="UTF-8" standalone="no"?>
<!-- Created with Inkscape (http://www.inkscape.org/) -->

<svg
   width="41.980175"
   height="30.998444"
   viewBox="0 0 11.107255 8.2016715"
   version="1.1"
   id="svg5"
   xml:space="preserve"
   xmlns="http://www.w3.org/2000/svg"
   xmlns:svg="http://www.w3.org/2000/svg"><defs
     id="defs2" /><g
     id="g4915"
     style="display:inline"
     transform="translate(-180.13982,-37.650929)"><path
       style="fill:#ffffff;fill-opacity:1;stroke-width:0.999998"
       d="m 182.84309,43.33789 -3e-5,-2.514698 -0.0332,0.03379 c -0.0183,0.01859 -0.0769,0.0788 -0.13032,0.133811 -0.0534,0.05501 -0.11786,0.121291 -0.14319,0.147287 -0.0253,0.026 -0.0691,0.07101 -0.0974,0.10002 -0.0282,0.02902 -0.0714,0.07343 -0.096,0.09871 -0.0246,0.02528 -0.0684,0.07028 -0.0973,0.100021 -0.0289,0.02974 -0.0734,0.07535 -0.0988,0.101371 -0.0254,0.02602 -0.068,0.06981 -0.0946,0.09732 -0.0267,0.02751 -0.0704,0.07251 -0.0972,0.100021 -0.0731,0.07502 -0.13931,0.142941 -0.17974,0.184541 -0.0199,0.02047 -0.0371,0.03689 -0.0382,0.03649 -0.001,-4e-4 -0.04,-0.03782 -0.0866,-0.08317 -0.0465,-0.04535 -0.1576,-0.153609 -0.24684,-0.240582 -0.0892,-0.08697 -0.18415,-0.17948 -0.21091,-0.205572 -0.0267,-0.02609 -0.0979,-0.09537 -0.15814,-0.153943 -0.0602,-0.05858 -0.13138,-0.127899 -0.15815,-0.15405 -0.1117,-0.109157 -0.16207,-0.158273 -0.31627,-0.308432 -0.0892,-0.08687 -0.1847,-0.179916 -0.21221,-0.206777 -0.0275,-0.02686 -0.0856,-0.08343 -0.12908,-0.125701 -0.0435,-0.04227 -0.0791,-0.07798 -0.0791,-0.07935 0,-0.0013 0.0399,-0.04273 0.0886,-0.09191 0.10321,-0.104211 0.23999,-0.242841 0.36027,-0.365157 0.0468,-0.04758 0.12702,-0.12908 0.1783,-0.181117 0.0984,-0.09985 0.20544,-0.208509 0.3528,-0.358136 0.0491,-0.04982 0.12943,-0.131338 0.17859,-0.181152 0.0492,-0.04981 0.12891,-0.130713 0.1772,-0.179777 0.34407,-0.349523 0.46834,-0.475745 0.54295,-0.551461 0.0469,-0.04758 0.12598,-0.127863 0.17577,-0.178414 0.17177,-0.174391 0.25865,-0.262512 0.34646,-0.351424 0.0485,-0.04906 0.0921,-0.09347 0.0969,-0.09867 0.005,-0.0052 0.0538,-0.05477 0.10876,-0.110157 l 0.0999,-0.100696 h 0.65483 0.65482 l 0.002,0.05204 c 0.0146,0.455736 0.24626,0.880917 0.63173,1.159518 0.0957,0.06913 0.22793,0.142019 0.33733,0.185871 0.48202,0.193211 1.033,0.151476 1.46965,-0.111321 0.1667,-0.100329 0.30479,-0.220639 0.42355,-0.369032 0.13943,-0.174217 0.23994,-0.382235 0.28742,-0.594843 0.0199,-0.08898 0.0295,-0.161794 0.0344,-0.25938 l 0.003,-0.06285 h 0.61972 c 0.53811,0 0.61984,5.06e-4 0.6206,0.0039 4.2e-4,0.0022 0.016,0.01948 0.0345,0.03852 0.0684,0.07045 0.17225,0.177245 0.2624,0.269862 0.0275,0.02826 0.0706,0.07265 0.0958,0.09865 0.0252,0.02599 0.0677,0.06977 0.0945,0.09728 0.0492,0.05056 0.10853,0.111555 0.18535,0.190579 0.0231,0.02379 0.0651,0.06697 0.0933,0.09597 0.0282,0.02899 0.0719,0.074 0.0972,0.10002 0.0456,0.04696 0.0867,0.08922 0.18266,0.187879 0.0275,0.02825 0.0706,0.07265 0.0958,0.09867 0.0252,0.02602 0.0659,0.06799 0.0906,0.09327 0.0246,0.02528 0.0667,0.0685 0.0934,0.09605 0.0267,0.02755 0.0681,0.07012 0.092,0.0946 0.0238,0.02449 0.0669,0.06885 0.0959,0.09859 0.0289,0.02974 0.0715,0.07353 0.0947,0.09732 0.0232,0.02379 0.0858,0.08826 0.13917,0.143272 0.0981,0.101127 0.15284,0.157464 0.23901,0.245996 0.0261,0.02676 0.068,0.06995 0.0933,0.09597 0.1597,0.164379 0.38433,0.395404 0.49631,0.510455 0.0468,0.04807 0.0854,0.08882 0.0858,0.09056 8.4e-4,0.0031 -0.0488,0.0528 -0.25891,0.259787 -0.0602,0.05931 -0.15874,0.1566 -0.21896,0.216204 -0.17134,0.169605 -0.30826,0.304871 -0.542,0.535449 -0.11894,0.117336 -0.25518,0.25185 -0.30276,0.298921 -0.16388,0.162138 -0.25049,0.247173 -0.25249,0.247911 -0.001,4.09e-4 -0.0116,-0.0093 -0.0232,-0.02163 -0.0116,-0.0123 -0.0347,-0.03636 -0.0513,-0.05345 -0.0165,-0.0171 -0.0604,-0.06271 -0.0974,-0.101371 -0.10859,-0.113343 -0.1703,-0.177657 -0.22568,-0.235183 -0.0157,-0.01635 -0.0595,-0.06197 -0.0973,-0.101372 -0.0378,-0.0394 -0.0822,-0.08562 -0.0986,-0.102723 -0.0261,-0.02713 -0.0644,-0.06702 -0.19464,-0.202831 -0.0164,-0.01714 -0.0451,-0.04701 -0.0637,-0.06637 -0.0186,-0.01935 -0.0489,-0.05094 -0.0674,-0.0702 -0.0495,-0.05156 -0.0916,-0.09531 -0.13198,-0.136997 l -0.0358,-0.03702 v 2.512565 2.512566 h -2.87084 -2.87085 l -3e-5,-2.514697 z"
       id="path913" /></g></svg>
