<?xml version="1.0" encoding="UTF-8" standalone="no"?>
<!-- Created with Inkscape (http://www.inkscape.org/) -->

<svg
   width="33.91967"
   height="35.207867"
   viewBox="0 0 8.9745797 9.3154147"
   version="1.1"
   id="svg5"
   xml:space="preserve"
   inkscape:version="1.3 (0e150ed6c4, 2023-07-21)"
   sodipodi:docname="ikon_bug.svg"
   inkscape:export-filename="../../godot4_perf_test/tmp/antarmuka.png"
   inkscape:export-xdpi="96"
   inkscape:export-ydpi="96"
   xmlns:inkscape="http://www.inkscape.org/namespaces/inkscape"
   xmlns:sodipodi="http://sodipodi.sourceforge.net/DTD/sodipodi-0.dtd"
   xmlns="http://www.w3.org/2000/svg"
   xmlns:svg="http://www.w3.org/2000/svg"><sodipodi:namedview
     id="namedview7"
     pagecolor="#ffffff"
     bordercolor="#111111"
     borderopacity="1"
     inkscape:showpageshadow="0"
     inkscape:pageopacity="0"
     inkscape:pagecheckerboard="1"
     inkscape:deskcolor="#d1d1d1"
     inkscape:document-units="cm"
     showgrid="false"
     inkscape:zoom="8"
     inkscape:cx="18.0625"
     inkscape:cy="19.3125"
     inkscape:window-width="1364"
     inkscape:window-height="745"
     inkscape:window-x="0"
     inkscape:window-y="21"
     inkscape:window-maximized="1"
     inkscape:current-layer="g4915"
     showguides="true" /><defs
     id="defs2" /><g
     inkscape:groupmode="layer"
     id="g4915"
     inkscape:label="bug"
     style="display:inline"
     transform="translate(-156.89478,-96.183191)"><path
       style="fill:#fffeff;fill-opacity:1;stroke-width:0.00745166"
       d="m 161.34747,104.56419 c -0.61047,-0.10618 -1.1143,-0.43166 -1.49817,-0.96783 -0.1338,-0.18689 -0.25366,-0.40515 -0.34978,-0.6369 -0.17219,-0.41519 -0.27607,-0.88744 -0.30205,-1.37314 -0.008,-0.15075 -0.008,-0.3325 2e-5,-0.47909 0.0367,-0.66603 0.21749,-1.265824 0.51678,-1.714299 0.0803,-0.120321 0.15702,-0.215787 0.25013,-0.311238 0.0515,-0.05283 0.0865,-0.08495 0.16156,-0.148525 0.0169,-0.0143 0.0357,-0.02464 0.0527,-0.02903 0.011,-0.0029 0.12017,-0.0031 1.20661,-0.0026 l 1.19446,5.03e-4 0.0146,0.0053 c 0.0186,0.0068 0.0282,0.01323 0.0648,0.04377 0.2053,0.171058 0.38366,0.398954 0.52946,0.676465 0.0535,0.10182 0.1036,0.215021 0.14923,0.337141 0.18791,0.502903 0.26623,1.099043 0.22366,1.702463 -0.0542,0.76862 -0.30418,1.48347 -0.69977,2.00116 -0.0764,0.10002 -0.14176,0.17456 -0.23154,0.26424 -0.0597,0.0596 -0.10312,0.0995 -0.159,0.14605 -0.30202,0.2516 -0.64927,0.41319 -1.03569,0.48195 -0.0419,0.007 -0.0613,0.008 -0.088,0.004 z m -3.06517,-0.49569 c -0.10493,-0.0177 -0.1704,-0.12742 -0.13581,-0.22758 0.008,-0.024 0.57846,-1.24012 0.58851,-1.25524 0.005,-0.007 0.0143,-0.0186 0.0211,-0.0254 0.0139,-0.0138 -3e-5,-0.008 0.13865,-0.0601 0.0238,-0.009 0.0988,-0.0374 0.1666,-0.0632 0.0678,-0.0258 0.125,-0.0472 0.12717,-0.0477 0.004,-7.6e-4 0.005,0.002 0.0135,0.0392 0.0182,0.0758 0.0529,0.19896 0.0762,0.27064 0.004,0.013 0.007,0.0242 0.006,0.0249 -0.002,8e-4 -0.2158,0.0774 -0.2614,0.0929 l -0.0175,0.006 -0.006,0.014 c -0.003,0.008 -0.049,0.10499 -0.10106,0.21614 -0.0521,0.11114 -0.16254,0.34714 -0.24553,0.52444 -0.1994,0.42602 -0.18866,0.40339 -0.19846,0.41782 -0.0254,0.0374 -0.0657,0.0633 -0.11218,0.0723 -0.0154,0.003 -0.0446,0.003 -0.0598,7.6e-4 z m 6.13789,-8e-4 c -0.0475,-0.0101 -0.0855,-0.0354 -0.11242,-0.075 -0.008,-0.0114 0.003,0.0122 -0.21133,-0.44662 -0.0911,-0.19464 -0.18103,-0.38672 -0.19984,-0.42684 -0.0188,-0.0401 -0.0576,-0.12308 -0.0863,-0.18435 l -0.0521,-0.11139 -0.0254,-0.009 c -0.014,-0.005 -0.0764,-0.027 -0.13876,-0.049 -0.0623,-0.022 -0.11401,-0.0406 -0.11479,-0.0413 -7.6e-4,-6.7e-4 0.002,-0.0119 0.006,-0.0249 0.0229,-0.0702 0.0583,-0.19614 0.0762,-0.27054 0.006,-0.0219 0.0105,-0.0399 0.0116,-0.0399 8e-4,0 0.0965,0.0358 0.21194,0.0796 l 0.20998,0.0796 0.0118,0.0118 c 0.006,0.006 0.0161,0.0178 0.0212,0.0254 0.006,0.008 0.0294,0.0567 0.0554,0.11223 0.0254,0.0542 0.1213,0.25917 0.21318,0.45543 0.32326,0.69054 0.31989,0.68327 0.32465,0.7009 0.006,0.023 0.006,0.0625 -10e-6,0.0858 -0.0162,0.0606 -0.0629,0.10831 -0.12255,0.12524 -0.0191,0.006 -0.0602,0.007 -0.0789,0.003 z m -6.27291,-1.71342 c -0.0318,-0.007 -0.063,-0.0243 -0.0861,-0.047 -0.0442,-0.0435 -0.0614,-0.10738 -0.0458,-0.16916 0.006,-0.0266 0.0181,-0.0445 0.11479,-0.18116 0.12862,-0.18179 0.28554,-0.40389 0.59199,-0.83788 0.0525,-0.0742 0.0985,-0.1389 0.10241,-0.1436 0.0178,-0.0217 0.0554,-0.0452 0.0853,-0.0535 0.0158,-0.004 0.18277,-0.0324 0.18427,-0.031 5e-4,4.9e-4 -8e-4,0.0207 -0.003,0.045 -0.008,0.0902 -0.0176,0.2494 -0.0178,0.30543 -2e-5,0.004 -0.002,0.006 -0.008,0.007 -0.008,0.002 -0.009,0.003 -0.0598,0.0748 -0.17711,0.25075 -0.3332,0.47174 -0.39898,0.56485 -0.0418,0.0591 -0.12286,0.174 -0.18025,0.25532 -0.0672,0.0953 -0.109,0.15267 -0.11745,0.16136 -0.0212,0.0218 -0.0487,0.0384 -0.0775,0.0468 -0.0187,0.006 -0.0654,0.007 -0.0837,0.003 z m 6.405,0.002 c -0.0358,-0.006 -0.0711,-0.0246 -0.0969,-0.0512 -0.009,-0.009 -0.0622,-0.083 -0.15853,-0.21952 -0.08,-0.11332 -0.1974,-0.27963 -0.26094,-0.36959 -0.0635,-0.09 -0.16346,-0.23147 -0.22206,-0.31447 -0.10572,-0.14975 -0.1066,-0.15092 -0.11465,-0.15272 l -0.008,-0.002 -0.002,-0.0307 c -0.005,-0.1242 -0.008,-0.18012 -0.016,-0.26807 -0.002,-0.0308 -0.005,-0.0563 -0.004,-0.0568 0.002,-0.002 0.16894,0.0267 0.18452,0.031 0.0282,0.008 0.0572,0.0251 0.0782,0.0465 0.006,0.006 0.0291,0.0372 0.0523,0.0701 0.0856,0.12128 0.27962,0.39587 0.50821,0.71925 0.16972,0.24012 0.23723,0.33714 0.24352,0.34996 0.0148,0.0301 0.0202,0.061 0.0166,0.0935 -0.005,0.0418 -0.0211,0.0766 -0.05,0.10533 -0.0335,0.0335 -0.076,0.0509 -0.12312,0.0503 -0.0126,-1.7e-4 -0.0251,-6.7e-4 -0.0278,-8e-4 z m -5.43567,-2.356785 c -0.084,-0.03136 -0.21401,-0.07974 -0.28883,-0.107527 -0.0748,-0.02778 -0.14025,-0.0523 -0.14541,-0.05447 -0.0106,-0.0045 -0.0276,-0.02155 -0.0398,-0.03989 -0.004,-0.0064 -0.0226,-0.04323 -0.0406,-0.08178 -0.0181,-0.03855 -0.052,-0.110908 -0.0754,-0.160788 -0.10446,-0.223169 -0.19346,-0.4133 -0.245,-0.523456 -0.0307,-0.06561 -0.0932,-0.199131 -0.13896,-0.296724 -0.0458,-0.09759 -0.0857,-0.184984 -0.0888,-0.194202 -0.0142,-0.04207 -0.011,-0.08838 0.009,-0.129138 0.0228,-0.04683 0.0652,-0.08126 0.11521,-0.09352 0.0242,-0.0059 0.0584,-0.0057 0.0833,6.71e-4 0.0418,0.0106 0.0808,0.03824 0.10347,0.07338 0.004,0.0065 0.12905,0.271299 0.27744,0.588411 0.14838,0.317113 0.27079,0.577586 0.27202,0.578829 0.002,0.0021 0.0777,0.02908 0.37586,0.134174 0.0602,0.02122 0.11001,0.03912 0.11074,0.03979 7.5e-4,6.71e-4 -0.009,0.02473 -0.0219,0.05346 -0.0128,0.02874 -0.0335,0.07798 -0.046,0.109423 -0.0211,0.05295 -0.0546,0.143262 -0.0577,0.155442 -7.5e-4,0.003 -0.002,0.005 -0.003,0.005 -0.002,-8e-5 -0.071,-0.0258 -0.15505,-0.05716 z m 4.36348,0.01244 c -0.0254,-0.07541 -0.0639,-0.175654 -0.0931,-0.242001 -0.0145,-0.03307 -0.0165,-0.03833 -0.0151,-0.0397 8e-4,-9.6e-4 0.0665,-0.02426 0.35429,-0.125866 0.0667,-0.02354 0.12225,-0.04383 0.12349,-0.04509 0.002,-0.0013 0.12364,-0.261735 0.27202,-0.578847 0.14838,-0.317113 0.27323,-0.581898 0.27744,-0.588412 0.0228,-0.03523 0.0615,-0.06274 0.10326,-0.07333 0.0251,-0.0064 0.0592,-0.0066 0.0835,-6.71e-4 0.0843,0.02066 0.14118,0.101737 0.13173,0.187759 -8e-4,0.01 -0.005,0.02568 -0.008,0.0349 -0.003,0.0092 -0.043,0.09661 -0.0888,0.194201 -0.0963,0.205546 -0.18338,0.391553 -0.3263,0.696957 -0.0561,0.119823 -0.11633,0.248515 -0.13391,0.285983 -0.0176,0.03747 -0.0354,0.07333 -0.0396,0.07969 -0.01,0.01468 -0.0275,0.03392 -0.0348,0.03768 -0.003,0.0016 -0.12382,0.04687 -0.26831,0.100613 -0.32907,0.122394 -0.32003,0.119054 -0.3221,0.119044 -8e-4,-1e-5 -0.008,-0.0193 -0.0162,-0.0429 z m -3.37768,-1.639018 v -0.434319 l 0.004,-0.01538 c 0.002,-0.0085 0.007,-0.02006 0.0105,-0.02577 0.003,-0.0057 0.0586,-0.0787 0.1224,-0.162196 0.0638,-0.0835 0.15776,-0.206376 0.20872,-0.273065 0.051,-0.06669 0.12533,-0.163997 0.16527,-0.216241 0.0399,-0.05224 0.0768,-0.0986 0.082,-0.103009 0.005,-0.0044 0.0152,-0.01111 0.0224,-0.01488 0.0263,-0.01386 -0.0291,-0.01281 0.6712,-0.01284 0.69895,-3e-5 0.64174,-0.0011 0.6692,0.01237 0.009,0.0043 0.0174,0.01097 0.0274,0.02111 0.0201,0.02038 0.56748,0.737446 0.57549,0.753871 0.013,0.02662 0.0122,-8e-4 0.0122,0.461527 v 0.419034 l -1.25245,5.03e-4 -1.25244,5.03e-4 -0.015,0.0042 c -0.0122,0.0034 -0.0355,0.01201 -0.0486,0.01774 -0.002,8.8e-4 -0.002,-0.08652 -0.002,-0.433237 z"
       id="path1" /></g></svg>
