<?xml version="1.0" encoding="UTF-8" standalone="no"?>
<!-- Created with Inkscape (http://www.inkscape.org/) -->

<svg
   width="40"
   height="40"
   viewBox="0 0 10.583334 10.583333"
   version="1.1"
   id="svg5"
   xml:space="preserve"
   inkscape:version="1.3.2 (091e20ef0f, 2023-11-25, custom)"
   sodipodi:docname="ikon_tombol_login_guest.svg"
   inkscape:export-filename="../../godot4_perf_test/tmp/layer7.png"
   inkscape:export-xdpi="96"
   inkscape:export-ydpi="96"
   xmlns:inkscape="http://www.inkscape.org/namespaces/inkscape"
   xmlns:sodipodi="http://sodipodi.sourceforge.net/DTD/sodipodi-0.dtd"
   xmlns="http://www.w3.org/2000/svg"
   xmlns:svg="http://www.w3.org/2000/svg"><sodipodi:namedview
     id="namedview7"
     pagecolor="#ffffff"
     bordercolor="#111111"
     borderopacity="1"
     inkscape:showpageshadow="0"
     inkscape:pageopacity="0"
     inkscape:pagecheckerboard="1"
     inkscape:deskcolor="#d1d1d1"
     inkscape:document-units="cm"
     showgrid="false"
     inkscape:zoom="9.9184655"
     inkscape:cx="25.407156"
     inkscape:cy="25.10469"
     inkscape:window-width="1346"
     inkscape:window-height="702"
     inkscape:window-x="10"
     inkscape:window-y="56"
     inkscape:window-maximized="1"
     inkscape:current-layer="g5132"
     showguides="true" /><defs
     id="defs2" /><g
     inkscape:groupmode="layer"
     id="g5132"
     inkscape:label="login_guest"
     style="display:inline"
     inkscape:export-filename="../../godot4_perf_test/tmp/layer7.png"
     inkscape:export-xdpi="96"
     inkscape:export-ydpi="96"
     transform="translate(-148.54447,-102.97976)"><circle
       style="fill:#ffffff;fill-opacity:1;stroke-width:0.27649;stroke-linecap:square"
       id="path22"
       cy="108.27142"
       cx="153.83614"
       r="5.3079152" /><path
       d="m 151.52891,106.26222 v 2.0103 c 0,1.59813 0.01,2.00417 0.0482,1.98083 0.16359,-0.0996 1.05275,-0.68252 1.73801,-1.13947 0.44091,-0.29403 0.81013,-0.53459 0.82047,-0.53459 0.0103,0 0.0188,0.38285 0.0188,0.85072 v 0.85062 l 0.0909,-0.0495 c 0.17022,-0.0927 2.95758,-1.94136 2.95641,-1.96075 -5.4e-4,-0.0106 -0.12628,-0.0993 -0.2791,-0.19721 -0.15282,-0.0979 -0.83381,-0.54446 -1.51334,-0.9924 l -1.23554,-0.81444 -0.0104,0.84762 c -0.006,0.46617 -0.0191,0.84754 -0.0299,0.84754 -0.0106,0 -0.45782,-0.28933 -0.99354,-0.64295 -0.53573,-0.35363 -1.11735,-0.73597 -1.29255,-0.84965 z"
       id="path2"
       style="stroke-width:0.145929" /></g></svg>
