<?xml version="1.0" encoding="UTF-8" standalone="no"?>
<!-- Created with Inkscape (http://www.inkscape.org/) -->

<svg
   width="256"
   height="256"
   viewBox="0 0 67.733332 67.733333"
   version="1.1"
   id="svg1"
   xml:space="preserve"
   inkscape:version="1.3.2 (091e20ef0f, 2023-11-25, custom)"
   sodipodi:docname="balon-bicara.svg"
   xmlns:inkscape="http://www.inkscape.org/namespaces/inkscape"
   xmlns:sodipodi="http://sodipodi.sourceforge.net/DTD/sodipodi-0.dtd"
   xmlns="http://www.w3.org/2000/svg"
   xmlns:svg="http://www.w3.org/2000/svg"><sodipodi:namedview
     id="namedview1"
     pagecolor="#ffffff"
     bordercolor="#000000"
     borderopacity="0.25"
     inkscape:showpageshadow="2"
     inkscape:pageopacity="0.0"
     inkscape:pagecheckerboard="true"
     inkscape:deskcolor="#d1d1d1"
     inkscape:document-units="px"
     inkscape:zoom="1.4185983"
     inkscape:cx="161.42696"
     inkscape:cy="152.61544"
     inkscape:window-width="1366"
     inkscape:window-height="749"
     inkscape:window-x="0"
     inkscape:window-y="19"
     inkscape:window-maximized="1"
     inkscape:current-layer="layer1" /><defs
     id="defs1" /><g
     inkscape:label="Lapis 1"
     inkscape:groupmode="layer"
     id="layer1"><path
       style="fill:#ffffff;stroke:none;stroke-width:2.64583;stroke-linecap:round;stroke-linejoin:round;stroke-dasharray:none;paint-order:stroke fill markers"
       d="m 2.8437202,28.690977 1.7523542,-6.74585 4.6146754,-6.267274 6.3915272,-4.533322 9.781249,-3.6597424 8.174903,-0.6573684 9.2284,1.1740115 8.928451,2.9774553 6.907795,4.766255 4.396621,5.0041 2.003438,5.976751 -1.371552,8.415634 -6.587824,7.793979 -9.073541,5.141804 -7.843586,1.656104 1.403257,3.589952 2.261428,5.683898 2.163067,2.382361 L 42.812279,60.435497 35.964616,55.173914 31.448623,49.258762 22.570467,48.377816 10.748303,42.77664 3.0880603,33.708572 2.3855918,29.048699 Z"
       id="path2" /><path
       style="fill:#000000;stroke-width:2.6458333;stroke:#ffffff;stroke-dasharray:none;paint-order:stroke fill markers;stroke-linejoin:round;stroke-linecap:round"
       d="M 45.667685,61.820619 C 41.739452,61.111235 37.047034,57.692628 32.772285,52.425818 31.859262,51.300904 32.078945,51.39638 30.065051,51.249227 23.118679,50.741658 16.122954,48.325548 11.017225,44.670689 7.604126,42.227476 5.0825461,39.36703 3.478116,36.118435 2.3595113,33.853518 1.7933347,31.663128 1.7053599,29.260096 1.5423082,24.8063 3.0371252,20.699073 6.1940039,16.926888 14.345739,7.1863015 31.403481,3.1637006 46.167397,7.5002572 c 5.767535,1.6940786 10.845189,4.6232948 14.291957,8.2447968 2.27168,2.386843 3.825864,4.893889 4.721906,7.616875 2.306641,7.00966 -0.0865,14.246512 -6.541838,19.782553 -3.088868,2.648981 -7.087496,4.821071 -11.492836,6.243012 -1.247485,0.402659 -4.091262,1.12022 -5.164332,1.3031 -0.475152,0.08098 -0.624269,0.142798 -0.624162,0.258758 2.46e-4,0.264798 1.078369,3.357547 1.570958,4.506517 1.038498,2.42231 2.173502,4.23396 3.515776,5.61174 l 0.878688,0.901936 -0.462444,-0.0085 c -0.254346,-0.0047 -0.791369,-0.06786 -1.193385,-0.140462 z m -1.499707,-1.539334 c -0.03743,-0.06358 -0.261425,-0.406953 -0.49776,-0.763035 -1.240356,-1.868839 -2.507621,-4.195164 -3.023013,-5.549365 -0.376146,-0.98833 -0.652324,-2.203055 -0.86823,-3.818803 -0.24953,-1.867358 -0.270871,-1.74138 0.307245,-1.813795 1.068341,-0.133822 3.158833,-0.554969 4.647594,-0.936296 C 54.081256,45.005754 61.142525,39.535629 63.319789,33.002065 65.647019,26.018479 62.537066,18.99346 54.892424,13.965625 50.041494,10.775199 43.604535,8.7917981 36.594749,8.3276164 27.961391,7.7559236 18.972134,9.9290951 12.686242,14.107547 c -1.601163,1.06435 -2.537404,1.831198 -3.8873653,3.184025 -3.4734861,3.480865 -5.2225921,7.513422 -5.0570156,11.658936 0.087299,2.18569 0.5179128,3.875157 1.5025306,5.895006 1.5452521,3.169933 4.3751964,6.140395 8.0659313,8.466429 4.903654,3.090459 11.605847,5.059971 18.359365,5.395093 0.702199,0.03485 1.271731,0.102663 1.271731,0.151435 0,0.226998 1.165885,2.488741 1.718185,3.333174 0.985355,1.506545 2.672545,3.122555 5.588472,5.352715 1.173261,0.897332 3.880741,2.852539 3.950065,2.852539 0.02084,0 0.0072,-0.05202 -0.03016,-0.115614 z"
       id="path1" /></g></svg>
