<?xml version="1.0" encoding="UTF-8" standalone="no"?>
<!-- Created with Inkscape (http://www.inkscape.org/) -->

<svg
   width="350"
   height="25"
   viewBox="0 0 92.604151 6.614583"
   version="1.1"
   id="svg5"
   sodipodi:docname="frekuensi-mikrofon.svg"
   xml:space="preserve"
   inkscape:version="1.2.2 (b0a8486541, 2022-12-01)"
   xmlns:inkscape="http://www.inkscape.org/namespaces/inkscape"
   xmlns:sodipodi="http://sodipodi.sourceforge.net/DTD/sodipodi-0.dtd"
   xmlns="http://www.w3.org/2000/svg"
   xmlns:svg="http://www.w3.org/2000/svg"><sodipodi:namedview
     id="namedview6"
     pagecolor="#000000"
     bordercolor="#111111"
     borderopacity="1"
     inkscape:showpageshadow="0"
     inkscape:pageopacity="0"
     inkscape:pagecheckerboard="1"
     inkscape:deskcolor="#d1d1d1"
     showgrid="false"
     inkscape:zoom="2.8284271"
     inkscape:cx="175.36248"
     inkscape:cy="31.466252"
     inkscape:window-width="1366"
     inkscape:window-height="709"
     inkscape:window-x="0"
     inkscape:window-y="27"
     inkscape:window-maximized="1"
     inkscape:current-layer="svg5" /><defs
     id="defs2"><inkscape:path-effect
       effect="tiling"
       id="path-effect2056"
       is_visible="true"
       lpeversion="1"
       unit="px"
       seed="1;1"
       lpesatellites=""
       num_rows="1"
       num_cols="5"
       gapx="3"
       gapy="0"
       offset="0"
       offset_type="false"
       scale="0"
       rotate="0"
       mirrorrowsx="false"
       mirrorrowsy="false"
       mirrorcolsx="false"
       mirrorcolsy="false"
       mirrortrans="false"
       shrink_interp="false"
       split_items="false"
       link_styles="false"
       interpolate_scalex="false"
       interpolate_scaley="true"
       interpolate_rotatex="false"
       interpolate_rotatey="true"
       random_scale="false"
       random_rotate="false"
       random_gap_y="false"
       random_gap_x="false"
       transformorigin="" /><inkscape:path-effect
       effect="tiling"
       id="path-effect1935"
       is_visible="true"
       lpeversion="1"
       unit="px"
       seed="1;1"
       lpesatellites=""
       num_rows="1"
       num_cols="5"
       gapx="3"
       gapy="0"
       offset="0"
       offset_type="false"
       scale="0"
       rotate="0"
       mirrorrowsx="false"
       mirrorrowsy="false"
       mirrorcolsx="false"
       mirrorcolsy="false"
       mirrortrans="false"
       shrink_interp="false"
       split_items="false"
       link_styles="false"
       interpolate_scalex="false"
       interpolate_scaley="true"
       interpolate_rotatex="false"
       interpolate_rotatey="true"
       random_scale="false"
       random_rotate="false"
       random_gap_y="false"
       random_gap_x="false"
       transformorigin="" /></defs><path
     style="fill:#ffffff;fill-opacity:0.994634;stroke-width:0.264583;stroke-linecap:square;stroke-linejoin:round;stroke-dashoffset:0.1;paint-order:stroke fill markers"
     id="rect341"
     width="1.1243715"
     height="3.187274"
     x="3.7442598"
     y="1.6509901"
     ry="0"
     inkscape:path-effect="#path-effect1935"
     class="UnoptimicedTransforms"
     d="m 3.7442598,1.6509901 h 1.1243716 v 3.187274 H 3.7442598 Z m 4.1243716,0 h 1.1243715 v 3.187274 H 7.8686314 Z m 4.1243716,0 h 1.124371 v 3.187274 h -1.124371 z m 4.124371,0 h 1.124372 v 3.187274 h -1.124372 z m 4.124372,0 h 1.124371 v 3.187274 h -1.124371 z"
     sodipodi:type="rect"
     transform="translate(48.447872,0.06266419)" /><path
     style="fill:#fffffd;fill-opacity:1;stroke-width:0.999999"
     d="M 45.202532,6.4787557 V 6.3429294 h 0.478626 0.478626 V 5.9248442 5.506759 L 46.045758,5.4915774 C 45.099896,5.3656445 44.374639,4.5443835 44.374639,3.5992472 V 3.4453027 h 0.134017 0.134017 l 0.0069,0.1778677 c 0.0074,0.1890492 0.03075,0.3258975 0.08186,0.4792253 0.191071,0.5731674 0.694322,1.0039751 1.295205,1.1087604 0.141854,0.024737 0.408954,0.024737 0.550807,0 0.521544,-0.09095 0.966725,-0.4214378 1.204451,-0.8941464 0.112396,-0.2234953 0.16206,-0.4231234 0.172616,-0.6938393 l 0.0069,-0.1778677 h 0.134017 0.134017 v 0.1539445 c 0,0.4543768 -0.172958,0.9038686 -0.484781,1.2598713 C 47.44152,5.2052141 46.98257,5.4450356 46.52515,5.4963689 l -0.08085,0.00907 v 0.4187438 0.4187437 h 0.478626 0.478626 V 6.4787557 6.6145819 H 46.302079 45.202532 Z M 46.168563,4.6739268 C 45.93486,4.6455965 45.72052,4.5421819 45.540621,4.3709565 45.398746,4.2359216 45.314301,4.1003416 45.246082,3.8980569 L 45.209,3.7881023 V 2.3457568 0.90341136 l 0.02971,-0.1026043 C 45.345722,0.43125861 45.626416,0.14846425 45.998568,0.03526602 46.101948,0.00382056 46.13483,0 46.302079,0 c 0.167249,0 0.20013,0.00382037 0.30351,0.03526602 0.308462,0.09382548 0.541773,0.2897643 0.67946,0.5706212 0.1188,0.24233296 0.110108,0.10497995 0.110108,1.73986958 v 1.4423455 l -0.04173,0.1228905 c -0.17276,0.5086875 -0.665407,0.8259044 -1.184864,0.762934 z m 0.327553,-0.2915131 c 0.226161,-0.053145 0.439213,-0.2232922 0.541702,-0.4326135 0.09669,-0.1974853 0.09327,-0.1338358 0.08926,-1.6598314 l -0.0036,-1.36068574 -0.03466,-0.0948834 C 46.977321,0.52910272 46.728141,0.32299532 46.413829,0.27606476 c -0.346357,-0.0517154 -0.700306,0.13897439 -0.85676,0.46157951 -0.08474,0.17472238 -0.08241,0.12965086 -0.08266,1.60280943 -2.15e-4,1.2853013 6.98e-4,1.3371645 0.02529,1.4332966 0.07556,0.2954493 0.316702,0.5389461 0.602036,0.607924 0.102865,0.024867 0.290214,0.025218 0.394385,7.397e-4 z"
     id="path1949" /><path
     style="fill:#ffffff;fill-opacity:0.994634;stroke-width:0.264583;stroke-linecap:square;stroke-linejoin:round;stroke-dashoffset:0.1;paint-order:stroke fill markers"
     id="path2052"
     width="1.1243715"
     height="3.187274"
     x="3.7442598"
     y="1.6509901"
     ry="0"
     inkscape:path-effect="#path-effect2056"
     class="UnoptimicedTransforms"
     d="m 3.7442598,1.6509901 h 1.1243716 v 3.187274 H 3.7442598 Z m 4.1243716,0 h 1.1243715 v 3.187274 H 7.8686314 Z m 4.1243716,0 h 1.124371 v 3.187274 h -1.124371 z m 4.124371,0 h 1.124372 v 3.187274 h -1.124372 z m 4.124372,0 h 1.124371 v 3.187274 h -1.124371 z"
     sodipodi:type="rect"
     transform="matrix(-1,0,0,1,44.156213,0.06266419)" /></svg>
